<svg xmlns="http://www.w3.org/2000/svg" width="85" height="74" viewBox="0 0 85 74">
  <g id="Grupo_1100153" data-name="Grupo 1100153" transform="translate(-180.051 -4581)">
    <rect id="Rectángulo_401478" data-name="Rectángulo 401478" width="85" height="74" rx="8" transform="translate(180.051 4581)" fill="#e8faf9"/>
    <g id="calendar-time" transform="translate(201 4593.757)">
      <path id="Trazado_874192" data-name="Trazado 874192" d="M42.816,7.789v4.778H1.746V7.789A1.475,1.475,0,0,1,3.22,6.312H8.26V9.244H9.735V6.312H14.9V9.244h1.474V6.312h5.168V9.244h1.474V6.312h5.168V9.244H29.66V6.312h5.168V9.244H36.3V6.312h5.044A1.474,1.474,0,0,1,42.816,7.789Z" transform="translate(-0.272 -0.756)" fill="#dfbba0"/>
      <path id="Trazado_874193" data-name="Trazado 874193" d="M44.37,29.848A13.065,13.065,0,1,0,57.435,42.913,13.08,13.08,0,0,0,44.37,29.848Zm5.291,13.8h-3.33a2.1,2.1,0,1,1-2.7-2.7v-6.7h1.477v6.7a2.1,2.1,0,0,1,1.223,1.223h3.33v1.477Z" transform="translate(-4.875 -4.421)" fill="#a6eae8"/>
      <g id="Grupo_1099931" data-name="Grupo 1099931" transform="translate(38.932 25.427)">
        <path id="Trazado_874194" data-name="Trazado 874194" d="M47.426,29.848c-.443,0-.881.023-1.313.066a13.066,13.066,0,0,1,0,26c.431.043.87.066,1.313.066a13.065,13.065,0,0,0,0-26.13Z" transform="translate(-46.113 -29.848)" fill="#9ac1b1"/>
      </g>
      <path id="Trazado_874195" data-name="Trazado 874195" d="M41.07,4.082H36.026V1.457H34.552V4.082H29.384V1.457H27.91V4.082H22.742V1.457H21.268V4.082H16.1V1.457H14.626V4.082H9.458V1.457H7.988V4.082H2.947A2.948,2.948,0,0,0,0,7.033V39.726a2.952,2.952,0,0,0,2.947,2.947H23.4c-.127-.487-.229-.975-.312-1.474H2.947a1.479,1.479,0,0,1-1.474-1.474V13.285h41.07v8.862a12.547,12.547,0,0,1,1.474.341V7.033A2.953,2.953,0,0,0,41.07,4.082Zm1.474,7.729H1.474V7.033A1.475,1.475,0,0,1,2.948,5.556h5.04V8.488H9.463V5.556h5.168V8.488H16.1V5.556h5.168V8.488h1.474V5.556h5.168V8.488h1.474V5.556h5.168V8.488H36.03V5.556h5.044a1.475,1.475,0,0,1,1.474,1.477V11.81ZM11.914,23.785v1.474h4.807V23.785Zm0,5.159v1.474h4.807V28.944Zm0-11.058V19.36h4.807V17.886Zm23.359,0V19.36h4.815V17.886Zm-7.785,0V19.36H32.3V17.886Zm0,5.9v1.474h1.938a15.951,15.951,0,0,1,2.314-1.474ZM19.7,34.843v1.474h3.308c.06-.5.15-.986.258-1.474Zm0-5.9v1.474H24.51V28.944Zm0-5.159v1.474H24.51V23.785Zm0-5.9V19.36H24.51V17.886Zm-15.574,0V19.36H8.936V17.886Zm0,5.9v1.474H8.936V23.785Zm0,5.159v1.474H8.936V28.944Zm37.328,8.809a2.1,2.1,0,0,0-1.223-1.223v-6.7H38.757v6.7a2.1,2.1,0,1,0,2.7,2.7h3.33V37.753h-3.33ZM39.5,39.122a.63.63,0,1,1,.63-.63A.634.634,0,0,1,39.5,39.122Zm1.961-1.369a2.1,2.1,0,0,0-1.223-1.223v-6.7H38.757v6.7a2.1,2.1,0,1,0,2.7,2.7h3.33V37.753h-3.33ZM39.5,39.122a.63.63,0,1,1,.63-.63A.634.634,0,0,1,39.5,39.122Zm0-15.169A14.538,14.538,0,1,0,54.034,38.492,14.554,14.554,0,0,0,39.5,23.953Zm0,27.6A13.065,13.065,0,1,1,52.561,38.492,13.08,13.08,0,0,1,39.5,51.557Zm.739-15.026v-6.7H38.757v6.7a2.1,2.1,0,1,0,2.7,2.7h3.33V37.753h-3.33A2.094,2.094,0,0,0,40.234,36.531ZM39.5,39.122a.63.63,0,1,1,.63-.63A.634.634,0,0,1,39.5,39.122Zm1.961-1.369a2.1,2.1,0,0,0-1.223-1.223v-6.7H38.757v6.7a2.1,2.1,0,1,0,2.7,2.7h3.33V37.753h-3.33ZM39.5,39.122a.63.63,0,1,1,.63-.63A.634.634,0,0,1,39.5,39.122Zm1.961-1.369a2.1,2.1,0,0,0-1.223-1.223v-6.7H38.757v6.7a2.1,2.1,0,1,0,2.7,2.7h3.33V37.753h-3.33ZM39.5,39.122a.63.63,0,1,1,.63-.63A.634.634,0,0,1,39.5,39.122Z" fill="#47705d"/>
    </g>
  </g>
</svg>
