<svg xmlns="http://www.w3.org/2000/svg" xmlns:xlink="http://www.w3.org/1999/xlink" width="96.762" height="96.762" viewBox="0 0 96.762 96.762">
  <defs>
    <clipPath id="clip-path">
      <rect id="Rectángulo_401493" data-name="Rectángulo 401493" width="47" height="47" transform="translate(0 0.334)" fill="#160b2f"/>
    </clipPath>
  </defs>
  <g id="Grupo_1099960" data-name="Grupo 1099960" transform="translate(-332.051 -5915.718)">
    <rect id="Rectángulo_400907" data-name="Rectángulo 400907" width="89" height="89" rx="44.5" transform="translate(336.051 5918.718)" fill="none"/>
    <g id="Grupo_1099176" data-name="Grupo 1099176" transform="translate(5.27 1939.718)">
      <g id="Grupo_1099174" data-name="Grupo 1099174" transform="translate(326.781 3976)">
        <g id="Grupo_1099167" data-name="Grupo 1099167" transform="translate(0 0)">
          <path id="Trazado_873000" data-name="Trazado 873000" d="M48.381,0h0V22.476a25.9,25.9,0,1,0,25.905,25.9H96.762A48.381,48.381,0,1,1,48.381,0" transform="translate(0 96.762) rotate(-90)" fill="#201144"/>
        </g>
        <rect id="Rectángulo_401249" data-name="Rectángulo 401249" width="66.409" height="66.409" rx="33.204" transform="translate(15.157 15.157)" fill="#e8faf9"/>
      </g>
    </g>
    <g id="Grupo_1099946" data-name="Grupo 1099946" transform="translate(357.051 5939.666)">
      <g id="Grupo_1099945" data-name="Grupo 1099945" clip-path="url(#clip-path)">
        <path id="Trazado_874213" data-name="Trazado 874213" d="M27.833,24.667A11.833,11.833,0,1,1,39.667,12.833,11.847,11.847,0,0,1,27.833,24.667m0-22.188A10.354,10.354,0,1,0,38.188,12.833,10.366,10.366,0,0,0,27.833,2.479" transform="translate(-4.167 -0.26)" fill="#160b2f"/>
        <path id="Trazado_874214" data-name="Trazado 874214" d="M30.345,21.073c-4.648,0-4.7-3.478-4.7-3.513a.74.74,0,0,1,1.479,0c0,.2.142,2.034,3.222,2.034,3.222,0,3.222-1.478,3.222-2.034,0-1.314-1.072-1.647-3.35-2.045-2.038-.356-4.574-.8-4.574-3.5,0-1.312.611-3.513,4.7-3.513,4.648,0,4.7,3.478,4.7,3.513a.74.74,0,0,1-1.479.008c-.005-.217-.149-2.042-3.222-2.042-3.222,0-3.222,1.478-3.222,2.034,0,1.314,1.072,1.647,3.35,2.045,2.038.356,4.574.8,4.574,3.5,0,1.312-.611,3.513-4.7,3.513" transform="translate(-6.678 -2.213)" fill="#160b2f"/>
        <path id="Trazado_874215" data-name="Trazado 874215" d="M31.74,9.142A.739.739,0,0,1,31,8.4V6.026a.74.74,0,0,1,1.479,0V8.4a.739.739,0,0,1-.74.74" transform="translate(-8.073 -1.377)" fill="#160b2f"/>
        <path id="Trazado_874216" data-name="Trazado 874216" d="M31.74,27.356a.739.739,0,0,1-.74-.74V24.24a.74.74,0,1,1,1.479,0v2.377a.739.739,0,0,1-.74.74" transform="translate(-8.073 -6.12)" fill="#160b2f"/>
        <path id="Trazado_874217" data-name="Trazado 874217" d="M12.74,61.656a.739.739,0,0,1-.523-1.262A21.508,21.508,0,0,1,26.792,55a.74.74,0,0,1,0,1.479,20.409,20.409,0,0,0-13.53,4.961.737.737,0,0,1-.522.215" transform="translate(-3.125 -14.322)" fill="#160b2f"/>
        <path id="Trazado_874218" data-name="Trazado 874218" d="M45.792,61.656a.737.737,0,0,1-.522-.215,20.409,20.409,0,0,0-13.53-4.961.74.74,0,1,1,0-1.479,21.508,21.508,0,0,1,14.575,5.394.739.739,0,0,1-.523,1.262" transform="translate(-8.073 -14.322)" fill="#160b2f"/>
        <path id="Trazado_874219" data-name="Trazado 874219" d="M31.74,49.833a.739.739,0,0,1-.74-.74c0-5.131,10.546-9.749,13.778-11.041a.74.74,0,1,1,.549,1.374c-6.395,2.558-12.847,6.539-12.847,9.667a.739.739,0,0,1-.74.74" transform="translate(-8.073 -9.895)" fill="#160b2f"/>
        <path id="Trazado_874220" data-name="Trazado 874220" d="M31.74,50.229a.739.739,0,0,1-.74-.74V31.74a.74.74,0,1,1,1.479,0V49.49a.739.739,0,0,1-.74.74" transform="translate(-8.073 -8.073)" fill="#160b2f"/>
        <path id="Trazado_874221" data-name="Trazado 874221" d="M43.934,45.849a17.5,17.5,0,0,1-8.579-2.74.74.74,0,0,1-.365-.567c-.032-.321-.723-7.91,4.807-11.07,3.082-1.761,6.2-1.555,8.956-1.371a13.455,13.455,0,0,0,5.929-.449.74.74,0,0,1,1.01.758c-.251,2.614-1.531,11.381-7.447,14.424a9.286,9.286,0,0,1-4.31,1.015m-7.5-3.824c4.455,2.5,8.2,3,11.128,1.494,4.609-2.372,6.073-8.925,6.519-12.129a18,18,0,0,1-5.432.187c-2.671-.175-5.428-.359-8.124,1.18-4.073,2.327-4.148,7.794-4.091,9.268" transform="translate(-9.1 -7.708)" fill="#160b2f"/>
        <path id="Trazado_874222" data-name="Trazado 874222" d="M27,45.792a.739.739,0,0,1-.74-.74c0-3.339-4.407-7.6-13.1-12.674A.74.74,0,0,1,13.9,31.1c9.309,5.431,13.834,9.993,13.834,13.952a.739.739,0,0,1-.74.74" transform="translate(-3.331 -8.073)" fill="#160b2f"/>
        <path id="Trazado_874223" data-name="Trazado 874223" d="M15.019,38.165a11.792,11.792,0,0,1-8.107-2.752C1.333,30.472,2.429,20.57,2.705,18.635a.74.74,0,0,1,1.255-.419c1.322,1.322,2.98,1.657,5.275,2.12a32.024,32.024,0,0,1,5.574,1.515.74.74,0,0,1-.535,1.38,30.728,30.728,0,0,0-5.332-1.446A13.759,13.759,0,0,1,4.02,20.159c-.283,3.213-.368,10.392,3.872,14.147,2.9,2.565,7.357,3.058,13.258,1.47a.74.74,0,1,1,.385,1.428,25.277,25.277,0,0,1-6.516.961" transform="translate(-0.634 -4.687)" fill="#160b2f"/>
      </g>
    </g>
  </g>
</svg>
