<svg xmlns="http://www.w3.org/2000/svg" xmlns:xlink="http://www.w3.org/1999/xlink" width="96.762" height="96.762" viewBox="0 0 96.762 96.762">
  <defs>
    <clipPath id="clip-path">
      <rect id="Rect치ngulo_401496" data-name="Rect치ngulo 401496" width="46" height="46" transform="translate(0.051)" fill="#160b2f"/>
    </clipPath>
  </defs>
  <g id="Grupo_1099962" data-name="Grupo 1099962" transform="translate(-1173.051 -5915.718)">
    <g id="Grupo_1099178" data-name="Grupo 1099178" transform="translate(846.27 1939.718)">
      <g id="Grupo_1099174" data-name="Grupo 1099174" transform="translate(326.781 3976)">
        <g id="Grupo_1099167" data-name="Grupo 1099167" transform="translate(0 0)">
          <path id="Trazado_873000" data-name="Trazado 873000" d="M48.381,0h0V22.476a25.9,25.9,0,1,0,25.905,25.9H96.762A48.381,48.381,0,1,1,48.381,0" transform="translate(0 96.762) rotate(-90)" fill="#201144"/>
        </g>
        <rect id="Rect치ngulo_401249" data-name="Rect치ngulo 401249" width="66.409" height="66.409" rx="33.204" transform="translate(15.157 15.157)" fill="#e8faf9"/>
      </g>
    </g>
    <g id="Grupo_1099953" data-name="Grupo 1099953" transform="translate(1201 5941)">
      <g id="Grupo_1099952" data-name="Grupo 1099952" clip-path="url(#clip-path)">
        <path id="Trazado_874252" data-name="Trazado 874252" d="M38.025,60.1a.719.719,0,0,1-.72-.72V56.507H15.72a.72.72,0,0,1,0-1.439H38.025a.719.719,0,0,1,.72.72v2.167l10.364-7.7a.72.72,0,1,1,.859,1.155L38.455,59.963a.718.718,0,0,1-.43.142" transform="translate(-4.207 -14.054)" fill="#160b2f"/>
        <path id="Trazado_874253" data-name="Trazado 874253" d="M54.305,48.216a.719.719,0,0,1-.429-.142l-10.364-7.7v2.166a.719.719,0,0,1-.72.72H32.72a.72.72,0,0,1,0-1.439h9.354V38.942a.72.72,0,0,1,1.149-.577l11.513,8.554a.72.72,0,0,1-.43,1.3" transform="translate(-8.975 -10.72)" fill="#160b2f"/>
        <path id="Trazado_874254" data-name="Trazado 874254" d="M10.793,28.074C4.64,28.074,0,25.908,0,23.037S4.64,18,10.793,18s10.793,2.166,10.793,5.037-4.64,5.037-10.793,5.037m0-8.635c-5.512,0-9.354,1.9-9.354,3.6s3.842,3.6,9.354,3.6,9.354-1.9,9.354-3.6-3.842-3.6-9.354-3.6" transform="translate(0 -5.048)" fill="#160b2f"/>
        <path id="Trazado_874255" data-name="Trazado 874255" d="M10.793,29.756C4.64,29.756,0,27.591,0,24.72a.72.72,0,0,1,1.439,0c0,1.7,3.842,3.6,9.354,3.6s9.354-1.9,9.354-3.6a.72.72,0,0,1,1.439,0c0,2.871-4.64,5.037-10.793,5.037" transform="translate(0 -6.731)" fill="#160b2f"/>
        <path id="Trazado_874256" data-name="Trazado 874256" d="M10.793,29.756C4.64,29.756,0,27.591,0,24.72a.72.72,0,0,1,1.439,0c0,1.7,3.842,3.6,9.354,3.6s9.354-1.9,9.354-3.6a.72.72,0,0,1,1.439,0c0,2.871-4.64,5.037-10.793,5.037" transform="translate(0 -6.731)" fill="#160b2f"/>
        <path id="Trazado_874257" data-name="Trazado 874257" d="M10.793,35.756C4.64,35.756,0,33.591,0,30.72a.72.72,0,0,1,1.439,0c0,1.7,3.842,3.6,9.354,3.6s9.354-1.9,9.354-3.6a.72.72,0,0,1,1.439,0c0,2.871-4.64,5.037-10.793,5.037" transform="translate(0 -8.414)" fill="#160b2f"/>
        <path id="Trazado_874258" data-name="Trazado 874258" d="M10.793,41.756C4.64,41.756,0,39.591,0,36.72a.72.72,0,0,1,1.439,0c0,1.7,3.842,3.6,9.354,3.6s9.354-1.9,9.354-3.6a.72.72,0,0,1,1.439,0c0,2.871-4.64,5.037-10.793,5.037" transform="translate(0 -10.096)" fill="#160b2f"/>
        <path id="Trazado_874259" data-name="Trazado 874259" d="M10.793,47.756C4.64,47.756,0,45.591,0,42.72a.72.72,0,0,1,1.439,0c0,1.7,3.842,3.6,9.354,3.6s9.354-1.9,9.354-3.6a.72.72,0,0,1,1.439,0c0,2.871-4.64,5.037-10.793,5.037" transform="translate(0 -11.779)" fill="#160b2f"/>
        <path id="Trazado_874260" data-name="Trazado 874260" d="M28.72,38.391a.719.719,0,0,1-.72-.72V24.72a.72.72,0,0,1,1.439,0V37.671a.719.719,0,0,1-.72.72" transform="translate(-7.853 -6.731)" fill="#160b2f"/>
        <path id="Trazado_874261" data-name="Trazado 874261" d="M30.793,11.756C24.64,11.756,20,9.591,20,6.72a.72.72,0,0,1,1.439,0c0,1.7,3.842,3.6,9.354,3.6s9.354-1.9,9.354-3.6a.72.72,0,0,1,1.439,0c0,2.871-4.64,5.037-10.793,5.037" transform="translate(-5.609 -1.683)" fill="#160b2f"/>
        <path id="Trazado_874262" data-name="Trazado 874262" d="M40.867,5.756a.719.719,0,0,1-.72-.72c0-1.7-3.842-3.6-9.354-3.6s-9.354,1.9-9.354,3.6a.72.72,0,0,1-1.439,0C20,2.166,24.64,0,30.793,0S41.586,2.166,41.586,5.037a.719.719,0,0,1-.72.72" transform="translate(-5.609)" fill="#160b2f"/>
        <path id="Trazado_874263" data-name="Trazado 874263" d="M26.3,18.045a.743.743,0,0,1-.176-.022,11.6,11.6,0,0,1-3.7-1.557.719.719,0,0,1,.818-1.184,10.183,10.183,0,0,0,3.232,1.345.72.72,0,0,1-.175,1.418" transform="translate(-6.201 -4.25)" fill="#160b2f"/>
        <path id="Trazado_874264" data-name="Trazado 874264" d="M32.735,17.756a21.966,21.966,0,0,1-5.266-.617.72.72,0,0,1,.351-1.4,20.485,20.485,0,0,0,4.914.574c5.512,0,9.354-1.9,9.354-3.6a.72.72,0,0,1,1.439,0c0,2.871-4.64,5.037-10.793,5.037" transform="translate(-7.551 -3.365)" fill="#160b2f"/>
        <path id="Trazado_874265" data-name="Trazado 874265" d="M22.236,15.709a.72.72,0,0,1-.408-.127A3.514,3.514,0,0,1,20,12.72a.72.72,0,0,1,1.439,0c0,.7.656,1.3,1.207,1.678a.72.72,0,0,1-.409,1.312" transform="translate(-5.609 -3.365)" fill="#160b2f"/>
        <path id="Trazado_874266" data-name="Trazado 874266" d="M20.72,11.756a.719.719,0,0,1-.72-.72V6.72a.72.72,0,0,1,1.439,0v4.317a.719.719,0,0,1-.72.72" transform="translate(-5.609 -1.683)" fill="#160b2f"/>
        <path id="Trazado_874267" data-name="Trazado 874267" d="M48.72,17.756a.719.719,0,0,1-.72-.72V12.72a.72.72,0,0,1,1.439,0v4.317a.719.719,0,0,1-.72.72" transform="translate(-13.462 -3.365)" fill="#160b2f"/>
        <path id="Trazado_874268" data-name="Trazado 874268" d="M48.72,23.756a.719.719,0,0,1-.72-.72V18.72a.72.72,0,0,1,1.439,0v4.317a.719.719,0,0,1-.72.72" transform="translate(-13.462 -5.048)" fill="#160b2f"/>
        <path id="Trazado_874269" data-name="Trazado 874269" d="M48.72,11.756a.719.719,0,0,1-.72-.72V6.72a.72.72,0,0,1,1.439,0v4.317a.719.719,0,0,1-.72.72" transform="translate(-13.462 -1.683)" fill="#160b2f"/>
        <path id="Trazado_874270" data-name="Trazado 874270" d="M48.72,29.756a.719.719,0,0,1-.72-.72V24.72a.72.72,0,0,1,1.439,0v4.317a.719.719,0,0,1-.72.72" transform="translate(-13.462 -6.731)" fill="#160b2f"/>
        <path id="Trazado_874271" data-name="Trazado 874271" d="M20.72,18.172a.719.719,0,0,1-.72-.72V12.72a.72.72,0,0,1,1.439,0v4.733a.719.719,0,0,1-.72.72" transform="translate(-5.609 -3.365)" fill="#160b2f"/>
        <path id="Trazado_874272" data-name="Trazado 874272" d="M.72,39.391a.719.719,0,0,1-.72-.72V25.72a.72.72,0,0,1,1.439,0V38.671a.719.719,0,0,1-.72.72" transform="translate(0 -7.011)" fill="#160b2f"/>
        <path id="Trazado_874273" data-name="Trazado 874273" d="M34.19,23.756c-.481,0-.947-.022-1.407-.053a.721.721,0,0,1-.671-.766.733.733,0,0,1,.766-.67c.428.029.863.05,1.311.05,5.512,0,9.354-1.9,9.354-3.6a.72.72,0,0,1,1.439,0c0,2.871-4.64,5.037-10.793,5.037" transform="translate(-9.006 -5.048)" fill="#160b2f"/>
        <path id="Trazado_874274" data-name="Trazado 874274" d="M34.19,29.756c-.481,0-.947-.023-1.407-.053a.721.721,0,0,1-.671-.766.73.73,0,0,1,.766-.67c.428.029.863.05,1.311.05,5.512,0,9.354-1.9,9.354-3.6a.72.72,0,0,1,1.439,0c0,2.871-4.64,5.037-10.793,5.037" transform="translate(-9.006 -6.731)" fill="#160b2f"/>
        <path id="Trazado_874275" data-name="Trazado 874275" d="M34.19,35.756c-.481,0-.947-.023-1.407-.053a.721.721,0,0,1-.671-.766.734.734,0,0,1,.766-.67c.428.029.863.05,1.311.05,5.512,0,9.354-1.9,9.354-3.6a.72.72,0,0,1,1.439,0c0,2.871-4.64,5.037-10.793,5.037" transform="translate(-9.006 -8.414)" fill="#160b2f"/>
        <path id="Trazado_874276" data-name="Trazado 874276" d="M8.037,58.328H3.72a.72.72,0,0,1,0-1.439H8.037a.72.72,0,1,1,0,1.439" transform="translate(-0.841 -15.955)" fill="#160b2f"/>
      </g>
    </g>
  </g>
</svg>
