<svg xmlns="http://www.w3.org/2000/svg" xmlns:xlink="http://www.w3.org/1999/xlink" width="96.762" height="96.762" viewBox="0 0 96.762 96.762">
  <defs>
    <clipPath id="clip-path">
      <rect id="Rectángulo_401497" data-name="Rectángulo 401497" width="55.378" height="42.73" fill="#160b2f"/>
    </clipPath>
  </defs>
  <g id="Grupo_1099959" data-name="Grupo 1099959" transform="translate(-541.5 -6491.496)">
    <rect id="Rectángulo_401485" data-name="Rectángulo 401485" width="89" height="89" rx="44.5" transform="translate(545.5 6494.496)" fill="none"/>
    <g id="Grupo_1099935" data-name="Grupo 1099935" transform="translate(214.719 2515.496)">
      <g id="Grupo_1099174" data-name="Grupo 1099174" transform="translate(326.781 3976)">
        <g id="Grupo_1099167" data-name="Grupo 1099167" transform="translate(0 0)">
          <path id="Trazado_873000" data-name="Trazado 873000" d="M48.381,0h0V22.476a25.9,25.9,0,1,0,25.905,25.9H96.762A48.381,48.381,0,1,1,48.381,0" transform="translate(0 96.762) rotate(-90)" fill="#201144"/>
        </g>
        <rect id="Rectángulo_401249" data-name="Rectángulo 401249" width="66.409" height="66.409" rx="33.204" transform="translate(15.157 15.157)" fill="#e8faf9"/>
      </g>
    </g>
    <g id="Grupo_1099955" data-name="Grupo 1099955" transform="translate(562.047 6518.84)">
      <g id="Grupo_1099954" data-name="Grupo 1099954" transform="translate(0 0)" clip-path="url(#clip-path)">
        <path id="Trazado_874277" data-name="Trazado 874277" d="M20.6,36.439a.865.865,0,0,1-.372-1.646l14.728-7a.865.865,0,1,1,.741,1.563l-14.727,7a.856.856,0,0,1-.37.084" transform="translate(-2.661 -3.736)" fill="#160b2f"/>
        <path id="Trazado_874278" data-name="Trazado 874278" d="M17.941,32.7a.861.861,0,0,1-.538-.189L.326,18.916a.865.865,0,0,1,.168-1.458L37.065.083a.866.866,0,0,1,.91.1l17.077,13.6a.865.865,0,1,1-1.079,1.353L37.319,1.877,2.488,18.426,18.481,31.162a.865.865,0,0,1-.54,1.542" transform="translate(0 0)" fill="#160b2f"/>
        <path id="Trazado_874279" data-name="Trazado 874279" d="M46.715,24.089a.865.865,0,0,1-.372-1.646L60.323,15.8a.865.865,0,0,1,.741,1.563L47.085,24a.856.856,0,0,1-.37.084" transform="translate(-6.181 -2.119)" fill="#160b2f"/>
        <path id="Trazado_874280" data-name="Trazado 874280" d="M46.3,25.293a.865.865,0,0,1-.373-1.646l.355-.17a.866.866,0,0,1,.744,1.563l-.355.169a.862.862,0,0,1-.371.084" transform="translate(-6.125 -3.154)" fill="#160b2f"/>
        <path id="Trazado_874281" data-name="Trazado 874281" d="M32.755,25.566a.861.861,0,0,1-.538-.189L20.369,15.943a.865.865,0,1,1,1.078-1.354L33.3,24.024a.865.865,0,0,1-.54,1.542" transform="translate(-2.702 -1.942)" fill="#160b2f"/>
        <path id="Trazado_874282" data-name="Trazado 874282" d="M37.629,29.447a.867.867,0,1,1,.551-1.534l0,0a.865.865,0,0,1-.555,1.531" transform="translate(-4.956 -3.736)" fill="#160b2f"/>
        <path id="Trazado_874283" data-name="Trazado 874283" d="M37.217,29.119a.861.861,0,0,1-.538-.189l-2.615-2.082A.865.865,0,1,1,35.142,25.5l2.615,2.082a.865.865,0,0,1-.54,1.542" transform="translate(-4.548 -3.412)" fill="#160b2f"/>
        <path id="Trazado_874284" data-name="Trazado 874284" d="M20.5,15.808a.861.861,0,0,1-.538-.189l-2.609-2.077a.865.865,0,0,1,1.078-1.354l2.609,2.078a.865.865,0,0,1-.54,1.542" transform="translate(-2.295 -1.618)" fill="#160b2f"/>
        <path id="Trazado_874285" data-name="Trazado 874285" d="M17.941,41a.861.861,0,0,1-.538-.189L.326,27.212A.865.865,0,1,1,1.4,25.859l17.076,13.6A.865.865,0,0,1,17.941,41" transform="translate(0 -3.461)" fill="#160b2f"/>
        <path id="Trazado_874286" data-name="Trazado 874286" d="M46.715,29.678a.865.865,0,0,1-.372-1.646l13.98-6.642a.865.865,0,0,1,.741,1.563L47.085,29.594a.856.856,0,0,1-.37.084" transform="translate(-6.181 -2.873)" fill="#160b2f"/>
        <path id="Trazado_874287" data-name="Trazado 874287" d="M20.6,42.028a.865.865,0,0,1-.372-1.646l14.733-7a.865.865,0,1,1,.741,1.563l-14.733,7a.856.856,0,0,1-.37.084" transform="translate(-2.661 -4.489)" fill="#160b2f"/>
        <path id="Trazado_874288" data-name="Trazado 874288" d="M17.941,47a.861.861,0,0,1-.538-.189L.326,33.212A.865.865,0,1,1,1.4,31.859l17.076,13.6A.865.865,0,0,1,17.941,47" transform="translate(0 -4.27)" fill="#160b2f"/>
        <path id="Trazado_874289" data-name="Trazado 874289" d="M20.6,46.411a.865.865,0,0,1-.372-1.646L56.8,27.389a.865.865,0,1,1,.741,1.563L20.973,46.327a.856.856,0,0,1-.37.084" transform="translate(-2.661 -3.681)" fill="#160b2f"/>
        <path id="Trazado_874290" data-name="Trazado 874290" d="M37.63,34.277a.864.864,0,0,1-.865-.865V28.583a.865.865,0,0,1,1.73,0v4.829a.864.864,0,0,1-.865.865" transform="translate(-4.956 -3.737)" fill="#160b2f"/>
        <path id="Trazado_874291" data-name="Trazado 874291" d="M37.63,40.221a.864.864,0,0,1-.865-.865V34.164a.865.865,0,0,1,1.73,0v5.191a.864.864,0,0,1-.865.865" transform="translate(-4.956 -4.489)" fill="#160b2f"/>
        <path id="Trazado_874292" data-name="Trazado 874292" d="M46.714,35.9a.864.864,0,0,1-.865-.865V29.847a.865.865,0,1,1,1.73,0v5.191a.864.864,0,0,1-.865.865" transform="translate(-6.181 -3.907)" fill="#160b2f"/>
        <path id="Trazado_874293" data-name="Trazado 874293" d="M46.714,29.959a.864.864,0,0,1-.865-.865V24.258a.865.865,0,1,1,1.73,0v4.836a.864.864,0,0,1-.865.865" transform="translate(-6.181 -3.154)" fill="#160b2f"/>
        <path id="Trazado_874294" data-name="Trazado 874294" d="M46.714,25.12a.856.856,0,0,1-.329-.061.864.864,0,0,1-.286-.19.905.905,0,0,1-.251-.606.863.863,0,0,1,.251-.614.867.867,0,0,1,1.229,0,.853.853,0,0,1,.251.614.857.857,0,0,1-.865.857" transform="translate(-6.181 -3.154)" fill="#160b2f"/>
        <path id="Trazado_874295" data-name="Trazado 874295" d="M45.9,25a.861.861,0,0,1-.538-.189l-2.615-2.082a.865.865,0,1,1,1.079-1.353l2.614,2.082A.865.865,0,0,1,45.9,25" transform="translate(-5.718 -2.856)" fill="#160b2f"/>
        <path id="Trazado_874296" data-name="Trazado 874296" d="M46.627,25.576a.861.861,0,0,1-.538-.189l-.324-.258a.865.865,0,0,1,1.078-1.353l.324.258a.865.865,0,0,1-.54,1.542" transform="translate(-6.126 -3.18)" fill="#160b2f"/>
        <path id="Trazado_874297" data-name="Trazado 874297" d="M29.231,11.723a.857.857,0,0,1-.537-.189L26.4,9.711A.866.866,0,0,1,27.48,8.357l2.291,1.825a.865.865,0,0,1-.541,1.542" transform="translate(-3.515 -1.102)" fill="#160b2f"/>
        <path id="Trazado_874298" data-name="Trazado 874298" d="M41.436,21.442a.861.861,0,0,1-.538-.189L29.05,11.819a.865.865,0,1,1,1.078-1.354L41.976,19.9a.865.865,0,0,1-.54,1.542" transform="translate(-3.872 -1.386)" fill="#160b2f"/>
      </g>
    </g>
  </g>
</svg>
