<svg xmlns="http://www.w3.org/2000/svg" xmlns:xlink="http://www.w3.org/1999/xlink" width="96.762" height="96.762" viewBox="0 0 96.762 96.762">
  <defs>
    <clipPath id="clip-path">
      <rect id="Rect치ngulo_401498" data-name="Rect치ngulo 401498" width="50" height="50" transform="translate(0 0.156)" fill="#160b2f"/>
    </clipPath>
  </defs>
  <g id="Grupo_1099958" data-name="Grupo 1099958" transform="translate(-962.5 -6491.496)">
    <g id="Grupo_1099936" data-name="Grupo 1099936" transform="translate(635.719 2515.496)">
      <g id="Grupo_1099174" data-name="Grupo 1099174" transform="translate(326.781 3976)">
        <g id="Grupo_1099167" data-name="Grupo 1099167" transform="translate(0 0)">
          <path id="Trazado_873000" data-name="Trazado 873000" d="M48.381,0h0V22.476a25.9,25.9,0,1,0,25.905,25.9H96.762A48.381,48.381,0,1,1,48.381,0" transform="translate(0 96.762) rotate(-90)" fill="#201144"/>
        </g>
        <rect id="Rect치ngulo_401249" data-name="Rect치ngulo 401249" width="66.409" height="66.409" rx="33.204" transform="translate(15.157 15.157)" fill="#e8faf9"/>
      </g>
    </g>
    <g id="Grupo_1099957" data-name="Grupo 1099957" transform="translate(986.051 6513.844)">
      <g id="Grupo_1099956" data-name="Grupo 1099956" clip-path="url(#clip-path)">
        <path id="Trazado_874299" data-name="Trazado 874299" d="M30.7,47.106c-3.719,0-4.7-2.563-4.7-3.918a.784.784,0,0,1,1.567,0c0,.234.13,2.351,3.135,2.351,2.81,0,3.135-1.342,3.135-2.351,0-1.547-1-1.909-3.288-2.367-1.92-.384-4.549-.91-4.549-3.9C26,35.455,26.61,33,30.7,33c3.719,0,4.7,2.563,4.7,3.918a.784.784,0,0,1-1.567.006c0-.246-.133-2.357-3.135-2.357-2.81,0-3.135,1.342-3.135,2.351,0,1.547,1,1.909,3.288,2.367,1.92.384,4.549.91,4.549,3.9,0,1.463-.61,3.918-4.7,3.918" transform="translate(-5.624 -7.138)" fill="#160b2f"/>
        <path id="Trazado_874300" data-name="Trazado 874300" d="M31.784,33.918A.783.783,0,0,1,31,33.135V30.784a.784.784,0,0,1,1.567,0v2.351a.783.783,0,0,1-.784.784" transform="translate(-6.706 -6.489)" fill="#160b2f"/>
        <path id="Trazado_874301" data-name="Trazado 874301" d="M31.784,52.918A.783.783,0,0,1,31,52.135V49.784a.784.784,0,0,1,1.567,0v2.351a.783.783,0,0,1-.784.784" transform="translate(-6.706 -10.599)" fill="#160b2f"/>
        <path id="Trazado_874302" data-name="Trazado 874302" d="M27.241,53.7C15.478,53.7,10,49.715,10,41.16,10,29.94,21.557,20.565,22.049,20.172a.784.784,0,0,1,.98,1.224c-.114.092-11.461,9.3-11.461,19.764,0,7.69,4.687,10.972,15.674,10.972a.784.784,0,0,1,0,1.567" transform="translate(-2.163 -4.326)" fill="#160b2f"/>
        <path id="Trazado_874303" data-name="Trazado 874303" d="M31.784,53.7a.784.784,0,1,1,0-1.567c10.987,0,15.674-3.281,15.674-10.972C47.458,30.7,36.11,21.488,36,21.4a.784.784,0,0,1,.98-1.224c.492.393,12.049,9.769,12.049,20.988,0,8.555-5.478,12.539-17.241,12.539" transform="translate(-6.706 -4.326)" fill="#160b2f"/>
        <path id="Trazado_874304" data-name="Trazado 874304" d="M30.269,18.351c-4.537,0-5.735-.708-6.04-1.013a.784.784,0,0,1,1.055-1.158c.105.065,1.1.6,4.985.6s4.88-.538,4.985-.6a.784.784,0,0,1,1.055,1.158c-.3.3-1.5,1.013-6.04,1.013" transform="translate(-5.191 -3.461)" fill="#160b2f"/>
        <path id="Trazado_874305" data-name="Trazado 874305" d="M33.358,12.135a.784.784,0,0,1-.487-1.4c1.831-1.446,4.772-4.354,4.868-6a.8.8,0,0,0-.234-.667c-.363-.362-1.851-.038-3.168.248a23.12,23.12,0,0,1-4.9.675,12.072,12.072,0,0,1-3.014-.741c-1.408-.455-3.764-1.215-4.441-.834a.44.44,0,0,0-.247.359c-.22,1.418,2.414,4.97,4.356,7.041a.784.784,0,0,1-1.143,1.072c-.868-.925-5.178-5.675-4.762-8.353A2,2,0,0,1,21.22,2.045c1.273-.71,3.517.013,5.686.712a12.521,12.521,0,0,0,2.533.666,21.477,21.477,0,0,0,4.567-.639c2.036-.441,3.644-.789,4.608.176a2.368,2.368,0,0,1,.69,1.867c-.169,2.884-4.92,6.712-5.462,7.139a.775.775,0,0,1-.484.168" transform="translate(-4.361 -0.379)" fill="#160b2f"/>
      </g>
    </g>
  </g>
</svg>
