<svg xmlns="http://www.w3.org/2000/svg" xmlns:xlink="http://www.w3.org/1999/xlink" width="135" height="119" viewBox="0 0 135 119">
  <defs>
    <clipPath id="clip-path">
      <rect id="Rect치ngulo_401473" data-name="Rect치ngulo 401473" width="91.06" height="92.233" fill="#e8faf9"/>
    </clipPath>
  </defs>
  <g id="Grupo_1099930" data-name="Grupo 1099930" transform="translate(-235.051 -3687)">
    <g id="Grupo_1099928" data-name="Grupo 1099928" transform="translate(245.264 3702.098)">
      <g id="Grupo_1099927" data-name="Grupo 1099927" transform="translate(0 0)" clip-path="url(#clip-path)">
        <path id="Trazado_874176" data-name="Trazado 874176" d="M20.352,33.372a2.058,2.058,0,0,0-.837-1.674,15.19,15.19,0,0,0-2.344-1.172v5.189c2.177-.168,3.181-.837,3.181-2.344" transform="translate(11.452 20.36)" fill="#e8faf9"/>
        <path id="Trazado_874177" data-name="Trazado 874177" d="M52.929,38.766A26.113,26.113,0,1,0,26.816,64.879,26.146,26.146,0,0,0,52.929,38.766M39.37,34.581h4.184v4.186H39.37ZM14.261,38.766H10.077V34.581h4.184Zm5.524,13.892a24.742,24.742,0,0,1-5.189-2.51l3.012-6.026c.168.168.5.335.837.67a18.7,18.7,0,0,0,1.842,1c.837.335,1.675.67,2.679,1.005a19.337,19.337,0,0,0,3.012.668V41.778l-2.007-.67c-1.34-.5-2.68-.837-3.684-1.339a9.325,9.325,0,0,1-2.51-1.674,5.7,5.7,0,0,1-1.507-2.344,8.107,8.107,0,0,1-.5-3.014,10.105,10.105,0,0,1,.837-4.016A9.232,9.232,0,0,1,21.625,23.7a9.943,9.943,0,0,1,3.851-.837V18.511H28.49v4.352a17.985,17.985,0,0,1,5.189,1.172,32.705,32.705,0,0,1,4.184,2.009L34.849,31.9a2.3,2.3,0,0,0-.668-.5,12.2,12.2,0,0,0-1.507-.837c-.67-.335-1.339-.5-2.175-.837a13.186,13.186,0,0,0-2.345-.335v5.859l1.34.333a20.834,20.834,0,0,1,3.851,1.34A12.863,12.863,0,0,1,36.356,38.6a5.483,5.483,0,0,1,1.842,2.51,7.775,7.775,0,0,1,.668,3.516,10.308,10.308,0,0,1-.837,4.184,7.629,7.629,0,0,1-2.342,2.847,10.486,10.486,0,0,1-3.349,1.674A26.406,26.406,0,0,1,28.49,54V59.02H25.476V54a35,35,0,0,1-5.691-1.34" transform="translate(0.468 8.439)" fill="#e8faf9"/>
        <path id="Trazado_874178" data-name="Trazado 874178" d="M14.158,25.038a1.94,1.94,0,0,0,.67,1.674A8.416,8.416,0,0,0,17,27.883V22.694c-1.84,0-2.845.838-2.845,2.344" transform="translate(9.443 15.136)" fill="#e8faf9"/>
        <path id="Trazado_874179" data-name="Trazado 874179" d="M58.213,38.766A26.147,26.147,0,0,0,32.1,12.652H30.427a28.29,28.29,0,0,1,0,52.227H32.1A26.038,26.038,0,0,0,58.213,38.766" transform="translate(20.293 8.439)" fill="#e8faf9"/>
        <path id="Trazado_874180" data-name="Trazado 874180" d="M65.744,38.766A26.147,26.147,0,0,0,39.632,12.652H37.958a28.29,28.29,0,0,1,0,52.227h1.674A26.038,26.038,0,0,0,65.744,38.766" transform="translate(25.316 8.439)" fill="#e8faf9"/>
        <path id="Trazado_874181" data-name="Trazado 874181" d="M50.682,38.766A26.147,26.147,0,0,0,24.569,12.652H22.894A28.278,28.278,0,0,1,40.305,38.766,28.45,28.45,0,0,1,22.894,64.879h1.675A26.038,26.038,0,0,0,50.682,38.766" transform="translate(15.269 8.439)" fill="#e8faf9"/>
        <path id="Trazado_874182" data-name="Trazado 874182" d="M10.912,49.1A5.189,5.189,0,1,0,16.1,54.293,5.214,5.214,0,0,0,10.912,49.1" transform="translate(3.818 32.75)" fill="#e8faf9"/>
        <path id="Trazado_874183" data-name="Trazado 874183" d="M43.315,12.722a6.361,6.361,0,1,0-6.361-6.361,6.467,6.467,0,0,0,6.361,6.361" transform="translate(24.646 0.001)" fill="#e8faf9"/>
        <path id="Trazado_874184" data-name="Trazado 874184" d="M3.38,1.908A2.176,2.176,0,1,1,1.205,4.085,2.175,2.175,0,0,1,3.38,1.908" transform="translate(0.804 1.273)" fill="#e8faf9"/>
        <path id="Trazado_874185" data-name="Trazado 874185" d="M12.218,4.418a2.176,2.176,0,1,1-2.177,2.175,2.177,2.177,0,0,1,2.177-2.175" transform="translate(6.697 2.947)" fill="#e8faf9"/>
        <path id="Trazado_874186" data-name="Trazado 874186" d="M27.279,1.908A2.176,2.176,0,1,1,25.1,4.085a2.175,2.175,0,0,1,2.175-2.177" transform="translate(16.743 1.273)" fill="#e8faf9"/>
        <path id="Trazado_874187" data-name="Trazado 874187" d="M52.386,6.929a2.176,2.176,0,1,1-2.177,2.177,2.176,2.176,0,0,1,2.177-2.177" transform="translate(33.486 4.622)" fill="#e8faf9"/>
        <path id="Trazado_874188" data-name="Trazado 874188" d="M49.875,47.1A2.176,2.176,0,1,1,47.7,49.271,2.177,2.177,0,0,1,49.875,47.1" transform="translate(31.812 31.411)" fill="#e8faf9"/>
        <path id="Trazado_874189" data-name="Trazado 874189" d="M34.812,49.606a2.176,2.176,0,1,1-2.177,2.177,2.175,2.175,0,0,1,2.177-2.177" transform="translate(21.766 33.085)" fill="#e8faf9"/>
        <path id="Trazado_874190" data-name="Trazado 874190" d="M18.444,52.117a2.176,2.176,0,1,1-2.177,2.175,2.175,2.175,0,0,1,2.177-2.175" transform="translate(10.849 34.76)" fill="#e8faf9"/>
        <path id="Trazado_874191" data-name="Trazado 874191" d="M2.175,43.381A2.176,2.176,0,1,1,0,45.556a2.175,2.175,0,0,1,2.175-2.175" transform="translate(0 28.933)" fill="#e8faf9"/>
      </g>
    </g>
    <rect id="Rect치ngulo_401474" data-name="Rect치ngulo 401474" width="135" height="119" transform="translate(235.051 3687)" fill="none"/>
  </g>
</svg>
