<svg xmlns="http://www.w3.org/2000/svg" xmlns:xlink="http://www.w3.org/1999/xlink" width="400" height="180" viewBox="0 0 400 180">
  <defs>
    <clipPath id="clip-path">
      <rect id="Rectángulo_401336" data-name="Rectángulo 401336" width="305.694" height="163.774" fill="none"/>
    </clipPath>
  </defs>
  <g id="Grupo_1099944" data-name="Grupo 1099944" transform="translate(-1020.051 -3810.299)">
    <rect id="Rectángulo_401335" data-name="Rectángulo 401335" width="400" height="180" transform="translate(1020.051 3810.299)" fill="#dfbba0"/>
    <g id="Grupo_1099767" data-name="Grupo 1099767" transform="translate(1049.212 3826.525)">
      <g id="Grupo_1099762" data-name="Grupo 1099762">
        <g id="Grupo_1099761" data-name="Grupo 1099761" clip-path="url(#clip-path)">
          <path id="Trazado_873304" data-name="Trazado 873304" d="M5.395,129.757c2,.375,6.405-.743,6.409-.744.046-.012-1.619-2.683-1.744-2.84-1.44-1.812-5.288-4.464-7.714-3.552a3.067,3.067,0,0,0-1.539,4.3c.814,1.639,2.889,2.519,4.588,2.839" transform="translate(-0.048 -12.894)" fill="#b15815"/>
          <path id="Trazado_873305" data-name="Trazado 873305" d="M40.017,173.519h1.677c-.061-.138-.119-.271-.182-.411-.508-1.139-1.074-2.345-1.667-3.579a33.53,33.53,0,0,0,3.081-2.417c1.615,1.1,5.3,1.98,5.781,2.09-.2,1.212-.4,2.39-.607,3.5-.052.279-.1.548-.157.82h1.575c.031-.186.063-.363.094-.554.2-1.23.4-2.549.585-3.9.5-.01,4.566-.114,6.285-.939,1.558-.749,3.334-2.136,3.7-3.929a3.067,3.067,0,0,0-2.6-3.752c-2.578-.254-5.61,3.3-6.531,5.427-.055.125-.493,1.55-.755,2.453.073-.555.15-1.092.218-1.663.144-1.13.253-2.261.375-3.478q.058-.884.116-1.787c.051-.6.03-1.232.047-1.853.012-1.442-.047-2.9-.139-4.375.99.122,4.509.507,6.17,0s3.62-1.606,4.25-3.324a3.068,3.068,0,0,0-2-4.1c-2.51-.642-6.045,2.417-7.278,4.375-.077.122-.8,1.627-1.187,2.461-.062-.884-.12-1.767-.211-2.659-.265-2.576-.613-5.175-.948-7.769-.1-.794-.2-1.588-.293-2.382.352.047,4.524.6,6.385.029,1.653-.5,3.62-1.606,4.25-3.324a3.067,3.067,0,0,0-2-4.1c-2.51-.642-6.045,2.417-7.278,4.375-.093.147-1.135,2.314-1.374,2.878-.212-1.748-.406-3.492-.528-5.219a53.869,53.869,0,0,1-.077-7c.164.022,4.516.614,6.422.033,1.653-.5,3.62-1.606,4.25-3.324a3.068,3.068,0,0,0-2-4.1c-2.51-.642-6.044,2.417-7.278,4.375-.1.154-1.218,2.485-1.39,2.923.008-.135,0-.276.012-.412A39.506,39.506,0,0,1,50,121.972c.316-1.256.689-2.439,1.077-3.581.8.193,4.463,1.036,6.235.7,1.7-.319,3.775-1.2,4.589-2.837a3.066,3.066,0,0,0-1.537-4.3c-2.425-.915-6.274,1.738-7.715,3.549-.079.1-.764,1.187-1.253,1.988.183-.514.362-1.046.548-1.534.691-1.833,1.437-3.47,2.109-4.915.389-.818.757-1.55,1.109-2.232.883-.22,4.432-1.149,5.826-2.241,1.36-1.066,2.8-2.8,2.765-4.632a3.066,3.066,0,0,0-3.344-3.106c-2.574.305-4.768,4.434-5.212,6.7-.038.2-.286,3.336-.24,3.326l.053-.013c-.352.649-.72,1.348-1.109,2.122-.705,1.432-1.489,3.057-2.222,4.883a54.493,54.493,0,0,0-2.089,6,40.058,40.058,0,0,0-1.359,6.98c0,.028,0,.057,0,.085-.157-.743-.666-2.806-.723-2.96-.8-2.17-3.632-5.892-6.222-5.78a3.068,3.068,0,0,0-2.8,3.6c.263,1.81,1.96,3.292,3.475,4.126,1.707.94,5.922,1.262,6.257,1.287a54.3,54.3,0,0,0-.085,7.243c.069,1.407.183,2.822.315,4.239-.157-.638-.3-1.208-.33-1.285-.8-2.171-3.632-5.892-6.222-5.78a3.067,3.067,0,0,0-2.8,3.6c.263,1.811,1.96,3.293,3.474,4.127,1.537.845,5.125,1.194,6.075,1.272.056.543.106,1.086.166,1.628.279,2.605.569,5.2.776,7.76.073.9.112,1.791.154,2.681-.139-.566-.261-1.042-.287-1.113-.8-2.171-3.632-5.892-6.222-5.78a3.067,3.067,0,0,0-2.8,3.6c.262,1.81,1.96,3.293,3.474,4.126,1.466.808,4.775,1.158,5.9,1.257.015.913.032,1.827.007,2.713-.032.6-.021,1.188-.085,1.794s-.1,1.2-.155,1.783c-.14,1.131-.277,2.3-.441,3.4-.108.766-.226,1.493-.342,2.226-.063-.9-.222-2.653-.251-2.8a11.912,11.912,0,0,0-2.854-5.289,3.606,3.606,0,0,0-.193-.651,3.067,3.067,0,0,0-4.238-1.7c-2.291,1.211-2.855,5.851-2.453,8.13.024.134.444,1.564.724,2.462-.245-.5-.477-.993-.735-1.508-.5-1.021-1.037-2.025-1.606-3.107l-.889-1.554c-.285-.525-.654-1.043-.981-1.572-.786-1.209-1.642-2.4-2.53-3.572.894-.444,4.041-2.064,5.147-3.4s2.133-3.336,1.711-5.116a3.067,3.067,0,0,0-3.931-2.319c-2.449.85-3.709,5.351-3.657,7.665,0,.144.227,1.8.367,2.707-.539-.7-1.074-1.407-1.643-2.1-1.642-2-3.365-3.98-5.076-5.958-.524-.606-1.04-1.216-1.559-1.824.32-.155,4.1-2,5.342-3.5,1.1-1.332,2.133-3.336,1.711-5.117a3.066,3.066,0,0,0-3.931-2.318c-2.449.849-3.709,5.35-3.657,7.664,0,.174.329,2.557.442,3.158-1.141-1.34-2.265-2.687-3.32-4.06a54,54,0,0,1-3.928-5.8c.149-.072,4.106-1.98,5.374-3.515,1.1-1.333,2.134-3.336,1.711-5.117a3.066,3.066,0,0,0-3.931-2.318c-2.449.849-3.708,5.35-3.657,7.664,0,.182.355,2.745.452,3.2-.068-.117-.151-.232-.217-.349a39.545,39.545,0,0,1-2.822-6.43c-.429-1.221-.771-2.414-1.077-3.581.773-.28,4.294-1.6,5.588-2.854,1.241-1.2,2.486-3.081,2.263-4.9a3.067,3.067,0,0,0-3.653-2.737c-2.527.574-4.274,4.911-4.477,7.216-.011.126.018,1.413.053,2.349-.131-.529-.275-1.072-.389-1.582-.436-1.91-.717-3.687-.953-5.263-.127-.9-.224-1.711-.307-2.473.616-.671,3.063-3.4,3.623-5.084.547-1.64.786-3.881-.249-5.39a3.068,3.068,0,0,0-4.5-.745c-1.978,1.676-1.531,6.328-.649,8.467.077.185,1.6,2.94,1.635,2.906l.037-.041c.064.735.143,1.524.246,2.382.2,1.584.445,3.371.841,5.3a54.3,54.3,0,0,0,1.57,6.16,39.993,39.993,0,0,0,2.717,6.571c.013.025.03.049.044.073-.541-.533-2.1-1.973-2.236-2.069-1.867-1.367-6.279-2.91-8.378-1.389a3.068,3.068,0,0,0-.349,4.551c1.219,1.365,3.452,1.665,5.175,1.525,1.943-.157,5.637-2.214,5.929-2.379a54.354,54.354,0,0,0,3.926,6.089c.833,1.134,1.709,2.252,2.6,3.361-.482-.446-.917-.841-.983-.889-1.868-1.367-6.281-2.91-8.378-1.389a3.065,3.065,0,0,0-.35,4.55c1.218,1.366,3.452,1.667,5.175,1.526,1.748-.141,4.932-1.832,5.769-2.29.346.422.687.847,1.035,1.268,1.67,2.018,3.345,4.024,4.928,6.044.558.711,1.082,1.431,1.609,2.151-.429-.4-.794-.725-.854-.769-1.868-1.366-6.28-2.91-8.378-1.388a3.066,3.066,0,0,0-.35,4.55c1.219,1.365,3.452,1.666,5.175,1.525,1.669-.135,4.621-1.669,5.618-2.209.517.753,1.036,1.507,1.5,2.259.307.522.64,1,.918,1.542s.573,1.054.855,1.574c.507,1.019,1.036,2.069,1.506,3.076.332.7.635,1.369.943,2.044-.548-.714-1.649-2.09-1.754-2.195-1.639-1.634-5.766-3.827-8.071-2.641a3.066,3.066,0,0,0-1.034,4.445c1,1.534,3.159,2.17,4.883,2.293,1.9.134,5.712-1.263,6.188-1.441.472,1.049.921,2.07,1.335,3.05" transform="translate(-0.448 -10.407)" fill="#b15815"/>
          <path id="Trazado_873306" data-name="Trazado 873306" d="M55.4,118.944c.045.015.13-3.132.113-3.331-.2-2.306-1.949-6.641-4.476-7.218a3.067,3.067,0,0,0-3.653,2.736c-.225,1.815,1.02,3.694,2.261,4.9,1.457,1.414,5.752,2.913,5.756,2.915" transform="translate(-4.988 -11.408)" fill="#b15815"/>
        </g>
      </g>
      <g id="Grupo_1099764" data-name="Grupo 1099764">
        <g id="Grupo_1099763" data-name="Grupo 1099763" clip-path="url(#clip-path)">
          <path id="Trazado_873307" data-name="Trazado 873307" d="M157.979,73.439s-33.85,6.429-37.593,11.551-13.039,32.382-13.827,33.564-16.746,25.021-19.11,31.916-.591,13,5.319,16.746,12.018,1.97,14.973,1.97,10.639-6.5,11.229-9.259,2.365-10.245,2.365-10.245l11.032-19.307,6.7,40.186h92l6.3-38.412,19.307,35.462H288.6l-19.9-42.357-11.032-19.9s-4.334-14.776-11.032-20.884-15.958-8.077-19.11-8.274S215.9,74.03,211.566,73.045s-13.4-3.94-13.4-3.94Z" transform="translate(-9.103 -7.278)" fill="#b5b5b5"/>
          <path id="Trazado_873308" data-name="Trazado 873308" d="M157.979,73.439s-33.85,6.429-37.593,11.551-13.039,32.382-13.827,33.564-16.746,25.021-19.11,31.916-.591,13,5.319,16.746,12.018,1.97,14.973,1.97,10.639-6.5,11.229-9.259,2.365-10.245,2.365-10.245l11.032-19.307,6.7,40.186h92l6.3-38.412,19.307,35.462H288.6l-19.9-42.357-11.032-19.9s-4.334-14.776-11.032-20.884-15.958-8.077-19.11-8.274S215.9,74.03,211.566,73.045s-13.4-3.94-13.4-3.94Z" transform="translate(-9.103 -7.278)" fill="none" stroke="#263238" stroke-linecap="round" stroke-linejoin="round" stroke-width="1"/>
          <path id="Trazado_873309" data-name="Trazado 873309" d="M96.179,149.441s10.8-1.663,21.11,7.148" transform="translate(-10.129 -15.725)" fill="none" stroke="#263238" stroke-linecap="round" stroke-linejoin="round" stroke-width="1"/>
          <path id="Trazado_873310" data-name="Trazado 873310" d="M247.134,147.428c6.045-3.865,17.1-10.4,27.112-13.436l-4.106-8.739-11.032-19.9s-4.334-14.776-11.032-20.884-15.958-8.077-19.11-8.274-11.624-2.167-15.958-3.152-13.4-3.94-13.4-3.94l-40.19,4.334s-30.7,4.989-37.593,11.551c-8.571,8.163-13.039,32.382-13.827,33.564-.361.542-3.912,5.849-7.878,12.1,4.255,3.478,13.881,10.445,25.839,13.456l7.847-13.733,6.7,40.186h92l6.3-38.412Z" transform="translate(-10.544 -7.278)" fill="#e8faf9"/>
          <path id="Trazado_873311" data-name="Trazado 873311" d="M247.134,147.428c6.045-3.865,17.1-10.4,27.112-13.436l-4.106-8.739-11.032-19.9s-4.334-14.776-11.032-20.884-15.958-8.077-19.11-8.274-11.624-2.167-15.958-3.152-13.4-3.94-13.4-3.94l-40.19,4.334s-30.7,4.989-37.593,11.551c-8.571,8.163-13.039,32.382-13.827,33.564-.361.542-3.912,5.849-7.878,12.1,4.255,3.478,13.881,10.445,25.839,13.456l7.847-13.733,6.7,40.186h92l6.3-38.412Z" transform="translate(-10.544 -7.278)" fill="none" stroke="#263238" stroke-linecap="round" stroke-linejoin="round" stroke-width="1"/>
          <path id="Trazado_873312" data-name="Trazado 873312" d="M166.335,73.439l-.554.19,1.539,4.736s2.561,15.367,8.275,20.686,12.806,6.107,23.05-1.379,13.4-16.549,13.594-20.686l.2-4.138-.739-2.112c-2.852-.874-5.171-1.63-5.171-1.63Z" transform="translate(-17.459 -7.278)" fill="none" stroke="#263238" stroke-linecap="round" stroke-linejoin="round" stroke-width="1"/>
          <path id="Trazado_873313" data-name="Trazado 873313" d="M167.576,112.211a35.425,35.425,0,0,0,1.9,4.578" transform="translate(-17.648 -11.817)" fill="none" stroke="#263238" stroke-linecap="round" stroke-linejoin="round" stroke-width="1"/>
          <path id="Trazado_873314" data-name="Trazado 873314" d="M162.876,82.1a116.018,116.018,0,0,0,2.9,22.51" transform="translate(-17.153 -8.646)" fill="none" stroke="#263238" stroke-linecap="round" stroke-linejoin="round" stroke-width="1"/>
          <path id="Trazado_873315" data-name="Trazado 873315" d="M157.761,81.216s-3.35,9.062-1.97,14.184" transform="translate(-16.372 -8.553)" fill="none" stroke="#263238" stroke-linecap="round" stroke-linejoin="round" stroke-width="1"/>
          <path id="Trazado_873316" data-name="Trazado 873316" d="M239.865,118.309a30.522,30.522,0,0,0,1.255,4.245" transform="translate(-25.261 -12.46)" fill="none" stroke="#263238" stroke-linecap="round" stroke-linejoin="round" stroke-width="1"/>
          <path id="Trazado_873317" data-name="Trazado 873317" d="M239.415,93.547s-1.8,10.911.048,20.822" transform="translate(-25.131 -9.852)" fill="none" stroke="#263238" stroke-linecap="round" stroke-linejoin="round" stroke-width="1"/>
          <path id="Trazado_873318" data-name="Trazado 873318" d="M228.276,105.878s1.773,7.092,3.547,10.245" transform="translate(-24.041 -11.15)" fill="none" stroke="#263238" stroke-linecap="round" stroke-linejoin="round" stroke-width="1"/>
          <path id="Trazado_873319" data-name="Trazado 873319" d="M246.113,127.458l8.077,10.836-7.684-5.319" transform="translate(-25.919 -13.423)" fill="none" stroke="#263238" stroke-linecap="round" stroke-linejoin="round" stroke-width="1"/>
          <path id="Trazado_873320" data-name="Trazado 873320" d="M137.169,134.085s-2.561-11.229-3.94-16.154-1.182-13.594-1.182-13.594" transform="translate(-13.905 -10.988)" fill="none" stroke="#263238" stroke-linecap="round" stroke-linejoin="round" stroke-width="1"/>
          <path id="Trazado_873321" data-name="Trazado 873321" d="M121.7,108.961a21.88,21.88,0,0,0,7.487,8.274" transform="translate(-12.817 -11.475)" fill="none" stroke="#263238" stroke-linecap="round" stroke-linejoin="round" stroke-width="1"/>
          <path id="Trazado_873322" data-name="Trazado 873322" d="M173.446,83.486s3.152,10.047,11.427,12.609,21.474-13.2,22.459-17.534a46.406,46.406,0,0,0,.985-9.457c0-.59-1.576-14.973-1.576-14.973a161.568,161.568,0,0,1-13.2,18.125c-7.683,9.062-20.095,11.229-20.095,11.229" transform="translate(-18.266 -5.701)" fill="#b5b5b5"/>
          <path id="Trazado_873323" data-name="Trazado 873323" d="M173.446,83.486s3.152,10.047,11.427,12.609,21.474-13.2,22.459-17.534a46.406,46.406,0,0,0,.985-9.457c0-.59-1.576-14.973-1.576-14.973a161.568,161.568,0,0,1-13.2,18.125C185.858,81.319,173.446,83.486,173.446,83.486Z" transform="translate(-18.266 -5.701)" fill="none" stroke="#263238" stroke-linecap="round" stroke-linejoin="round" stroke-width="1"/>
          <path id="Trazado_873324" data-name="Trazado 873324" d="M173.446,85.619s2.555,8.134,9.1,11.63a29.953,29.953,0,0,0,6.468-9.266c2.758-7.092,4.531-13.593,4.531-13.593-7.683,9.062-20.095,11.229-20.095,11.229" transform="translate(-18.266 -7.834)" fill="#263238"/>
          <path id="Trazado_873325" data-name="Trazado 873325" d="M173.446,85.619s2.555,8.134,9.1,11.63a29.953,29.953,0,0,0,6.468-9.266c2.758-7.092,4.531-13.593,4.531-13.593C185.858,83.452,173.446,85.619,173.446,85.619Z" transform="translate(-18.266 -7.834)" fill="none" stroke="#263238" stroke-linecap="round" stroke-linejoin="round" stroke-width="1"/>
          <path id="Trazado_873326" data-name="Trazado 873326" d="M155.93,24.453s1.033,22.891,1.55,26.333S161.61,63.522,162.47,66.1,169.01,78.5,174,79.873s8.606-.516,11.876-2.066,10.671-10.155,12.047-12.564,4.3-8.089,5.335-10.326l1.032-2.238s1.033-21.858,1.205-24.612,2.409-14.114-.172-18.072S192.934.873,182.091.529s-20.481,2.41-24.1,7.229-4.3,13.6-2.065,16.695" transform="translate(-16.287 -0.053)" fill="#b5b5b5"/>
          <path id="Trazado_873327" data-name="Trazado 873327" d="M155.93,24.453s1.033,22.891,1.55,26.333S161.61,63.522,162.47,66.1,169.01,78.5,174,79.873s8.606-.516,11.876-2.066,10.671-10.155,12.047-12.564,4.3-8.089,5.335-10.326l1.032-2.238s1.033-21.858,1.205-24.612,2.409-14.114-.172-18.072S192.934.873,182.091.529s-20.481,2.41-24.1,7.229S153.692,21.354,155.93,24.453Z" transform="translate(-16.287 -0.053)" fill="none" stroke="#263238" stroke-linecap="round" stroke-linejoin="round" stroke-width="1"/>
          <path id="Trazado_873328" data-name="Trazado 873328" d="M157.307,22.731c0-1.205,2.066-1.549,2.066-1.549s10.671,8.089,17.038,7.744S190.525,22.9,193.45,23.42s3.27,3.1,2.409,7.4-1.377,10.5,0,10.671a10.044,10.044,0,0,0,3.786-.86s-.344,4.474,1.377,4.647,3.27-1.894,3.27-2.41.516-7.4.516-7.4l.318-.151c.171-3.486.316-6.361.371-7.249.172-2.754,2.409-14.114-.172-18.073S192.934.873,182.091.529,161.609,2.938,158,7.758s-4.3,13.6-2.066,16.695c0,0,1.377-.516,1.377-1.721" transform="translate(-16.287 -0.053)" fill="#263238"/>
          <path id="Trazado_873329" data-name="Trazado 873329" d="M157.307,22.731c0-1.205,2.066-1.549,2.066-1.549s10.671,8.089,17.038,7.744S190.525,22.9,193.45,23.42s3.27,3.1,2.409,7.4-1.377,10.5,0,10.671a10.044,10.044,0,0,0,3.786-.86s-.344,4.474,1.377,4.647,3.27-1.894,3.27-2.41.516-7.4.516-7.4l.318-.151c.171-3.486.316-6.361.371-7.249.172-2.754,2.409-14.114-.172-18.073S192.934.873,182.091.529,161.609,2.938,158,7.758s-4.3,13.6-2.066,16.695C155.93,24.452,157.307,23.936,157.307,22.731Z" transform="translate(-16.287 -0.053)" fill="none" stroke="#263238" stroke-linecap="round" stroke-linejoin="round" stroke-width="1"/>
          <path id="Trazado_873330" data-name="Trazado 873330" d="M206.29,50.962s1.721-8.262,4.819-7.917,2.754,8.262.689,11.187-4.131,3.442-4.131,3.442" transform="translate(-21.725 -4.532)" fill="#b5b5b5"/>
          <path id="Trazado_873331" data-name="Trazado 873331" d="M206.29,50.962s1.721-8.262,4.819-7.917,2.754,8.262.689,11.187-4.131,3.442-4.131,3.442" transform="translate(-21.725 -4.532)" fill="none" stroke="#263238" stroke-linecap="round" stroke-linejoin="round" stroke-width="1"/>
          <path id="Trazado_873332" data-name="Trazado 873332" d="M172.784,54.973s-.516,12.564-.172,13.6,1.549,2.409,4.647,2.409,3.958-.86,4.474-2.409" transform="translate(-18.166 -5.789)" fill="none" stroke="#263238" stroke-linecap="round" stroke-linejoin="round" stroke-width="1"/>
          <path id="Trazado_873333" data-name="Trazado 873333" d="M169.74,74.98a6.66,6.66,0,0,0,2.754,2.238,28.834,28.834,0,0,0,8.778.344,9.555,9.555,0,0,0,4.991-2.238" transform="translate(-17.876 -7.896)" fill="none" stroke="#263238" stroke-linecap="round" stroke-linejoin="round" stroke-width="1"/>
          <path id="Trazado_873334" data-name="Trazado 873334" d="M182.106,51.735s10.021-.536,11.211-.724-3.1-1.95-6.746-1.9-7.167.957-4.465,2.621" transform="translate(-19.078 -5.172)" fill="#263238"/>
          <path id="Trazado_873335" data-name="Trazado 873335" d="M182.106,51.735s10.021-.536,11.211-.724-3.1-1.95-6.746-1.9S179.4,50.071,182.106,51.735Z" transform="translate(-19.078 -5.172)" fill="none" stroke="#263238" stroke-linecap="round" stroke-linejoin="round" stroke-width="1"/>
          <path id="Trazado_873336" data-name="Trazado 873336" d="M170.119,51.683s-10.026-.436-11.218-.611,3.076-1.982,6.727-1.966,7.176.885,4.491,2.577" transform="translate(-16.713 -5.172)" fill="#263238"/>
          <path id="Trazado_873337" data-name="Trazado 873337" d="M170.119,51.683s-10.026-.436-11.218-.611,3.076-1.982,6.727-1.966S172.8,49.991,170.119,51.683Z" transform="translate(-16.713 -5.172)" fill="none" stroke="#263238" stroke-linecap="round" stroke-linejoin="round" stroke-width="1"/>
          <path id="Trazado_873338" data-name="Trazado 873338" d="M162.622,58.243s2.065,3.1,7.745,1.032" transform="translate(-17.126 -6.134)" fill="none" stroke="#263238" stroke-linecap="round" stroke-linejoin="round" stroke-width="1"/>
          <path id="Trazado_873339" data-name="Trazado 873339" d="M183.716,59.192s2.611,3.533,8.7.51" transform="translate(-19.348 -6.234)" fill="none" stroke="#263238" stroke-linecap="round" stroke-linejoin="round" stroke-width="1"/>
          <rect id="Rectángulo_401337" data-name="Rectángulo 401337" width="21.73" height="43.735" transform="translate(154.621 129.066) rotate(-54.249)" fill="#fdb641"/>
          <rect id="Rectángulo_401338" data-name="Rectángulo 401338" width="21.73" height="43.735" transform="translate(154.621 129.066) rotate(-54.249)" fill="none" stroke="#263238" stroke-linecap="round" stroke-linejoin="round" stroke-width="1"/>
          <rect id="Rectángulo_401339" data-name="Rectángulo 401339" width="15.128" height="37.093" transform="matrix(0.584, -0.812, 0.812, 0.584, 159.245, 128.328)" fill="#fff"/>
          <rect id="Rectángulo_401340" data-name="Rectángulo 401340" width="15.128" height="37.093" transform="matrix(0.584, -0.812, 0.812, 0.584, 159.245, 128.328)" fill="none" stroke="#263238" stroke-linecap="round" stroke-linejoin="round" stroke-width="1"/>
          <path id="Trazado_873340" data-name="Trazado 873340" d="M201.209,145.406c2.342,1.686,3.343,4.3,2.232,5.844s-3.907,1.423-6.25-.263-3.342-4.3-2.232-5.844,3.908-1.423,6.25.263" transform="translate(-20.484 -15.172)" fill="#92e3a9"/>
          <path id="Trazado_873341" data-name="Trazado 873341" d="M201.209,145.406c2.342,1.686,3.343,4.3,2.232,5.844s-3.907,1.423-6.25-.263-3.342-4.3-2.232-5.844S198.867,143.719,201.209,145.406Z" transform="translate(-20.484 -15.172)" fill="none" stroke="#263238" stroke-linecap="round" stroke-linejoin="round" stroke-width="1"/>
          <rect id="Rectángulo_401341" data-name="Rectángulo 401341" width="21.73" height="43.736" transform="translate(158.851 123.616) rotate(-46.194)" fill="#fdb641"/>
          <rect id="Rectángulo_401342" data-name="Rectángulo 401342" width="21.73" height="43.736" transform="translate(158.851 123.616) rotate(-46.194)" fill="none" stroke="#263238" stroke-linecap="round" stroke-linejoin="round" stroke-width="1"/>
          <rect id="Rectángulo_401343" data-name="Rectángulo 401343" width="15.129" height="37.092" transform="translate(163.533 123.534) rotate(-46.196)" fill="#fff"/>
          <rect id="Rectángulo_401344" data-name="Rectángulo 401344" width="15.129" height="37.092" transform="translate(163.533 123.534) rotate(-46.196)" fill="none" stroke="#263238" stroke-linecap="round" stroke-linejoin="round" stroke-width="1"/>
          <path id="Trazado_873342" data-name="Trazado 873342" d="M205.45,143.325c2.083,2,2.706,4.728,1.391,6.1s-4.068.862-6.151-1.136-2.706-4.728-1.392-6.1,4.069-.862,6.152,1.136" transform="translate(-20.916 -14.893)" fill="#92e3a9"/>
          <path id="Trazado_873343" data-name="Trazado 873343" d="M205.45,143.325c2.083,2,2.706,4.728,1.391,6.1s-4.068.862-6.151-1.136-2.706-4.728-1.392-6.1S203.367,141.327,205.45,143.325Z" transform="translate(-20.916 -14.893)" fill="none" stroke="#263238" stroke-linecap="round" stroke-linejoin="round" stroke-width="1"/>
          <rect id="Rectángulo_401345" data-name="Rectángulo 401345" width="21.731" height="43.736" transform="matrix(0.808, -0.589, 0.589, 0.808, 163.821, 118.502)" fill="#fdb641"/>
          <rect id="Rectángulo_401346" data-name="Rectángulo 401346" width="21.731" height="43.736" transform="matrix(0.808, -0.589, 0.589, 0.808, 163.821, 118.502)" fill="none" stroke="#263238" stroke-linecap="round" stroke-linejoin="round" stroke-width="1"/>
          <rect id="Rectángulo_401347" data-name="Rectángulo 401347" width="15.129" height="37.093" transform="matrix(0.808, -0.589, 0.589, 0.808, 168.445, 119.24)" fill="#fff"/>
          <rect id="Rectángulo_401348" data-name="Rectángulo 401348" width="15.129" height="37.093" transform="matrix(0.808, -0.589, 0.589, 0.808, 168.445, 119.24)" fill="none" stroke="#263238" stroke-linecap="round" stroke-linejoin="round" stroke-width="1"/>
          <path id="Trazado_873344" data-name="Trazado 873344" d="M209.609,142.465c1.7,2.332,1.836,5.129.3,6.248s-4.157.136-5.858-2.2-1.836-5.13-.3-6.248,4.157-.136,5.858,2.2" transform="translate(-21.346 -14.724)" fill="#92e3a9"/>
          <path id="Trazado_873345" data-name="Trazado 873345" d="M209.609,142.465c1.7,2.332,1.836,5.129.3,6.248s-4.157.136-5.858-2.2-1.836-5.13-.3-6.248S207.908,140.133,209.609,142.465Z" transform="translate(-21.346 -14.724)" fill="none" stroke="#263238" stroke-linecap="round" stroke-linejoin="round" stroke-width="1"/>
          <rect id="Rectángulo_401349" data-name="Rectángulo 401349" width="21.73" height="43.736" transform="translate(170.891 113.609) rotate(-23.933)" fill="#fdb641"/>
          <rect id="Rectángulo_401350" data-name="Rectángulo 401350" width="21.73" height="43.736" transform="translate(170.891 113.609) rotate(-23.933)" fill="none" stroke="#263238" stroke-linecap="round" stroke-linejoin="round" stroke-width="1"/>
          <rect id="Rectángulo_401351" data-name="Rectángulo 401351" width="15.129" height="37.093" transform="translate(175.255 115.306) rotate(-23.934)" fill="#fff"/>
          <rect id="Rectángulo_401352" data-name="Rectángulo 401352" width="15.129" height="37.093" transform="translate(175.255 115.306) rotate(-23.934)" fill="none" stroke="#263238" stroke-linecap="round" stroke-linejoin="round" stroke-width="1"/>
          <path id="Trazado_873346" data-name="Trazado 873346" d="M214.718,142.415c1.171,2.638.713,5.4-1.023,6.172s-4.092-.743-5.263-3.382-.713-5.4,1.023-6.172,4.091.743,5.263,3.382" transform="translate(-21.883 -14.621)" fill="#92e3a9"/>
          <path id="Trazado_873347" data-name="Trazado 873347" d="M214.718,142.415c1.171,2.638.713,5.4-1.023,6.172s-4.092-.743-5.263-3.382-.713-5.4,1.023-6.172S213.547,139.777,214.718,142.415Z" transform="translate(-21.883 -14.621)" fill="none" stroke="#263238" stroke-linecap="round" stroke-linejoin="round" stroke-width="1"/>
          <rect id="Rectángulo_401353" data-name="Rectángulo 401353" width="21.73" height="43.736" transform="translate(178.135 110.529) rotate(-12.793)" fill="#fdb641"/>
          <rect id="Rectángulo_401354" data-name="Rectángulo 401354" width="21.73" height="43.736" transform="translate(178.135 110.529) rotate(-12.793)" fill="none" stroke="#263238" stroke-linecap="round" stroke-linejoin="round" stroke-width="1"/>
          <rect id="Rectángulo_401355" data-name="Rectángulo 401355" width="15.128" height="37.093" transform="translate(182.089 113.037) rotate(-12.792)" fill="#fff"/>
          <rect id="Rectángulo_401356" data-name="Rectángulo 401356" width="15.128" height="37.093" transform="translate(182.089 113.037) rotate(-12.792)" fill="none" stroke="#263238" stroke-linecap="round" stroke-linejoin="round" stroke-width="1"/>
          <path id="Trazado_873348" data-name="Trazado 873348" d="M219.294,143.318c.639,2.815-.344,5.437-2.2,5.857s-3.871-1.52-4.51-4.335.344-5.438,2.2-5.858,3.871,1.521,4.51,4.336" transform="translate(-22.368 -14.631)" fill="#fdb641"/>
          <path id="Trazado_873349" data-name="Trazado 873349" d="M219.294,143.318c.639,2.815-.344,5.437-2.2,5.857s-3.871-1.52-4.51-4.335.344-5.438,2.2-5.858S218.655,140.5,219.294,143.318Z" transform="translate(-22.368 -14.631)" fill="none" stroke="#263238" stroke-linecap="round" stroke-linejoin="round" stroke-width="1"/>
          <path id="Trazado_873350" data-name="Trazado 873350" d="M227.073,149.688s-15.564,5.91-16.352,6.5-8.471,7.684-8.865,8.669l-.394.985a1.152,1.152,0,0,0,1.182,1.379s-1.576,2.364-.2,3.547,3.349.2,3.349.2-1.773,2.758.2,3.349a12.214,12.214,0,0,0,4.532.2s-.394.986,6.5,2.365,14.184,1.97,17.336,1.379,10.245-1.379,10.245-1.379,31.522,2.561,37.826,1.97,16.351.394,18.321-2.758-.985-8.865-3.349-12.412-7.88-10.244-14.382-10.441a41.405,41.405,0,0,0-14.381,2.758c-3.547,1.576-11.821,4.925-12.609,5.122s-9.26-.395-9.26-.395-16.352-10.836-17.337-11.032a8.583,8.583,0,0,0-2.364,0" transform="translate(-21.216 -15.755)" fill="#b5b5b5"/>
          <path id="Trazado_873351" data-name="Trazado 873351" d="M227.073,149.688s-15.564,5.91-16.352,6.5-8.471,7.684-8.865,8.669l-.394.985a1.152,1.152,0,0,0,1.182,1.379s-1.576,2.364-.2,3.547,3.349.2,3.349.2-1.773,2.758.2,3.349a12.214,12.214,0,0,0,4.532.2s-.394.986,6.5,2.365,14.184,1.97,17.336,1.379,10.245-1.379,10.245-1.379,31.522,2.561,37.826,1.97,16.351.394,18.321-2.758-.985-8.865-3.349-12.412-7.88-10.244-14.382-10.441a41.405,41.405,0,0,0-14.381,2.758c-3.547,1.576-11.821,4.925-12.609,5.122s-9.26-.395-9.26-.395-16.352-10.836-17.337-11.032A8.583,8.583,0,0,0,227.073,149.688Z" transform="translate(-21.216 -15.755)" fill="none" stroke="#263238" stroke-linecap="round" stroke-linejoin="round" stroke-width="1"/>
          <path id="Trazado_873352" data-name="Trazado 873352" d="M202.784,168.137l12.017-6.5,13.594-3.349" transform="translate(-21.356 -16.67)" fill="none" stroke="#263238" stroke-linecap="round" stroke-linejoin="round" stroke-width="1"/>
          <path id="Trazado_873353" data-name="Trazado 873353" d="M206.307,172.715l11.229-4.137,12.412-2.365" transform="translate(-21.727 -17.505)" fill="none" stroke="#263238" stroke-linecap="round" stroke-linejoin="round" stroke-width="1"/>
          <path id="Trazado_873354" data-name="Trazado 873354" d="M211.592,177.119l11.032-1.576,9.85-1.182" transform="translate(-22.284 -18.363)" fill="none" stroke="#263238" stroke-linecap="round" stroke-linejoin="round" stroke-width="1"/>
          <path id="Trazado_873355" data-name="Trazado 873355" d="M109.069,151.675s9.457,4.728,10.442,4.925,7.092-.2,7.486,4.137-3.546,10.245-4.334,12.806-10.047,1.97-10.047,1.97-3.153-10.639-3.94-14.578.394-9.26.394-9.26" transform="translate(-11.417 -15.974)" fill="#b5b5b5"/>
          <path id="Trazado_873356" data-name="Trazado 873356" d="M109.069,151.675s9.457,4.728,10.442,4.925,7.092-.2,7.486,4.137-3.546,10.245-4.334,12.806-10.047,1.97-10.047,1.97-3.153-10.639-3.94-14.578S109.069,151.675,109.069,151.675Z" transform="translate(-11.417 -15.974)" fill="none" stroke="#263238" stroke-linecap="round" stroke-linejoin="round" stroke-width="1"/>
          <path id="Trazado_873357" data-name="Trazado 873357" d="M104.964,133.274,116.39,170.9l3.407,3.35-.085-4.925-11.719-37.111Z" transform="translate(-11.054 -13.924)" fill="#fff"/>
          <path id="Trazado_873358" data-name="Trazado 873358" d="M104.964,133.274,116.39,170.9l3.407,3.35-.085-4.925-11.719-37.111Z" transform="translate(-11.054 -13.924)" fill="none" stroke="#263238" stroke-linecap="round" stroke-linejoin="round" stroke-width="1"/>
          <path id="Trazado_873359" data-name="Trazado 873359" d="M107.993,132.217l-3.029,1.057,1.344,4.424,3.088-1.041Z" transform="translate(-11.054 -13.924)" fill="#fff"/>
          <path id="Trazado_873360" data-name="Trazado 873360" d="M107.993,132.217l-3.029,1.057,1.344,4.424,3.088-1.041Z" transform="translate(-11.054 -13.924)" fill="none" stroke="#263238" stroke-linecap="round" stroke-linejoin="round" stroke-width="1"/>
          <path id="Trazado_873361" data-name="Trazado 873361" d="M91.751,176.117s1.182,3.349,2.364,3.743,7.881.2,9.85.2-12.214-3.94-12.214-3.94" transform="translate(-9.663 -18.548)" fill="#b5b5b5"/>
          <path id="Trazado_873362" data-name="Trazado 873362" d="M91.751,176.117s1.182,3.349,2.364,3.743,7.881.2,9.85.2S91.751,176.117,91.751,176.117Z" transform="translate(-9.663 -18.548)" fill="none" stroke="#263238" stroke-linecap="round" stroke-linejoin="round" stroke-width="1"/>
          <path id="Trazado_873363" data-name="Trazado 873363" d="M94.505,167.75s-3.152,5.91-2.758,7.487,3.35,2.364,5.91,2.955a51.848,51.848,0,0,0,11.033.59c2.561-.2-2.168-2.561-2.168-2.561a68.952,68.952,0,0,1-7.289-5.123,26.2,26.2,0,0,0-4.728-3.349" transform="translate(-9.659 -17.667)" fill="#b5b5b5"/>
          <path id="Trazado_873364" data-name="Trazado 873364" d="M94.505,167.75s-3.152,5.91-2.758,7.487,3.35,2.364,5.91,2.955a51.848,51.848,0,0,0,11.033.59c2.561-.2-2.168-2.561-2.168-2.561a68.952,68.952,0,0,1-7.289-5.123A26.2,26.2,0,0,0,94.505,167.75Z" transform="translate(-9.659 -17.667)" fill="none" stroke="#263238" stroke-linecap="round" stroke-linejoin="round" stroke-width="1"/>
          <path id="Trazado_873365" data-name="Trazado 873365" d="M100.35,161.225s-5.32,3.547-5.517,5.713,5.713,7.88,6.7,8.669,7.88,2.561,10.047,2.167a4.166,4.166,0,0,0,2.955-1.97s-6.7-5.122-8.471-7.88a67.826,67.826,0,0,1-3.94-7.88Z" transform="translate(-9.987 -16.855)" fill="#b5b5b5"/>
          <path id="Trazado_873366" data-name="Trazado 873366" d="M100.35,161.225s-5.32,3.547-5.517,5.713,5.713,7.88,6.7,8.669,7.88,2.561,10.047,2.167a4.166,4.166,0,0,0,2.955-1.97s-6.7-5.122-8.471-7.88a67.826,67.826,0,0,1-3.94-7.88Z" transform="translate(-9.987 -16.855)" fill="none" stroke="#263238" stroke-linecap="round" stroke-linejoin="round" stroke-width="1"/>
          <path id="Trazado_873367" data-name="Trazado 873367" d="M108.243,151.675s-7.684,1.97-7.684,4.728,3.35,11.032,5.122,12.806,7.88,7.092,9.457,5.713.591-2.758.2-4.137-4.925-13-4.925-13Z" transform="translate(-10.59 -15.974)" fill="#b5b5b5"/>
          <path id="Trazado_873368" data-name="Trazado 873368" d="M108.243,151.675s-7.684,1.97-7.684,4.728,3.35,11.032,5.122,12.806,7.88,7.092,9.457,5.713.591-2.758.2-4.137-4.925-13-4.925-13Z" transform="translate(-10.59 -15.974)" fill="none" stroke="#263238" stroke-linecap="round" stroke-linejoin="round" stroke-width="1"/>
          <path id="Trazado_873369" data-name="Trazado 873369" d="M122.377,158.046s-6.5,12.214-5.319,13.4,3.349,2.364,4.334,1.773,5.122-5.91,6.3-8.866.395-4.137-1.379-5.516a4.85,4.85,0,0,0-3.94-.788" transform="translate(-12.313 -16.631)" fill="#b5b5b5"/>
          <path id="Trazado_873370" data-name="Trazado 873370" d="M122.377,158.046s-6.5,12.214-5.319,13.4,3.349,2.364,4.334,1.773,5.122-5.91,6.3-8.866.395-4.137-1.379-5.516A4.85,4.85,0,0,0,122.377,158.046Z" transform="translate(-12.313 -16.631)" fill="none" stroke="#263238" stroke-linecap="round" stroke-linejoin="round" stroke-width="1"/>
          <circle id="Elipse_11488" data-name="Elipse 11488" cx="2.061" cy="2.061" r="2.061" transform="translate(123.942 159.016)" fill="none" stroke="#263238" stroke-linecap="round" stroke-linejoin="round" stroke-width="1"/>
          <rect id="Rectángulo_401357" data-name="Rectángulo 401357" width="55.683" height="2.931" transform="translate(69.788 160.396)" fill="#fff"/>
          <rect id="Rectángulo_401358" data-name="Rectángulo 401358" width="55.683" height="2.931" transform="translate(69.788 160.396)" fill="none" stroke="#263238" stroke-linecap="round" stroke-linejoin="round" stroke-width="1"/>
          <rect id="Rectángulo_401359" data-name="Rectángulo 401359" width="55.683" height="2.931" transform="translate(126.709 160.396)" fill="#fff"/>
          <rect id="Rectángulo_401360" data-name="Rectángulo 401360" width="55.683" height="2.931" transform="translate(126.709 160.396)" fill="none" stroke="#263238" stroke-linecap="round" stroke-linejoin="round" stroke-width="1"/>
        </g>
      </g>
      <g id="Grupo_1099766" data-name="Grupo 1099766">
        <g id="Grupo_1099765" data-name="Grupo 1099765" clip-path="url(#clip-path)">
          <line id="Línea_564" data-name="Línea 564" x2="8.288" transform="translate(296.959 163.327)" fill="none" stroke="#263238" stroke-linecap="round" stroke-linejoin="round" stroke-width="1"/>
          <line id="Línea_565" data-name="Línea 565" x2="292.049" transform="translate(0.447 163.327)" fill="none" stroke="#263238" stroke-linecap="round" stroke-linejoin="round" stroke-width="1"/>
        </g>
      </g>
    </g>
  </g>
</svg>
