<svg xmlns="http://www.w3.org/2000/svg" width="83" height="83" viewBox="0 0 83 83">
  <g id="Grupo_1099773" data-name="Grupo 1099773" transform="translate(-629.051 -4541)">
    <rect id="Rectángulo_401243" data-name="Rectángulo 401243" width="83" height="83" transform="translate(629.051 4541)" fill="none"/>
    <g id="reshot-icon-low-energy-house-SY65TXZNE2" transform="translate(637.182 4546.58)">
      <path id="Trazado_873383" data-name="Trazado 873383" d="M34.654,7.315,4.765,37.2a1.345,1.345,0,0,0,.951,2.3H12.24V66.758A1.345,1.345,0,0,0,13.584,68.1h44.04a1.345,1.345,0,0,0,1.345-1.345V39.5h6.524a1.345,1.345,0,0,0,.951-2.3L36.556,7.315A1.345,1.345,0,0,0,34.654,7.315Z" transform="translate(-1.868 -1.869)" fill="#efddcf"/>
      <path id="Trazado_873384" data-name="Trazado 873384" d="M83.449,65.458A15.117,15.117,0,0,0,68.406,79.87a14.625,14.625,0,0,0,5.444,12.2,4.089,4.089,0,0,1,1.487,3.13c0,.6,0-.321,0,8.229a3.428,3.428,0,0,0,3.424,3.424h9.382a3.428,3.428,0,0,0,3.424-3.424c0-6.747,0-8.259,0-8.279A3.989,3.989,0,0,1,93.023,92.1a14.732,14.732,0,0,0,5.489-11.585A15.074,15.074,0,0,0,83.449,65.458Z" transform="translate(-49.715 -45.616)" fill="#b15815"/>
      <path id="Trazado_873385" data-name="Trazado 873385" d="M102.88,187.71V194.8a1.656,1.656,0,0,0,1.655,1.655h9.382a1.656,1.656,0,0,0,1.655-1.655V187.71Z" transform="translate(-75.49 -136.981)" fill="#22cac5"/>
      <path id="Trazado_873386" data-name="Trazado 873386" d="M101.975,85.749a12.975,12.975,0,0,1-4.857,10.23,5.76,5.76,0,0,0-2.089,4.406v1.192H82.337v-1.142a5.86,5.86,0,0,0-2.119-4.486A12.882,12.882,0,0,1,75.4,85.176a13.291,13.291,0,0,1,26.57.573Z" transform="translate(-54.946 -50.848)" fill="#fdb641"/>
      <path id="Trazado_873387" data-name="Trazado 873387" d="M48.686,32.351c-1-.331-2.034-.62-2.614-3.119-.534,2.3-1.391,2.715-2.614,3.119,2,.659,2.3,1.752,2.614,3.119C46.618,33.113,47.523,32.735,48.686,32.351Z" transform="translate(-31.081 -18.543)" fill="#f0c020"/>
      <path id="Trazado_873388" data-name="Trazado 873388" d="M43.434,33.639c-.29-1.249-.481-2.075-2.171-2.633a.673.673,0,0,1,0-1.276c1.017-.336,1.689-.558,2.171-2.633a.672.672,0,0,1,1.309,0c.493,2.122,1.229,2.323,2.171,2.633a.673.673,0,0,1,0,1.276c-.981.324-1.689.558-2.171,2.633A.672.672,0,0,1,43.434,33.639Zm-.384-3.255A3.489,3.489,0,0,1,44.1,31.5a3.322,3.322,0,0,1,.994-1.122,3.428,3.428,0,0,1-1-1.162A3.337,3.337,0,0,1,43.05,30.384Z" transform="translate(-29.098 -16.56)"/>
      <path id="Trazado_873389" data-name="Trazado 873389" d="M197.075,32.351c-1-.331-2.034-.62-2.614-3.119-.534,2.3-1.391,2.715-2.614,3.119,2,.659,2.3,1.752,2.614,3.119C195.007,33.113,195.912,32.735,197.075,32.351Z" transform="translate(-141.979 -18.543)" fill="#f0c020"/>
      <path id="Trazado_873390" data-name="Trazado 873390" d="M191.822,33.639c-.29-1.249-.481-2.075-2.171-2.633a.673.673,0,0,1,0-1.276c1.017-.336,1.689-.558,2.171-2.633a.672.672,0,0,1,1.309,0c.493,2.122,1.229,2.323,2.171,2.633a.673.673,0,0,1,0,1.276c-.981.324-1.689.558-2.171,2.633A.672.672,0,0,1,191.822,33.639Zm-.384-3.255A3.489,3.489,0,0,1,192.49,31.5a3.322,3.322,0,0,1,.994-1.122,3.428,3.428,0,0,1-1-1.162A3.332,3.332,0,0,1,191.438,30.384Z" transform="translate(-139.995 -16.56)"/>
      <path id="Trazado_873391" data-name="Trazado 873391" d="M85.331,73.261H46.939a.632.632,0,1,1,0-1.263H84.7V46.552a3.162,3.162,0,0,1,3.158-3.158H90L64.046,17.437a.632.632,0,0,1,.893-.893L91.975,43.579a.632.632,0,0,1-.447,1.078H87.858a1.9,1.9,0,0,0-1.895,1.895V72.63A.631.631,0,0,1,85.331,73.261Zm-40.919,0h-.758a.632.632,0,0,1,0-1.263h.758a.632.632,0,1,1,0,1.263Z" transform="translate(-30.757 -8.922)" fill="#b15815"/>
      <path id="Trazado_873392" data-name="Trazado 873392" d="M118.651,200.162H114.3a.632.632,0,1,1,0-1.263h3.723v-3.057a.632.632,0,0,1,1.263,0v3.689A.631.631,0,0,1,118.651,200.162Zm-6.882,0h-.758a.632.632,0,1,1,0-1.263h.758a.632.632,0,1,1,0,1.263Z" transform="translate(-81.095 -142.586)" fill="#efefef"/>
      <path id="Trazado_873393" data-name="Trazado 873393" d="M129.626,106.1a.632.632,0,0,1-.489-.748c.056-.266.124-.531.2-.789a.632.632,0,1,1,1.208.368c-.068.222-.126.45-.174.679A.632.632,0,0,1,129.626,106.1Zm1.042-3.1a.632.632,0,0,1-.177-.875,9.515,9.515,0,0,1,1.82-2.033,9.69,9.69,0,0,0-6.12-17.195.632.632,0,0,1,0-1.263,10.955,10.955,0,0,1,6.932,19.426,8.263,8.263,0,0,0-1.579,1.763A.631.631,0,0,1,130.669,103Z" transform="translate(-92.44 -57.704)" fill="#f7e4b0"/>
      <path id="Trazado_873394" data-name="Trazado 873394" d="M3.84,38.261h5.9v26.63a1.979,1.979,0,0,0,1.978,1.976h18.12a.632.632,0,0,0,0-1.263H11.717A.715.715,0,0,1,11,64.891V37.629A.632.632,0,0,0,10.371,37H3.847a.71.71,0,0,1-.5-1.215L33.231,5.893a.712.712,0,0,1,1.011,0L49.174,20.825a.647.647,0,0,0,.892,0,.634.634,0,0,0,0-.894h0L35.134,5a1.977,1.977,0,0,0-2.795,0L2.45,34.888A1.976,1.976,0,0,0,3.84,38.261Z"/>
      <path id="Trazado_873395" data-name="Trazado 873395" d="M118.051,83.868,106.666,72.486a.642.642,0,0,0-.892,0,.631.631,0,0,0,0,.892l11.382,11.385a.711.711,0,0,1-.5,1.215H110.13a.634.634,0,0,0-.632.632v27.262a.717.717,0,0,1-.715.712H88.109a.715.715,0,0,1-.712-.712v-4.788h4.059a2.29,2.29,0,0,0,2.287-2.287c0-6.753,0-8.256,0-8.279A5.128,5.128,0,0,1,95.606,94.6c10.177-8.483,3.992-24.636-8.826-24.636h-.031A13.894,13.894,0,0,0,76.514,74.5a.629.629,0,0,0,.038.892.648.648,0,0,0,.892-.04,12.714,12.714,0,0,1,9.321-4.126h.015a12.642,12.642,0,0,1,8.014,22.405,6.378,6.378,0,0,0-2.314,4.889v.561H81.05v-.51a6.478,6.478,0,0,0-2.345-4.97,12.442,12.442,0,0,1-3.78-14.179.631.631,0,0,0-.366-.816.644.644,0,0,0-.814.364,13.685,13.685,0,0,0,4.149,15.6,5.229,5.229,0,0,1,1.892,4V106.8a2.29,2.29,0,0,0,2.287,2.287h4.059v4.788a1.979,1.979,0,0,0,1.976,1.976h20.675a1.979,1.979,0,0,0,1.978-1.976V87.241h5.9A1.977,1.977,0,0,0,118.051,83.868ZM82.073,107.82A1.025,1.025,0,0,1,81.05,106.8v-6.455H92.479v2.887H88.437a.632.632,0,0,0,0,1.263h4.042V106.8a1.025,1.025,0,0,1-1.024,1.024Z" transform="translate(-53.028 -48.98)"/>
      <path id="Trazado_873396" data-name="Trazado 873396" d="M196.513,73.248a.634.634,0,0,0,0-.894.647.647,0,0,0-.892,0,.632.632,0,0,0,.892.894Z" transform="translate(-144.661 -50.636)"/>
      <path id="Trazado_873397" data-name="Trazado 873397" d="M81.033,96.23a.631.631,0,1,0-.2-.874l0,0A.633.633,0,0,0,81.033,96.23Z" transform="translate(-58.939 -67.739)"/>
      <path id="Trazado_873398" data-name="Trazado 873398" d="M118.746,101.3a.642.642,0,0,0-.849.27v0l-3.423,6.66a.631.631,0,0,0,.563.92h4.571l-2.247,4.377-.6-1.894a.632.632,0,1,0-1.205.379l1.059,3.358a.632.632,0,0,0,.788.413l3.363-1.06a.633.633,0,0,0,.414-.793.642.642,0,0,0-.793-.412l-1.913.6,2.729-5.313a.635.635,0,0,0-.563-.922h-4.571l2.948-5.74A.628.628,0,0,0,118.746,101.3Z" transform="translate(-84.103 -72.352)"/>
    </g>
  </g>
</svg>
