<svg xmlns="http://www.w3.org/2000/svg" width="96.762" height="96.762" viewBox="0 0 96.762 96.762">
  <g id="Grupo_1100149" data-name="Grupo 1100149" transform="translate(-852.294 -5081.209)">
    <g id="Grupo_1099943" data-name="Grupo 1099943">
      <g id="Grupo_1099194" data-name="Grupo 1099194" transform="translate(525.513 1105.209)">
        <g id="Grupo_1099174" data-name="Grupo 1099174" transform="translate(326.781 3976)">
          <g id="Grupo_1099167" data-name="Grupo 1099167" transform="translate(0 0)">
            <path id="Trazado_873000" data-name="Trazado 873000" d="M48.381,0h0V22.476a25.9,25.9,0,1,0,25.905,25.9H96.762A48.381,48.381,0,1,1,48.381,0" transform="translate(0 96.762) rotate(-90)" fill="#201144"/>
          </g>
          <rect id="Rectángulo_401249" data-name="Rectángulo 401249" width="66.409" height="66.409" rx="33.204" transform="translate(15.157 15.157)" fill="#e8faf9"/>
        </g>
      </g>
    </g>
    <g id="reshot-icon-computer-dollar-NFVHYE9JP4" transform="translate(862.203 5090.644)">
      <g id="Grupo_1100093" data-name="Grupo 1100093" transform="translate(16.416 16.069)">
        <g id="Grupo_1100071" data-name="Grupo 1100071" transform="translate(0 9.914)">
          <path id="Trazado_874387" data-name="Trazado 874387" d="M61.66,74.107H24.137a3.282,3.282,0,0,0-3.259,3.233V98H64.989V77.34A3.344,3.344,0,0,0,61.66,74.107Z" transform="translate(-20.878 -74.107)" fill="#e5e5e4"/>
        </g>
        <g id="Grupo_1100072" data-name="Grupo 1100072" transform="translate(20.218 38.402)">
          <rect id="Rectángulo_401536" data-name="Rectángulo 401536" width="4.595" height="3.676" fill="#e5e5e4"/>
        </g>
        <g id="Grupo_1100073" data-name="Grupo 1100073" transform="translate(14.704 42.078)">
          <rect id="Rectángulo_401537" data-name="Rectángulo 401537" width="15.623" height="2.757" fill="#9ad7d2"/>
        </g>
        <g id="Grupo_1100074" data-name="Grupo 1100074" transform="translate(0 33.807)">
          <path id="Trazado_874388" data-name="Trazado 874388" d="M20.877,213.99v1.432a3.222,3.222,0,0,0,3.259,3.163H61.659a3.285,3.285,0,0,0,3.329-3.163V213.99Z" transform="translate(-20.877 -213.99)" fill="#9ad7d2"/>
        </g>
        <g id="Grupo_1100075" data-name="Grupo 1100075" transform="translate(22.056 35.645)">
          <path id="Trazado_874389" data-name="Trazado 874389" d="M150.919,225.209a.459.459,0,1,1-.459-.459A.459.459,0,0,1,150.919,225.209Z" transform="translate(-150 -224.75)" fill="#e5e5e4"/>
        </g>
        <g id="Grupo_1100076" data-name="Grupo 1100076" transform="translate(3.58 14.412)">
          <circle id="Elipse_11499" data-name="Elipse 11499" cx="6.892" cy="6.892" r="6.892" transform="translate(0 13.607) rotate(-80.782)" fill="#ffda88"/>
        </g>
        <g id="Grupo_1100077" data-name="Grupo 1100077" transform="translate(4.595 15.427)">
          <path id="Trazado_874390" data-name="Trazado 874390" d="M49.616,113.279a6.888,6.888,0,0,1,5.973-6.824,6.893,6.893,0,1,0,0,13.649A6.888,6.888,0,0,1,49.616,113.279Z" transform="translate(-47.778 -106.387)" fill="#ffe2a9"/>
        </g>
        <g id="Grupo_1100078" data-name="Grupo 1100078" transform="translate(8.869 17.638)">
          <path id="Trazado_874391" data-name="Trazado 874391" d="M77.53,124.617a2.034,2.034,0,0,0-.618-.69,6.74,6.74,0,0,0-1.09-.555c-.657-.264-.984-.578-.984-.939a.668.668,0,0,1,.189-.474.618.618,0,0,1,.453-.2,2.7,2.7,0,0,1,1.119.459l.743-1.167a1.931,1.931,0,0,0-1.464-.706v-.525c0-.272-.321-.493-.919-.493s-.919.221-.919.493v.6a2.412,2.412,0,0,0-.585.489,2.376,2.376,0,0,0-.445,1.625,1.881,1.881,0,0,0,1.031,1.55,4.713,4.713,0,0,0,.9.485c.791.338,1.161.606,1.161.989a.735.735,0,0,1-.257.531.844.844,0,0,1-.545.255c-.535.037-.976-.339-1.592-.792l-.913,1.16a4.38,4.38,0,0,0,1.24.983v.493c0,.273.4.493.919.493.49,0,.919-.22.919-.493V127.7A2.542,2.542,0,0,0,77,127.211a2.233,2.233,0,0,0,.786-1.635A1.93,1.93,0,0,0,77.53,124.617Z" transform="translate(-72.8 -119.33)" fill="#fe6f80"/>
        </g>
        <g id="Grupo_1100079" data-name="Grupo 1100079" transform="translate(22.056 15.427)">
          <rect id="Rectángulo_401538" data-name="Rectángulo 401538" width="16.542" height="1.838" transform="translate(0 0)" fill="#c1c1c1"/>
        </g>
        <g id="Grupo_1100080" data-name="Grupo 1100080" transform="translate(22.056 19.103)">
          <rect id="Rectángulo_401539" data-name="Rectángulo 401539" width="7.352" height="1.838" transform="translate(0 0)" fill="#c1c1c1"/>
        </g>
        <g id="Grupo_1100081" data-name="Grupo 1100081" transform="translate(32.164 19.103)">
          <rect id="Rectángulo_401540" data-name="Rectángulo 401540" width="6.433" height="1.838" transform="translate(0 0)" fill="#c1c1c1"/>
        </g>
        <g id="Grupo_1100082" data-name="Grupo 1100082" transform="translate(26.618 22.858)">
          <path id="Trazado_874392" data-name="Trazado 874392" d="M183.477,150.16l-3.9,3.9-1.3-1.3a.919.919,0,1,0-1.3,1.3l1.95,1.95a.919.919,0,0,0,1.3,0l4.549-4.549a.919.919,0,1,0-1.3-1.3Z" transform="translate(-176.709 -149.891)" fill="#fe6f80"/>
        </g>
        <g id="Grupo_1100083" data-name="Grupo 1100083" transform="translate(20.218 38.402)">
          <rect id="Rectángulo_401541" data-name="Rectángulo 401541" width="1.838" height="3.676" fill="#efefef"/>
        </g>
        <g id="Grupo_1100084" data-name="Grupo 1100084" transform="translate(14.704 42.078)">
          <rect id="Rectángulo_401542" data-name="Rectángulo 401542" width="2.757" height="2.757" fill="#abede6"/>
        </g>
        <g id="Grupo_1100085" data-name="Grupo 1100085" transform="translate(0 9.965)">
          <path id="Trazado_874393" data-name="Trazado 874393" d="M23.635,74.409a3.275,3.275,0,0,0-2.757,3.181V98.251h2.757Z" transform="translate(-20.878 -74.409)" fill="#efefef"/>
        </g>
        <g id="Grupo_1100086" data-name="Grupo 1100086" transform="translate(0 33.807)">
          <path id="Trazado_874394" data-name="Trazado 874394" d="M23.635,213.99H20.878v1.432a3.2,3.2,0,0,0,2.757,3.113Z" transform="translate(-20.878 -213.99)" fill="#abede6"/>
        </g>
        <g id="Grupo_1100087" data-name="Grupo 1100087" transform="translate(22.056 15.427)">
          <rect id="Rectángulo_401543" data-name="Rectángulo 401543" width="0.919" height="1.838" transform="translate(0 0)" fill="#d6d6d6"/>
        </g>
        <g id="Grupo_1100088" data-name="Grupo 1100088" transform="translate(22.056 19.103)">
          <rect id="Rectángulo_401544" data-name="Rectángulo 401544" width="0.919" height="1.838" transform="translate(0 0)" fill="#d6d6d6"/>
        </g>
        <g id="Grupo_1100089" data-name="Grupo 1100089" transform="translate(32.164 19.103)">
          <rect id="Rectángulo_401545" data-name="Rectángulo 401545" width="0.919" height="1.838" transform="translate(0 0)" fill="#d6d6d6"/>
        </g>
        <g id="Grupo_1100090" data-name="Grupo 1100090" transform="translate(19.301 5.424)">
          <path id="Trazado_874395" data-name="Trazado 874395" d="M139.382,50.474a.917.917,0,0,1-.553-.186,2.732,2.732,0,0,0-3.451-.028.919.919,0,0,1-1.185-1.405,4.58,4.58,0,0,1,5.744-.033.919.919,0,0,1-.555,1.652Z" transform="translate(-133.87 -47.822)" fill="#9ad7d2"/>
        </g>
        <g id="Grupo_1100091" data-name="Grupo 1100091" transform="translate(16.542 2.778)">
          <path id="Trazado_874396" data-name="Trazado 874396" d="M128.745,35.794a.914.914,0,0,1-.509-.154,7.767,7.767,0,0,0-9.025-.047.919.919,0,0,1-1.148-1.435,9.664,9.664,0,0,1,11.192-.047.919.919,0,0,1-.511,1.684Z" transform="translate(-117.718 -32.335)" fill="#9ad7d2"/>
        </g>
        <g id="Grupo_1100092" data-name="Grupo 1100092" transform="translate(14.705)">
          <path id="Trazado_874397" data-name="Trazado 874397" d="M121.667,19.55a.914.914,0,0,1-.373-.08c-7.67-3.408-12.695-.211-12.9-.073a.919.919,0,0,1-1.016-1.531c.243-.162,6.035-3.912,14.668-.075a.919.919,0,0,1-.374,1.759Z" transform="translate(-106.964 -16.069)" fill="#9ad7d2"/>
        </g>
      </g>
      <g id="Grupo_1100108" data-name="Grupo 1100108" transform="translate(15.497 16.069)">
        <g id="Grupo_1100094" data-name="Grupo 1100094" transform="translate(20.218 37.483)">
          <path id="Trazado_874398" data-name="Trazado 874398" d="M139.374,241.025h-4.595a.919.919,0,0,1-.919-.919V236.43a.919.919,0,0,1,.919-.919h4.595a.919.919,0,0,1,.919.919v3.676A.919.919,0,0,1,139.374,241.025Zm-3.676-1.838h2.757v-1.838H135.7Z" transform="translate(-133.86 -235.511)" fill="#161616"/>
        </g>
        <g id="Grupo_1100095" data-name="Grupo 1100095" transform="translate(14.704 41.159)">
          <path id="Trazado_874399" data-name="Trazado 874399" d="M118.121,261.626H102.5a.919.919,0,0,1-.919-.919V257.95a.919.919,0,0,1,.919-.919h15.623a.919.919,0,0,1,.919.919v2.757A.919.919,0,0,1,118.121,261.626Zm-14.7-1.838H117.2v-.919H103.417Z" transform="translate(-101.579 -257.031)" fill="#161616"/>
        </g>
        <g id="Grupo_1100096" data-name="Grupo 1100096" transform="translate(22.975 35.645)">
          <path id="Trazado_874400" data-name="Trazado 874400" d="M150.919,225.209a.459.459,0,1,1-.459-.459A.459.459,0,0,1,150.919,225.209Z" transform="translate(-150 -224.75)" fill="#161616"/>
        </g>
        <g id="Grupo_1100097" data-name="Grupo 1100097" transform="translate(9.788 17.638)">
          <path id="Trazado_874401" data-name="Trazado 874401" d="M77.53,124.617a2.034,2.034,0,0,0-.618-.69,6.74,6.74,0,0,0-1.09-.555c-.657-.264-.984-.578-.984-.939a.668.668,0,0,1,.189-.474.618.618,0,0,1,.453-.2,2.7,2.7,0,0,1,1.119.459l.743-1.167a1.931,1.931,0,0,0-1.464-.706v-.525c0-.272-.321-.493-.919-.493s-.919.221-.919.493v.6a2.412,2.412,0,0,0-.585.489,2.376,2.376,0,0,0-.445,1.625,1.881,1.881,0,0,0,1.031,1.55,4.713,4.713,0,0,0,.9.485c.791.338,1.161.606,1.161.989a.735.735,0,0,1-.257.531.844.844,0,0,1-.545.255c-.535.037-.976-.339-1.592-.792l-.913,1.16a4.38,4.38,0,0,0,1.24.983v.493c0,.273.4.493.919.493.49,0,.919-.22.919-.493V127.7A2.542,2.542,0,0,0,77,127.211a2.233,2.233,0,0,0,.786-1.635A1.93,1.93,0,0,0,77.53,124.617Z" transform="translate(-72.8 -119.33)" fill="#161616"/>
        </g>
        <g id="Grupo_1100098" data-name="Grupo 1100098" transform="translate(4.595 14.508)">
          <path id="Trazado_874402" data-name="Trazado 874402" d="M50.209,116.63a7.811,7.811,0,1,1,7.811-7.811A7.82,7.82,0,0,1,50.209,116.63Zm0-13.785a5.973,5.973,0,1,0,5.973,5.973A5.98,5.98,0,0,0,50.209,102.845Z" transform="translate(-42.398 -101.007)" fill="#161616"/>
        </g>
        <g id="Grupo_1100099" data-name="Grupo 1100099" transform="translate(22.975 15.427)">
          <rect id="Rectángulo_401546" data-name="Rectángulo 401546" width="16.542" height="1.838" transform="translate(0 0)" fill="#161616"/>
        </g>
        <g id="Grupo_1100100" data-name="Grupo 1100100" transform="translate(22.975 19.103)">
          <rect id="Rectángulo_401547" data-name="Rectángulo 401547" width="7.352" height="1.838" transform="translate(0 0)" fill="#161616"/>
        </g>
        <g id="Grupo_1100101" data-name="Grupo 1100101" transform="translate(33.083 19.103)">
          <rect id="Rectángulo_401548" data-name="Rectángulo 401548" width="6.433" height="1.838" transform="translate(0 0)" fill="#161616"/>
        </g>
        <g id="Grupo_1100102" data-name="Grupo 1100102" transform="translate(27.537 22.858)">
          <path id="Trazado_874403" data-name="Trazado 874403" d="M183.477,150.16l-3.9,3.9-1.3-1.3a.919.919,0,1,0-1.3,1.3l1.95,1.95a.919.919,0,0,0,1.3,0l4.549-4.549a.919.919,0,1,0-1.3-1.3Z" transform="translate(-176.709 -149.891)" fill="#161616"/>
        </g>
        <g id="Grupo_1100103" data-name="Grupo 1100103" transform="translate(0 32.888)">
          <path id="Trazado_874404" data-name="Trazado 874404" d="M57.2,215.043H26.526a.919.919,0,0,1,0-1.838H57.2a2.363,2.363,0,0,0,2.41-2.244v-.513H17.336v.513a2.3,2.3,0,0,0,2.34,2.244H22.85a.919.919,0,0,1,0,1.838H19.676a4.135,4.135,0,0,1-4.178-4.082v-1.432a.919.919,0,0,1,.919-.919H60.528a.919.919,0,0,1,.919.919v1.432A4.223,4.223,0,0,1,57.2,215.043Z" transform="translate(-15.498 -208.61)" fill="#161616"/>
        </g>
        <g id="Grupo_1100104" data-name="Grupo 1100104" transform="translate(0 8.995)">
          <path id="Trazado_874405" data-name="Trazado 874405" d="M60.527,94.459H16.416a.919.919,0,0,1-.919-.919V72.879a4.22,4.22,0,0,1,4.178-4.152H57.2a4.257,4.257,0,0,1,4.248,4.152V75.16a.919.919,0,0,1-1.838,0V72.879a2.425,2.425,0,0,0-2.41-2.314H19.675a2.358,2.358,0,0,0-2.34,2.314V92.621H59.608V78.836a.919.919,0,0,1,1.838,0v14.7A.919.919,0,0,1,60.527,94.459Z" transform="translate(-15.497 -68.727)" fill="#161616"/>
        </g>
        <g id="Grupo_1100105" data-name="Grupo 1100105" transform="translate(20.22 5.424)">
          <path id="Trazado_874406" data-name="Trazado 874406" d="M139.382,50.474a.917.917,0,0,1-.553-.186,2.732,2.732,0,0,0-3.451-.028.919.919,0,0,1-1.185-1.405,4.58,4.58,0,0,1,5.744-.033.919.919,0,0,1-.555,1.652Z" transform="translate(-133.87 -47.822)" fill="#161616"/>
        </g>
        <g id="Grupo_1100106" data-name="Grupo 1100106" transform="translate(17.46 2.778)">
          <path id="Trazado_874407" data-name="Trazado 874407" d="M128.745,35.794a.914.914,0,0,1-.509-.154,7.767,7.767,0,0,0-9.025-.047.919.919,0,0,1-1.148-1.435,9.664,9.664,0,0,1,11.192-.047.919.919,0,0,1-.511,1.684Z" transform="translate(-117.718 -32.335)" fill="#161616"/>
        </g>
        <g id="Grupo_1100107" data-name="Grupo 1100107" transform="translate(15.624)">
          <path id="Trazado_874408" data-name="Trazado 874408" d="M121.667,19.55a.914.914,0,0,1-.373-.08c-7.669-3.408-12.695-.211-12.9-.073a.919.919,0,0,1-1.016-1.531c.243-.162,6.034-3.912,14.668-.075a.919.919,0,0,1-.374,1.759Z" transform="translate(-106.964 -16.069)" fill="#161616"/>
        </g>
      </g>
    </g>
  </g>
</svg>
