<svg xmlns="http://www.w3.org/2000/svg" xmlns:xlink="http://www.w3.org/1999/xlink" width="190" height="136" viewBox="0 0 190 136">
  <defs>
    <clipPath id="clip-path">
      <rect id="Rectángulo_401402" data-name="Rectángulo 401402" width="158" height="136" transform="translate(300.051 2888)" fill="#fff" stroke="#707070" stroke-width="1"/>
    </clipPath>
    <clipPath id="clip-path-2">
      <rect id="Rectángulo_401401" data-name="Rectángulo 401401" width="148.854" height="196.375" fill="none"/>
    </clipPath>
    <clipPath id="clip-path-3">
      <rect id="Rectángulo_401395" data-name="Rectángulo 401395" width="148.855" height="196.375" fill="none"/>
    </clipPath>
    <clipPath id="clip-path-6">
      <rect id="Rectángulo_401397" data-name="Rectángulo 401397" width="16.405" height="16.405" fill="none"/>
    </clipPath>
  </defs>
  <g id="Grupo_1099814" data-name="Grupo 1099814" transform="translate(-285.051 -2888)">
    <rect id="Rectángulo_401317" data-name="Rectángulo 401317" width="190" height="122" rx="8" transform="translate(285.051 2902)" fill="#f6ede6"/>
    <g id="Enmascarar_grupo_1098683" data-name="Enmascarar grupo 1098683" clip-path="url(#clip-path)">
      <g id="Grupo_1099813" data-name="Grupo 1099813" transform="translate(305.623 2888)">
        <g id="Grupo_1099812" data-name="Grupo 1099812" clip-path="url(#clip-path-2)">
          <g id="Grupo_1099804" data-name="Grupo 1099804">
            <g id="Grupo_1099803" data-name="Grupo 1099803" clip-path="url(#clip-path-3)">
              <path id="Trazado_873506" data-name="Trazado 873506" d="M203.418,90.407s-4.368-.843-8.2,5.211-3.6,14.176-3.371,21.916-.2,17.765-.429,21.29-4.071,6.921-4.071,6.921l54.844,1.291a188.054,188.054,0,0,0-7.012-18.185c-4.214-9.348-7.853-24.42-7.853-24.42s5.364,1.226,4.9-1.839-3.525-6.513-11.953-10.881-14.023-4.214-16.858-1.3" transform="translate(-106.772 -50.33)" fill="#263238"/>
              <path id="Trazado_873507" data-name="Trazado 873507" d="M203.418,90.407s-4.368-.843-8.2,5.211-3.6,14.176-3.371,21.916-.2,17.765-.429,21.29-4.071,6.921-4.071,6.921l54.844,1.291a188.054,188.054,0,0,0-7.012-18.185c-4.214-9.348-7.853-24.42-7.853-24.42s5.364,1.226,4.9-1.839-3.525-6.513-11.953-10.881S206.253,87.5,203.418,90.407Z" transform="translate(-106.772 -50.33)" fill="none" stroke="#263238" stroke-miterlimit="10" stroke-width="1"/>
              <path id="Trazado_873508" data-name="Trazado 873508" d="M177.2,428.544,179.36,412.8l64.746-4.824,5.459,20.693Z" transform="translate(-100.989 -232.511)" fill="#263238"/>
              <path id="Trazado_873509" data-name="Trazado 873509" d="M177.2,428.544,179.36,412.8l64.746-4.824,5.459,20.693Z" transform="translate(-100.989 -232.511)" fill="none" stroke="#263238" stroke-miterlimit="10" stroke-width="1"/>
              <path id="Trazado_873510" data-name="Trazado 873510" d="M240.3,269.391a98.324,98.324,0,0,1-4.256-9.987c1.138-2.747,4.966-9.75,4.966-9.75l2.272-4.089a15.283,15.283,0,0,1-.324-4.606,37.492,37.492,0,0,0-.13-5.163s2.386-19.425,2.386-22.151,0-5.907-.682-6.816-5.339-4.089-14.881-7.157a83.78,83.78,0,0,0-13.4-3.408c-.682-.228-12.723.8-12.723.8s-18.857,3.181-19.766,4.2,2.5,51.119,2.5,51.119a33.3,33.3,0,0,0-1.75,6.407c-1.608,4.572-6.569,19.116-7.139,26.053a104.807,104.807,0,0,0-.568,10.678s15,6.816,22.379,8.293,13.859,2.726,13.859,2.726l2.5-6.7,3.181,6.589s12.723-4.771,17.153-7.952,10.224-10.565,10.224-10.565-3.067-13.064-5.793-18.516" transform="translate(-100.755 -111.834)" fill="#dfbba0"/>
              <path id="Trazado_873511" data-name="Trazado 873511" d="M240.3,269.391a98.324,98.324,0,0,1-4.256-9.987c1.138-2.747,4.966-9.75,4.966-9.75l2.272-4.089a15.283,15.283,0,0,1-.324-4.606,37.492,37.492,0,0,0-.13-5.163s2.386-19.425,2.386-22.151,0-5.907-.682-6.816-5.339-4.089-14.881-7.157a83.78,83.78,0,0,0-13.4-3.408c-.682-.228-12.723.8-12.723.8s-18.857,3.181-19.766,4.2,2.5,51.119,2.5,51.119a33.3,33.3,0,0,0-1.75,6.407c-1.608,4.572-6.569,19.116-7.139,26.053a104.807,104.807,0,0,0-.568,10.678s15,6.816,22.379,8.293,13.859,2.726,13.859,2.726l2.5-6.7,3.181,6.589s12.723-4.771,17.153-7.952,10.224-10.565,10.224-10.565S243.025,274.844,240.3,269.391Z" transform="translate(-100.755 -111.834)" fill="none" stroke="#263238" stroke-miterlimit="10" stroke-width="1"/>
              <path id="Trazado_873512" data-name="Trazado 873512" d="M312.17,223.806s-3.9,5.148-4.731,7.791" transform="translate(-175.213 -127.55)" fill="none" stroke="#263238" stroke-miterlimit="10" stroke-width="1"/>
              <path id="Trazado_873513" data-name="Trazado 873513" d="M276.982,345.994s5.625,1.27,6.713,2.087a18.972,18.972,0,0,0,7.167,2.086,37.267,37.267,0,0,0,4.627-.454l-2.9-3.266s-11.25-1.633-12.974-1.633a3.454,3.454,0,0,0-2.631,1.179" transform="translate(-157.855 -196.514)" fill="#263238"/>
              <path id="Trazado_873514" data-name="Trazado 873514" d="M276.982,345.994s5.625,1.27,6.713,2.087a18.972,18.972,0,0,0,7.167,2.086,37.267,37.267,0,0,0,4.627-.454l-2.9-3.266s-11.25-1.633-12.974-1.633A3.454,3.454,0,0,0,276.982,345.994Z" transform="translate(-157.855 -196.514)" fill="none" stroke="#263238" stroke-miterlimit="10" stroke-width="1"/>
              <path id="Trazado_873515" data-name="Trazado 873515" d="M265.215,418.282c.235,2.344.385,3.889.385,4.029" transform="translate(-151.149 -238.384)" fill="none" stroke="#263238" stroke-miterlimit="10" stroke-width="1"/>
              <path id="Trazado_873516" data-name="Trazado 873516" d="M258.524,353.317s1.725,16.558,2.666,25.846" transform="translate(-147.336 -201.359)" fill="none" stroke="#263238" stroke-miterlimit="10" stroke-width="1"/>
              <path id="Trazado_873517" data-name="Trazado 873517" d="M261.4,290.1c.051.436.1.819.163,1.124.455,2.386-.114,5.339-1.249,6.134s-2.158,4.317-1.7,4.771" transform="translate(-147.32 -165.331)" fill="none" stroke="#263238" stroke-miterlimit="10" stroke-width="1"/>
              <path id="Trazado_873518" data-name="Trazado 873518" d="M264.036,270.527s.108,3.384.322,6.274" transform="translate(-150.477 -154.176)" fill="none" stroke="#263238" stroke-miterlimit="10" stroke-width="1"/>
              <path id="Trazado_873519" data-name="Trazado 873519" d="M238.271,187.149s-1.525-.1-1.906.381-3.336,4.1-3.431,4.861-.286,12.485-.286,13.438,1.334,4,2,2.288a49.583,49.583,0,0,1,1.811-5.051c.667-1.144,2.382,1.239,2.382,1.239l11.246,3.05s3.622-2.1,4.289-3.431.572,4,1.43,4.194,1.62-1.239.763-4.479-.667-9.435-1.906-13.152-2.1-4-4.1-4.1-12.294.763-12.294.763" transform="translate(-132.589 -106.219)" fill="#efddcf"/>
              <path id="Trazado_873520" data-name="Trazado 873520" d="M238.271,187.149s-1.525-.1-1.906.381-3.336,4.1-3.431,4.861-.286,12.485-.286,13.438,1.334,4,2,2.288a49.583,49.583,0,0,1,1.811-5.051c.667-1.144,2.382,1.239,2.382,1.239l11.246,3.05s3.622-2.1,4.289-3.431.572,4,1.43,4.194,1.62-1.239.763-4.479-.667-9.435-1.906-13.152-2.1-4-4.1-4.1S238.271,187.149,238.271,187.149Z" transform="translate(-132.589 -106.219)" fill="none" stroke="#263238" stroke-miterlimit="10" stroke-width="1"/>
              <path id="Trazado_873521" data-name="Trazado 873521" d="M242.173,170.944s.766,9.042.766,10.575-.383,7.816,1.149,11.954,5.9,17.7,6.82,18.237,1.916-.766,3.6-5.134,5.517-10.8,4.827-17.241-3.678-19.234-3.678-19.234Z" transform="translate(-138.017 -96.943)" fill="#fff"/>
              <path id="Trazado_873522" data-name="Trazado 873522" d="M242.173,170.944s.766,9.042.766,10.575-.383,7.816,1.149,11.954,5.9,17.7,6.82,18.237,1.916-.766,3.6-5.134,5.517-10.8,4.827-17.241-3.678-19.234-3.678-19.234Z" transform="translate(-138.017 -96.943)" fill="none" stroke="#263238" stroke-miterlimit="10" stroke-width="1"/>
              <path id="Trazado_873523" data-name="Trazado 873523" d="M251.9,187.828l-8.616,3.5-.5-5.494Z" transform="translate(-138.366 -105.907)" fill="#263238"/>
              <path id="Trazado_873524" data-name="Trazado 873524" d="M251.9,187.828l-8.616,3.5-.5-5.494Z" transform="translate(-138.366 -105.907)" fill="none" stroke="#263238" stroke-miterlimit="10" stroke-width="1"/>
              <path id="Trazado_873525" data-name="Trazado 873525" d="M249.571,232.81c1.932,5.613,4.825,14.213,5.554,14.638.92.536,1.916-.766,3.6-5.134.889-2.3,2.372-5.177,3.476-8.324a12.867,12.867,0,0,1-12.631-1.18" transform="translate(-142.233 -132.681)" fill="#263238"/>
              <path id="Trazado_873526" data-name="Trazado 873526" d="M249.571,232.81c1.932,5.613,4.825,14.213,5.554,14.638.92.536,1.916-.766,3.6-5.134.889-2.3,2.372-5.177,3.476-8.324A12.867,12.867,0,0,1,249.571,232.81Z" transform="translate(-142.233 -132.681)" fill="none" stroke="#263238" stroke-miterlimit="10" stroke-width="1"/>
              <path id="Trazado_873527" data-name="Trazado 873527" d="M220.264,128.15s4.765,11.777,6.875,13.478,9.326,4.425,11.844,4.22,5.106-1.838,5.786-3.4,3.54-5.582,3.063-8.849-3.608-15.248-3.608-15.248A76.617,76.617,0,0,1,233.4,115.9a14.627,14.627,0,0,1-6.943-5.582s-.817,7.9-2.723,12.185-3.472,5.65-3.472,5.65" transform="translate(-125.531 -62.87)" fill="#fff"/>
              <path id="Trazado_873528" data-name="Trazado 873528" d="M220.264,128.15s4.765,11.777,6.875,13.478,9.326,4.425,11.844,4.22,5.106-1.838,5.786-3.4,3.54-5.582,3.063-8.849-3.608-15.248-3.608-15.248A76.617,76.617,0,0,1,233.4,115.9a14.627,14.627,0,0,1-6.943-5.582s-.817,7.9-2.723,12.185S220.264,128.15,220.264,128.15Z" transform="translate(-125.531 -62.87)" fill="none" stroke="#263238" stroke-miterlimit="10" stroke-width="1"/>
              <path id="Trazado_873529" data-name="Trazado 873529" d="M258.683,144.218s.656,3.561,1.874,4.311,1.687,1.125,1.218,1.968a3.378,3.378,0,0,1-2.249,1.312" transform="translate(-147.426 -82.191)" fill="none" stroke="#263238" stroke-miterlimit="10" stroke-width="1"/>
              <path id="Trazado_873530" data-name="Trazado 873530" d="M249.75,166.007s2.811,2.718,5.623,2.249" transform="translate(-142.335 -94.609)" fill="none" stroke="#263238" stroke-miterlimit="10" stroke-width="1"/>
              <path id="Trazado_873531" data-name="Trazado 873531" d="M233.812,143.732s3.1-1.807,5.462-.9" transform="translate(-133.252 -81.258)" fill="none" stroke="#263238" stroke-miterlimit="10" stroke-width="1"/>
              <path id="Trazado_873532" data-name="Trazado 873532" d="M259.166,137.506s-.741-3.168,2.976-4.059" transform="translate(-147.667 -76.053)" fill="none" stroke="#263238" stroke-miterlimit="10" stroke-width="1"/>
              <path id="Trazado_873533" data-name="Trazado 873533" d="M247.539,150.318c.276.758.125,1.508-.338,1.677s-1.06-.311-1.335-1.068-.125-1.509.337-1.677,1.06.311,1.336,1.068" transform="translate(-140.044 -85.04)" fill="#263238"/>
              <path id="Trazado_873534" data-name="Trazado 873534" d="M267.245,143.528c.275.758.124,1.508-.338,1.676s-1.06-.31-1.335-1.068-.124-1.508.338-1.676,1.06.31,1.336,1.068" transform="translate(-151.274 -81.171)" fill="#263238"/>
              <path id="Trazado_873535" data-name="Trazado 873535" d="M217.989,151.783l-1.717,4.854s1.839,2.682,2.912,3.142a2.6,2.6,0,0,0,2.3-.536Z" transform="translate(-123.256 -86.503)" fill="#fff"/>
              <path id="Trazado_873536" data-name="Trazado 873536" d="M217.989,151.783l-1.717,4.854s1.839,2.682,2.912,3.142a2.6,2.6,0,0,0,2.3-.536Z" transform="translate(-123.256 -86.503)" fill="none" stroke="#263238" stroke-miterlimit="10" stroke-width="1"/>
              <path id="Trazado_873537" data-name="Trazado 873537" d="M214.469,318.862s22.833,3.749,27.945,3.749a72.6,72.6,0,0,0,10.224-.454c.568-.228,7.724-.909,8.293.114a6.2,6.2,0,0,1,.341,2.953,12.778,12.778,0,0,1,.341,3.408,5.185,5.185,0,0,1-.909,2.613,1.59,1.59,0,0,1-.227,1.7c-.682.909-.8,1.7-2.045,1.932a15.854,15.854,0,0,1-4.544-.568c-.454-.114-5.225-.682-6.475-1.363a16.5,16.5,0,0,0-2.726-1.249,22.846,22.846,0,0,0-2.84-.454s-22.265,1.363-25.559,1.136-5.339-.227-5.339-.227Z" transform="translate(-120.221 -181.723)" fill="#fff"/>
              <path id="Trazado_873538" data-name="Trazado 873538" d="M214.469,318.862s22.833,3.749,27.945,3.749a72.6,72.6,0,0,0,10.224-.454c.568-.228,7.724-.909,8.293.114a6.2,6.2,0,0,1,.341,2.953,12.778,12.778,0,0,1,.341,3.408,5.185,5.185,0,0,1-.909,2.613,1.59,1.59,0,0,1-.227,1.7c-.682.909-.8,1.7-2.045,1.932a15.854,15.854,0,0,1-4.544-.568c-.454-.114-5.225-.682-6.475-1.363a16.5,16.5,0,0,0-2.726-1.249,22.846,22.846,0,0,0-2.84-.454s-22.265,1.363-25.559,1.136-5.339-.227-5.339-.227Z" transform="translate(-120.221 -181.723)" fill="none" stroke="#263238" stroke-miterlimit="10" stroke-width="1"/>
              <path id="Trazado_873539" data-name="Trazado 873539" d="M294.042,299.333s1.842,8.061,3.454,10.441,5.066,5.912,8.214,4.683,3.993-.921,4.529-6.756.384-10.134-.46-11.746a18.561,18.561,0,0,0-2.3-3.224Z" transform="translate(-167.578 -166.831)" fill="#dfbba0"/>
              <path id="Trazado_873540" data-name="Trazado 873540" d="M294.042,299.333s1.842,8.061,3.454,10.441,5.066,5.912,8.214,4.683,3.993-.921,4.529-6.756.384-10.134-.46-11.746a18.561,18.561,0,0,0-2.3-3.224Z" transform="translate(-167.578 -166.831)" fill="none" stroke="#263238" stroke-miterlimit="10" stroke-width="1"/>
              <path id="Trazado_873541" data-name="Trazado 873541" d="M278.378,192.966s-4.3-3.762-6.448-5.451a72.882,72.882,0,0,1-6.526-5.989c-1.535-1.612-2.457-2.457-2.61-1s2.073,4.913,2.534,5.527,3.071,3.531,3.071,3.531-3.071,2.15-3.839,2.764-.768,1.305-1,3.071a2.367,2.367,0,0,0,1.919,2.917,2.851,2.851,0,0,0,2.38-.461s3.071,2.073,4.99,2.38a9.026,9.026,0,0,1,3.685,1.766s-.614,28.405-.691,29.1,4.069.537,8.061-.768,5.067-2.841,5.067-2.841-5.144-24.413-6.449-27.868-2.687-5.834-4.146-6.679" transform="translate(-149.764 -102.457)" fill="#fff"/>
              <path id="Trazado_873542" data-name="Trazado 873542" d="M278.378,192.966s-4.3-3.762-6.448-5.451a72.882,72.882,0,0,1-6.526-5.989c-1.535-1.612-2.457-2.457-2.61-1s2.073,4.913,2.534,5.527,3.071,3.531,3.071,3.531-3.071,2.15-3.839,2.764-.768,1.305-1,3.071a2.367,2.367,0,0,0,1.919,2.917,2.851,2.851,0,0,0,2.38-.461s3.071,2.073,4.99,2.38a9.026,9.026,0,0,1,3.685,1.766s-.614,28.405-.691,29.1,4.069.537,8.061-.768,5.067-2.841,5.067-2.841-5.144-24.413-6.449-27.868S279.837,193.811,278.378,192.966Z" transform="translate(-149.764 -102.457)" fill="none" stroke="#263238" stroke-miterlimit="10" stroke-width="1"/>
              <path id="Trazado_873543" data-name="Trazado 873543" d="M271.33,219.73l-2-1.612s-.077.691-.461.921" transform="translate(-153.234 -124.308)" fill="#fff"/>
              <path id="Trazado_873544" data-name="Trazado 873544" d="M271.33,219.73l-2-1.612s-.077.691-.461.921" transform="translate(-153.234 -124.308)" fill="none" stroke="#263238" stroke-miterlimit="10" stroke-width="1"/>
              <path id="Trazado_873545" data-name="Trazado 873545" d="M289.933,288.923s.23,6.142,1,6.6,6.6-.921,9.673-2,5.3-2.38,5.374-3.378a15.578,15.578,0,0,0-1.228-4.76c-.538-1.3-1.305-1-1.612-.691s-3.071,1.3-7.216,2.38-6.065.691-5.988,1.842" transform="translate(-165.235 -162.101)" fill="#dfbba0"/>
              <path id="Trazado_873546" data-name="Trazado 873546" d="M289.933,288.923s.23,6.142,1,6.6,6.6-.921,9.673-2,5.3-2.38,5.374-3.378a15.578,15.578,0,0,0-1.228-4.76c-.538-1.3-1.305-1-1.612-.691s-3.071,1.3-7.216,2.38S289.857,287.772,289.933,288.923Z" transform="translate(-165.235 -162.101)" fill="none" stroke="#263238" stroke-miterlimit="10" stroke-width="1"/>
              <path id="Trazado_873547" data-name="Trazado 873547" d="M201.786,259.381c-.141-1.557-.261-2.982-.348-4.174" transform="translate(-114.802 -145.445)" fill="#92e3a9"/>
              <path id="Trazado_873548" data-name="Trazado 873548" d="M201.786,259.381c-.141-1.557-.261-2.982-.348-4.174" transform="translate(-114.802 -145.445)" fill="none" stroke="#263238" stroke-miterlimit="10" stroke-width="1"/>
              <path id="Trazado_873549" data-name="Trazado 873549" d="M188.223,205.288s-11.7.682-12.155,2.613-1.818,17.267-2.272,32.375.341,26.127,1.363,26.468,12.723.341,12.723.341l1.477-13.177-1.249-1.931s-1.189-14.956-1.972-23.124" transform="translate(-98.974 -116.996)" fill="#dfbba0"/>
              <path id="Trazado_873550" data-name="Trazado 873550" d="M188.223,205.288s-11.7.682-12.155,2.613-1.818,17.267-2.272,32.375.341,26.127,1.363,26.468,12.723.341,12.723.341l1.477-13.177-1.249-1.931s-1.189-14.956-1.972-23.124" transform="translate(-98.974 -116.996)" fill="none" stroke="#263238" stroke-miterlimit="10" stroke-width="1"/>
              <path id="Trazado_873551" data-name="Trazado 873551" d="M200.8,312.352s-2.272,14.881-2.613,15.563-.568,1.931.8,1.818,5.112.909,5.566-.114,4.09-12.155,3.749-13.745a3.609,3.609,0,0,0-2.5-2.386c-.568-.227-4.317-1.7-5-1.136" transform="translate(-112.802 -177.939)" fill="#efddcf"/>
              <path id="Trazado_873552" data-name="Trazado 873552" d="M200.8,312.352s-2.272,14.881-2.613,15.563-.568,1.931.8,1.818,5.112.909,5.566-.114,4.09-12.155,3.749-13.745a3.609,3.609,0,0,0-2.5-2.386C205.231,313.261,201.483,311.784,200.8,312.352Z" transform="translate(-112.802 -177.939)" fill="none" stroke="#263238" stroke-miterlimit="10" stroke-width="1"/>
              <path id="Trazado_873553" data-name="Trazado 873553" d="M191.5,295.45c-.514-.655-.929-1.169-1.151-1.416" transform="translate(-108.48 -167.573)" fill="none" stroke="#263238" stroke-miterlimit="10" stroke-width="1"/>
              <path id="Trazado_873554" data-name="Trazado 873554" d="M185.855,303.93l8.065,1.818s-2.1-2.8-3.88-5.113" transform="translate(-105.921 -171.335)" fill="none" stroke="#263238" stroke-miterlimit="10" stroke-width="1"/>
              <path id="Trazado_873555" data-name="Trazado 873555" d="M206.421,173.576s-3.331,19.381-3.46,28.292,3.46,14.044,8.345,15.672,9.159-1.221,8.142-2.646-5.088,1.424-6.513-3.664,3.663-9.363,3.867-19.336,0-12.619,0-12.619" transform="translate(-115.668 -98.923)" fill="#263238"/>
              <path id="Trazado_873556" data-name="Trazado 873556" d="M206.421,173.576s-3.331,19.381-3.46,28.292,3.46,14.044,8.345,15.672,9.159-1.221,8.142-2.646-5.088,1.424-6.513-3.664,3.663-9.363,3.867-19.336,0-12.619,0-12.619" transform="translate(-115.668 -98.923)" fill="none" stroke="#263238" stroke-miterlimit="10" stroke-width="1"/>
            </g>
          </g>
          <g id="Grupo_1099806" data-name="Grupo 1099806">
            <g id="Grupo_1099805" data-name="Grupo 1099805" clip-path="url(#clip-path-3)">
              <path id="Trazado_873557" data-name="Trazado 873557" d="M82.818,31.965A12.05,12.05,0,0,0,65.87,20.954a12.045,12.045,0,0,0-17.736-4.322A12.055,12.055,0,0,0,31.711,10.01,12.051,12.051,0,0,0,11.458,21.383,16.71,16.71,0,0,0,6.175,49.619,12.051,12.051,0,0,0,25.311,62.65a16.713,16.713,0,0,0,30.2,1.545A13.374,13.374,0,0,0,71.411,44,12.051,12.051,0,0,0,82.818,31.965" transform="translate(-0.285 -3.675)" fill="#263238"/>
              <path id="Trazado_873558" data-name="Trazado 873558" d="M82.818,31.965A12.05,12.05,0,0,0,65.87,20.954a12.045,12.045,0,0,0-17.736-4.322A12.055,12.055,0,0,0,31.711,10.01,12.051,12.051,0,0,0,11.458,21.383,16.71,16.71,0,0,0,6.175,49.619,12.051,12.051,0,0,0,25.311,62.65a16.713,16.713,0,0,0,30.2,1.545A13.374,13.374,0,0,0,71.411,44,12.051,12.051,0,0,0,82.818,31.965Z" transform="translate(-0.285 -3.675)" fill="none" stroke="#263238" stroke-miterlimit="10" stroke-width="1"/>
              <path id="Trazado_873559" data-name="Trazado 873559" d="M157.242,141.961c.964,1.975,3.862,2.544,6.472,1.27s3.945-3.909,2.981-5.884-3.862-2.544-6.472-1.269-3.944,3.908-2.98,5.884" transform="translate(-89.436 -77.164)" fill="#263238"/>
              <path id="Trazado_873560" data-name="Trazado 873560" d="M157.242,141.961c.964,1.975,3.862,2.544,6.472,1.27s3.945-3.909,2.981-5.884-3.862-2.544-6.472-1.269S156.278,139.986,157.242,141.961Z" transform="translate(-89.436 -77.164)" fill="none" stroke="#263238" stroke-miterlimit="10" stroke-width="1"/>
              <path id="Trazado_873561" data-name="Trazado 873561" d="M171.548,160.873c.723,1.48,2.894,1.906,4.849.951s2.956-2.929,2.233-4.409-2.894-1.906-4.849-.951-2.956,2.928-2.233,4.408" transform="translate(-97.633 -88.881)" fill="#263238"/>
              <path id="Trazado_873562" data-name="Trazado 873562" d="M171.548,160.873c.723,1.48,2.894,1.906,4.849.951s2.956-2.929,2.233-4.409-2.894-1.906-4.849-.951S170.825,159.393,171.548,160.873Z" transform="translate(-97.633 -88.881)" fill="none" stroke="#263238" stroke-miterlimit="10" stroke-width="1"/>
              <path id="Trazado_873563" data-name="Trazado 873563" d="M86.123,26.016A12.05,12.05,0,0,0,69.175,15.005a12.045,12.045,0,0,0-17.736-4.322A12.055,12.055,0,0,0,35.016,4.061,12.051,12.051,0,0,0,14.763,15.434,16.71,16.71,0,0,0,9.48,43.67,12.051,12.051,0,0,0,28.616,56.7a16.713,16.713,0,0,0,30.2,1.545,13.374,13.374,0,0,0,15.9-20.2A12.051,12.051,0,0,0,86.123,26.016" transform="translate(-2.169 -0.285)" fill="#fff"/>
              <path id="Trazado_873564" data-name="Trazado 873564" d="M86.123,26.016A12.05,12.05,0,0,0,69.175,15.005a12.045,12.045,0,0,0-17.736-4.322A12.055,12.055,0,0,0,35.016,4.061,12.051,12.051,0,0,0,14.763,15.434,16.71,16.71,0,0,0,9.48,43.67,12.051,12.051,0,0,0,28.616,56.7a16.713,16.713,0,0,0,30.2,1.545,13.374,13.374,0,0,0,15.9-20.2A12.051,12.051,0,0,0,86.123,26.016Z" transform="translate(-2.169 -0.285)" fill="none" stroke="#263238" stroke-miterlimit="10" stroke-width="1"/>
              <path id="Trazado_873565" data-name="Trazado 873565" d="M160.546,136.012c.964,1.975,3.862,2.544,6.472,1.269s3.945-3.908,2.981-5.884-3.862-2.544-6.472-1.269-3.944,3.908-2.98,5.884" transform="translate(-91.319 -73.774)" fill="#fff"/>
              <path id="Trazado_873566" data-name="Trazado 873566" d="M160.546,136.012c.964,1.975,3.862,2.544,6.472,1.269s3.945-3.908,2.981-5.884-3.862-2.544-6.472-1.269S159.582,134.037,160.546,136.012Z" transform="translate(-91.319 -73.774)" fill="none" stroke="#263238" stroke-miterlimit="10" stroke-width="1"/>
              <path id="Trazado_873567" data-name="Trazado 873567" d="M174.853,154.924c.723,1.48,2.894,1.906,4.849.951s2.956-2.928,2.233-4.408-2.894-1.906-4.849-.951-2.956,2.928-2.233,4.408" transform="translate(-99.517 -85.49)" fill="#fff"/>
              <path id="Trazado_873568" data-name="Trazado 873568" d="M174.853,154.924c.723,1.48,2.894,1.906,4.849.951s2.956-2.928,2.233-4.408-2.894-1.906-4.849-.951S174.13,153.444,174.853,154.924Z" transform="translate(-99.517 -85.49)" fill="none" stroke="#263238" stroke-miterlimit="10" stroke-width="1"/>
            </g>
          </g>
          <g id="Grupo_1099811" data-name="Grupo 1099811">
            <g id="Grupo_1099810" data-name="Grupo 1099810" clip-path="url(#clip-path-3)">
              <path id="Trazado_873569" data-name="Trazado 873569" d="M90.389,48.445a12.933,12.933,0,1,0-22.87,8.274,12.7,12.7,0,0,1,2.946,8.138v1.772H84.447V64.856a12.678,12.678,0,0,1,2.94-8.13,12.87,12.87,0,0,0,3-8.281" transform="translate(-36.772 -20.239)" fill="#22cac5"/>
              <path id="Trazado_873570" data-name="Trazado 873570" d="M90.389,48.445a12.933,12.933,0,1,0-22.87,8.274,12.7,12.7,0,0,1,2.946,8.138v1.772H84.447V64.856a12.678,12.678,0,0,1,2.94-8.13A12.87,12.87,0,0,0,90.389,48.445Z" transform="translate(-36.772 -20.239)" fill="none" stroke="#263238" stroke-miterlimit="10" stroke-width="1"/>
              <g id="Grupo_1099809" data-name="Grupo 1099809" transform="translate(32.472 20.886)" opacity="0.44">
                <g id="Grupo_1099808" data-name="Grupo 1099808">
                  <g id="Grupo_1099807" data-name="Grupo 1099807" clip-path="url(#clip-path-6)">
                    <path id="Trazado_873571" data-name="Trazado 873571" d="M91.9,56.765a8.2,8.2,0,1,0-8.2,8.2,8.2,8.2,0,0,0,8.2-8.2" transform="translate(-75.499 -48.563)" fill="#fff"/>
                  </g>
                </g>
              </g>
              <rect id="Rectángulo_401398" data-name="Rectángulo 401398" width="13.981" height="3.458" transform="translate(33.693 46.393)" fill="#7d7d7d"/>
              <rect id="Rectángulo_401399" data-name="Rectángulo 401399" width="13.981" height="3.458" transform="translate(33.693 46.393)" fill="none" stroke="#263238" stroke-linecap="round" stroke-linejoin="round" stroke-width="1"/>
              <path id="Trazado_873572" data-name="Trazado 873572" d="M90.288,119.387H80.371a2.032,2.032,0,0,1-2.032-2.032v-1.426H92.32v1.426a2.032,2.032,0,0,1-2.032,2.032" transform="translate(-44.646 -66.069)" fill="#7d7d7d"/>
              <path id="Trazado_873573" data-name="Trazado 873573" d="M90.288,119.387H80.371a2.032,2.032,0,0,1-2.032-2.032v-1.426H92.32v1.426A2.032,2.032,0,0,1,90.288,119.387Z" transform="translate(-44.646 -66.069)" fill="none" stroke="#263238" stroke-linecap="round" stroke-linejoin="round" stroke-width="1"/>
              <path id="Trazado_873574" data-name="Trazado 873574" d="M90.137,127.419H85.2a2.757,2.757,0,0,1-2.757-2.757v-.7H92.894v.7a2.757,2.757,0,0,1-2.757,2.757" transform="translate(-46.984 -70.647)" fill="#fff"/>
              <path id="Trazado_873575" data-name="Trazado 873575" d="M90.137,127.419H85.2a2.757,2.757,0,0,1-2.757-2.757v-.7H92.894v.7A2.757,2.757,0,0,1,90.137,127.419Z" transform="translate(-46.984 -70.647)" fill="none" stroke="#263238" stroke-linecap="round" stroke-linejoin="round" stroke-width="1"/>
              <line id="Línea_567" data-name="Línea 567" x2="5.924" transform="translate(55.452 28.274)" fill="none" stroke="#263238" stroke-linecap="round" stroke-linejoin="round" stroke-width="1"/>
              <line id="Línea_568" data-name="Línea 568" x2="6" transform="translate(19.436 28.274)" fill="none" stroke="#263238" stroke-linecap="round" stroke-linejoin="round" stroke-width="1"/>
              <line id="Línea_569" data-name="Línea 569" y1="5.941" transform="translate(40.406 7.303)" fill="none" stroke="#263238" stroke-linecap="round" stroke-linejoin="round" stroke-width="1"/>
              <line id="Línea_570" data-name="Línea 570" y1="4.089" x2="4.089" transform="translate(51.145 13.446)" fill="none" stroke="#263238" stroke-linecap="round" stroke-linejoin="round" stroke-width="1"/>
              <line id="Línea_571" data-name="Línea 571" y1="4.149" x2="4.149" transform="translate(25.578 38.953)" fill="none" stroke="#263238" stroke-linecap="round" stroke-linejoin="round" stroke-width="1"/>
              <line id="Línea_572" data-name="Línea 572" x1="3.971" y1="3.971" transform="translate(25.578 13.445)" fill="none" stroke="#263238" stroke-linecap="round" stroke-linejoin="round" stroke-width="1"/>
              <line id="Línea_573" data-name="Línea 573" x1="3.955" y1="3.955" transform="translate(51.279 39.147)" fill="none" stroke="#263238" stroke-linecap="round" stroke-linejoin="round" stroke-width="1"/>
            </g>
          </g>
        </g>
      </g>
    </g>
  </g>
</svg>
