<svg xmlns="http://www.w3.org/2000/svg" xmlns:xlink="http://www.w3.org/1999/xlink" width="96.762" height="96.762" viewBox="0 0 96.762 96.762">
  <defs>
    <clipPath id="clip-path">
      <rect id="Rect치ngulo_401494" data-name="Rect치ngulo 401494" width="51" height="51" transform="translate(0 -0.238)" fill="#160b2f"/>
    </clipPath>
  </defs>
  <g id="Grupo_1099961" data-name="Grupo 1099961" transform="translate(-753.051 -5915.718)">
    <g id="Grupo_1099177" data-name="Grupo 1099177" transform="translate(426.27 1939.718)">
      <g id="Grupo_1099174" data-name="Grupo 1099174" transform="translate(326.781 3976)">
        <g id="Grupo_1099167" data-name="Grupo 1099167" transform="translate(0 0)">
          <path id="Trazado_873000" data-name="Trazado 873000" d="M48.381,0h0V22.476a25.9,25.9,0,1,0,25.905,25.9H96.762A48.381,48.381,0,1,1,48.381,0" transform="translate(0 96.762) rotate(-90)" fill="#201144"/>
        </g>
        <rect id="Rect치ngulo_401249" data-name="Rect치ngulo 401249" width="66.409" height="66.409" rx="33.204" transform="translate(15.157 15.157)" fill="#e8faf9"/>
      </g>
    </g>
    <g id="Grupo_1099951" data-name="Grupo 1099951" transform="translate(776.051 5940.238)">
      <g id="Grupo_1099948" data-name="Grupo 1099948">
        <g id="Grupo_1099947" data-name="Grupo 1099947" clip-path="url(#clip-path)">
          <path id="Trazado_874224" data-name="Trazado 874224" d="M.793,20.345A.792.792,0,0,1,0,19.552V14.793a.793.793,0,0,1,1.586,0v4.759a.792.792,0,0,1-.793.793" transform="translate(0 -2.896)" fill="#160b2f"/>
          <path id="Trazado_874225" data-name="Trazado 874225" d="M.793,32.345A.792.792,0,0,1,0,31.552V26.793a.793.793,0,0,1,1.586,0v4.759a.792.792,0,0,1-.793.793" transform="translate(0 -5.378)" fill="#160b2f"/>
          <path id="Trazado_874226" data-name="Trazado 874226" d="M.793,38.345A.792.792,0,0,1,0,37.552V32.793a.793.793,0,0,1,1.586,0v4.759a.792.792,0,0,1-.793.793" transform="translate(0 -6.619)" fill="#160b2f"/>
          <path id="Trazado_874227" data-name="Trazado 874227" d="M.793,26.345A.792.792,0,0,1,0,25.552V20.793a.793.793,0,0,1,1.586,0v4.759a.792.792,0,0,1-.793.793" transform="translate(0 -4.137)" fill="#160b2f"/>
          <path id="Trazado_874228" data-name="Trazado 874228" d="M.793,44.345A.792.792,0,0,1,0,43.552V38.793a.793.793,0,0,1,1.586,0v4.759a.792.792,0,0,1-.793.793" transform="translate(0 -7.86)" fill="#160b2f"/>
        </g>
      </g>
      <g id="Grupo_1099950" data-name="Grupo 1099950">
        <g id="Grupo_1099949" data-name="Grupo 1099949" clip-path="url(#clip-path)">
          <path id="Trazado_874229" data-name="Trazado 874229" d="M45.9,37.485a.789.789,0,0,1-.612-.289l-11.1-13.484a.793.793,0,0,1,.612-1.3h3.966V1.793a.793.793,0,0,1,1.586,0V23.208a.792.792,0,0,1-.793.793H36.474L46.51,36.187a.794.794,0,0,1-.612,1.3" transform="translate(-7.033 -0.207)" fill="#160b2f"/>
          <path id="Trazado_874230" data-name="Trazado 874230" d="M48.792,39.14a.784.784,0,0,1-.5-.182.792.792,0,0,1-.108-1.116L58.217,25.656H55.138a.792.792,0,0,1-.793-.793V9.793a.793.793,0,0,1,1.586,0V24.07H59.9a.793.793,0,0,1,.612,1.3L49.4,38.851a.789.789,0,0,1-.612.289" transform="translate(-9.929 -1.862)" fill="#160b2f"/>
          <path id="Trazado_874231" data-name="Trazado 874231" d="M56.793,4.966A.792.792,0,0,1,56,4.173V1.793a.793.793,0,0,1,1.586,0V4.173a.792.792,0,0,1-.793.793" transform="translate(-11.583 -0.207)" fill="#160b2f"/>
          <path id="Trazado_874232" data-name="Trazado 874232" d="M31.9,56.345c-6.783,0-11.9-2.387-11.9-5.552a.793.793,0,0,1,1.586,0c0,1.876,4.235,3.966,10.311,3.966s10.311-2.09,10.311-3.966a.793.793,0,0,1,1.586,0c0,3.165-5.114,5.552-11.9,5.552" transform="translate(-4.137 -10.342)" fill="#160b2f"/>
          <path id="Trazado_874233" data-name="Trazado 874233" d="M31.9,62.345c-6.783,0-11.9-2.387-11.9-5.552a.793.793,0,0,1,1.586,0c0,1.876,4.235,3.966,10.311,3.966s10.311-2.09,10.311-3.966a.793.793,0,0,1,1.586,0c0,3.165-5.114,5.552-11.9,5.552" transform="translate(-4.137 -11.583)" fill="#160b2f"/>
          <path id="Trazado_874234" data-name="Trazado 874234" d="M20.793,53.863A.792.792,0,0,1,20,53.07V38.793a.793.793,0,0,1,1.586,0V53.07a.792.792,0,0,1-.793.793" transform="translate(-4.137 -7.86)" fill="#160b2f"/>
          <path id="Trazado_874235" data-name="Trazado 874235" d="M23,14.345a.792.792,0,0,1-.793-.793c0-1.876-4.235-3.966-10.311-3.966S1.586,11.676,1.586,13.552a.793.793,0,0,1-1.586,0C0,10.387,5.114,8,11.9,8s11.9,2.387,11.9,5.552a.792.792,0,0,1-.793.793" transform="translate(0 -1.655)" fill="#160b2f"/>
          <path id="Trazado_874236" data-name="Trazado 874236" d="M11.9,20.345C5.114,20.345,0,17.958,0,14.793a.793.793,0,0,1,1.586,0c0,1.876,4.235,3.966,10.311,3.966s10.311-2.09,10.311-3.966a.793.793,0,0,1,1.586,0c0,3.165-5.114,5.552-11.9,5.552" transform="translate(0 -2.896)" fill="#160b2f"/>
          <path id="Trazado_874237" data-name="Trazado 874237" d="M11.9,26.345C5.114,26.345,0,23.958,0,20.793a.793.793,0,0,1,1.586,0c0,1.876,4.235,3.966,10.311,3.966s10.311-2.09,10.311-3.966a.793.793,0,0,1,1.586,0c0,3.165-5.114,5.552-11.9,5.552" transform="translate(0 -4.137)" fill="#160b2f"/>
          <path id="Trazado_874238" data-name="Trazado 874238" d="M21.866,32.34a.793.793,0,0,1-.193-1.563A11.191,11.191,0,0,0,25.237,29.3a.794.794,0,1,1,.9,1.306,12.825,12.825,0,0,1-4.078,1.715.819.819,0,0,1-.194.024" transform="translate(-4.359 -6.031)" fill="#160b2f"/>
          <path id="Trazado_874239" data-name="Trazado 874239" d="M11.9,32.345C5.114,32.345,0,29.958,0,26.793a.793.793,0,0,1,1.586,0c0,1.876,4.235,3.966,10.311,3.966a22.52,22.52,0,0,0,5.417-.634.793.793,0,1,1,.387,1.539,24.144,24.144,0,0,1-5.8.681" transform="translate(0 -5.378)" fill="#160b2f"/>
          <path id="Trazado_874240" data-name="Trazado 874240" d="M26.686,30.089a.793.793,0,0,1-.451-1.446c.606-.419,1.329-1.08,1.329-1.85a.793.793,0,0,1,1.586,0,3.873,3.873,0,0,1-2.015,3.155.792.792,0,0,1-.45.14" transform="translate(-5.356 -5.378)" fill="#160b2f"/>
          <path id="Trazado_874241" data-name="Trazado 874241" d="M28.793,20.345A.792.792,0,0,1,28,19.552V14.793a.793.793,0,0,1,1.586,0v4.759a.792.792,0,0,1-.793.793" transform="translate(-5.792 -2.896)" fill="#160b2f"/>
          <path id="Trazado_874242" data-name="Trazado 874242" d="M28.793,26.345A.792.792,0,0,1,28,25.552V20.793a.793.793,0,0,1,1.586,0v4.759a.792.792,0,0,1-.793.793" transform="translate(-5.792 -4.137)" fill="#160b2f"/>
          <path id="Trazado_874243" data-name="Trazado 874243" d="M28.793,32.552A.792.792,0,0,1,28,31.759V27.793a.793.793,0,0,1,1.586,0v3.966a.792.792,0,0,1-.793.793" transform="translate(-5.792 -5.585)" fill="#160b2f"/>
          <path id="Trazado_874244" data-name="Trazado 874244" d="M20.793,38.361A.792.792,0,0,1,20,37.568c0-2.843,4.181-5.1,10.169-5.49a.8.8,0,0,1,.843.741.793.793,0,0,1-.741.842c-5.364.349-8.685,2.3-8.685,3.907a.792.792,0,0,1-.793.793" transform="translate(-4.137 -6.635)" fill="#160b2f"/>
          <path id="Trazado_874245" data-name="Trazado 874245" d="M31.9,44.345c-6.783,0-11.9-2.387-11.9-5.552a.793.793,0,0,1,1.586,0c0,1.876,4.235,3.966,10.311,3.966a22.608,22.608,0,0,0,5.386-.624.793.793,0,1,1,.384,1.538,24.162,24.162,0,0,1-5.769.673" transform="translate(-4.137 -7.86)" fill="#160b2f"/>
          <path id="Trazado_874246" data-name="Trazado 874246" d="M31.9,50.345c-6.783,0-11.9-2.387-11.9-5.552a.793.793,0,0,1,1.586,0c0,1.876,4.235,3.966,10.311,3.966A18.585,18.585,0,0,0,40.122,47.1a.793.793,0,1,1,.736,1.405A20.188,20.188,0,0,1,31.9,50.345" transform="translate(-4.137 -9.101)" fill="#160b2f"/>
          <path id="Trazado_874247" data-name="Trazado 874247" d="M48.793,56.685A.792.792,0,0,1,48,55.892V52.436a.793.793,0,0,1,1.586,0v3.456a.792.792,0,0,1-.793.793" transform="translate(-9.929 -10.682)" fill="#160b2f"/>
          <path id="Trazado_874248" data-name="Trazado 874248" d="M48.793,52.889A.792.792,0,0,1,48,52.1v-1.3a.793.793,0,0,1,1.586,0v1.3a.792.792,0,0,1-.793.793" transform="translate(-9.929 -10.342)" fill="#160b2f"/>
          <path id="Trazado_874249" data-name="Trazado 874249" d="M11.9,38.345C5.114,38.345,0,35.958,0,32.793a.793.793,0,0,1,1.586,0c0,1.876,4.235,3.966,10.311,3.966.494,0,.972-.023,1.445-.055a.793.793,0,1,1,.105,1.583c-.508.033-1.021.058-1.551.058" transform="translate(0 -6.619)" fill="#160b2f"/>
          <path id="Trazado_874250" data-name="Trazado 874250" d="M11.9,44.345C5.114,44.345,0,41.958,0,38.793a.793.793,0,0,1,1.586,0c0,1.876,4.235,3.966,10.311,3.966.493,0,.972-.024,1.444-.056a.793.793,0,1,1,.109,1.583c-.508.034-1.022.059-1.552.059" transform="translate(0 -7.86)" fill="#160b2f"/>
          <path id="Trazado_874251" data-name="Trazado 874251" d="M11.9,50.345C5.114,50.345,0,47.958,0,44.793a.793.793,0,0,1,1.586,0c0,1.876,4.235,3.966,10.311,3.966.493,0,.972-.024,1.444-.056a.793.793,0,1,1,.109,1.583c-.508.034-1.022.059-1.552.059" transform="translate(0 -9.101)" fill="#160b2f"/>
        </g>
      </g>
    </g>
  </g>
</svg>
