<svg xmlns="http://www.w3.org/2000/svg" width="83" height="83" viewBox="0 0 83 83">
  <g id="Grupo_1099772" data-name="Grupo 1099772" transform="translate(-214.5 -4541)">
    <rect id="Rectángulo_401243" data-name="Rectángulo 401243" width="83" height="83" transform="translate(214.5 4541)" fill="none"/>
    <g id="reshot-icon-phone-call-N7FWHG965Y" transform="translate(227.674 4542.957)">
      <path id="Trazado_873371" data-name="Trazado 873371" d="M57.558,81.276l-8.139-8.139a2.078,2.078,0,0,0-2.938,0l-5.618,5.618a2.077,2.077,0,0,0-.017,2.919c-1.111.785-2.7.912-4.739.376-9.079-2.388-19.544-15.976-15.949-21.065a2.077,2.077,0,0,0,2.919-.017L25.2,58.845l3.5-3.5a2.078,2.078,0,0,0,0-2.938l-8.139-8.139a2.078,2.078,0,0,0-2.938,0L12,49.891a2.077,2.077,0,0,0,.025,2.963C-4.041,70.146,31.69,105.866,48.977,89.807a2.077,2.077,0,0,0,2.963.025l5.618-5.618A2.078,2.078,0,0,0,57.558,81.276Z" transform="translate(-7.08 -27.895)" fill="#efddcf"/>
      <g id="Grupo_1099771" data-name="Grupo 1099771" transform="translate(0.863 15.769)">
        <path id="Trazado_873372" data-name="Trazado 873372" d="M209.452,302.07a2.078,2.078,0,0,0-2.938,0l-5.618,5.618a2.077,2.077,0,0,0-.017,2.919c-1.111.785-2.7.912-4.739.376a21.579,21.579,0,0,1-7.957-4.5c5.236,5.551,11.683,8.526,14.908,6.941a.447.447,0,0,0,.178-.661h0a2.076,2.076,0,0,1,.31-2.537l5.618-5.618a2.077,2.077,0,0,1,2.414-.38Z" transform="translate(-167.977 -272.597)" fill="#b15815"/>
        <path id="Trazado_873373" data-name="Trazado 873373" d="M20.324,44.272a2.078,2.078,0,0,0-2.938,0l-5.618,5.618a2.077,2.077,0,0,0,.025,2.963c-8.6,9.254-2.546,23.637,8.27,33.067C9.949,75.548,7.575,63.445,14.054,55.871l.016-.021a.711.711,0,0,0,.1-.831h0a2.077,2.077,0,0,1,.281-2.587l5.618-5.618a2.078,2.078,0,0,1,2.414-.381Z" transform="translate(-7.713 -43.664)" fill="#b15815"/>
      </g>
      <path id="Trazado_873374" data-name="Trazado 873374" d="M337.938,26.376l-8.629-6.254a.646.646,0,0,0-1.025.523v3.8h-9.352a1.681,1.681,0,0,0-1.68,1.679v1.55a1.681,1.681,0,0,0,1.68,1.679h9.352v3.8a.647.647,0,0,0,1.025.523l8.629-6.254A.646.646,0,0,0,337.938,26.376Z" transform="translate(-281.732 -6.879)" fill="#fdb641"/>
      <path id="Trazado_873376" data-name="Trazado 873376" d="M232.525,143.493l8.628-6.254a.646.646,0,0,1,1.025.523v3.8h9.352a1.681,1.681,0,0,1,1.68,1.679v1.55a1.681,1.681,0,0,1-1.68,1.679h-9.352v3.8a.646.646,0,0,1-.352.575c-.492.251-.275.236-9.3-6.306A.647.647,0,0,1,232.525,143.493Z" transform="translate(-206.254 -110.883)" fill="#22cac5"/>
      <path id="Trazado_873377" data-name="Trazado 873377" d="M241.53,193.561c-.3,0,.2.3-8.051-5.683-.969.7-1.224.8-1.224,1.217a.646.646,0,0,0,.267.523c9.014,6.533,8.809,6.557,9.3,6.306a.646.646,0,0,0,.352-.575v-2.433A.646.646,0,0,1,241.53,193.561Z" transform="translate(-206.251 -155.962)" fill="#74c4c4"/>
      <path id="Trazado_873379" data-name="Trazado 873379" d="M331.829,187.877a1.681,1.681,0,0,1-1.619,1.238h-7.931c-1.319,0-1.415.945-1.421,1.152v1.281h9.352a1.681,1.681,0,0,0,1.68-1.679A7.879,7.879,0,0,0,331.829,187.877Z" transform="translate(-284.933 -155.961)" fill="#74c4c4"/>
      <path id="Trazado_873380" data-name="Trazado 873380" d="M42.928,65.707a2.923,2.923,0,0,0-4.129,0l-5.625,5.625a2.932,2.932,0,0,0-.627,3.191c-1.441.482-3.413-.045-4.824-.607a.84.84,0,0,0-.621,1.56,14.747,14.747,0,0,0,1.689.561c2.288.6,4.12.433,5.444-.5a.84.84,0,0,0,.117-1.272,1.245,1.245,0,0,1,.01-1.743l2.286-2.286,9.9,9.9-2.286,2.286a1.239,1.239,0,0,1-1.782-.028.84.84,0,0,0-1.163-.019c-7.66,7.116-19.984,3.851-29.824-5.989C1.561,66.452-1.546,54.157,5.508,46.564a.841.841,0,0,0-.046-1.19,1.242,1.242,0,0,1,0-1.754l2.286-2.286,9.9,9.9-2.286,2.286a1.245,1.245,0,0,1-1.743.01.84.84,0,0,0-1.272.117c-.935,1.324-1.1,3.156-.5,5.444C13.3,64.6,18.872,70.916,24.408,74.148a.84.84,0,1,0,.847-1.45C17.9,68.405,11.982,59.466,13.362,55.337a2.933,2.933,0,0,0,3.191-.627l5.625-5.625a2.919,2.919,0,0,0,0-4.13L16.962,39.74a.84.84,0,1,0-1.188,1.188l5.215,5.215a1.24,1.24,0,0,1,0,1.754l-2.151,2.151-9.9-9.9,2.151-2.151a1.232,1.232,0,0,1,.877-.363c.643,0,.85.336,1.908,1.394a.84.84,0,0,0,1.188-1.187c-1.025-1.025-1.656-1.886-3.1-1.886a2.9,2.9,0,0,0-2.065.855L7.156,39.549l0,0,0,0L4.273,42.431a2.926,2.926,0,0,0-.468,3.519c-15.461,18.15,20,53.573,38.128,38.128a2.925,2.925,0,0,0,3.519-.467l5.625-5.625a2.924,2.924,0,0,0,0-4.129ZM49.89,76.8l-2.151,2.151-9.9-9.9,2.151-2.151a1.242,1.242,0,0,1,1.754,0l8.149,8.149A1.242,1.242,0,0,1,49.89,76.8Z" transform="translate(0 -21.045)"/>
      <path id="Trazado_873381" data-name="Trazado 873381" d="M331.679,18.8l-3.265-2.367a.84.84,0,1,0-.986,1.36L330.478,20l-8.118,5.884V22.459a.84.84,0,0,0-.84-.84h-9.364a.843.843,0,0,1-.842-.842V19.226a.843.843,0,0,1,.842-.842h9.364a.84.84,0,0,0,.84-.84V14.118l2.683,1.944a.84.84,0,1,0,.986-1.36l-2.989-2.167a1.486,1.486,0,0,0-2.359,1.2V16.7h-8.524a2.524,2.524,0,0,0-2.521,2.521v1.552a2.524,2.524,0,0,0,2.521,2.521h8.524v2.965a1.486,1.486,0,0,0,1.486,1.486c.664,0,.164.231,9.512-6.545a1.487,1.487,0,0,0,0-2.407Z" transform="translate(-274.967)"/>
      <path id="Trazado_873382" data-name="Trazado 873382" d="M225.147,138.451c9.366,6.789,8.847,6.545,9.512,6.545a1.485,1.485,0,0,0,1.486-1.486v-2.965h8.524a2.524,2.524,0,0,0,2.522-2.521v-1.552a2.524,2.524,0,0,0-2.522-2.521h-8.524v-2.965a1.487,1.487,0,0,0-2.359-1.2l-8.639,6.262h0a1.487,1.487,0,0,0,0,2.407Zm9.319-7.087v3.426a.84.84,0,0,0,.84.84h9.364a.843.843,0,0,1,.842.842v1.552a.843.843,0,0,1-.842.842h-9.364a.84.84,0,0,0-.84.84v3.426l-8.118-5.884Zm-8.332,6.039h0Z" transform="translate(-199.393 -104.117)"/>
    </g>
  </g>
</svg>
