<svg xmlns="http://www.w3.org/2000/svg" width="75" height="75" viewBox="0 0 75 75">
  <g id="Grupo_1100070" data-name="Grupo 1100070" transform="translate(-515.051 -1398)">
    <circle id="Elipse_11498" data-name="Elipse 11498" cx="37.5" cy="37.5" r="37.5" transform="translate(515.051 1398)" fill="#fff"/>
    <g id="reshot-icon-coin-bank-38AUQ4YVEP" transform="translate(514.554 1397.503)">
      <g id="Grupo_1100052" data-name="Grupo 1100052" transform="translate(16.398 16.398)">
        <g id="Grupo_1100023" data-name="Grupo 1100023" transform="translate(0 19.827)">
          <rect id="Rectángulo_401524" data-name="Rectángulo 401524" width="43.258" height="2.704" fill="#c1c1c1"/>
        </g>
        <g id="Grupo_1100024" data-name="Grupo 1100024" transform="translate(0 40.554)">
          <rect id="Rectángulo_401525" data-name="Rectángulo 401525" width="43.258" height="2.704" fill="#c1c1c1"/>
        </g>
        <g id="Grupo_1100025" data-name="Grupo 1100025" transform="translate(17.123 22.53)">
          <path id="Trazado_874355" data-name="Trazado 874355" d="M123.1,155.38v1.59c0,1.112.575,2.015,1.687,2.015h5.31a2.015,2.015,0,0,0,2.015-2.015v-1.59H123.1Z" transform="translate(-123.1 -155.38)" fill="#e5e5e4"/>
        </g>
        <g id="Grupo_1100026" data-name="Grupo 1100026" transform="translate(2.704 22.53)">
          <path id="Trazado_874356" data-name="Trazado 874356" d="M37.018,155.38v1.59c0,1.112.575,2.015,1.687,2.015h5.31a2.015,2.015,0,0,0,2.015-2.015v-1.59H37.018Z" transform="translate(-37.018 -155.38)" fill="#e5e5e4"/>
        </g>
        <g id="Grupo_1100027" data-name="Grupo 1100027" transform="translate(31.542 22.53)">
          <path id="Trazado_874357" data-name="Trazado 874357" d="M209.181,155.38v1.59c0,1.112.575,2.015,1.687,2.015h5.31a2.015,2.015,0,0,0,2.015-2.015v-1.59h-9.012Z" transform="translate(-209.181 -155.38)" fill="#e5e5e4"/>
        </g>
        <g id="Grupo_1100028" data-name="Grupo 1100028" transform="translate(17.123 36.95)">
          <path id="Trazado_874358" data-name="Trazado 874358" d="M132.111,245.066v-1.59c0-1.112-.575-2.015-1.687-2.015h-5.31a2.015,2.015,0,0,0-2.015,2.015v1.59Z" transform="translate(-123.099 -241.461)" fill="#e5e5e4"/>
        </g>
        <g id="Grupo_1100029" data-name="Grupo 1100029" transform="translate(31.542 36.95)">
          <path id="Trazado_874359" data-name="Trazado 874359" d="M218.193,245.066v-1.59c0-1.112-.575-2.015-1.687-2.015H211.2a2.015,2.015,0,0,0-2.015,2.015v1.59Z" transform="translate(-209.181 -241.461)" fill="#e5e5e4"/>
        </g>
        <g id="Grupo_1100030" data-name="Grupo 1100030" transform="translate(2.704 36.95)">
          <path id="Trazado_874360" data-name="Trazado 874360" d="M46.029,245.066v-1.59c0-1.112-.575-2.015-1.687-2.015H39.032a2.015,2.015,0,0,0-2.015,2.015v1.59Z" transform="translate(-37.017 -241.461)" fill="#e5e5e4"/>
        </g>
        <g id="Grupo_1100031" data-name="Grupo 1100031" transform="translate(2.704 22.53)">
          <path id="Trazado_874361" data-name="Trazado 874361" d="M38.82,156.97v-1.59h-1.8v1.59c0,1.112.575,2.015,1.687,2.015h1.8C39.4,158.985,38.82,158.083,38.82,156.97Z" transform="translate(-37.018 -155.38)" fill="#efefef"/>
        </g>
        <g id="Grupo_1100032" data-name="Grupo 1100032" transform="translate(2.704 36.95)">
          <path id="Trazado_874362" data-name="Trazado 874362" d="M40.835,241.462h-1.8a2.015,2.015,0,0,0-2.015,2.015v1.59h1.8v-1.59A2.015,2.015,0,0,1,40.835,241.462Z" transform="translate(-37.018 -241.462)" fill="#efefef"/>
        </g>
        <g id="Grupo_1100033" data-name="Grupo 1100033" transform="translate(17.123 22.53)">
          <path id="Trazado_874363" data-name="Trazado 874363" d="M124.9,156.97v-1.59h-1.8v1.59c0,1.112.575,2.015,1.687,2.015h1.8C125.477,158.985,124.9,158.083,124.9,156.97Z" transform="translate(-123.1 -155.38)" fill="#efefef"/>
        </g>
        <g id="Grupo_1100034" data-name="Grupo 1100034" transform="translate(17.123 36.95)">
          <path id="Trazado_874364" data-name="Trazado 874364" d="M126.916,241.462h-1.8a2.015,2.015,0,0,0-2.015,2.015v1.59h1.8v-1.59A2.015,2.015,0,0,1,126.916,241.462Z" transform="translate(-123.099 -241.462)" fill="#efefef"/>
        </g>
        <g id="Grupo_1100035" data-name="Grupo 1100035" transform="translate(31.542 22.53)">
          <path id="Trazado_874365" data-name="Trazado 874365" d="M210.983,156.97v-1.59h-1.8v1.59c0,1.112.575,2.015,1.687,2.015h1.8C211.558,158.985,210.983,158.083,210.983,156.97Z" transform="translate(-209.181 -155.38)" fill="#efefef"/>
        </g>
        <g id="Grupo_1100036" data-name="Grupo 1100036" transform="translate(31.542 36.95)">
          <path id="Trazado_874366" data-name="Trazado 874366" d="M213,241.462h-1.8a2.015,2.015,0,0,0-2.015,2.015v1.59h1.8v-1.59A2.015,2.015,0,0,1,213,241.462Z" transform="translate(-209.181 -241.462)" fill="#efefef"/>
        </g>
        <g id="Grupo_1100037" data-name="Grupo 1100037" transform="translate(5.407 26.135)">
          <rect id="Rectángulo_401526" data-name="Rectángulo 401526" width="3.605" height="10.814" fill="#e5e5e4"/>
        </g>
        <g id="Grupo_1100038" data-name="Grupo 1100038" transform="translate(19.827 26.135)">
          <rect id="Rectángulo_401527" data-name="Rectángulo 401527" width="3.605" height="10.814" fill="#e5e5e4"/>
        </g>
        <g id="Grupo_1100039" data-name="Grupo 1100039" transform="translate(34.246 26.135)">
          <rect id="Rectángulo_401528" data-name="Rectángulo 401528" width="3.605" height="10.814" fill="#e5e5e4"/>
        </g>
        <g id="Grupo_1100040" data-name="Grupo 1100040" transform="translate(13.969 0)">
          <path id="Trazado_874367" data-name="Trazado 874367" d="M107,34.4h9.862a7.66,7.66,0,1,0-9.862,0Z" transform="translate(-104.27 -20.877)" fill="#ffda88"/>
        </g>
        <g id="Grupo_1100041" data-name="Grupo 1100041" transform="translate(13.969 0)">
          <path id="Trazado_874368" data-name="Trazado 874368" d="M106.973,28.537A7.656,7.656,0,0,1,113.281,21,7.654,7.654,0,0,0,107,34.4h2.7A7.64,7.64,0,0,1,106.973,28.537Z" transform="translate(-104.269 -20.877)" fill="#ffe2a9"/>
        </g>
        <g id="Grupo_1100042" data-name="Grupo 1100042" transform="translate(0 6.991)">
          <path id="Trazado_874369" data-name="Trazado 874369" d="M50.133,62.61c.018.222.034.444.034.67a7.64,7.64,0,0,1-2.729,5.858H37.575a7.64,7.64,0,0,1-2.729-5.858c0-.226.015-.448.033-.67l-14,12.836H64.135Z" transform="translate(-20.877 -62.61)" fill="#e5e5e4"/>
        </g>
        <g id="Grupo_1100043" data-name="Grupo 1100043" transform="translate(0 6.991)">
          <path id="Trazado_874370" data-name="Trazado 874370" d="M34.846,63.28c0-.226.015-.448.033-.67l-14,12.836h2.7l11.45-10.5A7.678,7.678,0,0,1,34.846,63.28Z" transform="translate(-20.877 -62.61)" fill="#efefef"/>
        </g>
        <g id="Grupo_1100044" data-name="Grupo 1100044" transform="translate(19.512 3.07)">
          <path id="Trazado_874371" data-name="Trazado 874371" d="M142,44.389a2,2,0,0,0-.606-.677,6.607,6.607,0,0,0-1.068-.544c-.644-.259-.965-.567-.965-.921a.656.656,0,0,1,.185-.466.607.607,0,0,1,.444-.194,2.639,2.639,0,0,1,1.1.451l.729-1.145a1.9,1.9,0,0,0-1.436-.692v-.515c0-.267-.315-.483-.9-.483s-.9.216-.9.483v.592a2.4,2.4,0,0,0-.574.48,2.33,2.33,0,0,0-.437,1.594,1.845,1.845,0,0,0,1.011,1.52,4.619,4.619,0,0,0,.887.476c.775.332,1.139.594,1.139.97a.719.719,0,0,1-.252.521.829.829,0,0,1-.534.25c-.525.037-.957-.333-1.561-.777l-.9,1.137a4.289,4.289,0,0,0,1.216.964V47.9c0,.268.39.483.9.483.481,0,.9-.216.9-.483v-.484a2.479,2.479,0,0,0,1.1-.482,2.19,2.19,0,0,0,.77-1.6A1.887,1.887,0,0,0,142,44.389Z" transform="translate(-137.359 -39.204)" fill="#7fd3b9"/>
        </g>
        <g id="Grupo_1100045" data-name="Grupo 1100045" transform="translate(13.518 13.518)">
          <rect id="Rectángulo_401529" data-name="Rectángulo 401529" width="16.222" height="2.704" fill="#7fd3b9"/>
        </g>
        <g id="Grupo_1100046" data-name="Grupo 1100046" transform="translate(13.518 13.518)">
          <rect id="Rectángulo_401530" data-name="Rectángulo 401530" width="6.309" height="2.704" fill="#bbead9"/>
        </g>
        <g id="Grupo_1100047" data-name="Grupo 1100047" transform="translate(0 19.827)">
          <rect id="Rectángulo_401531" data-name="Rectángulo 401531" width="2.704" height="2.704" fill="#d1d1d1"/>
        </g>
        <g id="Grupo_1100048" data-name="Grupo 1100048" transform="translate(0 40.554)">
          <rect id="Rectángulo_401532" data-name="Rectángulo 401532" width="2.704" height="2.704" fill="#d1d1d1"/>
        </g>
        <g id="Grupo_1100049" data-name="Grupo 1100049" transform="translate(5.407 26.135)">
          <rect id="Rectángulo_401533" data-name="Rectángulo 401533" width="0.901" height="10.814" fill="#efefef"/>
        </g>
        <g id="Grupo_1100050" data-name="Grupo 1100050" transform="translate(19.827 26.135)">
          <rect id="Rectángulo_401534" data-name="Rectángulo 401534" width="0.901" height="10.814" fill="#efefef"/>
        </g>
        <g id="Grupo_1100051" data-name="Grupo 1100051" transform="translate(34.246 26.135)">
          <rect id="Rectángulo_401535" data-name="Rectángulo 401535" width="0.901" height="10.814" fill="#efefef"/>
        </g>
      </g>
      <g id="Grupo_1100068" data-name="Grupo 1100068" transform="translate(15.497 15.497)">
        <g id="Grupo_1100053" data-name="Grupo 1100053" transform="translate(0 19.827)">
          <path id="Trazado_874372" data-name="Trazado 874372" d="M59.656,138.366H16.4a.9.9,0,0,1-.9-.9v-2.7a.9.9,0,0,1,.9-.9H59.656a.9.9,0,0,1,.9.9v2.7A.9.9,0,0,1,59.656,138.366Zm-42.357-1.8H58.755v-.9H17.3Z" transform="translate(-15.497 -133.86)" fill="#161616"/>
        </g>
        <g id="Grupo_1100054" data-name="Grupo 1100054" transform="translate(0 40.555)">
          <path id="Trazado_874373" data-name="Trazado 874373" d="M59.656,262.109H16.4a.9.9,0,0,1-.9-.9v-2.7a.9.9,0,0,1,.9-.9H59.656a.9.9,0,0,1,.9.9v2.7A.9.9,0,0,1,59.656,262.109Zm-42.357-1.8H58.755v-.9H17.3Z" transform="translate(-15.497 -257.603)" fill="#161616"/>
        </g>
        <g id="Grupo_1100055" data-name="Grupo 1100055" transform="translate(17.123 22.53)">
          <path id="Trazado_874374" data-name="Trazado 874374" d="M125.618,155.407h-5.311a2.646,2.646,0,0,1-2.588-2.916V150.9a.9.9,0,0,1,.9-.9h9.012a.9.9,0,0,1,.9.9v1.59A2.919,2.919,0,0,1,125.618,155.407Zm-6.1-3.6v.689c0,.415.1,1.113.786,1.113h5.311a1.114,1.114,0,0,0,1.113-1.113V151.8Z" transform="translate(-117.719 -150)" fill="#161616"/>
        </g>
        <g id="Grupo_1100056" data-name="Grupo 1100056" transform="translate(2.704 22.53)">
          <path id="Trazado_874375" data-name="Trazado 874375" d="M39.537,155.407h-5.31a2.646,2.646,0,0,1-2.588-2.916V150.9a.9.9,0,0,1,.9-.9h9.012a.9.9,0,0,1,.9.9v1.59A2.919,2.919,0,0,1,39.537,155.407Zm-6.1-3.6v.689c0,.415.1,1.113.786,1.113h5.311a1.114,1.114,0,0,0,1.113-1.113V151.8Z" transform="translate(-31.638 -150)" fill="#161616"/>
        </g>
        <g id="Grupo_1100057" data-name="Grupo 1100057" transform="translate(31.542 22.53)">
          <path id="Trazado_874376" data-name="Trazado 874376" d="M211.7,155.407h-5.311a2.646,2.646,0,0,1-2.588-2.916V150.9a.9.9,0,0,1,.9-.9h9.012a.9.9,0,0,1,.9.9v1.59A2.919,2.919,0,0,1,211.7,155.407Zm-6.1-3.6v.689c0,.415.1,1.113.786,1.113H211.7a1.114,1.114,0,0,0,1.113-1.113V151.8Z" transform="translate(-203.801 -150)" fill="#161616"/>
        </g>
        <g id="Grupo_1100058" data-name="Grupo 1100058" transform="translate(17.123 36.95)">
          <path id="Trazado_874377" data-name="Trazado 874377" d="M127.633,241.489h-9.012a.9.9,0,0,1-.9-.9V239a2.919,2.919,0,0,1,2.916-2.916h5.311A2.646,2.646,0,0,1,128.535,239v1.59A.9.9,0,0,1,127.633,241.489Zm-8.111-1.8h7.21V239c0-.415-.1-1.113-.786-1.113h-5.311A1.114,1.114,0,0,0,119.522,239Z" transform="translate(-117.72 -236.082)" fill="#161616"/>
        </g>
        <g id="Grupo_1100059" data-name="Grupo 1100059" transform="translate(31.542 36.95)">
          <path id="Trazado_874378" data-name="Trazado 874378" d="M213.714,241.489H204.7a.9.9,0,0,1-.9-.9V239a2.919,2.919,0,0,1,2.916-2.916h5.311A2.646,2.646,0,0,1,214.615,239v1.59A.9.9,0,0,1,213.714,241.489Zm-8.111-1.8h7.21V239c0-.415-.1-1.113-.786-1.113h-5.311A1.114,1.114,0,0,0,205.6,239v.689Z" transform="translate(-203.801 -236.082)" fill="#161616"/>
        </g>
        <g id="Grupo_1100060" data-name="Grupo 1100060" transform="translate(2.704 36.95)">
          <path id="Trazado_874379" data-name="Trazado 874379" d="M41.551,241.489H32.539a.9.9,0,0,1-.9-.9V239a2.919,2.919,0,0,1,2.916-2.916h5.311A2.646,2.646,0,0,1,42.452,239v1.59A.9.9,0,0,1,41.551,241.489Zm-8.111-1.8h7.21V239c0-.415-.1-1.113-.786-1.113H34.554A1.114,1.114,0,0,0,33.44,239Z" transform="translate(-31.638 -236.082)" fill="#161616"/>
        </g>
        <g id="Grupo_1100061" data-name="Grupo 1100061" transform="translate(5.407 26.135)">
          <path id="Trazado_874380" data-name="Trazado 874380" d="M52.284,184.138h-3.6a.9.9,0,0,1-.9-.9V172.422a.9.9,0,0,1,.9-.9h3.6a.9.9,0,0,1,.9.9v10.814A.9.9,0,0,1,52.284,184.138Zm-2.7-1.8h1.8v-9.012h-1.8Z" transform="translate(-47.778 -171.521)" fill="#161616"/>
        </g>
        <g id="Grupo_1100062" data-name="Grupo 1100062" transform="translate(19.827 26.135)">
          <path id="Trazado_874381" data-name="Trazado 874381" d="M138.366,184.138h-3.6a.9.9,0,0,1-.9-.9V172.422a.9.9,0,0,1,.9-.9h3.6a.9.9,0,0,1,.9.9v10.814A.9.9,0,0,1,138.366,184.138Zm-2.7-1.8h1.8v-9.012h-1.8Z" transform="translate(-133.86 -171.521)" fill="#161616"/>
        </g>
        <g id="Grupo_1100063" data-name="Grupo 1100063" transform="translate(13.969 0)">
          <path id="Trazado_874382" data-name="Trazado 874382" d="M112.382,30.818h-9.862a.9.9,0,0,1-.581-.212,8.561,8.561,0,1,1,11.024,0A.9.9,0,0,1,112.382,30.818Zm-9.522-1.8h9.181a6.759,6.759,0,1,0-9.181,0Z" transform="translate(-98.889 -15.497)" fill="#161616"/>
        </g>
        <g id="Grupo_1100064" data-name="Grupo 1100064" transform="translate(20.413 3.971)">
          <path id="Trazado_874383" data-name="Trazado 874383" d="M142,44.389a2,2,0,0,0-.606-.677,6.607,6.607,0,0,0-1.068-.544c-.644-.259-.965-.567-.965-.921a.656.656,0,0,1,.185-.466.607.607,0,0,1,.444-.194,2.639,2.639,0,0,1,1.1.451l.729-1.145a1.9,1.9,0,0,0-1.436-.692v-.515c0-.267-.315-.483-.9-.483s-.9.216-.9.483v.592a2.4,2.4,0,0,0-.574.48,2.33,2.33,0,0,0-.437,1.594,1.845,1.845,0,0,0,1.011,1.52,4.619,4.619,0,0,0,.887.476c.775.332,1.139.594,1.139.97a.719.719,0,0,1-.252.521.829.829,0,0,1-.534.25c-.525.037-.957-.333-1.561-.777l-.9,1.137a4.289,4.289,0,0,0,1.216.964V47.9c0,.268.39.483.9.483.481,0,.9-.216.9-.483v-.484a2.479,2.479,0,0,0,1.1-.482,2.19,2.19,0,0,0,.77-1.6A1.887,1.887,0,0,0,142,44.389Z" transform="translate(-137.359 -39.204)" fill="#161616"/>
        </g>
        <g id="Grupo_1100065" data-name="Grupo 1100065" transform="translate(13.518 13.518)">
          <path id="Trazado_874384" data-name="Trazado 874384" d="M113.322,100.706H97.1a.9.9,0,0,1-.9-.9V97.1a.9.9,0,0,1,.9-.9h16.222a.9.9,0,0,1,.9.9v2.7A.9.9,0,0,1,113.322,100.706ZM98,98.9h14.419V98H98Z" transform="translate(-96.199 -96.2)" fill="#161616"/>
        </g>
        <g id="Grupo_1100066" data-name="Grupo 1100066" transform="translate(34.246 26.135)">
          <path id="Trazado_874385" data-name="Trazado 874385" d="M224.448,184.138h-3.6a.9.9,0,0,1-.9-.9V172.422a.9.9,0,0,1,.9-.9h3.6a.9.9,0,0,1,.9.9v2.7a.9.9,0,0,1-1.8,0v-1.8h-1.8v9.012h1.8v-3.6a.9.9,0,0,1,1.8,0v4.506A.9.9,0,0,1,224.448,184.138Z" transform="translate(-219.942 -171.521)" fill="#161616"/>
        </g>
        <g id="Grupo_1100067" data-name="Grupo 1100067" transform="translate(0 6.99)">
          <path id="Trazado_874386" data-name="Trazado 874386" d="M59.658,71.866H16.4a.9.9,0,0,1-.609-1.566l4.782-4.385a.9.9,0,1,1,1.218,1.329l-3.075,2.819H57.341L46.489,60.116a8.553,8.553,0,0,1-2.948,5.23.9.9,0,0,1-.581.212H33.1a.9.9,0,0,1-.581-.212,8.553,8.553,0,0,1-2.948-5.23l-5.118,4.692a.9.9,0,1,1-1.218-1.329l6.56-6.014A.9.9,0,0,1,31.3,58.2c-.016.2-.03.394-.03.595a6.746,6.746,0,0,0,2.169,4.957h9.181A6.746,6.746,0,0,0,44.788,58.8c0-.2-.014-.4-.03-.595a.9.9,0,0,1,1.507-.739l14,12.836a.9.9,0,0,1-.609,1.566Z" transform="translate(-15.499 -57.227)" fill="#161616"/>
        </g>
      </g>
    </g>
  </g>
</svg>
