<svg xmlns="http://www.w3.org/2000/svg" width="83" height="83" viewBox="0 0 83 83">
  <g id="Grupo_1099774" data-name="Grupo 1099774" transform="translate(-1049.051 -4541)">
    <rect id="Rectángulo_401243" data-name="Rectángulo 401243" width="83" height="83" transform="translate(1049.051 4541)" fill="none"/>
    <g id="reshot-icon-setting-books-UY9J47HZL6" transform="translate(1053.009 4544.259)">
      <path id="Trazado_873399" data-name="Trazado 873399" d="M18.556,55.962s-6.068.291-6.068,7.358v36.734l6.068-4.147Z" transform="translate(-3.214 -40.14)" fill="#dfbba0"/>
      <path id="Trazado_873400" data-name="Trazado 873400" d="M16.633,259.153a4.147,4.147,0,0,0-4.144,4.3,4.212,4.212,0,0,0,4.243,4H47.954a.44.44,0,0,0,.267-.788,4.082,4.082,0,0,1-1.54-3.359,4.19,4.19,0,0,1,3.06-4.147Z" transform="translate(-3.212 -203.386)" fill="#e7e5eb"/>
      <rect id="Rectángulo_401371" data-name="Rectángulo 401371" width="31.186" height="39.945" transform="translate(15.342 15.822)" fill="#efddcf"/>
      <path id="Trazado_873401" data-name="Trazado 873401" d="M34.032,277.819h29.4a5.2,5.2,0,0,1,0-1.573h-29.4A.786.786,0,0,0,34.032,277.819Z" transform="translate(-19.899 -217.119)" fill="#c9d4ff"/>
      <rect id="Rectángulo_401372" data-name="Rectángulo 401372" width="6.106" height="4.933" transform="translate(16.883 59.127)" fill="#c9d4ff"/>
      <path id="Trazado_873402" data-name="Trazado 873402" d="M60.694,276.246v10.567l4.237-2.128,4.237,2.128V276.246Z" transform="translate(-41.943 -217.119)" fill="#f47676"/>
      <path id="Trazado_873403" data-name="Trazado 873403" d="M118.361,60.405a.393.393,0,0,1-.26.628l-3.881.451a2.747,2.747,0,0,0-2.43,2.729v5.635a2.747,2.747,0,0,0,2.43,2.729l3.881.451a.392.392,0,0,1,.26.628l-2.426,3.063a2.747,2.747,0,0,0,.211,3.648l3.984,3.984a2.763,2.763,0,0,0,3.69.177l3.021-2.391a.393.393,0,0,1,.628.26l.451,3.881a2.74,2.74,0,0,0,.974,1.793h.629V55.962H115.361a2.736,2.736,0,0,0,.574,1.381Z" transform="translate(-82.994 -40.14)" fill="#b15815"/>
      <path id="Trazado_873404" data-name="Trazado 873404" d="M162.157,26.12l-5.068-.59v.01a14.628,14.628,0,0,0-.877-2.112l.011.011,3.167-4a1.174,1.174,0,0,0-.09-1.56L155.315,13.9a1.174,1.174,0,0,0-1.56-.09l-4,3.167.011.011a14.6,14.6,0,0,0-2.112-.877h.01l-.588-5.068A1.174,1.174,0,0,0,145.91,10h-5.635a1.174,1.174,0,0,0-1.167,1.039l-.588,5.068h.01a14.615,14.615,0,0,0-2.112.877l.011-.011-4-3.167a1.174,1.174,0,0,0-1.56.09l-3.984,3.984a1.174,1.174,0,0,0-.09,1.56l2.8,3.539a.969.969,0,0,1,.128.99c-.3.553-.414,1.573-1.224,1.64l-4.474.512a1.174,1.174,0,0,0-1.039,1.166v5.635a1.174,1.174,0,0,0,1.039,1.167l4.473.511a.971.971,0,0,1,.793.612c.216.681.822,1.364.3,2.018l-2.8,3.539a1.174,1.174,0,0,0,.09,1.56l3.984,3.984a1.174,1.174,0,0,0,1.56.09l3.513-2.8c.651-.535,1.379.118,2.037.306a.963.963,0,0,1,.62.8l.51,4.465a1.174,1.174,0,0,0,1.167,1.039h5.635a1.174,1.174,0,0,0,1.167-1.039l.588-5.068h-.01a14.618,14.618,0,0,0,2.112-.877l-.011.011,4,3.168a1.174,1.174,0,0,0,1.56-.09l3.984-3.984a1.174,1.174,0,0,0,.09-1.56l-3.167-4-.011.011a14.625,14.625,0,0,0,.877-2.112v.01l5.068-.589a1.174,1.174,0,0,0,1.039-1.167V27.286A1.174,1.174,0,0,0,162.157,26.12Z" transform="translate(-91.991 -3.214)" fill="#fdb641"/>
      <path id="Trazado_873405" data-name="Trazado 873405" d="M211.272,93.575A4.572,4.572,0,1,1,206.7,89a4.572,4.572,0,0,1,4.572,4.572Z" transform="translate(-155.599 -66.686)" fill="#22cac5"/>
      <path id="Trazado_873406" data-name="Trazado 873406" d="M9.274,97.628a.786.786,0,0,1-.786-.786V60.107c0-7.726,6.748-8.14,6.817-8.143a.791.791,0,0,1,.824.786V89.117a.786.786,0,0,1-1.573,0V53.67c-1.5.363-4.5,1.683-4.5,6.437V96.841A.786.786,0,0,1,9.274,97.628Z" transform="translate(0 -36.928)"/>
      <path id="Trazado_873407" data-name="Trazado 873407" d="M46.681,265.019H31.088a.786.786,0,1,1,0-1.573H44.033a5.352,5.352,0,0,1,0-6.721H13.574a3.36,3.36,0,0,0,0,6.721H18.9a.786.786,0,0,1,0,1.573h-5.33a4.933,4.933,0,0,1,0-9.866H46.681a.788.788,0,0,1,.185,1.551,3.4,3.4,0,0,0-2.459,3.381,3.357,3.357,0,0,0,2.459,3.382A.788.788,0,0,1,46.681,265.019Z" transform="translate(-0.153 -200.172)"/>
      <path id="Trazado_873408" data-name="Trazado 873408" d="M198.778,235.544a.786.786,0,0,1-.786-.786v-5.183a.786.786,0,0,1,1.573,0v5.183a.786.786,0,0,1-.786.786Z" transform="translate(-152.25 -178.99)" fill="#383a49"/>
      <path id="Trazado_873409" data-name="Trazado 873409" d="M59.442,53.535H40.188a.786.786,0,0,1,0-1.573H59.442A.786.786,0,0,1,59.442,53.535Z" transform="translate(-24.846 -36.926)" fill="#383a49"/>
      <path id="Trazado_873410" data-name="Trazado 873410" d="M57.479,287.6a.791.791,0,0,1-.786-.786v-9.781a.786.786,0,0,1,.786-.786h8.474a.786.786,0,0,1,.786.786v9.781a.786.786,0,0,1-1.259.629l-3.764-2.833-3.764,2.833a.788.788,0,0,1-.473.157Zm4.237-4.761a.785.785,0,0,1,.473.157l2.978,2.241v-7.419h-6.9v7.419L61.244,283A.785.785,0,0,1,61.717,282.839Z" transform="translate(-38.728 -217.119)"/>
      <path id="Trazado_873411" data-name="Trazado 873411" d="M142.693,47.78h-5.635a1.96,1.96,0,0,1-1.948-1.735l-.532-4.58c-.427-.156-.85-.331-1.263-.524L129.7,43.8a1.961,1.961,0,0,1-2.6-.151l-3.984-3.984a1.96,1.96,0,0,1-.151-2.6l2.863-3.615c-.193-.414-.369-.836-.524-1.263l-4.581-.532a1.961,1.961,0,0,1-1.735-1.948V24.073a1.961,1.961,0,0,1,1.735-1.948l4.58-.532c.155-.427.331-.849.524-1.263l-2.863-3.616a1.96,1.96,0,0,1,.151-2.6l3.984-3.984a1.96,1.96,0,0,1,2.6-.151l3.615,2.863c.413-.193.836-.369,1.263-.524l.532-4.581A1.96,1.96,0,0,1,137.058,6h5.635a1.96,1.96,0,0,1,1.948,1.735l.532,4.58c.427.156.85.331,1.263.524l3.615-2.864a1.96,1.96,0,0,1,2.6.151l3.984,3.984a1.96,1.96,0,0,1,.151,2.6l-2.863,3.615c.194.414.369.836.524,1.263l4.581.532h0a1.961,1.961,0,0,1,1.735,1.948v5.635a1.961,1.961,0,0,1-1.735,1.948l-4.58.532c-.155.427-.331.849-.524,1.263l2.863,3.615a1.96,1.96,0,0,1-.151,2.6l-3.984,3.984a1.96,1.96,0,0,1-2.6.151l-3.616-2.864c-.413.194-.836.369-1.263.524l-.532,4.581a1.96,1.96,0,0,1-1.948,1.734ZM136.1,40.919l.574,4.945a.388.388,0,0,0,.385.343h5.635a.388.388,0,0,0,.385-.343l.578-4.979a.781.781,0,0,1,.538-.745,13.915,13.915,0,0,0,2-.83.786.786,0,0,1,.956.191l3.878,3.071a.388.388,0,0,0,.515-.03l3.984-3.984a.388.388,0,0,0,.03-.515l-3.1-3.912a.778.778,0,0,1-.164-.922,13.877,13.877,0,0,0,.83-2,.794.794,0,0,1,.781-.542l4.944-.574a.388.388,0,0,0,.343-.385V24.073a.388.388,0,0,0-.343-.385l-4.978-.578a.781.781,0,0,1-.747-.538,13.877,13.877,0,0,0-.83-2,.786.786,0,0,1,.191-.956l3.072-3.879a.388.388,0,0,0-.03-.515l-3.984-3.984a.388.388,0,0,0-.515-.03l-3.912,3.1a.779.779,0,0,1-.922.164,13.914,13.914,0,0,0-2-.83.786.786,0,0,1-.542-.779l-.574-4.945a.388.388,0,0,0-.386-.343h-5.635a.388.388,0,0,0-.385.343l-.578,4.979a.781.781,0,0,1-.538.745,13.915,13.915,0,0,0-2,.83.786.786,0,0,1-.956-.191l-3.879-3.071a.388.388,0,0,0-.515.03l-3.984,3.984a.388.388,0,0,0-.03.515l3.1,3.912a.779.779,0,0,1,.164.922,13.877,13.877,0,0,0-.83,2,.792.792,0,0,1-.781.542l-4.944.574a.388.388,0,0,0-.343.385v5.635a.388.388,0,0,0,.343.385l4.979.578a.781.781,0,0,1,.747.538,13.879,13.879,0,0,0,.83,2,.786.786,0,0,1-.191.956l-3.071,3.878a.388.388,0,0,0,.03.515l3.983,3.985a.388.388,0,0,0,.515.03l3.912-3.1a.779.779,0,0,1,.922-.164,13.915,13.915,0,0,0,2,.83.786.786,0,0,1,.543.78Zm3.777-8.67a5.365,5.365,0,0,1-5.359-5.358c.252-7.093,10.467-7.091,10.717,0a5.365,5.365,0,0,1-5.359,5.358Zm0-9.145a3.786,3.786,0,1,0,3.786,3.786,3.79,3.79,0,0,0-3.786-3.786Z" transform="translate(-88.775)"/>
    </g>
  </g>
</svg>
