<svg xmlns="http://www.w3.org/2000/svg" width="96.762" height="96.762" viewBox="0 0 96.762 96.762">
  <g id="Grupo_1100148" data-name="Grupo 1100148" transform="translate(-236.913 -5081.209)">
    <g id="Grupo_1099942" data-name="Grupo 1099942">
      <g id="Grupo_1099193" data-name="Grupo 1099193" transform="translate(-89.868 1105.209)">
        <g id="Grupo_1099174" data-name="Grupo 1099174" transform="translate(326.781 3976)">
          <g id="Grupo_1099167" data-name="Grupo 1099167" transform="translate(0 0)">
            <path id="Trazado_873000" data-name="Trazado 873000" d="M48.381,0h0V22.476a25.9,25.9,0,1,0,25.905,25.9H96.762A48.381,48.381,0,1,1,48.381,0" transform="translate(0 96.762) rotate(-90)" fill="#201144"/>
          </g>
          <rect id="Rectángulo_401249" data-name="Rectángulo 401249" width="66.409" height="66.409" rx="33.204" transform="translate(15.157 15.157)" fill="#e8faf9"/>
        </g>
      </g>
    </g>
    <g id="reshot-icon-bank-bag-coin-8KMG3R7AB9" transform="translate(247.503 5090.222)">
      <g id="Grupo_1100132" data-name="Grupo 1100132" transform="translate(16.315 19.004)">
        <g id="Grupo_1100109" data-name="Grupo 1100109" transform="translate(8.993)">
          <path id="Trazado_874409" data-name="Trazado 874409" d="M99.679,33.379V29.292s0-4.088,2.453-5.723c0,0-8.175,1.635-14.715,0a9.028,9.028,0,0,1,2.453,5.723v4.088c-5.814,2.9-9.81,10.908-9.81,17.168,0,7.9,6.363,11.445,14.715,11.445s15.533-3.544,15.533-11.445C110.306,44.255,105.752,36.245,99.679,33.379Z" transform="translate(-80.058 -23.569)" fill="#7fd3b9"/>
        </g>
        <g id="Grupo_1100110" data-name="Grupo 1100110" transform="translate(8.993 0)">
          <path id="Trazado_874410" data-name="Trazado 874410" d="M82.512,50.548c0-6.26,4-14.268,9.81-17.168V29.293a8.689,8.689,0,0,0-2-5.207,23.049,23.049,0,0,1-2.9-.516,9.028,9.028,0,0,1,2.453,5.723V33.38c-5.814,2.9-9.81,10.908-9.81,17.168,0,7.9,6.363,11.445,14.715,11.445.414,0,.822-.015,1.23-.033C88.264,61.625,82.512,58.057,82.512,50.548Z" transform="translate(-80.059 -23.57)" fill="#bbead9"/>
        </g>
        <g id="Grupo_1100111" data-name="Grupo 1100111" transform="translate(19.177 13.682)">
          <path id="Trazado_874411" data-name="Trazado 874411" d="M156.559,124.576a4.128,4.128,0,0,0-1.281-1.432,14.16,14.16,0,0,0-2.259-1.153q-2.042-.823-2.041-1.948a1.367,1.367,0,0,1,.393-.98,1.263,1.263,0,0,1,.939-.411,5.606,5.606,0,0,1,2.32.95l1.6-2.417a4.192,4.192,0,0,0-2.979-1.467v-1.087c0-.564-1.069-1.021-1.635-1.021s-1.635.458-1.635,1.021v1.254a5.992,5.992,0,0,0-1.49,1.154,4.392,4.392,0,0,0-.963,3.326,2.919,2.919,0,0,0,.528,1.822,7.1,7.1,0,0,0,1.3,1.293,9.5,9.5,0,0,0,1.863,1.007c1.637.7,2.4,1.255,2.4,2.049a1.528,1.528,0,0,1-.538,1.105,1.759,1.759,0,0,1-1.133.526c-1.108.079-1.725-.449-3-1.39l-1.867,2.149a8.449,8.449,0,0,0,2.9,2.041v1.021c0,.565,1.071,1.021,1.635,1.021s1.635-.457,1.635-1.021v-1.021a5.239,5.239,0,0,0,2.269-1.021,4.606,4.606,0,0,0,1.6-3.392A4.011,4.011,0,0,0,156.559,124.576Z" transform="translate(-147.079 -113.611)" fill="#ffda88"/>
        </g>
        <g id="Grupo_1100112" data-name="Grupo 1100112" transform="translate(18.803 6.54)">
          <rect id="Rectángulo_401549" data-name="Rectángulo 401549" width="9.81" height="3.27" fill="#ffda88"/>
        </g>
        <g id="Grupo_1100113" data-name="Grupo 1100113" transform="translate(0 28.613)">
          <path id="Trazado_874412" data-name="Trazado 874412" d="M29.053,214.095a1.048,1.048,0,0,1-1.048,1.048H21.926a1.048,1.048,0,0,1-1.048-1.048v-1.174a1.048,1.048,0,0,1,1.048-1.048H28a1.048,1.048,0,0,1,1.048,1.048v1.174Z" transform="translate(-20.878 -211.873)" fill="#ffda88"/>
        </g>
        <g id="Grupo_1100114" data-name="Grupo 1100114" transform="translate(0 28.613)">
          <path id="Trazado_874413" data-name="Trazado 874413" d="M22.513,214.095v-1.174a1.048,1.048,0,0,1,1.048-1.048H21.926a1.048,1.048,0,0,0-1.048,1.048v1.174a1.048,1.048,0,0,0,1.048,1.048h1.635A1.048,1.048,0,0,1,22.513,214.095Z" transform="translate(-20.878 -211.873)" fill="#ffe2a9"/>
        </g>
        <g id="Grupo_1100115" data-name="Grupo 1100115" transform="translate(0 28.613)">
          <path id="Trazado_874414" data-name="Trazado 874414" d="M22.513,214.095v-1.174a1.048,1.048,0,0,1,1.048-1.048H21.926a1.048,1.048,0,0,0-1.048,1.048v1.174a1.048,1.048,0,0,0,1.048,1.048h1.635A1.048,1.048,0,0,1,22.513,214.095Z" transform="translate(-20.878 -211.873)" fill="#ffe2a9"/>
        </g>
        <g id="Grupo_1100116" data-name="Grupo 1100116" transform="translate(1.238 22.073)">
          <circle id="Elipse_11500" data-name="Elipse 11500" cx="3.27" cy="3.27" r="3.27" fill="#ffda88"/>
        </g>
        <g id="Grupo_1100117" data-name="Grupo 1100117" transform="translate(1.238 22.073)">
          <path id="Trazado_874415" data-name="Trazado 874415" d="M30.657,172.1a3.263,3.263,0,0,1,2.453-3.154,3.27,3.27,0,1,0,0,6.308A3.262,3.262,0,0,1,30.657,172.1Z" transform="translate(-29.022 -168.831)" fill="#ffe2a9"/>
        </g>
        <g id="Grupo_1100118" data-name="Grupo 1100118" transform="translate(3.27 23.301)">
          <path id="Trazado_874416" data-name="Trazado 874416" d="M44.875,179.644a.851.851,0,0,0-.239-.641,1.789,1.789,0,0,0-.653-.378,2.666,2.666,0,0,1-.511-.219.263.263,0,0,1-.1-.227.205.205,0,0,1,.083-.165.306.306,0,0,1,.2-.066.744.744,0,0,1,.505.283l.625-.4a1.555,1.555,0,0,0-.766-.474.32.32,0,0,0,.008-.039.409.409,0,0,0-.7-.287.411.411,0,0,0-.114.287.422.422,0,0,0,.014.069,1.128,1.128,0,0,0-.38.2.854.854,0,0,0-.333.695q0,.705.928,1.018a1.022,1.022,0,0,1,.259.105.365.365,0,0,1,.164.069.223.223,0,0,1,.112.2.238.238,0,0,1-.1.186.33.33,0,0,1-.219.081c-.18,0-.353-.149-.52-.45l-.744.35a1.619,1.619,0,0,0,.576.6,1.479,1.479,0,0,0,.248.108.215.215,0,0,0-.006.032.412.412,0,0,0,.123.294.4.4,0,0,0,.286.115.42.42,0,0,0,.409-.409v0a1.249,1.249,0,0,0,.485-.236A.892.892,0,0,0,44.875,179.644Z" transform="translate(-42.396 -176.915)" fill="#7fd3b9"/>
        </g>
        <g id="Grupo_1100119" data-name="Grupo 1100119" transform="translate(4.905 28.613)">
          <rect id="Rectángulo_401550" data-name="Rectángulo 401550" width="0.818" height="3.27" fill="#ffc67b"/>
        </g>
        <g id="Grupo_1100120" data-name="Grupo 1100120" transform="translate(2.453 28.613)">
          <rect id="Rectángulo_401551" data-name="Rectángulo 401551" width="0.818" height="3.27" fill="#ffc67b"/>
        </g>
        <g id="Grupo_1100121" data-name="Grupo 1100121" transform="translate(0.818 31.883)">
          <path id="Trazado_874417" data-name="Trazado 874417" d="M34.433,235.615a1.048,1.048,0,0,1-1.048,1.048H27.306a1.048,1.048,0,0,1-1.048-1.048v-1.174a1.048,1.048,0,0,1,1.048-1.048h6.079a1.048,1.048,0,0,1,1.048,1.048v1.174Z" transform="translate(-26.258 -233.393)" fill="#ffda88"/>
        </g>
        <g id="Grupo_1100122" data-name="Grupo 1100122" transform="translate(0.818 31.883)">
          <path id="Trazado_874418" data-name="Trazado 874418" d="M27.893,235.615v-1.174a1.048,1.048,0,0,1,1.048-1.048H27.306a1.048,1.048,0,0,0-1.048,1.048v1.174a1.048,1.048,0,0,0,1.048,1.048h1.635A1.048,1.048,0,0,1,27.893,235.615Z" transform="translate(-26.258 -233.393)" fill="#ffe2a9"/>
        </g>
        <g id="Grupo_1100123" data-name="Grupo 1100123" transform="translate(0.818 31.883)">
          <path id="Trazado_874419" data-name="Trazado 874419" d="M27.893,235.615v-1.174a1.048,1.048,0,0,1,1.048-1.048H27.306a1.048,1.048,0,0,0-1.048,1.048v1.174a1.048,1.048,0,0,0,1.048,1.048h1.635A1.048,1.048,0,0,1,27.893,235.615Z" transform="translate(-26.258 -233.393)" fill="#ffe2a9"/>
        </g>
        <g id="Grupo_1100124" data-name="Grupo 1100124" transform="translate(5.723 31.066)">
          <rect id="Rectángulo_401552" data-name="Rectángulo 401552" width="0.818" height="3.27" transform="translate(0 0)" fill="#ffc67b"/>
        </g>
        <g id="Grupo_1100125" data-name="Grupo 1100125" transform="translate(3.27 31.883)">
          <rect id="Rectángulo_401553" data-name="Rectángulo 401553" width="0.818" height="3.27" transform="translate(0 0)" fill="#ffc67b"/>
        </g>
        <g id="Grupo_1100126" data-name="Grupo 1100126" transform="translate(0 35.154)">
          <path id="Trazado_874420" data-name="Trazado 874420" d="M29.053,257.136a1.048,1.048,0,0,1-1.048,1.048H21.926a1.048,1.048,0,0,1-1.048-1.048v-1.174a1.048,1.048,0,0,1,1.048-1.048H28a1.048,1.048,0,0,1,1.048,1.048v1.174Z" transform="translate(-20.878 -254.914)" fill="#ffda88"/>
        </g>
        <g id="Grupo_1100127" data-name="Grupo 1100127" transform="translate(0 35.154)">
          <path id="Trazado_874421" data-name="Trazado 874421" d="M22.513,257.136v-1.174a1.048,1.048,0,0,1,1.048-1.048H21.926a1.048,1.048,0,0,0-1.048,1.048v1.174a1.048,1.048,0,0,0,1.048,1.048h1.635A1.048,1.048,0,0,1,22.513,257.136Z" transform="translate(-20.878 -254.914)" fill="#ffe2a9"/>
        </g>
        <g id="Grupo_1100128" data-name="Grupo 1100128" transform="translate(0 35.154)">
          <path id="Trazado_874422" data-name="Trazado 874422" d="M22.513,257.136v-1.174a1.048,1.048,0,0,1,1.048-1.048H21.926a1.048,1.048,0,0,0-1.048,1.048v1.174a1.048,1.048,0,0,0,1.048,1.048h1.635A1.048,1.048,0,0,1,22.513,257.136Z" transform="translate(-20.878 -254.914)" fill="#ffe2a9"/>
        </g>
        <g id="Grupo_1100129" data-name="Grupo 1100129" transform="translate(4.905 35.154)">
          <rect id="Rectángulo_401554" data-name="Rectángulo 401554" width="0.818" height="3.27" transform="translate(0 0)" fill="#ffc67b"/>
        </g>
        <g id="Grupo_1100130" data-name="Grupo 1100130" transform="translate(2.453 35.154)">
          <rect id="Rectángulo_401555" data-name="Rectángulo 401555" width="0.818" height="3.27" transform="translate(0 0)" fill="#ffc67b"/>
        </g>
        <g id="Grupo_1100131" data-name="Grupo 1100131" transform="translate(18.803 6.54)">
          <rect id="Rectángulo_401556" data-name="Rectángulo 401556" width="2.453" height="3.27" fill="#ffe2a9"/>
        </g>
      </g>
      <g id="Grupo_1100147" data-name="Grupo 1100147" transform="translate(15.497 18.186)">
        <g id="Grupo_1100133" data-name="Grupo 1100133" transform="translate(19.994 14.5)">
          <path id="Trazado_874423" data-name="Trazado 874423" d="M156.559,124.576a4.128,4.128,0,0,0-1.281-1.432,14.16,14.16,0,0,0-2.259-1.153q-2.042-.823-2.041-1.948a1.367,1.367,0,0,1,.393-.98,1.263,1.263,0,0,1,.939-.411,5.606,5.606,0,0,1,2.32.95l1.6-2.417a4.192,4.192,0,0,0-2.979-1.467v-1.087c0-.564-1.069-1.021-1.635-1.021s-1.635.458-1.635,1.021v1.254a5.992,5.992,0,0,0-1.49,1.154,4.392,4.392,0,0,0-.963,3.326,2.919,2.919,0,0,0,.528,1.822,7.1,7.1,0,0,0,1.3,1.293,9.5,9.5,0,0,0,1.863,1.007c1.637.7,2.4,1.255,2.4,2.049a1.528,1.528,0,0,1-.538,1.105,1.759,1.759,0,0,1-1.133.526c-1.108.079-1.725-.449-3-1.39l-1.867,2.149a8.449,8.449,0,0,0,2.9,2.041v1.021c0,.565,1.071,1.021,1.635,1.021s1.635-.457,1.635-1.021v-1.021a5.239,5.239,0,0,0,2.269-1.021,4.606,4.606,0,0,0,1.6-3.392A4.011,4.011,0,0,0,156.559,124.576Z" transform="translate(-147.079 -113.611)" fill="#161616"/>
        </g>
        <g id="Grupo_1100134" data-name="Grupo 1100134" transform="translate(18.803 6.541)">
          <path id="Trazado_874424" data-name="Trazado 874424" d="M149.868,66.135h-9.81a.817.817,0,0,1-.818-.818v-3.27a.817.817,0,0,1,.818-.818h9.81a.817.817,0,0,1,.818.818v3.27A.817.817,0,0,1,149.868,66.135ZM140.875,64.5h8.175V62.865h-8.175Z" transform="translate(-139.24 -61.23)" fill="#161616"/>
        </g>
        <g id="Grupo_1100135" data-name="Grupo 1100135" transform="translate(1.237 22.074)">
          <path id="Trazado_874425" data-name="Trazado 874425" d="M27.726,171.627a4.088,4.088,0,1,1,4.088-4.088A4.092,4.092,0,0,1,27.726,171.627Zm0-6.54a2.453,2.453,0,1,0,2.453,2.453A2.455,2.455,0,0,0,27.726,165.087Z" transform="translate(-23.638 -163.452)" fill="#161616"/>
        </g>
        <g id="Grupo_1100136" data-name="Grupo 1100136" transform="translate(4.088 24.119)">
          <path id="Trazado_874426" data-name="Trazado 874426" d="M44.876,179.644a.851.851,0,0,0-.239-.641,1.79,1.79,0,0,0-.653-.378,2.647,2.647,0,0,1-.51-.219.263.263,0,0,1-.1-.227.2.2,0,0,1,.083-.165.305.305,0,0,1,.2-.066.744.744,0,0,1,.505.283l.625-.4a1.553,1.553,0,0,0-.765-.474c0-.014.008-.026.008-.039a.409.409,0,0,0-.7-.287.411.411,0,0,0-.114.287.422.422,0,0,0,.014.069,1.127,1.127,0,0,0-.38.2.854.854,0,0,0-.333.695q0,.705.927,1.018a1.022,1.022,0,0,1,.259.105.367.367,0,0,1,.165.069.224.224,0,0,1,.111.2.24.24,0,0,1-.1.186.332.332,0,0,1-.219.081c-.18,0-.353-.149-.521-.45l-.744.35a1.619,1.619,0,0,0,.576.6,1.5,1.5,0,0,0,.247.108c0,.01-.006.021-.006.032a.413.413,0,0,0,.122.294.406.406,0,0,0,.286.115.42.42,0,0,0,.409-.409v0a1.248,1.248,0,0,0,.485-.236A.893.893,0,0,0,44.876,179.644Z" transform="translate(-42.397 -176.915)" fill="#161616"/>
        </g>
        <g id="Grupo_1100137" data-name="Grupo 1100137" transform="translate(0 28.614)">
          <path id="Trazado_874427" data-name="Trazado 874427" d="M23.442,211.4H17.363a1.868,1.868,0,0,1-1.866-1.866v-1.174a1.868,1.868,0,0,1,1.866-1.866h6.079a1.868,1.868,0,0,1,1.866,1.866v1.174A1.868,1.868,0,0,1,23.442,211.4Zm-6.079-3.27a.231.231,0,0,0-.231.231v1.174a.231.231,0,0,0,.231.231h6.079a.231.231,0,0,0,.231-.231v-1.174a.231.231,0,0,0-.231-.231Z" transform="translate(-15.497 -206.492)" fill="#161616"/>
        </g>
        <g id="Grupo_1100138" data-name="Grupo 1100138" transform="translate(3.27 29.431)">
          <rect id="Rectángulo_401557" data-name="Rectángulo 401557" width="0.818" height="3.27" fill="#161616"/>
        </g>
        <g id="Grupo_1100139" data-name="Grupo 1100139" transform="translate(5.723 29.431)">
          <rect id="Rectángulo_401558" data-name="Rectángulo 401558" width="0.818" height="3.27" fill="#161616"/>
        </g>
        <g id="Grupo_1100140" data-name="Grupo 1100140" transform="translate(0.818 31.884)">
          <path id="Trazado_874428" data-name="Trazado 874428" d="M28.822,232.918H22.743a1.868,1.868,0,0,1-1.866-1.866v-1.174a1.868,1.868,0,0,1,1.866-1.866h6.079a1.868,1.868,0,0,1,1.866,1.866v1.174A1.868,1.868,0,0,1,28.822,232.918Zm-6.079-3.27a.231.231,0,0,0-.231.231v1.174a.231.231,0,0,0,.231.231h6.079a.231.231,0,0,0,.231-.231v-1.174a.231.231,0,0,0-.231-.231Z" transform="translate(-20.877 -228.013)" fill="#161616"/>
        </g>
        <g id="Grupo_1100141" data-name="Grupo 1100141" transform="translate(4.088 32.701)">
          <rect id="Rectángulo_401559" data-name="Rectángulo 401559" width="0.818" height="3.27" fill="#161616"/>
        </g>
        <g id="Grupo_1100142" data-name="Grupo 1100142" transform="translate(6.54 32.701)">
          <rect id="Rectángulo_401560" data-name="Rectángulo 401560" width="0.818" height="3.27" fill="#161616"/>
        </g>
        <g id="Grupo_1100143" data-name="Grupo 1100143" transform="translate(0 35.154)">
          <path id="Trazado_874429" data-name="Trazado 874429" d="M23.442,254.438H17.363a1.868,1.868,0,0,1-1.866-1.866V251.4a1.868,1.868,0,0,1,1.866-1.866h6.079a1.868,1.868,0,0,1,1.866,1.866v1.174A1.868,1.868,0,0,1,23.442,254.438Zm-6.079-3.27a.231.231,0,0,0-.231.231v1.174a.231.231,0,0,0,.231.231h6.079a.231.231,0,0,0,.231-.231V251.4a.231.231,0,0,0-.231-.231Z" transform="translate(-15.497 -249.533)" fill="#161616"/>
        </g>
        <g id="Grupo_1100144" data-name="Grupo 1100144" transform="translate(3.27 35.972)">
          <rect id="Rectángulo_401561" data-name="Rectángulo 401561" width="0.818" height="3.27" fill="#161616"/>
        </g>
        <g id="Grupo_1100145" data-name="Grupo 1100145" transform="translate(5.723 35.972)">
          <rect id="Rectángulo_401562" data-name="Rectángulo 401562" width="0.818" height="3.27" fill="#161616"/>
        </g>
        <g id="Grupo_1100146" data-name="Grupo 1100146" transform="translate(8.993 0)">
          <path id="Trazado_874430" data-name="Trazado 874430" d="M90.212,58.245c-9.726,0-15.533-4.584-15.533-12.263,0-6,3.738-14.326,9.81-17.663V24.726a8.191,8.191,0,0,0-2.213-5.145.818.818,0,0,1,.776-1.371c6.289,1.572,14.276.007,14.357-.008a.817.817,0,0,1,.614,1.482c-1.713,1.142-2.089,4.027-2.089,5.042v3.581c5.9,3.066,10.628,10.867,10.628,17.675a10.742,10.742,0,0,1-2.6,7.265.817.817,0,1,1-1.234-1.072,9.155,9.155,0,0,0,2.2-6.193c0-6.307-4.652-13.83-10.159-16.429a.818.818,0,0,1-.469-.739V24.726a10.343,10.343,0,0,1,1.154-4.563,40.317,40.317,0,0,1-10.671.054,8.865,8.865,0,0,1,1.341,4.509v4.088a.819.819,0,0,1-.453.732c-5.78,2.883-9.358,10.776-9.358,16.436,0,9.592,9.719,10.628,13.9,10.628a19.32,19.32,0,0,0,10.19-2.473.817.817,0,1,1,.865,1.387A20.921,20.921,0,0,1,90.212,58.245Z" transform="translate(-74.679 -18.186)" fill="#161616"/>
        </g>
      </g>
    </g>
  </g>
</svg>
