<svg xmlns="http://www.w3.org/2000/svg" xmlns:xlink="http://www.w3.org/1999/xlink" width="294" height="194.25" viewBox="0 0 294 194.25">
  <defs>
    <clipPath id="clip-path">
      <rect id="Rectángulo_401450" data-name="Rectángulo 401450" width="107.792" height="179.125" fill="none"/>
    </clipPath>
  </defs>
  <g id="Grupo_1099909" data-name="Grupo 1099909" transform="translate(-317.051 -1760)">
    <g id="Grupo_1099908" data-name="Grupo 1099908">
      <g id="Grupo_1099906" data-name="Grupo 1099906" transform="translate(409.258 1774.876)">
        <g id="Grupo_1099901" data-name="Grupo 1099901">
          <g id="Grupo_1099900" data-name="Grupo 1099900" clip-path="url(#clip-path)">
            <path id="Trazado_874094" data-name="Trazado 874094" d="M62.071,4.66S47.711,15.654,46.253,21.151s.561,15.145,0,17.052S36.717,45.5,36.6,53.236s3.366,15.37,31.3,18.735S106.5,59.519,106.5,50.993s-7.18-13.911-8.414-17.95,3.926-11.331-3.478-20.306S67.9-4.876,62.071,4.66" transform="translate(-20.092 -0.274)" fill="#d2e1f1"/>
            <path id="Trazado_874095" data-name="Trazado 874095" d="M62.071,4.66S47.711,15.654,46.253,21.151s.561,15.145,0,17.052S36.717,45.5,36.6,53.236s3.366,15.37,31.3,18.735S106.5,59.519,106.5,50.993s-7.18-13.911-8.414-17.95,3.926-11.331-3.478-20.306S67.9-4.876,62.071,4.66Z" transform="translate(-20.092 -0.274)" fill="none" stroke="#263238" stroke-linejoin="round" stroke-width="1"/>
            <path id="Trazado_874096" data-name="Trazado 874096" d="M209.884,230.6s2.6,22.279,3.136,28.227-.865,9.409-5.083,11.572-6.489,3.569-10.815-.865-1.3-12.978-1.514-16.33-3.244-16.222-3.244-16.222Z" transform="translate(-105.592 -126.578)" fill="#fff"/>
            <path id="Trazado_874097" data-name="Trazado 874097" d="M209.884,230.6s2.6,22.279,3.136,28.227-.865,9.409-5.083,11.572-6.489,3.569-10.815-.865-1.3-12.978-1.514-16.33-3.244-16.222-3.244-16.222Z" transform="translate(-105.592 -126.578)" fill="none" stroke="#263238" stroke-linejoin="round" stroke-width="1"/>
            <path id="Trazado_874098" data-name="Trazado 874098" d="M210.4,236.843l-16.413,5.481-1.62-5.348,17.52-6.381Z" transform="translate(-105.592 -126.578)" fill="#263238"/>
            <path id="Trazado_874099" data-name="Trazado 874099" d="M210.4,236.843l-16.413,5.481-1.62-5.348,17.52-6.381Z" transform="translate(-105.592 -126.578)" fill="none" stroke="#263238" stroke-linejoin="round" stroke-width="1"/>
            <path id="Trazado_874100" data-name="Trazado 874100" d="M209.147,277.526s7.57-1.947,11.139,5.083" transform="translate(-114.805 -152.204)" fill="#fff"/>
            <path id="Trazado_874101" data-name="Trazado 874101" d="M209.147,277.526s7.57-1.947,11.139,5.083" transform="translate(-114.805 -152.204)" fill="none" stroke="#263238" stroke-linejoin="round" stroke-width="1"/>
            <path id="Trazado_874102" data-name="Trazado 874102" d="M85.763,205.857l4.348-25.38,21.085-5.8s-.761-17.395-5.325-24.177S89.458,139.89,81.959,137.483,67.4,133.654,67.4,133.654s-13.477-1.86-19.455,1.422c0,0-20.433,8.971-24.02,10.721s-7.608,3.72-9.129,12.143-2.282,15.972-2.282,15.972l14.02,7,4.239,24.943-.907,7.059-15.68,31.322H102.71L86.79,212.43Z" transform="translate(-6.866 -73.077)" fill="#ababab"/>
            <path id="Trazado_874103" data-name="Trazado 874103" d="M85.763,205.857l4.348-25.38,21.085-5.8s-.761-17.395-5.325-24.177S89.458,139.89,81.959,137.483,67.4,133.654,67.4,133.654s-13.477-1.86-19.455,1.422c0,0-20.433,8.971-24.02,10.721s-7.608,3.72-9.129,12.143-2.282,15.972-2.282,15.972l14.02,7,4.239,24.943-.907,7.059-15.68,31.322H102.71L86.79,212.43Z" transform="translate(-6.866 -73.077)" fill="none" stroke="#263238" stroke-linejoin="round" stroke-width="1"/>
            <circle id="Elipse_11489" data-name="Elipse 11489" cx="0.866" cy="0.866" r="0.866" transform="translate(55.301 98.685)" fill="none" stroke="#263238" stroke-linejoin="round" stroke-width="1"/>
            <circle id="Elipse_11490" data-name="Elipse 11490" cx="0.866" cy="0.866" r="0.866" transform="translate(55.301 111.934)" fill="none" stroke="#263238" stroke-linejoin="round" stroke-width="1"/>
            <circle id="Elipse_11491" data-name="Elipse 11491" cx="0.866" cy="0.866" r="0.866" transform="translate(55.301 125.183)" fill="none" stroke="#263238" stroke-linejoin="round" stroke-width="1"/>
            <circle id="Elipse_11492" data-name="Elipse 11492" cx="0.866" cy="0.866" r="0.866" transform="translate(55.301 138.433)" fill="none" stroke="#263238" stroke-linejoin="round" stroke-width="1"/>
            <circle id="Elipse_11493" data-name="Elipse 11493" cx="0.866" cy="0.866" r="0.866" transform="translate(55.301 151.682)" fill="none" stroke="#263238" stroke-linejoin="round" stroke-width="1"/>
            <circle id="Elipse_11494" data-name="Elipse 11494" cx="0.866" cy="0.866" r="0.866" transform="translate(55.301 164.931)" fill="none" stroke="#263238" stroke-linejoin="round" stroke-width="1"/>
            <line id="Línea_583" data-name="Línea 583" y2="66.67" transform="translate(53.017 94.599)" fill="none" stroke="#263238" stroke-linejoin="round" stroke-width="1"/>
            <path id="Trazado_874104" data-name="Trazado 874104" d="M183.709,218.839l-1.143,6.7,4.191-7.131" transform="translate(-100.214 -119.886)" fill="none" stroke="#263238" stroke-linejoin="round" stroke-width="1"/>
            <path id="Trazado_874105" data-name="Trazado 874105" d="M42.977,218.839l1.143,6.7L39.929,218.4" transform="translate(-21.918 -119.886)" fill="none" stroke="#263238" stroke-linejoin="round" stroke-width="1"/>
            <path id="Trazado_874106" data-name="Trazado 874106" d="M74.328,159.162s-2.774,4.557-1.387,4.16,9.113-5.547,9.113-5.547-2.972,4.556-.594,6.141,12.081,6.177,12.081,6.177,11.5-4.592,11.694-6.375-.4-2.576-.4-3.566-1.189-2.179,1.189-1.387,11.1,5.547,10.5,4.358-10.239-20.3-11.558-20.946-19.15-1.243-22.32.54-8.321,16.444-8.321,16.444" transform="translate(-39.826 -77.692)" fill="#263238"/>
            <path id="Trazado_874107" data-name="Trazado 874107" d="M74.328,159.162s-2.774,4.557-1.387,4.16,9.113-5.547,9.113-5.547-2.972,4.556-.594,6.141,12.081,6.177,12.081,6.177,11.5-4.592,11.694-6.375-.4-2.576-.4-3.566-1.189-2.179,1.189-1.387,11.1,5.547,10.5,4.358-10.239-20.3-11.558-20.946-19.15-1.243-22.32.54S74.328,159.162,74.328,159.162Z" transform="translate(-39.826 -77.692)" fill="none" stroke="#263238" stroke-linejoin="round" stroke-width="1"/>
            <path id="Trazado_874108" data-name="Trazado 874108" d="M4.513,210.877l-1.664,8.075,19.716,9.69,1.92-6.864Z" transform="translate(-1.564 -115.755)" fill="#ababab"/>
            <path id="Trazado_874109" data-name="Trazado 874109" d="M4.513,210.877l-1.664,8.075,19.716,9.69,1.92-6.864Z" transform="translate(-1.564 -115.755)" fill="none" stroke="#263238" stroke-linejoin="round" stroke-width="1"/>
            <path id="Trazado_874110" data-name="Trazado 874110" d="M182.566,224.1l1.848,7.111,23.367-7-3.152-8.424Z" transform="translate(-100.214 -118.446)" fill="#ababab"/>
            <path id="Trazado_874111" data-name="Trazado 874111" d="M182.566,224.1l1.848,7.111,23.367-7-3.152-8.424Z" transform="translate(-100.214 -118.446)" fill="none" stroke="#263238" stroke-linejoin="round" stroke-width="1"/>
            <path id="Trazado_874112" data-name="Trazado 874112" d="M79.415,124.582s-5.053,6.125-5.6,7.1-4.552,16.92-6.183,20.071.869,2.174,2.609.217,9.021-6.3,8.8-5-2.174,4.456-.978,5.108,10.977,8.8,11.847,8.8,13.26-7.934,13.694-9.021-2.391-5.434-.978-5.217,11.738,9.673,12.933,8.912-5.434-16.194-8.586-23.15a13.751,13.751,0,0,0-11.205-8.259c-1.74-.109-16.359.43-16.359.43" transform="translate(-36.836 -68.141)" fill="#ababab"/>
            <path id="Trazado_874113" data-name="Trazado 874113" d="M79.415,124.582s-5.053,6.125-5.6,7.1-4.552,16.92-6.183,20.071.869,2.174,2.609.217,9.021-6.3,8.8-5-2.174,4.456-.978,5.108,10.977,8.8,11.847,8.8,13.26-7.934,13.694-9.021-2.391-5.434-.978-5.217,11.738,9.673,12.933,8.912-5.434-16.194-8.586-23.15a13.751,13.751,0,0,0-11.205-8.259C94.034,124.043,79.415,124.582,79.415,124.582Z" transform="translate(-36.836 -68.141)" fill="none" stroke="#263238" stroke-linejoin="round" stroke-width="1"/>
            <path id="Trazado_874114" data-name="Trazado 874114" d="M92.643,119.035s-1.956,8.8-1.956,11.194,10.743,30.307,12.808,27.155,11.429-26.177,11.429-27.916-.87-11.086-.87-11.086-7.608,5.108-10.868,5.435-10.543-4.782-10.543-4.782" transform="translate(-49.78 -64.983)" fill="#fff"/>
            <path id="Trazado_874115" data-name="Trazado 874115" d="M92.643,119.035s-1.956,8.8-1.956,11.194,10.743,30.307,12.808,27.155,11.429-26.177,11.429-27.916-.87-11.086-.87-11.086-7.608,5.108-10.868,5.435S92.643,119.035,92.643,119.035Z" transform="translate(-49.78 -64.983)" fill="none" stroke="#263238" stroke-linejoin="round" stroke-width="1"/>
            <path id="Trazado_874116" data-name="Trazado 874116" d="M92.2,122.711s-3.014,11.819.192,12.734,21.562-11.59,21.562-11.59Z" transform="translate(-49.906 -67.358)" fill="#263238"/>
            <path id="Trazado_874117" data-name="Trazado 874117" d="M92.2,122.711s-3.014,11.819.192,12.734,21.562-11.59,21.562-11.59Z" transform="translate(-49.906 -67.358)" fill="none" stroke="#263238" stroke-linejoin="round" stroke-width="1"/>
            <path id="Trazado_874118" data-name="Trazado 874118" d="M86.568,38.821A43.236,43.236,0,0,1,83.2,49.479a31.809,31.809,0,0,1-7.4,9.087s-.785,2.468.225,4.039a6.539,6.539,0,0,0,2.468,2.244s2.58,7.741,3.59,9.648,8.3,9.311,10.209,10.1,5.609.673,7.18-.224,7.516-7.741,8.3-9.76S110.464,64.4,110.464,64.4a4.339,4.339,0,0,0,2.356-2.693,16.9,16.9,0,0,0,1.01-4.824s-3.029-.561-7.629-1.8-5.5-2.019-5.5-2.019-3.7.112-8.3-3.254-5.834-10.994-5.834-10.994" transform="translate(-41.447 -21.31)" fill="#fff"/>
            <path id="Trazado_874119" data-name="Trazado 874119" d="M86.568,38.821A43.236,43.236,0,0,1,83.2,49.479a31.809,31.809,0,0,1-7.4,9.087s-.785,2.468.225,4.039a6.539,6.539,0,0,0,2.468,2.244s2.58,7.741,3.59,9.648,8.3,9.311,10.209,10.1,5.609.673,7.18-.224,7.516-7.741,8.3-9.76S110.464,64.4,110.464,64.4a4.339,4.339,0,0,0,2.356-2.693,16.9,16.9,0,0,0,1.01-4.824s-3.029-.561-7.629-1.8-5.5-2.019-5.5-2.019-3.7.112-8.3-3.254S86.568,38.821,86.568,38.821Z" transform="translate(-41.447 -21.31)" fill="none" stroke="#263238" stroke-linejoin="round" stroke-width="1"/>
            <path id="Trazado_874120" data-name="Trazado 874120" d="M109.727,42.8s.449,6.058,3.366,8.414,4.712,1.907,4.712,1.907-5.722-5.048-8.077-10.321" transform="translate(-60.231 -23.494)" fill="#fff"/>
            <path id="Trazado_874121" data-name="Trazado 874121" d="M109.727,42.8s.449,6.058,3.366,8.414,4.712,1.907,4.712,1.907S112.083,48.073,109.727,42.8Z" transform="translate(-60.231 -23.494)" fill="none" stroke="#263238" stroke-linejoin="round" stroke-width="1"/>
            <path id="Trazado_874122" data-name="Trazado 874122" d="M95.054,89.557a6.99,6.99,0,0,0,6.395.112" transform="translate(-52.177 -49.16)" fill="none" stroke="#263238" stroke-linejoin="round" stroke-width="2"/>
            <path id="Trazado_874123" data-name="Trazado 874123" d="M127.883,89.557a6.99,6.99,0,0,0,6.395.112" transform="translate(-70.197 -49.16)" fill="none" stroke="#263238" stroke-linejoin="round" stroke-width="2"/>
            <path id="Trazado_874124" data-name="Trazado 874124" d="M100.629,77.8s-3.366-1.683-7.068,1.346" transform="translate(-51.357 -42.449)" fill="none" stroke="#263238" stroke-linejoin="round" stroke-width="1"/>
            <path id="Trazado_874125" data-name="Trazado 874125" d="M128.132,77.8s3.365-1.683,7.067,1.346" transform="translate(-70.334 -42.449)" fill="none" stroke="#263238" stroke-linejoin="round" stroke-width="1"/>
            <path id="Trazado_874126" data-name="Trazado 874126" d="M112.712,109.7a3.872,3.872,0,0,0,2.356,1.458,3.788,3.788,0,0,0,3.366-1.122" transform="translate(-61.87 -60.218)" fill="none" stroke="#263238" stroke-linejoin="round" stroke-width="1"/>
            <path id="Trazado_874127" data-name="Trazado 874127" d="M107.738,118.11a9.681,9.681,0,0,0,5.273,1.571,11.785,11.785,0,0,0,5.048-2.019" transform="translate(-59.139 -64.586)" fill="none" stroke="#263238" stroke-linejoin="round" stroke-width="1"/>
            <path id="Trazado_874128" data-name="Trazado 874128" d="M197.123,270.074s-2.379-3.785-3.461-5.191-3.461-2.055-6.489-5.3-4.218-.108-3.245,2.055,3.569,3.893,4.758,4.651a5.745,5.745,0,0,1,2.163,3.785,18.267,18.267,0,0,1-.649,3.245,45.536,45.536,0,0,0-3.2-3.647c-2.64-2.842-4.587-5.113-5.127-2.734s.433,3.569,2.271,5.191a30.843,30.843,0,0,1,4,4.11c.217.433.865,3.785,1.839,4.434s2.163,1.082,2.163,1.622a5.108,5.108,0,0,0,1.189,4.867c2.055,2.379,4.542,2.055,5.84-1.406s1.19-9.733-.108-12.761-1.947-2.92-1.947-2.92" transform="translate(-99.752 -141.724)" fill="#fff"/>
            <path id="Trazado_874129" data-name="Trazado 874129" d="M197.123,270.074s-2.379-3.785-3.461-5.191-3.461-2.055-6.489-5.3-4.218-.108-3.245,2.055,3.569,3.893,4.758,4.651a5.745,5.745,0,0,1,2.163,3.785,18.267,18.267,0,0,1-.649,3.245,45.536,45.536,0,0,0-3.2-3.647c-2.64-2.842-4.587-5.113-5.127-2.734s.433,3.569,2.271,5.191a30.843,30.843,0,0,1,4,4.11c.217.433.865,3.785,1.839,4.434s2.163,1.082,2.163,1.622a5.108,5.108,0,0,0,1.189,4.867c2.055,2.379,4.542,2.055,5.84-1.406s1.19-9.733-.108-12.761S197.123,270.074,197.123,270.074Z" transform="translate(-99.752 -141.724)" fill="none" stroke="#263238" stroke-linejoin="round" stroke-width="1"/>
            <path id="Trazado_874130" data-name="Trazado 874130" d="M199.816,281.936a23.528,23.528,0,0,1-5.948,4.218c-3.136,1.406-5.191,2.055-5.407,3.244s.108,2.271,2.6,2.055,10.058-3.136,11.355-4.759.541-6.489-2.6-4.758" transform="translate(-103.419 -154.559)" fill="#fff"/>
            <path id="Trazado_874131" data-name="Trazado 874131" d="M199.816,281.936a23.528,23.528,0,0,1-5.948,4.218c-3.136,1.406-5.191,2.055-5.407,3.244s.108,2.271,2.6,2.055,10.058-3.136,11.355-4.759S202.952,280.205,199.816,281.936Z" transform="translate(-103.419 -154.559)" fill="none" stroke="#263238" stroke-linejoin="round" stroke-width="1"/>
            <path id="Trazado_874132" data-name="Trazado 874132" d="M206.475,305.558s.51,1.226-1.761,3.281a26.424,26.424,0,0,1-8.544,4.759c-1.839.433-3.352-.433-2.163-1.623a57.322,57.322,0,0,1,4.651-3.677,41.943,41.943,0,0,0,7.817-2.74" transform="translate(-106.262 -167.727)" fill="#fff"/>
            <path id="Trazado_874133" data-name="Trazado 874133" d="M206.475,305.558s.51,1.226-1.761,3.281a26.424,26.424,0,0,1-8.544,4.759c-1.839.433-3.352-.433-2.163-1.623a57.322,57.322,0,0,1,4.651-3.677A41.943,41.943,0,0,0,206.475,305.558Z" transform="translate(-106.262 -167.727)" fill="none" stroke="#263238" stroke-linejoin="round" stroke-width="1"/>
            <path id="Trazado_874134" data-name="Trazado 874134" d="M204.251,292.857s1.839-.757,2.379,3.028-7.138,5.732-10.166,5.948-5.083-.973-4.651-1.947.865-1.081,4.542-2.6a50.912,50.912,0,0,0,7.895-4.434" transform="translate(-105.259 -160.721)" fill="#fff"/>
            <path id="Trazado_874135" data-name="Trazado 874135" d="M204.251,292.857s1.839-.757,2.379,3.028-7.138,5.732-10.166,5.948-5.083-.973-4.651-1.947.865-1.081,4.542-2.6A50.912,50.912,0,0,0,204.251,292.857Z" transform="translate(-105.259 -160.721)" fill="none" stroke="#263238" stroke-linejoin="round" stroke-width="1"/>
            <path id="Trazado_874136" data-name="Trazado 874136" d="M4.632,214.3s-5,1.848-3.369,6.63,2.282,6.086,2.826,9.021-1.413,5.108-3.26,15.868,4.565,13.042,7.825,15,8.151-9.021,8.7-12.282-3.37-12.933-4.13-18.15-1.848-8.151.652-11.738-1.63-4.782-2.934-5.543-6.3,1.2-6.3,1.2" transform="translate(-0.274 -116.879)" fill="#fff"/>
            <path id="Trazado_874137" data-name="Trazado 874137" d="M4.632,214.3s-5,1.848-3.369,6.63,2.282,6.086,2.826,9.021-1.413,5.108-3.26,15.868,4.565,13.042,7.825,15,8.151-9.021,8.7-12.282-3.37-12.933-4.13-18.15-1.848-8.151.652-11.738-1.63-4.782-2.934-5.543S4.632,214.3,4.632,214.3Z" transform="translate(-0.274 -116.879)" fill="none" stroke="#263238" stroke-linejoin="round" stroke-width="1"/>
            <path id="Trazado_874138" data-name="Trazado 874138" d="M16.648,224.436c3.587,0,5.978-3.478,5.978-3.478A6.748,6.748,0,0,0,25.612,219a7.644,7.644,0,0,0,1.144-4.021s2.732-3.919,4.782-5.108,3.478-1.957,4.13-4.021c.658-2.084-.326-3.152-2.934-.978a15.7,15.7,0,0,1-3.8,2.609l-9.021,1.848" transform="translate(-9.138 -111.802)" fill="#fff"/>
            <path id="Trazado_874139" data-name="Trazado 874139" d="M16.648,224.436c3.587,0,5.978-3.478,5.978-3.478A6.748,6.748,0,0,0,25.612,219a7.644,7.644,0,0,0,1.144-4.021s2.732-3.919,4.782-5.108,3.478-1.957,4.13-4.021c.658-2.084-.326-3.152-2.934-.978a15.7,15.7,0,0,1-3.8,2.609l-9.021,1.848" transform="translate(-9.138 -111.802)" fill="none" stroke="#263238" stroke-linejoin="round" stroke-width="1"/>
            <path id="Trazado_874140" data-name="Trazado 874140" d="M25.8,204.412s2.934-3.043,4.456-2.5,5.434,4.565,5.543,5.543,1.521,4.13.978,4.348-4.13-2.065-5.652-3.587a38.048,38.048,0,0,0-5.325-3.8" transform="translate(-14.164 -110.798)" fill="#fff"/>
            <path id="Trazado_874141" data-name="Trazado 874141" d="M25.8,204.412s2.934-3.043,4.456-2.5,5.434,4.565,5.543,5.543,1.521,4.13.978,4.348-4.13-2.065-5.652-3.587A38.048,38.048,0,0,0,25.8,204.412Z" transform="translate(-14.164 -110.798)" fill="none" stroke="#263238" stroke-linejoin="round" stroke-width="1"/>
            <path id="Trazado_874142" data-name="Trazado 874142" d="M12.793,210.581s2.391-5.217,4.021-5.217,7.5,2.608,8.26,3.7,4.239,4.456,3.369,4.891-2.717-.434-4.021-1.413a22.477,22.477,0,0,0-2.065-1.413l-3.7-1.087" transform="translate(-7.022 -112.728)" fill="#fff"/>
            <path id="Trazado_874143" data-name="Trazado 874143" d="M12.793,210.581s2.391-5.217,4.021-5.217,7.5,2.608,8.26,3.7,4.239,4.456,3.369,4.891-2.717-.434-4.021-1.413a22.477,22.477,0,0,0-2.065-1.413l-3.7-1.087" transform="translate(-7.022 -112.728)" fill="none" stroke="#263238" stroke-linejoin="round" stroke-width="1"/>
            <path id="Trazado_874144" data-name="Trazado 874144" d="M4.36,214.918S6.751,209.7,8.381,209.7s7.5,2.608,8.26,3.7,4.238,4.456,3.369,4.891-2.717-.435-4.021-1.413a22.476,22.476,0,0,0-2.065-1.413l-3.7-1.087" transform="translate(-2.393 -115.109)" fill="#fff"/>
            <path id="Trazado_874145" data-name="Trazado 874145" d="M4.36,214.918S6.751,209.7,8.381,209.7s7.5,2.608,8.26,3.7,4.238,4.456,3.369,4.891-2.717-.435-4.021-1.413a22.476,22.476,0,0,0-2.065-1.413l-3.7-1.087" transform="translate(-2.393 -115.109)" fill="none" stroke="#263238" stroke-linejoin="round" stroke-width="1"/>
            <path id="Trazado_874146" data-name="Trazado 874146" d="M1.544,219.136s-1.2-2.609,0-3.152,8.912-2.391,9.673-2.826,2.174.217.435,2.174-6.847,3.152-7.391,3.26" transform="translate(-0.556 -116.936)" fill="#fff"/>
            <path id="Trazado_874147" data-name="Trazado 874147" d="M1.544,219.136s-1.2-2.609,0-3.152,8.912-2.391,9.673-2.826,2.174.217.435,2.174-6.847,3.152-7.391,3.26" transform="translate(-0.556 -116.936)" fill="none" stroke="#263238" stroke-linejoin="round" stroke-width="1"/>
          </g>
        </g>
        <rect id="Rectángulo_401451" data-name="Rectángulo 401451" width="64.53" height="56.672" transform="translate(18.577 122.227)" fill="#263238"/>
        <g id="Grupo_1099903" data-name="Grupo 1099903">
          <g id="Grupo_1099902" data-name="Grupo 1099902" clip-path="url(#clip-path)">
            <rect id="Rectángulo_401452" data-name="Rectángulo 401452" width="64.53" height="56.673" transform="translate(18.577 122.226)" fill="none" stroke="#263238" stroke-linejoin="round" stroke-width="1"/>
          </g>
        </g>
        <rect id="Rectángulo_401454" data-name="Rectángulo 401454" width="64.53" height="39.444" transform="translate(18.577 139.455)" fill="#dfbba0"/>
        <g id="Grupo_1099905" data-name="Grupo 1099905">
          <g id="Grupo_1099904" data-name="Grupo 1099904" clip-path="url(#clip-path)">
            <rect id="Rectángulo_401455" data-name="Rectángulo 401455" width="64.53" height="39.444" transform="translate(18.577 139.455)" fill="none" stroke="#263238" stroke-linejoin="round" stroke-width="1"/>
          </g>
        </g>
        <rect id="Rectángulo_401457" data-name="Rectángulo 401457" width="64.311" height="5.705" transform="translate(18.703 119.208)" fill="#92e3a9"/>
        <rect id="Rectángulo_401458" data-name="Rectángulo 401458" width="64.311" height="5.705" transform="translate(18.703 119.208)" fill="#fdb641" stroke="#263238" stroke-linejoin="round" stroke-width="1"/>
      </g>
      <rect id="Rectángulo_401459" data-name="Rectángulo 401459" width="294" height="194" transform="translate(317.051 1760)" fill="none"/>
    </g>
    <path id="Trazado_874148" data-name="Trazado 874148" d="M-4293.562-9654h241.512" transform="translate(4652.051 11608)" fill="none" stroke="#000" stroke-width="0.5"/>
  </g>
</svg>
