<svg xmlns="http://www.w3.org/2000/svg" width="75" height="75" viewBox="0 0 75 75">
  <g id="Grupo_1100069" data-name="Grupo 1100069" transform="translate(-515.051 -1511)">
    <circle id="Elipse_11497" data-name="Elipse 11497" cx="37.5" cy="37.5" r="37.5" transform="translate(515.051 1511)" fill="#fff"/>
    <g id="reshot-icon-money-bag-4V3SYPW9N2" transform="translate(511.065 1481.456)">
      <g id="Grupo_1100012" data-name="Grupo 1100012" transform="translate(16.705 46.421)">
        <g id="Grupo_1099996" data-name="Grupo 1099996" transform="translate(10.628 18.6)">
          <path id="Trazado_874333" data-name="Trazado 874333" d="M97.073,150a17.326,17.326,0,0,0-12.541,5.361A8.2,8.2,0,0,1,79.7,167.023c0,.124-.018.244-.018.367H115.43C115.43,157.786,106.678,150,97.073,150Z" transform="translate(-79.683 -150)" fill="#ffda88"/>
        </g>
        <g id="Grupo_1099997" data-name="Grupo 1099997" transform="translate(10.628 18.6)">
          <path id="Trazado_874334" data-name="Trazado 874334" d="M88.378,159.178a8.149,8.149,0,0,0-.947-3.817,17.333,17.333,0,0,1,11.118-5.287c-.49-.04-.98-.074-1.476-.074a17.326,17.326,0,0,0-12.541,5.361A8.2,8.2,0,0,1,79.7,167.023c0,.124-.018.244-.018.367h2.9c0-.124.016-.244.018-.367A8.214,8.214,0,0,0,88.378,159.178Z" transform="translate(-79.683 -150)" fill="#ffe2a9"/>
        </g>
        <g id="Grupo_1099998" data-name="Grupo 1099998" transform="translate(19.08 0)">
          <circle id="Elipse_11496" data-name="Elipse 11496" cx="8.212" cy="8.212" r="8.212" transform="translate(0 16.213) rotate(-80.782)" fill="#e5e5e4"/>
        </g>
        <g id="Grupo_1099999" data-name="Grupo 1099999" transform="translate(20.289 1.21)">
          <path id="Trazado_874335" data-name="Trazado 874335" d="M136.381,61.371a8.208,8.208,0,0,1,6.763-8.076,8.212,8.212,0,1,0,0,16.153A8.209,8.209,0,0,1,136.381,61.371Z" transform="translate(-133.483 -53.159)" fill="#efefef"/>
        </g>
        <g id="Grupo_1100000" data-name="Grupo 1100000" transform="translate(22.451 18.6)">
          <path id="Trazado_874336" data-name="Trazado 874336" d="M145.525,150.927l5.567,4.87,5.533-4.919a18.29,18.29,0,0,0-5.533-.878A17.336,17.336,0,0,0,145.525,150.927Z" transform="translate(-145.525 -150)" fill="#e5e5e4"/>
        </g>
        <g id="Grupo_1100001" data-name="Grupo 1100001" transform="translate(22.452 18.6)">
          <path id="Trazado_874337" data-name="Trazado 874337" d="M148.756,150.174c-.25.034-.5.07-.745.114-.326.06-.651.128-.971.206-.132.031-.262.066-.393.1-.377.1-.753.207-1.121.331l.925.81a17.318,17.318,0,0,1,6.1-1.663c-.482-.039-.966-.073-1.454-.073-.539,0-1.069.033-1.6.08C149.248,150.1,149,150.14,148.756,150.174Z" transform="translate(-145.526 -149.999)" fill="#efefef"/>
        </g>
        <g id="Grupo_1100002" data-name="Grupo 1100002" transform="translate(28.018 19.481)">
          <path id="Trazado_874338" data-name="Trazado 874338" d="M182.068,154.907l-5.544,4.916,3.865,1.932,4.177-5.848A19.209,19.209,0,0,0,182.068,154.907Z" transform="translate(-176.524 -154.907)" fill="#7fd3b9"/>
        </g>
        <g id="Grupo_1100003" data-name="Grupo 1100003" transform="translate(20.028 19.527)">
          <path id="Trazado_874339" data-name="Trazado 874339" d="M136.157,161.963l3.864-1.932-5.567-4.87a17.151,17.151,0,0,0-2.423,1.028Z" transform="translate(-132.032 -155.16)" fill="#7fd3b9"/>
        </g>
        <g id="Grupo_1100004" data-name="Grupo 1100004" transform="translate(20.029 19.527)">
          <path id="Trazado_874340" data-name="Trazado 874340" d="M134.456,155.16a17.149,17.149,0,0,0-2.423,1.028l.885,1.239a17.285,17.285,0,0,1,2.463-1.458Z" transform="translate(-132.033 -155.16)" fill="#bbead9"/>
        </g>
        <g id="Grupo_1100005" data-name="Grupo 1100005" transform="translate(24.999 24.397)">
          <path id="Trazado_874341" data-name="Trazado 874341" d="M164.662,187.112l1.081-3.324-3.013-1.507-3.019,1.51,1.087,3.321Z" transform="translate(-159.711 -182.281)" fill="#fe6f80"/>
        </g>
        <g id="Grupo_1100006" data-name="Grupo 1100006" transform="translate(26.086 29.228)">
          <rect id="Rect치ngulo_401522" data-name="Rect치ngulo 401522" width="3.865" height="6.763" fill="#fe6f80"/>
        </g>
        <g id="Grupo_1100007" data-name="Grupo 1100007" transform="translate(26.086 29.228)">
          <rect id="Rect치ngulo_401523" data-name="Rect치ngulo 401523" width="1.932" height="6.763" fill="#ffa1aa"/>
        </g>
        <g id="Grupo_1100008" data-name="Grupo 1100008" transform="translate(24.999 24.397)">
          <path id="Trazado_874342" data-name="Trazado 874342" d="M163.7,182.764l-.966-.483-3.019,1.51,1.087,3.321h1.932l-1.087-3.321Z" transform="translate(-159.711 -182.281)" fill="#ffa1aa"/>
        </g>
        <g id="Grupo_1100009" data-name="Grupo 1100009" transform="translate(0 15.702)">
          <path id="Trazado_874343" data-name="Trazado 874343" d="M31.34,138.16l1.721-4.3a21.814,21.814,0,0,1-8.7,0l1.721,4.3a8.212,8.212,0,1,0,5.254,0Z" transform="translate(-20.501 -133.859)" fill="#7fd3b9"/>
        </g>
        <g id="Grupo_1100010" data-name="Grupo 1100010" transform="translate(0 15.702)">
          <path id="Trazado_874344" data-name="Trazado 874344" d="M22.433,145.937a8.212,8.212,0,0,1,5.585-7.775l-1.593-3.981a16.026,16.026,0,0,1-2.06-.32l1.721,4.3a8.209,8.209,0,0,0,2.627,15.988,8.366,8.366,0,0,0,.966-.061A8.21,8.21,0,0,1,22.433,145.937Z" transform="translate(-20.501 -133.86)" fill="#bbead9"/>
        </g>
        <g id="Grupo_1100011" data-name="Grupo 1100011" transform="translate(5.189 22.201)">
          <path id="Trazado_874345" data-name="Trazado 874345" d="M54.937,176.349a2.418,2.418,0,0,0-.736-.822,8.032,8.032,0,0,0-1.3-.661c-.783-.314-1.172-.689-1.172-1.119a.794.794,0,0,1,.226-.565.735.735,0,0,1,.539-.235,3.211,3.211,0,0,1,1.333.547l.853-1.391a1.758,1.758,0,0,0-1.777-.842v-.625c0-.325-.254-.588-.966-.588s-.966.263-.966.588v.72a2.3,2.3,0,0,0-.794.582,2.877,2.877,0,0,0-.579,1.936,2.23,2.23,0,0,0,1.2,1.847,5.437,5.437,0,0,0,1.066.578c.942.4,1.377.722,1.377,1.178a.879.879,0,0,1-.309.633,1.013,1.013,0,0,1-.652.3c-.637.044-1.164-.4-1.9-.944l-.991,1.381a4.969,4.969,0,0,0,1.574,1.172v.587c0,.326.345.588.966.588.584,0,.966-.262.966-.588v-.587a3.089,3.089,0,0,0,1.368-.586,2.679,2.679,0,0,0,.952-1.948A2.283,2.283,0,0,0,54.937,176.349Z" transform="translate(-49.398 -170.049)" fill="#ffda88"/>
        </g>
      </g>
      <g id="Grupo_1100022" data-name="Grupo 1100022" transform="translate(15.874 46.665)">
        <g id="Grupo_1100013" data-name="Grupo 1100013" transform="translate(20.154)">
          <path id="Trazado_874346" data-name="Trazado 874346" d="M137.281,66.135a9.178,9.178,0,1,1,9.178-9.178A9.189,9.189,0,0,1,137.281,66.135Zm0-16.424a7.246,7.246,0,1,0,7.246,7.246A7.254,7.254,0,0,0,137.281,49.71Z" transform="translate(-128.103 -47.778)" fill="#161616"/>
        </g>
        <g id="Grupo_1100014" data-name="Grupo 1100014" transform="translate(22.316 17.395)">
          <path id="Trazado_874347" data-name="Trazado 874347" d="M146.677,152.371a.965.965,0,0,1-.636-.239l-5.567-4.87a.966.966,0,0,1,.327-1.643,18.583,18.583,0,0,1,11.7-.055.966.966,0,0,1,.35,1.643l-5.534,4.92A.962.962,0,0,1,146.677,152.371Zm-3.59-5.391,3.585,3.137,3.555-3.161A16.421,16.421,0,0,0,143.086,146.98Z" transform="translate(-140.144 -144.647)" fill="#161616"/>
        </g>
        <g id="Grupo_1100015" data-name="Grupo 1100015" transform="translate(27.883 18.272)">
          <path id="Trazado_874348" data-name="Trazado 874348" d="M175.975,158.308a.968.968,0,0,1-.432-.1l-3.865-1.932a.967.967,0,0,1-.209-1.587l5.544-4.916a.967.967,0,0,1,.935-.2,20.252,20.252,0,0,1,2.623,1.051.966.966,0,0,1,.367,1.431l-4.177,5.848A.966.966,0,0,1,175.975,158.308Zm-2.154-3.124,1.848.925,3.01-4.214q-.4-.164-.8-.307Z" transform="translate(-171.145 -149.528)" fill="#161616"/>
        </g>
        <g id="Grupo_1100016" data-name="Grupo 1100016" transform="translate(19.893 18.318)">
          <path id="Trazado_874349" data-name="Trazado 874349" d="M131.745,158.517a.965.965,0,0,1-.786-.4l-4.125-5.774a.966.966,0,0,1,.34-1.419,18.235,18.235,0,0,1,2.559-1.086.971.971,0,0,1,.945.188l5.567,4.87a.967.967,0,0,1-.2,1.592l-3.864,1.932A.969.969,0,0,1,131.745,158.517Zm-2.669-6.363,2.974,4.164,1.839-.92-4.057-3.55Q129.45,151.993,129.077,152.154Z" transform="translate(-126.654 -149.783)" fill="#161616"/>
        </g>
        <g id="Grupo_1100017" data-name="Grupo 1100017" transform="translate(24.863 23.187)">
          <path id="Trazado_874350" data-name="Trazado 874350" d="M160.248,183.663h-3.865a.966.966,0,0,1-.918-.665l-1.087-3.321a.966.966,0,0,1,.486-1.165l3.019-1.51a.967.967,0,0,1,.864,0l3.013,1.507a.967.967,0,0,1,.487,1.163L161.166,183A.966.966,0,0,1,160.248,183.663Zm-3.164-1.932h2.463l.607-1.865-1.837-.919-1.842.921Z" transform="translate(-154.33 -176.9)" fill="#161616"/>
        </g>
        <g id="Grupo_1100018" data-name="Grupo 1100018" transform="translate(25.95 28.018)">
          <path id="Trazado_874351" data-name="Trazado 874351" d="M165.214,212.5h-3.865a.966.966,0,0,1-.966-.966v-6.763a.966.966,0,0,1,.966-.966h3.865a.966.966,0,0,1,.966.966v6.763A.966.966,0,0,1,165.214,212.5Zm-2.9-1.932h1.932v-4.831h-1.932Z" transform="translate(-160.383 -203.801)" fill="#161616"/>
        </g>
        <g id="Grupo_1100019" data-name="Grupo 1100019" transform="translate(6.02 21.957)">
          <path id="Trazado_874352" data-name="Trazado 874352" d="M54.937,176.349a2.418,2.418,0,0,0-.736-.822,8.032,8.032,0,0,0-1.3-.661c-.783-.314-1.172-.689-1.172-1.119a.794.794,0,0,1,.226-.565.735.735,0,0,1,.539-.235,3.211,3.211,0,0,1,1.333.547l.853-1.391a1.758,1.758,0,0,0-1.777-.842v-.625c0-.325-.254-.588-.966-.588s-.966.263-.966.588v.72a2.3,2.3,0,0,0-.794.582,2.877,2.877,0,0,0-.579,1.936,2.23,2.23,0,0,0,1.2,1.847,5.437,5.437,0,0,0,1.066.578c.942.4,1.377.722,1.377,1.178a.879.879,0,0,1-.309.633,1.013,1.013,0,0,1-.652.3c-.637.044-1.164-.4-1.9-.944l-.991,1.381a4.969,4.969,0,0,0,1.574,1.172v.587c0,.326.345.588.966.588.584,0,.966-.262.966-.588v-.587a3.089,3.089,0,0,0,1.368-.586,2.679,2.679,0,0,0,.952-1.948A2.283,2.283,0,0,0,54.937,176.349Z" transform="translate(-49.398 -170.049)" fill="#161616"/>
        </g>
        <g id="Grupo_1100020" data-name="Grupo 1100020" transform="translate(10.492 17.391)">
          <path id="Trazado_874353" data-name="Trazado 874353" d="M111.015,163.944h-4.831a.966.966,0,1,1,0-1.932h3.831c-.57-8.34-8.436-15.458-17.358-15.458a16.258,16.258,0,0,0-11.374,4.594,9.037,9.037,0,0,1,.747,3.618,9.137,9.137,0,0,1-3.529,7.246H102.32a.966.966,0,0,1,0,1.932H75.268a.966.966,0,0,1-.966-.966c0-.09.006-.178.012-.266l.007-.12a.966.966,0,0,1,.68-.9A7.237,7.237,0,0,0,79.264,151.4a.966.966,0,0,1,.157-1.12,18.2,18.2,0,0,1,13.238-5.658c10.474,0,19.323,8.407,19.323,18.357A.966.966,0,0,1,111.015,163.944Z" transform="translate(-74.302 -144.621)" fill="#161616"/>
        </g>
        <g id="Grupo_1100021" data-name="Grupo 1100021" transform="translate(0 14.493)">
          <path id="Trazado_874354" data-name="Trazado 874354" d="M24.917,150.7a9.16,9.16,0,0,1-9.028-7.559.966.966,0,1,1,1.9-.34,7.243,7.243,0,1,0,9.444-8.14.966.966,0,0,1-.588-1.274l1.088-2.719a23.777,23.777,0,0,1-5.63.013l1.082,2.706a.966.966,0,0,1-.588,1.274A7.262,7.262,0,0,0,18,139.4a.966.966,0,0,1-1.846-.57,9.209,9.209,0,0,1,4.879-5.61l-1.363-3.408a.967.967,0,0,1,1.13-1.3,21.079,21.079,0,0,0,8.273-.009.966.966,0,0,1,1.087,1.306L28.8,133.215a9.175,9.175,0,0,1-3.882,17.49Z" transform="translate(-15.874 -128.484)" fill="#161616"/>
        </g>
      </g>
    </g>
  </g>
</svg>
