<svg xmlns="http://www.w3.org/2000/svg" xmlns:xlink="http://www.w3.org/1999/xlink" width="294" height="194" viewBox="0 0 294 194">
  <defs>
    <clipPath id="clip-path">
      <rect id="Rectángulo_401445" data-name="Rectángulo 401445" width="288.243" height="193.561" fill="none"/>
    </clipPath>
  </defs>
  <g id="Grupo_1099907" data-name="Grupo 1099907" transform="translate(-957.051 -1760)">
    <g id="Grupo_1099899" data-name="Grupo 1099899" transform="translate(962.429 1760.438)">
      <g id="Grupo_1099890" data-name="Grupo 1099890">
        <g id="Grupo_1099889" data-name="Grupo 1099889" clip-path="url(#clip-path)">
          <path id="Trazado_873912" data-name="Trazado 873912" d="M342.191,22.978C339.969,32,328.531,36.934,316.643,34s-19.724-12.615-17.5-21.634S312.8-1.585,324.69,1.344s19.724,12.615,17.5,21.634" transform="translate(-116.522 -0.195)" fill="#dfbba0"/>
          <path id="Trazado_873913" data-name="Trazado 873913" d="M342.191,22.978C339.969,32,328.531,36.934,316.643,34s-19.724-12.615-17.5-21.634S312.8-1.585,324.69,1.344,344.414,13.959,342.191,22.978Z" transform="translate(-116.522 -0.195)" fill="none" stroke="#263238" stroke-linecap="round" stroke-linejoin="round" stroke-width="1"/>
          <path id="Trazado_873914" data-name="Trazado 873914" d="M309.613,29.07s-4.4,1.2-6.4-1.2,1-9.4,4.3-12.6,12.6-4.6,17.4-4.1,10.5,4.1,11.3,7.9-.8,7.5-.9,8.7-2.9,1.2-3.3.6-6.4-9.4-7.6-9.8-2,.4-3.3,1.1-11.2,4.9-11.2,4.9Z" transform="translate(-118.006 -4.317)" fill="#263238"/>
          <path id="Trazado_873915" data-name="Trazado 873915" d="M309.613,29.07s-4.4,1.2-6.4-1.2,1-9.4,4.3-12.6,12.6-4.6,17.4-4.1,10.5,4.1,11.3,7.9-.8,7.5-.9,8.7-2.9,1.2-3.3.6-6.4-9.4-7.6-9.8-2,.4-3.3,1.1-11.2,4.9-11.2,4.9Z" transform="translate(-118.006 -4.317)" fill="none" stroke="#263238" stroke-linecap="round" stroke-linejoin="round" stroke-width="1"/>
          <path id="Trazado_873916" data-name="Trazado 873916" d="M331.821,196.922l-1.975-12.839-4.543,15.6h0a34.561,34.561,0,0,0-2.991,6.183c-1.127,3.572,4.56,14.837,4.935,13.647s2.517-16.473,2.517-16.473a24.131,24.131,0,0,0,.223-4.683Z" transform="translate(-125.649 -71.795)" fill="#fff"/>
          <path id="Trazado_873917" data-name="Trazado 873917" d="M331.821,196.922l-1.975-12.839-4.543,15.6h0a34.561,34.561,0,0,0-2.991,6.183c-1.127,3.572,4.56,14.837,4.935,13.647s2.517-16.473,2.517-16.473a24.131,24.131,0,0,0,.223-4.683Z" transform="translate(-125.649 -71.795)" fill="none" stroke="#263238" stroke-linecap="round" stroke-linejoin="round" stroke-width="1"/>
          <path id="Trazado_873918" data-name="Trazado 873918" d="M331.047,217.891s-4.111,1.4-4.111,10.129c0,2.38,3.392,27.383,3.392,31.565v17.349h22.713l2.8-16.472,2.1,16.122h22.781s2.278-25.41,2.453-28.564,1.752-9.989,1.227-19.451-2.628-13.143-2.628-13.143l-50.226-.876Z" transform="translate(-127.51 -83.677)" fill="#263238"/>
          <path id="Trazado_873919" data-name="Trazado 873919" d="M331.047,217.891s-4.111,1.4-4.111,10.129c0,2.38,3.392,27.383,3.392,31.565v17.349h22.713l2.8-16.472,2.1,16.122h22.781s2.278-25.41,2.453-28.564,1.752-9.989,1.227-19.451-2.628-13.143-2.628-13.143l-50.226-.876Z" transform="translate(-127.51 -83.677)" fill="none" stroke="#263238" stroke-linecap="round" stroke-linejoin="round" stroke-width="1"/>
          <path id="Trazado_873920" data-name="Trazado 873920" d="M331.4,73.469s-10.705,9.12-13.025,11.62c-2.406,2.591-1.4,16.873,1.671,26.714s6.338,25.055,6.492,28.131.649,21.464.649,21.464,19.1,7.535,30.788,5.689a62.048,62.048,0,0,0,19.989-6.765s-1.845-31.522-1.845-38.441-1.538-29.83-3.076-37.826-6.92-12.762-10.918-13.223S343.173,69.7,343.173,69.7Z" transform="translate(-123.648 -27.183)" fill="#fff"/>
          <path id="Trazado_873921" data-name="Trazado 873921" d="M331.4,73.469s-10.705,9.12-13.025,11.62c-2.406,2.591-1.4,16.873,1.671,26.714s6.338,25.055,6.492,28.131.649,21.464.649,21.464,19.1,7.535,30.788,5.689a62.048,62.048,0,0,0,19.989-6.765s-1.845-31.522-1.845-38.441-1.538-29.83-3.076-37.826-6.92-12.762-10.918-13.223S343.173,69.7,343.173,69.7Z" transform="translate(-123.648 -27.183)" fill="none" stroke="#263238" stroke-linecap="round" stroke-linejoin="round" stroke-width="1"/>
          <path id="Trazado_873922" data-name="Trazado 873922" d="M331.72,63.469s4.832,13.557,5.637,13.691,2.953-2.014,2.953-2.014l8.59-13.289L345.486,49.6s-1.954,6.49-5.712,10.651-8.054,3.221-8.054,3.221" transform="translate(-129.376 -19.344)" fill="#fff"/>
          <path id="Trazado_873923" data-name="Trazado 873923" d="M331.72,63.469s4.832,13.557,5.637,13.691,2.953-2.014,2.953-2.014l8.59-13.289L345.486,49.6s-1.954,6.49-5.712,10.651S331.72,63.469,331.72,63.469Z" transform="translate(-129.376 -19.344)" fill="none" stroke="#263238" stroke-linecap="round" stroke-linejoin="round" stroke-width="1"/>
          <path id="Trazado_873924" data-name="Trazado 873924" d="M341.055,68l-6.335,9.809-3-7.161Z" transform="translate(-129.376 -26.519)" fill="#263238"/>
          <path id="Trazado_873925" data-name="Trazado 873925" d="M341.055,68l-6.335,9.809-3-7.161Z" transform="translate(-129.376 -26.519)" fill="none" stroke="#263238" stroke-linecap="round" stroke-linejoin="round" stroke-width="1"/>
          <path id="Trazado_873926" data-name="Trazado 873926" d="M327.34,17.3s-5.5,4.4-9.9,6-6.6,2.2-6.6,2.2,1.4,8.9,1.8,11.4,1.3,6.7,3.1,8.5,6.2,6.1,8.2,7.2,5.4.2,6.4-.3,6.8-9.3,7.1-10.5a22.888,22.888,0,0,0-.1-4.8s2.6-1.4,3-2.8-.5-6.6-1.3-7.3-2.1.1-2.3.9a12.771,12.771,0,0,1-.8,2,8.545,8.545,0,0,0-.9-3.4,8.317,8.317,0,0,0-2.7-3.3,40.321,40.321,0,0,1-5-5.8" transform="translate(-121.231 -6.746)" fill="#fff"/>
          <path id="Trazado_873927" data-name="Trazado 873927" d="M327.34,17.3s-5.5,4.4-9.9,6-6.6,2.2-6.6,2.2,1.4,8.9,1.8,11.4,1.3,6.7,3.1,8.5,6.2,6.1,8.2,7.2,5.4.2,6.4-.3,6.8-9.3,7.1-10.5a22.888,22.888,0,0,0-.1-4.8s2.6-1.4,3-2.8-.5-6.6-1.3-7.3-2.1.1-2.3.9a12.771,12.771,0,0,1-.8,2,8.545,8.545,0,0,0-.9-3.4,8.317,8.317,0,0,0-2.7-3.3A40.321,40.321,0,0,1,327.34,17.3Z" transform="translate(-121.231 -6.746)" fill="none" stroke="#263238" stroke-linecap="round" stroke-linejoin="round" stroke-width="1"/>
          <path id="Trazado_873928" data-name="Trazado 873928" d="M326.906,49.6l.3,2.7s3.3-.1,4.8-1.7" transform="translate(-127.498 -19.344)" fill="none" stroke="#263238" stroke-linecap="round" stroke-linejoin="round" stroke-width="1"/>
          <path id="Trazado_873929" data-name="Trazado 873929" d="M324.447,56.056a10.945,10.945,0,0,0,6.1-.3c3.7-1.1,4.6-3.7,4.6-3.7" transform="translate(-126.539 -20.303)" fill="none" stroke="#263238" stroke-linecap="round" stroke-linejoin="round" stroke-width="1"/>
          <path id="Trazado_873930" data-name="Trazado 873930" d="M319.718,38.371s-4.3-1.4-5.6,1.2" transform="translate(-122.511 -14.819)" fill="none" stroke="#263238" stroke-linecap="round" stroke-linejoin="round" stroke-width="1"/>
          <path id="Trazado_873931" data-name="Trazado 873931" d="M330.513,34.678s2.9-2.9,5.9-1.8" transform="translate(-128.905 -12.726)" fill="none" stroke="#263238" stroke-linecap="round" stroke-linejoin="round" stroke-width="1"/>
          <path id="Trazado_873932" data-name="Trazado 873932" d="M321.561,44.161c.284.778.2,1.524-.19,1.666s-.935-.373-1.219-1.152-.2-1.524.19-1.666.935.373,1.219,1.152" transform="translate(-124.798 -16.765)" fill="#263238"/>
          <path id="Trazado_873933" data-name="Trazado 873933" d="M336.815,39.476c.284.778.2,1.524-.19,1.666s-.935-.373-1.219-1.152-.2-1.524.19-1.666.935.373,1.219,1.152" transform="translate(-130.747 -14.938)" fill="#263238"/>
          <path id="Trazado_873934" data-name="Trazado 873934" d="M371.272,90.041l8.764,31.368a5.225,5.225,0,0,0-.154,2.46,15.853,15.853,0,0,1,.462,1.691s-2.461,12.3-4.613,19.836-9.84,23.987-9.533,25.832-1.537,15.684-.615,16.3a11.82,11.82,0,0,0,3.69,1.538c.615,0,3.384.307,4.306.307s4.3-.154,4.92-1.383.462-2-.461-1.691a14.5,14.5,0,0,1-2.46.461l-.615-1.23a34.432,34.432,0,0,0,0-9.38c-.769-4-1.076-5.381-1.076-5.381s19.22-31.214,19.989-37.057,2-12.3,2-15.223-3.075-29.215-4-32.136-1.383-5.843-3.844-8.3-4.152-2.46-5.382-2.46" transform="translate(-142.481 -29.48)" fill="#fff"/>
          <path id="Trazado_873935" data-name="Trazado 873935" d="M371.272,90.041l8.764,31.368a5.225,5.225,0,0,0-.154,2.46,15.853,15.853,0,0,1,.462,1.691s-2.461,12.3-4.613,19.836-9.84,23.987-9.533,25.832-1.537,15.684-.615,16.3a11.82,11.82,0,0,0,3.69,1.538c.615,0,3.384.307,4.306.307s4.3-.154,4.92-1.383.462-2-.461-1.691a14.5,14.5,0,0,1-2.46.461l-.615-1.23a34.432,34.432,0,0,0,0-9.38c-.769-4-1.076-5.381-1.076-5.381s19.22-31.214,19.989-37.057,2-12.3,2-15.223-3.075-29.215-4-32.136-1.383-5.843-3.844-8.3-4.152-2.46-5.382-2.46" transform="translate(-142.481 -29.48)" fill="none" stroke="#263238" stroke-linecap="round" stroke-linejoin="round" stroke-width="1"/>
          <path id="Trazado_873936" data-name="Trazado 873936" d="M391.972,155.565s4.515-1.881,8.372-.188" transform="translate(-152.875 -60.324)" fill="none" stroke="#263238" stroke-linecap="round" stroke-linejoin="round" stroke-width="1"/>
          <path id="Trazado_873937" data-name="Trazado 873937" d="M396.753,150.467s5.174-1.223,8.466,2.634" transform="translate(-154.739 -58.613)" fill="none" stroke="#263238" stroke-linecap="round" stroke-linejoin="round" stroke-width="1"/>
          <path id="Trazado_873938" data-name="Trazado 873938" d="M377.183,180.928c-.479,1.961-.974,3.875-1.453,5.552-2.153,7.535-9.841,23.987-9.533,25.832s-1.538,15.684-.615,16.3a11.834,11.834,0,0,0,3.69,1.537c.615,0,3.383.308,4.305.308s4.306-.154,4.921-1.384.461-2-.461-1.691a14.518,14.518,0,0,1-2.461.461l-.615-1.23a34.434,34.434,0,0,0,0-9.38c-.769-4-1.076-5.382-1.076-5.382s9.235-15,15.158-26.148a16.175,16.175,0,0,0-11.86-4.776" transform="translate(-142.48 -70.565)" fill="#fff"/>
          <path id="Trazado_873939" data-name="Trazado 873939" d="M377.183,180.928c-.479,1.961-.974,3.875-1.453,5.552-2.153,7.535-9.841,23.987-9.533,25.832s-1.538,15.684-.615,16.3a11.834,11.834,0,0,0,3.69,1.537c.615,0,3.383.308,4.305.308s4.306-.154,4.921-1.384.461-2-.461-1.691a14.518,14.518,0,0,1-2.461.461l-.615-1.23a34.434,34.434,0,0,0,0-9.38c-.769-4-1.076-5.382-1.076-5.382s9.235-15,15.158-26.148A16.175,16.175,0,0,0,377.183,180.928Z" transform="translate(-142.48 -70.565)" fill="none" stroke="#263238" stroke-linecap="round" stroke-linejoin="round" stroke-width="1"/>
          <path id="Trazado_873940" data-name="Trazado 873940" d="M375.986,257.455s1.524,1.29,2.053,1.7.7.821,1.7.938" transform="translate(-146.64 -100.411)" fill="#fff"/>
          <path id="Trazado_873941" data-name="Trazado 873941" d="M375.986,257.455s1.524,1.29,2.053,1.7.7.821,1.7.938" transform="translate(-146.64 -100.411)" fill="none" stroke="#263238" stroke-linecap="round" stroke-linejoin="round" stroke-width="1"/>
          <path id="Trazado_873942" data-name="Trazado 873942" d="M371.083,258.7a14.939,14.939,0,0,0,3.694,2.053" transform="translate(-144.728 -100.899)" fill="#fff"/>
          <path id="Trazado_873943" data-name="Trazado 873943" d="M371.083,258.7a14.939,14.939,0,0,0,3.694,2.053" transform="translate(-144.728 -100.899)" fill="none" stroke="#263238" stroke-linecap="round" stroke-linejoin="round" stroke-width="1"/>
          <path id="Trazado_873944" data-name="Trazado 873944" d="M366.949,258.128a7.149,7.149,0,0,0,2.228,1.935" transform="translate(-143.115 -100.674)" fill="#fff"/>
          <path id="Trazado_873945" data-name="Trazado 873945" d="M366.949,258.128a7.149,7.149,0,0,0,2.228,1.935" transform="translate(-143.115 -100.674)" fill="none" stroke="#263238" stroke-linecap="round" stroke-linejoin="round" stroke-width="1"/>
          <path id="Trazado_873946" data-name="Trazado 873946" d="M330.937,213.812s.558,4.129.781,4.8-.112,1.9.112,4.464.892,5.245-.781,4.8-2.455-4.8-2.344-5.915-1.9-4.464-1.9-4.464" transform="translate(-127.46 -83.39)" fill="#fff"/>
          <path id="Trazado_873947" data-name="Trazado 873947" d="M330.937,213.812s.558,4.129.781,4.8-.112,1.9.112,4.464.892,5.245-.781,4.8-2.455-4.8-2.344-5.915-1.9-4.464-1.9-4.464" transform="translate(-127.46 -83.39)" fill="none" stroke="#263238" stroke-linecap="round" stroke-linejoin="round" stroke-width="1"/>
        </g>
      </g>
      <g id="Grupo_1099892" data-name="Grupo 1099892">
        <g id="Grupo_1099891" data-name="Grupo 1099891" clip-path="url(#clip-path)">
          <path id="Trazado_873948" data-name="Trazado 873948" d="M269.592,148.5c-1.559-2.991-13.159-44.1-13.159-44.1-2.185,5.982-3.581,35.486-3.581,35.486l1.27,15.647-.228,2.932c3.03-2.075,10.455-6.178,15.389-.715a7.325,7.325,0,0,0,.165-.722c.64-3.942,1.7-5.541.143-8.532" transform="translate(-98.616 -40.719)" fill="#92e3a9"/>
          <path id="Trazado_873949" data-name="Trazado 873949" d="M269.592,148.5c-1.559-2.991-13.159-44.1-13.159-44.1-2.185,5.982-3.581,35.486-3.581,35.486l1.27,15.647-.228,2.932c3.03-2.075,10.455-6.178,15.389-.715a7.325,7.325,0,0,0,.165-.722C270.089,153.09,271.151,151.491,269.592,148.5Z" transform="translate(-98.616 -40.719)" fill="none" stroke="#263238" stroke-linecap="round" stroke-linejoin="round" stroke-width="1"/>
          <path id="Trazado_873950" data-name="Trazado 873950" d="M274.164,183.181a9.712,9.712,0,0,1,2.267.665" transform="translate(-106.928 -71.443)" fill="none" stroke="#263238" stroke-linecap="round" stroke-linejoin="round" stroke-width="1"/>
          <path id="Trazado_873951" data-name="Trazado 873951" d="M256.336,184.511a26.98,26.98,0,0,1,8.04-1.635" transform="translate(-99.975 -71.324)" fill="none" stroke="#263238" stroke-linecap="round" stroke-linejoin="round" stroke-width="1"/>
          <path id="Trazado_873952" data-name="Trazado 873952" d="M272.7,179.558s-3.42-2.072-6.159-1.257" transform="translate(-103.954 -69.466)" fill="none" stroke="#263238" stroke-linecap="round" stroke-linejoin="round" stroke-width="1"/>
          <path id="Trazado_873953" data-name="Trazado 873953" d="M163.089,283.987l.722-31.34,2.228-17.2,51.84-1.768L222.5,246.01l2.847,38.386h-26.24l-4.958-25.425-1.419,2.447-.544,22.433Z" transform="translate(-63.607 -91.139)" fill="#263238"/>
          <path id="Trazado_873954" data-name="Trazado 873954" d="M163.089,283.987l.722-31.34,2.228-17.2,51.84-1.768L222.5,246.01l2.847,38.386h-26.24l-4.958-25.425-1.419,2.447-.544,22.433Z" transform="translate(-63.607 -91.139)" fill="none" stroke="#263238" stroke-linecap="round" stroke-linejoin="round" stroke-width="1"/>
          <path id="Trazado_873955" data-name="Trazado 873955" d="M174.32,94.561s-22.579,5.982-23.955,6.662,1.66,21.21,3.79,28.688,7.31,34.942,7.31,34.942L161.12,184.7s22.149.543,31.012-.544a177.376,177.376,0,0,0,18.577-3.535s3.144-17.539,2.065-29.1,2.064-40.245,2.111-42.149,1.441-8.973,1.441-8.973-16.87-5.167-21.208-5.71a116.26,116.26,0,0,0-20.8-.136" transform="translate(-58.51 -36.723)" fill="#efddcf"/>
          <path id="Trazado_873956" data-name="Trazado 873956" d="M174.32,94.561s-22.579,5.982-23.955,6.662,1.66,21.21,3.79,28.688,7.31,34.942,7.31,34.942L161.12,184.7s22.149.543,31.012-.544a177.376,177.376,0,0,0,18.577-3.535s3.144-17.539,2.065-29.1,2.064-40.245,2.111-42.149,1.441-8.973,1.441-8.973-16.87-5.167-21.208-5.71A116.26,116.26,0,0,0,174.32,94.561Z" transform="translate(-58.51 -36.723)" fill="none" stroke="#263238" stroke-linecap="round" stroke-linejoin="round" stroke-width="1"/>
          <path id="Trazado_873957" data-name="Trazado 873957" d="M182.884,103.124s2.813,7.753,9.454,12.38" transform="translate(-71.327 -40.22)" fill="none" stroke="#263238" stroke-linecap="round" stroke-linejoin="round" stroke-width="1"/>
          <path id="Trazado_873958" data-name="Trazado 873958" d="M219.053,100.869a48.574,48.574,0,0,1-3.153,6.252" transform="translate(-84.204 -39.34)" fill="none" stroke="#263238" stroke-linecap="round" stroke-linejoin="round" stroke-width="1"/>
          <line id="Línea_574" data-name="Línea 574" x1="1.165" y2="1.626" transform="translate(130.116 69.406)" fill="none" stroke="#263238" stroke-linecap="round" stroke-linejoin="round" stroke-width="1"/>
          <path id="Trazado_873959" data-name="Trazado 873959" d="M201.893,236.838c5.249-.31,14.868-1.152,21.114-3.332" transform="translate(-78.741 -91.071)" fill="none" stroke="#263238" stroke-linecap="round" stroke-linejoin="round" stroke-width="1"/>
          <path id="Trazado_873960" data-name="Trazado 873960" d="M195.776,239.208s.6-.014,1.624-.06" transform="translate(-76.355 -93.271)" fill="none" stroke="#263238" stroke-linecap="round" stroke-linejoin="round" stroke-width="1"/>
          <path id="Trazado_873961" data-name="Trazado 873961" d="M214.916,229.66c-6.889.9-17.33,1.709-25.466-.049" transform="translate(-73.888 -89.552)" fill="none" stroke="#263238" stroke-linecap="round" stroke-linejoin="round" stroke-width="1"/>
          <path id="Trazado_873962" data-name="Trazado 873962" d="M240.306,227.765s-1.74.357-4.535.782" transform="translate(-91.954 -88.832)" fill="none" stroke="#263238" stroke-linecap="round" stroke-linejoin="round" stroke-width="1"/>
          <path id="Trazado_873963" data-name="Trazado 873963" d="M229.468,212.1c-4.169,2.412-12.128,6.511-20.019,7.807" transform="translate(-81.688 -82.721)" fill="none" stroke="#263238" stroke-linecap="round" stroke-linejoin="round" stroke-width="1"/>
          <path id="Trazado_873964" data-name="Trazado 873964" d="M246.144,209.11s-.563.377-1.563.986" transform="translate(-95.39 -81.556)" fill="none" stroke="#263238" stroke-linecap="round" stroke-linejoin="round" stroke-width="1"/>
          <path id="Trazado_873965" data-name="Trazado 873965" d="M184.62,79.841l.948,10.916s3.339,7.909,11.1,7.4c7.611-.5,8.737-10.189,8.737-10.189l-1.54-11.522s-6.685,5.579-10.433,5.094-8.813-1.7-8.813-1.7" transform="translate(-72.004 -29.815)" fill="#fff"/>
          <path id="Trazado_873966" data-name="Trazado 873966" d="M184.62,79.841l.948,10.916s3.339,7.909,11.1,7.4c7.611-.5,8.737-10.189,8.737-10.189l-1.54-11.522s-6.685,5.579-10.433,5.094S184.62,79.841,184.62,79.841Z" transform="translate(-72.004 -29.815)" fill="none" stroke="#263238" stroke-linecap="round" stroke-linejoin="round" stroke-width="1"/>
          <path id="Trazado_873967" data-name="Trazado 873967" d="M170.142,46.646s-1.384-1.763-2.43-.168.193,5.875,2.1,6.8a7.772,7.772,0,0,0,2.412.924,39.615,39.615,0,0,0,3.307,5.54c1.144,1.259,9.477,7.219,11.484,7.555s4.875-.252,5.994-1.427,4.673-9.233,5.223-11.164a11.288,11.288,0,0,0,.673-3.525C198.936,50,198.876,49,198.876,49s2-2.938,2.227-5.288-.32-4.113-1.571-4.449-2.655,2.182-2.655,2.182l-4.219-12.926s-1.426-3.526-2.674-3.945-10.257.672-14.073,2.267-7.55,3.273-7.844,5.036,2.076,14.773,2.076,14.773" transform="translate(-65.261 -9.548)" fill="#fff"/>
          <path id="Trazado_873968" data-name="Trazado 873968" d="M170.142,46.646s-1.384-1.763-2.43-.168.193,5.875,2.1,6.8a7.772,7.772,0,0,0,2.412.924,39.615,39.615,0,0,0,3.307,5.54c1.144,1.259,9.477,7.219,11.484,7.555s4.875-.252,5.994-1.427,4.673-9.233,5.223-11.164a11.288,11.288,0,0,0,.673-3.525C198.936,50,198.876,49,198.876,49s2-2.938,2.227-5.288-.32-4.113-1.571-4.449-2.655,2.182-2.655,2.182l-4.219-12.926s-1.426-3.526-2.674-3.945-10.257.672-14.073,2.267-7.55,3.273-7.844,5.036S170.142,46.646,170.142,46.646Z" transform="translate(-65.261 -9.548)" fill="none" stroke="#263238" stroke-linecap="round" stroke-linejoin="round" stroke-width="1"/>
          <path id="Trazado_873969" data-name="Trazado 873969" d="M175.395,23.252s-7.206,1.434-7.625,2.608-.995,3.39-.254,5.085,1.573,10.431,1.573,10.431,1.107,2.738.334,2.347-1.345-3.651-1.6-4.042-3.49-6.649-4.475-9,1.153-4.563,1.688-5.085a10.556,10.556,0,0,0,1.075-1.3s-.561-3.781,1.175-5.476,14.316-4.3,15.369-4.694,2.15-2.608,3.075-3.129,3.632.782,5.248,4.042,1.463,4.172.926,4.824l-.537.651a3.487,3.487,0,0,1,2.541,2.738c.722,2.477,1.708,4.824,1.661,6.78s-.335,5.716-.345,6.108-.456.02-.815-1.284-3.649-10.822-4.145-11.865a25.288,25.288,0,0,0-1.374-2.477c-.251-.391-10.952,0-13.5,2.738" transform="translate(-63.609 -4.245)" fill="#263238"/>
          <path id="Trazado_873970" data-name="Trazado 873970" d="M175.395,23.252s-7.206,1.434-7.625,2.608-.995,3.39-.254,5.085,1.573,10.431,1.573,10.431,1.107,2.738.334,2.347-1.345-3.651-1.6-4.042-3.49-6.649-4.475-9,1.153-4.563,1.688-5.085a10.556,10.556,0,0,0,1.075-1.3s-.561-3.781,1.175-5.476,14.316-4.3,15.369-4.694,2.15-2.608,3.075-3.129,3.632.782,5.248,4.042,1.463,4.172.926,4.824l-.537.651a3.487,3.487,0,0,1,2.541,2.738c.722,2.477,1.708,4.824,1.661,6.78s-.335,5.716-.345,6.108-.456.02-.815-1.284-3.649-10.822-4.145-11.865a25.288,25.288,0,0,0-1.374-2.477C188.639,20.122,177.938,20.513,175.395,23.252Z" transform="translate(-63.609 -4.245)" fill="none" stroke="#263238" stroke-linecap="round" stroke-linejoin="round" stroke-width="1"/>
          <path id="Trazado_873971" data-name="Trazado 873971" d="M188.9,77.9c2.006.335,4.874-.252,5.994-1.427s4.673-9.233,5.223-11.164a11.283,11.283,0,0,0,.673-3.526c.029-1.175-.031-2.183-.031-2.183l-1.771-7.926c-.063.1-.113.178-.151.241.2,2.447.57,7.173.492,7.853a2.784,2.784,0,0,1-2.15,2.1c-1.011.168-5.778-.587-7.88-.42s-2.792.924-4.407,1.763-4.938,2.854-5.783,3.105a3.52,3.52,0,0,1-3.077-1.175c-.651-.839-3.407-7.86-3.407-7.86a4.1,4.1,0,0,1-.463,1.312l1.948,6.211a39.677,39.677,0,0,0,3.307,5.54c1.144,1.259,9.478,7.219,11.484,7.555" transform="translate(-67.146 -20.155)" fill="#263238"/>
          <path id="Trazado_873972" data-name="Trazado 873972" d="M188.9,77.9c2.006.335,4.874-.252,5.994-1.427s4.673-9.233,5.223-11.164a11.283,11.283,0,0,0,.673-3.526c.029-1.175-.031-2.183-.031-2.183l-1.771-7.926c-.063.1-.113.178-.151.241.2,2.447.57,7.173.492,7.853a2.784,2.784,0,0,1-2.15,2.1c-1.011.168-5.778-.587-7.88-.42s-2.792.924-4.407,1.763-4.938,2.854-5.783,3.105a3.52,3.52,0,0,1-3.077-1.175c-.651-.839-3.407-7.86-3.407-7.86a4.1,4.1,0,0,1-.463,1.312l1.948,6.211a39.677,39.677,0,0,0,3.307,5.54C178.561,71.607,186.895,77.567,188.9,77.9Z" transform="translate(-67.146 -20.155)" fill="none" stroke="#263238" stroke-linecap="round" stroke-linejoin="round" stroke-width="1"/>
          <path id="Trazado_873973" data-name="Trazado 873973" d="M196.577,48.3s-1.382,1.595-1.142,2.1,3.373,9.737,3.265,10.744-1.464,1.511-2.547,1.175-1.765-3.357-1.765-3.357" transform="translate(-75.814 -18.837)" fill="#fff"/>
          <path id="Trazado_873974" data-name="Trazado 873974" d="M196.577,48.3s-1.382,1.595-1.142,2.1,3.373,9.737,3.265,10.744-1.464,1.511-2.547,1.175-1.765-3.357-1.765-3.357" transform="translate(-75.814 -18.837)" fill="none" stroke="#263238" stroke-linecap="round" stroke-linejoin="round" stroke-width="1"/>
          <path id="Trazado_873975" data-name="Trazado 873975" d="M200.349,46.173s2.989-2.1,5.64-.672" transform="translate(-78.139 -17.552)" fill="none" stroke="#263238" stroke-linecap="round" stroke-linejoin="round" stroke-width="3"/>
          <path id="Trazado_873976" data-name="Trazado 873976" d="M183.253,49.863s-4.592-1.007-6.609,2.518" transform="translate(-68.894 -19.395)" fill="none" stroke="#263238" stroke-linecap="round" stroke-linejoin="round" stroke-width="3"/>
          <path id="Trazado_873977" data-name="Trazado 873977" d="M185.686,56.292c.167.695-.046,1.349-.475,1.462s-.911-.361-1.077-1.055.046-1.349.475-1.461.911.36,1.077,1.055" transform="translate(-71.793 -21.537)" fill="#263238"/>
          <path id="Trazado_873978" data-name="Trazado 873978" d="M185.686,56.292c.167.695-.046,1.349-.475,1.462s-.911-.361-1.077-1.055.046-1.349.475-1.461S185.52,55.6,185.686,56.292Z" transform="translate(-71.793 -21.537)" fill="none" stroke="#263238" stroke-linecap="round" stroke-linejoin="round" stroke-width="1"/>
          <path id="Trazado_873979" data-name="Trazado 873979" d="M203.766,51.546c.167.695-.046,1.349-.475,1.462s-.911-.361-1.077-1.055.046-1.349.475-1.461.911.36,1.077,1.055" transform="translate(-78.844 -19.686)" fill="#263238"/>
          <path id="Trazado_873980" data-name="Trazado 873980" d="M203.766,51.546c.167.695-.046,1.349-.475,1.462s-.911-.361-1.077-1.055.046-1.349.475-1.461S203.6,50.851,203.766,51.546Z" transform="translate(-78.844 -19.686)" fill="none" stroke="#263238" stroke-linecap="round" stroke-linejoin="round" stroke-width="1"/>
          <path id="Trazado_873981" data-name="Trazado 873981" d="M192.03,76.111s5.849,1.091,9.3-2.77" transform="translate(-74.894 -28.604)" fill="none" stroke="#858585" stroke-linecap="round" stroke-linejoin="round" stroke-width="1"/>
          <path id="Trazado_873982" data-name="Trazado 873982" d="M280.023,190.682c-.014.087-.035.187-.059.295C279.988,190.869,280.009,190.769,280.023,190.682Z" transform="translate(-109.19 -74.369)" fill="none" stroke="#263238" stroke-linecap="round" stroke-linejoin="round" stroke-width="1"/>
          <path id="Trazado_873983" data-name="Trazado 873983" d="M260.974,190.124c-4.935-5.463-12.359-1.36-15.389.715L244.013,205.3l-.746,2.719s-5.583,5.982-6.293,7.206a11.057,11.057,0,0,1-2.653,2.855c-.832.68-2.613,1.224-2.769,2.04s2.553,1.224,3.379.816a20.388,20.388,0,0,0,2.918-2.583l-1.309,3.535,10.628,4.623s.62-3.127.938-5.031.835-6.39.991-7.206c.152-.794,10.821-19.6,11.969-24.513-.027.113-.057.233-.093.365" transform="translate(-90.306 -73.089)" fill="#fff"/>
          <path id="Trazado_873984" data-name="Trazado 873984" d="M260.974,190.124c-4.935-5.463-12.359-1.36-15.389.715L244.013,205.3l-.746,2.719s-5.583,5.982-6.293,7.206a11.057,11.057,0,0,1-2.653,2.855c-.832.68-2.613,1.224-2.769,2.04s2.553,1.224,3.379.816a20.388,20.388,0,0,0,2.918-2.583l-1.309,3.535,10.628,4.623s.62-3.127.938-5.031.835-6.39.991-7.206c.152-.794,10.821-19.6,11.969-24.513C261.04,189.872,261.01,189.992,260.974,190.124Z" transform="translate(-90.306 -73.089)" fill="none" stroke="#263238" stroke-linecap="round" stroke-linejoin="round" stroke-width="1"/>
          <path id="Trazado_873985" data-name="Trazado 873985" d="M139.47,105.741s-2.782,2.583-3.388,5.167-9.829,34.92-11.987,39.814-2.526,8.837-1.349,10.741,22.437,17.017,22.437,17.017,2.262,7.614,2.9,9.518,1.778,5.167,1.778,5.167l8.525-3.943a26.707,26.707,0,0,0,2.656,2.583c1.068.816,2.418,1.224,2.71.407s-1.284-3.127-1.284-3.127a10.286,10.286,0,0,1-.879-2.991c-.1-1.36-2.083-3.807-2.869-5.031s-7.34-5.71-7.34-5.71L138.01,154.393l5.251-19.964s-4.741-23.114-3.79-28.688" transform="translate(-47.615 -41.241)" fill="#fff"/>
          <path id="Trazado_873986" data-name="Trazado 873986" d="M139.47,105.741s-2.782,2.583-3.388,5.167-9.829,34.92-11.987,39.814-2.526,8.837-1.349,10.741,22.437,17.017,22.437,17.017,2.262,7.614,2.9,9.518,1.778,5.167,1.778,5.167l8.525-3.943a26.707,26.707,0,0,0,2.656,2.583c1.068.816,2.418,1.224,2.71.407s-1.284-3.127-1.284-3.127a10.286,10.286,0,0,1-.879-2.991c-.1-1.36-2.083-3.807-2.869-5.031s-7.34-5.71-7.34-5.71L138.01,154.393l5.251-19.964S138.519,111.316,139.47,105.741Z" transform="translate(-47.615 -41.241)" fill="none" stroke="#263238" stroke-linecap="round" stroke-linejoin="round" stroke-width="1"/>
          <path id="Trazado_873987" data-name="Trazado 873987" d="M138.01,154.393l6.052-16.937s-5.542-26.14-4.591-31.715c0,0-2.782,2.583-3.388,5.167s-9.829,34.92-11.987,39.814-2.526,8.837-1.348,10.741a16.819,16.819,0,0,0,5.8,4.922c1.238-2.367,4.45-7.868,11.432-8.346Z" transform="translate(-47.616 -41.241)" fill="#92e3a9"/>
          <path id="Trazado_873988" data-name="Trazado 873988" d="M138.01,154.393l6.052-16.937s-5.542-26.14-4.591-31.715c0,0-2.782,2.583-3.388,5.167s-9.829,34.92-11.987,39.814-2.526,8.837-1.348,10.741a16.819,16.819,0,0,0,5.8,4.922c1.238-2.367,4.45-7.868,11.432-8.346Z" transform="translate(-47.616 -41.241)" fill="none" stroke="#263238" stroke-linecap="round" stroke-linejoin="round" stroke-width="1"/>
          <path id="Trazado_873989" data-name="Trazado 873989" d="M131.735,183.877a17.733,17.733,0,0,1,7.863.952" transform="translate(-51.379 -71.677)" fill="none" stroke="#263238" stroke-linecap="round" stroke-linejoin="round" stroke-width="1"/>
          <path id="Trazado_873990" data-name="Trazado 873990" d="M140.7,181.933s3.376.952,4.57,2.175" transform="translate(-54.875 -70.957)" fill="none" stroke="#263238" stroke-linecap="round" stroke-linejoin="round" stroke-width="1"/>
        </g>
      </g>
      <g id="Grupo_1099894" data-name="Grupo 1099894">
        <g id="Grupo_1099893" data-name="Grupo 1099893" clip-path="url(#clip-path)">
          <path id="Trazado_873991" data-name="Trazado 873991" d="M255.69,215.827s-7.693,21.515-4.824,33.12,5.476,25.688,5.476,25.688h39.509s4.433-14.344,3.912-22.949S298.2,233.43,298.2,233.43l-2.086-24.775H256.733Z" transform="translate(-97.591 -81.378)" fill="#263238"/>
          <path id="Trazado_873992" data-name="Trazado 873992" d="M255.69,215.827s-7.693,21.515-4.824,33.12,5.476,25.688,5.476,25.688h39.509s4.433-14.344,3.912-22.949S298.2,233.43,298.2,233.43l-2.086-24.775H256.733Z" transform="translate(-97.591 -81.378)" fill="none" stroke="#263238" stroke-linecap="round" stroke-linejoin="round" stroke-width="1"/>
          <path id="Trazado_873993" data-name="Trazado 873993" d="M289.752,255.256s6.52,13.822,9.388,24.645,2.738,12.779,2.738,12.779" transform="translate(-113.007 -99.554)" fill="none" stroke="#858585" stroke-linecap="round" stroke-linejoin="round" stroke-width="1"/>
          <path id="Trazado_873994" data-name="Trazado 873994" d="M301.723,265.861s6.911-6,9-13.17" transform="translate(-117.676 -98.553)" fill="none" stroke="#858585" stroke-linecap="round" stroke-linejoin="round" stroke-width="1"/>
          <path id="Trazado_873995" data-name="Trazado 873995" d="M284.968,113.529l-18.516,6.129a72.532,72.532,0,0,1,8.867,25.688,170.931,170.931,0,0,1,1.3,30.512s4.824,2.869,13.952,1.826,11.866-6.129,11.866-6.129-.652-25.3-4.042-35.337-13.431-22.688-13.431-22.688" transform="translate(-103.92 -44.278)" fill="#dfbba0"/>
          <path id="Trazado_873996" data-name="Trazado 873996" d="M284.968,113.529l-18.516,6.129a72.532,72.532,0,0,1,8.867,25.688,170.931,170.931,0,0,1,1.3,30.512s4.824,2.869,13.952,1.826,11.866-6.129,11.866-6.129-.652-25.3-4.042-35.337S284.968,113.529,284.968,113.529Z" transform="translate(-103.92 -44.278)" fill="none" stroke="#263238" stroke-linecap="round" stroke-linejoin="round" stroke-width="1"/>
          <path id="Trazado_873997" data-name="Trazado 873997" d="M243.586,38.738s-4.466-.353-6.347,4.7S230.069,66.124,231.127,70s3.409,5.171,4.349,9.4a8.306,8.306,0,0,1-1.175,6.817s1.646,2.351,5.642,2.469,9.99-3.056,13.987-4,12.812-1.763,18.336-2.586,6.7-4.937,6.7-4.937-3.761.353-4-2S277.79,64.009,276.5,57.9s-10.109-12.224-13.988-15.28-7.522-5.525-11.636-5.642-6.582.235-7.287,1.763" transform="translate(-90.089 -14.413)" fill="#263238"/>
          <path id="Trazado_873998" data-name="Trazado 873998" d="M243.586,38.738s-4.466-.353-6.347,4.7S230.069,66.124,231.127,70s3.409,5.171,4.349,9.4a8.306,8.306,0,0,1-1.175,6.817s1.646,2.351,5.642,2.469,9.99-3.056,13.987-4,12.812-1.763,18.336-2.586,6.7-4.937,6.7-4.937-3.761.353-4-2S277.79,64.009,276.5,57.9s-10.109-12.224-13.988-15.28-7.522-5.525-11.636-5.642S244.291,37.209,243.586,38.738Z" transform="translate(-90.089 -14.413)" fill="none" stroke="#263238" stroke-linecap="round" stroke-linejoin="round" stroke-width="1"/>
          <path id="Trazado_873999" data-name="Trazado 873999" d="M246.383,76.1s-3.526,6.112-3.056,11.519,4.584,5.759,5.407,5.054" transform="translate(-94.884 -29.682)" fill="none" stroke="#858585" stroke-linecap="round" stroke-linejoin="round" stroke-width="1"/>
          <path id="Trazado_874000" data-name="Trazado 874000" d="M285.362,61.46s8.463,7.875,9.755,16.22" transform="translate(-111.295 -23.97)" fill="none" stroke="#858585" stroke-linecap="round" stroke-linejoin="round" stroke-width="1"/>
          <path id="Trazado_874001" data-name="Trazado 874001" d="M264.674,97.384l3.956,10.844s8.3,9.653,11.887,8.291.124-11.022,0-12.385-1.239-8.049-1.239-8.049-2.477,3.963-4.087,3.963-10.517-2.664-10.517-2.664" transform="translate(-103.227 -37.475)" fill="#fff"/>
          <path id="Trazado_874002" data-name="Trazado 874002" d="M264.674,97.384l3.956,10.844s8.3,9.653,11.887,8.291.124-11.022,0-12.385-1.239-8.049-1.239-8.049-2.477,3.963-4.087,3.963S264.674,97.384,264.674,97.384Z" transform="translate(-103.227 -37.475)" fill="none" stroke="#263238" stroke-linecap="round" stroke-linejoin="round" stroke-width="1"/>
          <path id="Trazado_874003" data-name="Trazado 874003" d="M255.459,51.487s-6.468,11.817-6.468,13.434,4.976,11.568,6.344,13.559,10.822,6.344,12.937,6.468,4.23-2.239,4.727-4.105,2.607-6.97,2.467-9.811c-.052-1.061-3.886-12.99-5-13.611s-15-5.934-15-5.934" transform="translate(-97.11 -20.081)" fill="#fff"/>
          <path id="Trazado_874004" data-name="Trazado 874004" d="M255.459,51.487s-6.468,11.817-6.468,13.434,4.976,11.568,6.344,13.559,10.822,6.344,12.937,6.468,4.23-2.239,4.727-4.105,2.607-6.97,2.467-9.811c-.052-1.061-3.886-12.99-5-13.611S255.459,51.487,255.459,51.487Z" transform="translate(-97.11 -20.081)" fill="none" stroke="#263238" stroke-linecap="round" stroke-linejoin="round" stroke-width="1"/>
          <path id="Trazado_874005" data-name="Trazado 874005" d="M264.126,78.427a3.117,3.117,0,0,0-3.76,1.144" transform="translate(-101.547 -30.499)" fill="none" stroke="#263238" stroke-linecap="round" stroke-linejoin="round" stroke-width="1"/>
          <path id="Trazado_874006" data-name="Trazado 874006" d="M276.849,73.583s.49-2.534,3.433-1.8" transform="translate(-107.975 -27.945)" fill="none" stroke="#263238" stroke-linecap="round" stroke-linejoin="round" stroke-width="1"/>
          <path id="Trazado_874007" data-name="Trazado 874007" d="M260.982,73.072s-3.76-.245-4.9,2.37" transform="translate(-99.874 -28.497)" fill="none" stroke="#263238" stroke-linecap="round" stroke-linejoin="round" stroke-width="1"/>
          <path id="Trazado_874008" data-name="Trazado 874008" d="M272.426,67.906s2.043-2.779,4.9-1.8" transform="translate(-106.25 -25.701)" fill="none" stroke="#263238" stroke-linecap="round" stroke-linejoin="round" stroke-width="1"/>
          <path id="Trazado_874009" data-name="Trazado 874009" d="M276.121,83.663s-1.226,1.8-3.024,1.308" transform="translate(-106.512 -32.63)" fill="none" stroke="#263238" stroke-linecap="round" stroke-linejoin="round" stroke-width="1"/>
          <path id="Trazado_874010" data-name="Trazado 874010" d="M278.12,85.539s-2.37,3.515-8.91,4.005c0,0,4.333,3.107,6.867,2.289s2.043-6.294,2.043-6.294" transform="translate(-104.996 -33.361)" fill="#fff"/>
          <path id="Trazado_874011" data-name="Trazado 874011" d="M278.12,85.539s-2.37,3.515-8.91,4.005c0,0,4.333,3.107,6.867,2.289S278.12,85.539,278.12,85.539Z" transform="translate(-104.996 -33.361)" fill="none" stroke="#263238" stroke-linecap="round" stroke-linejoin="round" stroke-width="1"/>
          <path id="Trazado_874012" data-name="Trazado 874012" d="M251.284,83.682s-2.125-.981-2.452,1.635,5.149,3.515,5.149,3.515Z" transform="translate(-97.043 -32.567)" fill="#fff"/>
          <path id="Trazado_874013" data-name="Trazado 874013" d="M251.284,83.682s-2.125-.981-2.452,1.635,5.149,3.515,5.149,3.515Z" transform="translate(-97.043 -32.567)" fill="none" stroke="#263238" stroke-linecap="round" stroke-linejoin="round" stroke-width="1"/>
          <path id="Trazado_874014" data-name="Trazado 874014" d="M287.545,67.809a.8.8,0,0,1,1.064-.8c1.042.267,2.788,3.395,2.6,5.266s-1.419,1.914-1.419,1.914Z" transform="translate(-112.147 -26.118)" fill="#fff"/>
          <path id="Trazado_874015" data-name="Trazado 874015" d="M287.545,67.809a.8.8,0,0,1,1.064-.8c1.042.267,2.788,3.395,2.6,5.266s-1.419,1.914-1.419,1.914Z" transform="translate(-112.147 -26.118)" fill="none" stroke="#263238" stroke-linecap="round" stroke-linejoin="round" stroke-width="1"/>
          <path id="Trazado_874016" data-name="Trazado 874016" d="M249.987,115.778s-14.49,9.66-15.109,11.393,9.907,53.128,9.907,53.128-13.994,31.455-10.527,36.9,19.2,10.65,19.939,11.642,7.059-26.131,9.784-36.409,7.183-28.855,7.43-37.648-3.344-20.434-4.582-24.273-3.468-10.527-3.468-10.527Z" transform="translate(-91.149 -45.155)" fill="#a3a3a3"/>
          <path id="Trazado_874017" data-name="Trazado 874017" d="M249.987,115.778s-14.49,9.66-15.109,11.393,9.907,53.128,9.907,53.128-13.994,31.455-10.527,36.9,19.2,10.65,19.939,11.642,7.059-26.131,9.784-36.409,7.183-28.855,7.43-37.648-3.344-20.434-4.582-24.273-3.468-10.527-3.468-10.527Z" transform="translate(-91.149 -45.155)" fill="none" stroke="#263238" stroke-linecap="round" stroke-linejoin="round" stroke-width="1"/>
          <path id="Trazado_874018" data-name="Trazado 874018" d="M262.884,105.739s10.193,9.838,9.7,10.334-6.316,9.164-6.316,9.164l-8.917-13Z" transform="translate(-100.37 -41.24)" fill="#a3a3a3"/>
          <path id="Trazado_874019" data-name="Trazado 874019" d="M262.884,105.739s10.193,9.838,9.7,10.334-6.316,9.164-6.316,9.164l-8.917-13Z" transform="translate(-100.37 -41.24)" fill="none" stroke="#263238" stroke-linecap="round" stroke-linejoin="round" stroke-width="1"/>
          <path id="Trazado_874020" data-name="Trazado 874020" d="M293.2,117.9s8.917,10.9,12.632,18.7,5.449,21.672,5.449,27.121V174s3.839,26.007,5.078,30.341,3.22,12.384,3.22,12.384,1.486-.5,1.362-5.944-2.105-27.616-3.839-36.409S314.644,151,313.53,148.4l-1.114-2.6,13.231-3.842a40.617,40.617,0,0,1-10.933-18.914c-1.22-5.206-3.931-7.991-5.54-9.106s-13.375-2.353-15.356-2.229-.619,6.192-.619,6.192" transform="translate(-114.173 -43.566)" fill="#a3a3a3"/>
          <path id="Trazado_874021" data-name="Trazado 874021" d="M293.2,117.9s8.917,10.9,12.632,18.7,5.449,21.672,5.449,27.121V174s3.839,26.007,5.078,30.341,3.22,12.384,3.22,12.384,1.486-.5,1.362-5.944-2.105-27.616-3.839-36.409S314.644,151,313.53,148.4l-1.114-2.6,13.231-3.842a40.617,40.617,0,0,1-10.933-18.914c-1.22-5.206-3.931-7.991-5.54-9.106s-13.375-2.353-15.356-2.229S293.2,117.9,293.2,117.9Z" transform="translate(-114.173 -43.566)" fill="none" stroke="#263238" stroke-linecap="round" stroke-linejoin="round" stroke-width="1"/>
          <path id="Trazado_874022" data-name="Trazado 874022" d="M292.381,115.454s.371-1.61,1.114-1.362,7.059,3.839,7.678,3.467-6.44-8.916-7.8-10.154a15.788,15.788,0,0,0-2.724-1.982v2.353Z" transform="translate(-113.357 -41.116)" fill="#a3a3a3"/>
          <path id="Trazado_874023" data-name="Trazado 874023" d="M292.381,115.454s.371-1.61,1.114-1.362,7.059,3.839,7.678,3.467-6.44-8.916-7.8-10.154a15.788,15.788,0,0,0-2.724-1.982v2.353Z" transform="translate(-113.357 -41.116)" fill="none" stroke="#263238" stroke-linecap="round" stroke-linejoin="round" stroke-width="1"/>
          <path id="Trazado_874024" data-name="Trazado 874024" d="M313.182,122.071s4.335,13.994,4.83,20.062" transform="translate(-122.146 -47.609)" fill="#fff"/>
          <path id="Trazado_874025" data-name="Trazado 874025" d="M313.182,122.071s4.335,13.994,4.83,20.062" transform="translate(-122.146 -47.609)" fill="none" stroke="#263238" stroke-linecap="round" stroke-linejoin="round" stroke-width="1"/>
          <path id="Trazado_874026" data-name="Trazado 874026" d="M317.233,159.339s2.521-10.084,3.126-10.689a39.147,39.147,0,0,1,5.949-2.824c.4-.1,3.631,2.219,4.135,2.722s2.723,1.916,2.319,2.723-1.714.2-2.42.2-4.034,2.118-4.235,2.42-1.311,2.824-1.715,3.529-7.159,1.916-7.159,1.916" transform="translate(-123.725 -56.873)" fill="#fff"/>
          <path id="Trazado_874027" data-name="Trazado 874027" d="M317.233,159.339s2.521-10.084,3.126-10.689a39.147,39.147,0,0,1,5.949-2.824c.4-.1,3.631,2.219,4.135,2.722s2.723,1.916,2.319,2.723-1.714.2-2.42.2-4.034,2.118-4.235,2.42-1.311,2.824-1.715,3.529S317.233,159.339,317.233,159.339Z" transform="translate(-123.725 -56.873)" fill="none" stroke="#263238" stroke-linecap="round" stroke-linejoin="round" stroke-width="1"/>
          <path id="Trazado_874028" data-name="Trazado 874028" d="M335.479,151.391s-1.327-.531-1.725-.332-5.108,2.388-5.373,2.72-.6.863-.6.863" transform="translate(-127.84 -58.898)" fill="none" stroke="#263238" stroke-linecap="round" stroke-linejoin="round" stroke-width="1"/>
          <path id="Trazado_874029" data-name="Trazado 874029" d="M325.717,152.385a6.868,6.868,0,0,1,1.592-1.526c.8-.465,3.582-1.526,3.914-1.659a6.23,6.23,0,0,1,1.593,0" transform="translate(-127.034 -58.168)" fill="none" stroke="#263238" stroke-linecap="round" stroke-linejoin="round" stroke-width="1"/>
          <path id="Trazado_874030" data-name="Trazado 874030" d="M330.165,147.282s-5.307,1.924-5.639,2.388l-.332.464" transform="translate(-126.44 -57.442)" fill="none" stroke="#263238" stroke-linecap="round" stroke-linejoin="round" stroke-width="1"/>
          <path id="Trazado_874031" data-name="Trazado 874031" d="M325.566,162.205a68.77,68.77,0,0,1,7.306-4.582c2.229-.991,6.811.867,7.678,1.982s1.981,6.44,1.857,10.4-.248,5.7-2.972,6.564a67.189,67.189,0,0,1-6.811,1.486c-.371.124-.743-7.43-3.1-11.517s-3.963-4.335-3.963-4.335" transform="translate(-126.975 -61.366)" fill="#a3a3a3"/>
          <path id="Trazado_874032" data-name="Trazado 874032" d="M325.566,162.205a68.77,68.77,0,0,1,7.306-4.582c2.229-.991,6.811.867,7.678,1.982s1.981,6.44,1.857,10.4-.248,5.7-2.972,6.564a67.189,67.189,0,0,1-6.811,1.486c-.371.124-.743-7.43-3.1-11.517S325.566,162.205,325.566,162.205Z" transform="translate(-126.975 -61.366)" fill="none" stroke="#263238" stroke-linecap="round" stroke-linejoin="round" stroke-width="1"/>
          <path id="Trazado_874033" data-name="Trazado 874033" d="M315.009,166.881s1.238,14.118,2.229,15.852,3.468,1.362,6.069.743,6.44-1.486,6.563-2.353,0-9.164-1.363-12.632-3.715-5.944-5.573-5.449-7.926,1.734-7.926,3.839" transform="translate(-122.858 -63.564)" fill="#a3a3a3"/>
          <path id="Trazado_874034" data-name="Trazado 874034" d="M315.009,166.881s1.238,14.118,2.229,15.852,3.468,1.362,6.069.743,6.44-1.486,6.563-2.353,0-9.164-1.363-12.632-3.715-5.944-5.573-5.449S315.009,164.776,315.009,166.881Z" transform="translate(-122.858 -63.564)" fill="none" stroke="#263238" stroke-linecap="round" stroke-linejoin="round" stroke-width="1"/>
          <path id="Trazado_874035" data-name="Trazado 874035" d="M294.11,196.466l15.126-13.009-6.353-4.235-12.1,5.345s3.227,8.572,3.327,11.9" transform="translate(-113.41 -69.899)" fill="#fff"/>
          <path id="Trazado_874036" data-name="Trazado 874036" d="M294.11,196.466l15.126-13.009-6.353-4.235-12.1,5.345S294.01,193.138,294.11,196.466Z" transform="translate(-113.41 -69.899)" fill="none" stroke="#263238" stroke-linecap="round" stroke-linejoin="round" stroke-width="1"/>
          <path id="Trazado_874037" data-name="Trazado 874037" d="M280.3,203.634a6.785,6.785,0,0,0,3.832-1.815c2.219-1.815,4.235-3.025,3.63-8.168s-3.126-13.009-4.336-14.017-8.975.2-9.177.706,6.151,9.68,6.656,15.025-.605,8.269-.605,8.269" transform="translate(-106.959 -69.908)" fill="#a3a3a3"/>
          <path id="Trazado_874038" data-name="Trazado 874038" d="M280.3,203.634a6.785,6.785,0,0,0,3.832-1.815c2.219-1.815,4.235-3.025,3.63-8.168s-3.126-13.009-4.336-14.017-8.975.2-9.177.706,6.151,9.68,6.656,15.025S280.3,203.634,280.3,203.634Z" transform="translate(-106.959 -69.908)" fill="none" stroke="#263238" stroke-linecap="round" stroke-linejoin="round" stroke-width="1"/>
          <path id="Trazado_874039" data-name="Trazado 874039" d="M237.246,134.242a1.71,1.71,0,0,0-2.988-.282c-1.852,1.9-2.86,7.24-1.549,13.694s4.941,33.478,6.353,36.807,2.722,6.454,5.243,6.554a54.829,54.829,0,0,0,16.437-3.227c5.647-2.219,5.345-8.874,3.429-14.622s-5.445-10.487-7.563-11.9-3.227-3.227-5.445-7.361-7.26-14.621-8.672-16.134" transform="translate(-90.528 -51.944)" fill="#a3a3a3"/>
          <path id="Trazado_874040" data-name="Trazado 874040" d="M237.246,134.242a1.71,1.71,0,0,0-2.988-.282c-1.852,1.9-2.86,7.24-1.549,13.694s4.941,33.478,6.353,36.807,2.722,6.454,5.243,6.554a54.829,54.829,0,0,0,16.437-3.227c5.647-2.219,5.345-8.874,3.429-14.622s-5.445-10.487-7.563-11.9-3.227-3.227-5.445-7.361-7.26-14.621-8.672-16.134" transform="translate(-90.528 -51.944)" fill="none" stroke="#263238" stroke-linecap="round" stroke-linejoin="round" stroke-width="1"/>
          <path id="Trazado_874041" data-name="Trazado 874041" d="M255.67,196.664A12.4,12.4,0,0,1,254.1,197.9" transform="translate(-99.102 -76.702)" fill="none" stroke="#263238" stroke-linecap="round" stroke-linejoin="round" stroke-width="1"/>
          <path id="Trazado_874042" data-name="Trazado 874042" d="M263.72,182.4a37.2,37.2,0,0,1-4.909,7.375" transform="translate(-100.94 -71.139)" fill="none" stroke="#263238" stroke-linecap="round" stroke-linejoin="round" stroke-width="1"/>
          <path id="Trazado_874043" data-name="Trazado 874043" d="M291.167,168.872s-14.823,1.412-18.655,1.311-9.277-2.118-9.277-2.118-6.555-2.722-7.966-3.428a10.018,10.018,0,0,0-5.647-.3c-.908.4-2.924,2.017-2.622,3.025s1.513.3,2.118-.2a7.236,7.236,0,0,1,1.613-.908l3.227.706.605.807s-4.437.806-5.042,1.109-2.319,4.134-2.622,4.941,0,.706.605.706h.6s-.3,1.613.3,1.815a2.227,2.227,0,0,0,1.412-.2s.706.706,1.008.706a36.745,36.745,0,0,0,3.933-2.017c.5-.3,4.84.6,5.95.6s5.345-.1,5.345-.1,20.369,5.849,23.092,6.252,4.538.3,5.546-2.723-1.21-9.58-3.529-9.983" transform="translate(-96.248 -63.987)" fill="#fff"/>
          <path id="Trazado_874044" data-name="Trazado 874044" d="M291.167,168.872s-14.823,1.412-18.655,1.311-9.277-2.118-9.277-2.118-6.555-2.722-7.966-3.428a10.018,10.018,0,0,0-5.647-.3c-.908.4-2.924,2.017-2.622,3.025s1.513.3,2.118-.2a7.236,7.236,0,0,1,1.613-.908l3.227.706.605.807s-4.437.806-5.042,1.109-2.319,4.134-2.622,4.941,0,.706.605.706h.6s-.3,1.613.3,1.815a2.227,2.227,0,0,0,1.412-.2s.706.706,1.008.706a36.745,36.745,0,0,0,3.933-2.017c.5-.3,4.84.6,5.95.6s5.345-.1,5.345-.1,20.369,5.849,23.092,6.252,4.538.3,5.546-2.723S293.486,169.276,291.167,168.872Z" transform="translate(-96.248 -63.987)" fill="none" stroke="#263238" stroke-linecap="round" stroke-linejoin="round" stroke-width="1"/>
          <path id="Trazado_874045" data-name="Trazado 874045" d="M251.768,181.078a36.135,36.135,0,0,1,3.429-3.429,17.82,17.82,0,0,1,2.117-.908" transform="translate(-98.193 -68.932)" fill="none" stroke="#263238" stroke-linecap="round" stroke-linejoin="round" stroke-width="1"/>
          <path id="Trazado_874046" data-name="Trazado 874046" d="M248.958,178.3l2.824-3.327,3.025-1.21" transform="translate(-97.097 -67.772)" fill="none" stroke="#263238" stroke-linecap="round" stroke-linejoin="round" stroke-width="1"/>
        </g>
      </g>
      <g id="Grupo_1099896" data-name="Grupo 1099896">
        <g id="Grupo_1099895" data-name="Grupo 1099895" clip-path="url(#clip-path)">
          <path id="Trazado_874047" data-name="Trazado 874047" d="M130.622,38.781a14.469,14.469,0,0,0,2.153.994c1.325.5,4.637,1.656,6.128,3.312s.994,5.631.994,5.631" transform="translate(-50.944 -15.125)" fill="none" stroke="#263238" stroke-linecap="round" stroke-linejoin="round" stroke-width="1"/>
          <line id="Línea_575" data-name="Línea 575" x1="1.297" y2="2.783" transform="translate(59.474 37.433)" fill="none" stroke="#263238" stroke-linecap="round" stroke-linejoin="round" stroke-width="1"/>
          <path id="Trazado_874048" data-name="Trazado 874048" d="M76.9,42.433S76,46.7,75.083,47.677,72.72,49.81,73.2,51.943s3.293,3.467,3.285,3.822-5.1,1.333-4.96,2.933a9.21,9.21,0,0,0,1.514,3.555s-3.764,1.244-4.082,3.377.963,4.266.944,5.067-2.284,2.577-1.608,4,2.281,1.244,2.363,1.511-.923,1.422-.941,2.133a2.3,2.3,0,0,0,.5,1.333h30.041l-8.521-44.44-11.3,4.355Z" transform="translate(-26.587 -13.742)" fill="#d2e1f1"/>
          <path id="Trazado_874049" data-name="Trazado 874049" d="M76.9,42.433S76,46.7,75.083,47.677,72.72,49.81,73.2,51.943s3.293,3.467,3.285,3.822-5.1,1.333-4.96,2.933a9.21,9.21,0,0,0,1.514,3.555s-3.764,1.244-4.082,3.377.963,4.266.944,5.067-2.284,2.577-1.608,4,2.281,1.244,2.363,1.511-.923,1.422-.941,2.133a2.3,2.3,0,0,0,.5,1.333h30.041l-8.521-44.44-11.3,4.355Z" transform="translate(-26.587 -13.742)" fill="none" stroke="#263238" stroke-linecap="round" stroke-linejoin="round" stroke-width="1"/>
          <path id="Trazado_874050" data-name="Trazado 874050" d="M121.5,211.631s6.2,14.1,7.009,17.563,1.2,18.869-.091,24.87c-2.349,10.928-9.081,21.281-9.081,21.281H85.212l-7.037-32.858,10.277-32.01Z" transform="translate(-30.489 -82.089)" fill="#fff"/>
          <path id="Trazado_874051" data-name="Trazado 874051" d="M121.5,211.631s6.2,14.1,7.009,17.563,1.2,18.869-.091,24.87c-2.349,10.928-9.081,21.281-9.081,21.281H85.212l-7.037-32.858,10.277-32.01Z" transform="translate(-30.489 -82.089)" fill="none" stroke="#263238" stroke-linecap="round" stroke-linejoin="round" stroke-width="1"/>
          <path id="Trazado_874052" data-name="Trazado 874052" d="M138.086,256.924l-2.872,7.435,1.368,28.942" transform="translate(-52.735 -100.204)" fill="none" stroke="#263238" stroke-linecap="round" stroke-linejoin="round" stroke-width="1"/>
          <path id="Trazado_874053" data-name="Trazado 874053" d="M148.311,197.027s6.029,5.128,6.751,7.051,1.184,14.615,1.516,16.794a6.585,6.585,0,0,1-1.128,4.23l-5.2-12.948s-.5-5.769-.62-6.153l-1.07-3.462Z" transform="translate(-57.843 -76.843)" fill="#fff"/>
          <path id="Trazado_874054" data-name="Trazado 874054" d="M148.311,197.027s6.029,5.128,6.751,7.051,1.184,14.615,1.516,16.794a6.585,6.585,0,0,1-1.128,4.23l-5.2-12.948s-.5-5.769-.62-6.153l-1.07-3.462Z" transform="translate(-57.843 -76.843)" fill="none" stroke="#263238" stroke-linecap="round" stroke-linejoin="round" stroke-width="1"/>
          <path id="Trazado_874055" data-name="Trazado 874055" d="M156.312,216.362s.072,2.308.288,3.974.911,4.743-.518,5.512" transform="translate(-60.874 -84.384)" fill="#fff"/>
          <path id="Trazado_874056" data-name="Trazado 874056" d="M156.312,216.362s.072,2.308.288,3.974.911,4.743-.518,5.512" transform="translate(-60.874 -84.384)" fill="none" stroke="#263238" stroke-linecap="round" stroke-linejoin="round" stroke-width="1"/>
          <path id="Trazado_874057" data-name="Trazado 874057" d="M107.991,107.5l8.2.256,5.861.193,6.816,5.7s5.719,28.459,6.189,30.255-4.857,15.255-5.273,16.537.63,11.025.63,11.025-2.623,2.436-11.112,3.59-18.273-2.436-18.273-2.436,6.435-16.922,7.81-26.024c0,0,1.2-17.563.8-22.563s-1.65-16.537-1.65-16.537" transform="translate(-39.402 -41.925)" fill="#dfbba0"/>
          <path id="Trazado_874058" data-name="Trazado 874058" d="M107.991,107.5l8.2.256,5.861.193,6.816,5.7s5.719,28.459,6.189,30.255-4.857,15.255-5.273,16.537.63,11.025.63,11.025-2.623,2.436-11.112,3.59-18.273-2.436-18.273-2.436,6.435-16.922,7.81-26.024c0,0,1.2-17.563.8-22.563S107.991,107.5,107.991,107.5Z" transform="translate(-39.402 -41.925)" fill="none" stroke="#263238" stroke-linecap="round" stroke-linejoin="round" stroke-width="1"/>
          <line id="Línea_576" data-name="Línea 576" x1="13.271" y2="6.732" transform="translate(75.768 107.696)" fill="none" stroke="#263238" stroke-linecap="round" stroke-linejoin="round" stroke-width="1"/>
          <line id="Línea_577" data-name="Línea 577" x1="6.155" y2="3.077" transform="translate(82.116 110.004)" fill="none" stroke="#263238" stroke-linecap="round" stroke-linejoin="round" stroke-width="1"/>
          <path id="Trazado_874059" data-name="Trazado 874059" d="M108.762,89.5s4.931,17.072,5.569,20.095,6.951,6.577,10.82,4.622,2.627-5.689,1.972-8-2.056-6.844-2.056-6.844L126.559,85.5s-4.684,6.222-6.39,6.933S108.762,89.5,108.762,89.5" transform="translate(-42.419 -33.347)" fill="#fff"/>
          <path id="Trazado_874060" data-name="Trazado 874060" d="M108.762,89.5s4.931,17.072,5.569,20.095,6.951,6.577,10.82,4.622,2.627-5.689,1.972-8-2.056-6.844-2.056-6.844L126.559,85.5s-4.684,6.222-6.39,6.933S108.762,89.5,108.762,89.5Z" transform="translate(-42.419 -33.347)" fill="none" stroke="#263238" stroke-linecap="round" stroke-linejoin="round" stroke-width="1"/>
          <path id="Trazado_874061" data-name="Trazado 874061" d="M123.886,94.845l6.462,6.235L131.935,87.7Z" transform="translate(-48.318 -34.206)" fill="#263238"/>
          <path id="Trazado_874062" data-name="Trazado 874062" d="M123.886,94.845l6.462,6.235L131.935,87.7Z" transform="translate(-48.318 -34.206)" fill="none" stroke="#263238" stroke-linecap="round" stroke-linejoin="round" stroke-width="1"/>
          <line id="Línea_578" data-name="Línea 578" x1="0.34" y2="6.122" transform="translate(81.918 66.194)" fill="none" stroke="#263238" stroke-linecap="round" stroke-linejoin="round" stroke-width="1"/>
          <path id="Trazado_874063" data-name="Trazado 874063" d="M135.564,105.833s9.131,26.087,10.142,31.985,1.236,7.179,1.315,9.23-1.569,6.538-1.569,6.538,6.475-7.948,6.515-14.871-4.663-27.834-6.857-29.1c-8.725-5.038-9.545-3.781-9.545-3.781" transform="translate(-52.872 -41.222)" fill="#263238"/>
          <path id="Trazado_874064" data-name="Trazado 874064" d="M135.564,105.833s9.131,26.087,10.142,31.985,1.236,7.179,1.315,9.23-1.569,6.538-1.569,6.538,6.475-7.948,6.515-14.871-4.663-27.834-6.857-29.1C136.384,104.576,135.564,105.833,135.564,105.833Z" transform="translate(-52.872 -41.222)" fill="none" stroke="#263238" stroke-linecap="round" stroke-linejoin="round" stroke-width="1"/>
          <path id="Trazado_874065" data-name="Trazado 874065" d="M149.461,127.03s4.008,11.7,3.366,20.472" transform="translate(-58.292 -49.544)" fill="none" stroke="#a3a3a3" stroke-linecap="round" stroke-linejoin="round" stroke-width="1"/>
          <path id="Trazado_874066" data-name="Trazado 874066" d="M92.008,44.96l4.142-5.866L115.32,58.559s-1.165,11.376-1.174,11.732a13.152,13.152,0,0,0,1.188,2.311,6.123,6.123,0,0,1,.952,1.066c.429.622-.015.622-.125,1.511s.5,1.333.934,1.777a11.806,11.806,0,0,0,2.1,1.244c.614.356.061,1.156-.4,1.956a4.156,4.156,0,0,0-.362,3.911c.761,1.6,1.212,1.333,2.515,2.578s-.592,2.4-.592,2.4.985-.267,1.791-.533a1.306,1.306,0,0,0,.843-1.778c-.34-.622-1-2.666-.726-3.022s2.794-1.6,3.529-2.577-.061-1.155.57-1.511a4.283,4.283,0,0,0,2.192-2.4c.3-1.244-1.178-2.755-.723-3.2s2.165-3.181,2.184-3.981a5.109,5.109,0,0,0-.994-2.153s.661-.532,1.078-3.11-1.607-3.377-1.75-4.8,1.949-3.377,1.981-8.355-8.2-6.488-8.449-7.111.039-1.6-.107-2.933-3.377-3.644-3.377-3.644.387-1.333.676-2.222-.137-1.688-1.7-3.111-9.136-8.088-12.319-8.8-8.511,2.755-9.141,3.111-5.667-.889-7.208.356-2.037,3.377-2.414,4.266-1.71.889-2.532,1.777-2.165,8.622-2.165,8.622" transform="translate(-31.822 -9.248)" fill="#d2e1f1"/>
          <path id="Trazado_874067" data-name="Trazado 874067" d="M92.008,44.96l4.142-5.866L115.32,58.559s-1.165,11.376-1.174,11.732a13.152,13.152,0,0,0,1.188,2.311,6.123,6.123,0,0,1,.952,1.066c.429.622-.015.622-.125,1.511s.5,1.333.934,1.777a11.806,11.806,0,0,0,2.1,1.244c.614.356.061,1.156-.4,1.956a4.156,4.156,0,0,0-.362,3.911c.761,1.6,1.212,1.333,2.515,2.578s-.592,2.4-.592,2.4.985-.267,1.791-.533a1.306,1.306,0,0,0,.843-1.778c-.34-.622-1-2.666-.726-3.022s2.794-1.6,3.529-2.577-.061-1.155.57-1.511a4.283,4.283,0,0,0,2.192-2.4c.3-1.244-1.178-2.755-.723-3.2s2.165-3.181,2.184-3.981a5.109,5.109,0,0,0-.994-2.153s.661-.532,1.078-3.11-1.607-3.377-1.75-4.8,1.949-3.377,1.981-8.355-8.2-6.488-8.449-7.111.039-1.6-.107-2.933-3.377-3.644-3.377-3.644.387-1.333.676-2.222-.137-1.688-1.7-3.111-9.136-8.088-12.319-8.8-8.511,2.755-9.141,3.111-5.667-.889-7.208.356-2.037,3.377-2.414,4.266-1.71.889-2.532,1.777-2.165,8.622-2.165,8.622" transform="translate(-31.822 -9.248)" fill="none" stroke="#263238" stroke-linecap="round" stroke-linejoin="round" stroke-width="1"/>
          <path id="Trazado_874068" data-name="Trazado 874068" d="M86.3,102.769s9.28,32.626,9.69,36.857-14.107,31.921-17.067,37.69-9.412,23.332-10.456,29.357-1.859,13.2-1.859,13.2-7.73-3.718-12.78-6.923-5.9-5-5.5-5.641,2.516-8.589,2.516-8.589-4.369-4.871-4.1-5.384,10.2-34.614,10.2-34.614,2.613-54.868,3.639-54.868S86.3,102.769,86.3,102.769" transform="translate(-18.224 -40.081)" fill="#263238"/>
          <path id="Trazado_874069" data-name="Trazado 874069" d="M86.3,102.769s9.28,32.626,9.69,36.857-14.107,31.921-17.067,37.69-9.412,23.332-10.456,29.357-1.859,13.2-1.859,13.2-7.73-3.718-12.78-6.923-5.9-5-5.5-5.641,2.516-8.589,2.516-8.589-4.369-4.871-4.1-5.384,10.2-34.614,10.2-34.614,2.613-54.868,3.639-54.868S86.3,102.769,86.3,102.769Z" transform="translate(-18.224 -40.081)" fill="none" stroke="#263238" stroke-linecap="round" stroke-linejoin="round" stroke-width="1"/>
          <line id="Línea_579" data-name="Línea 579" x2="10.627" y2="21.278" transform="translate(67.137 78.267)" fill="none" stroke="#a3a3a3" stroke-linecap="round" stroke-linejoin="round" stroke-width="1"/>
          <path id="Trazado_874070" data-name="Trazado 874070" d="M64.93,104.831s-7.655-1.538-8.986.513-13.071,36.793-13.79,40,21.268,26.921,21.268,26.921L74.759,164.7,61.371,145.854l7.319-26.922" transform="translate(-16.434 -40.67)" fill="#263238"/>
          <path id="Trazado_874071" data-name="Trazado 874071" d="M64.93,104.831s-7.655-1.538-8.986.513-13.071,36.793-13.79,40,21.268,26.921,21.268,26.921L74.759,164.7,61.371,145.854l7.319-26.922" transform="translate(-16.434 -40.67)" fill="none" stroke="#263238" stroke-linecap="round" stroke-linejoin="round" stroke-width="1"/>
          <path id="Trazado_874072" data-name="Trazado 874072" d="M79.022,142.02l-5.465,16.892L85.784,177.24" transform="translate(-28.689 -55.39)" fill="none" stroke="#a3a3a3" stroke-linecap="round" stroke-linejoin="round" stroke-width="1"/>
          <line id="Línea_580" data-name="Línea 580" x1="0.783" y2="2.498" transform="translate(51.041 81.331)" fill="none" stroke="#a3a3a3" stroke-linecap="round" stroke-linejoin="round" stroke-width="1"/>
          <path id="Trazado_874073" data-name="Trazado 874073" d="M85.738,199.759l-12.3,10.256,4.109,5,12.934-10Z" transform="translate(-28.642 -77.909)" fill="#fff"/>
          <path id="Trazado_874074" data-name="Trazado 874074" d="M85.738,199.759l-12.3,10.256,4.109,5,12.934-10Z" transform="translate(-28.642 -77.909)" fill="none" stroke="#263238" stroke-linecap="round" stroke-linejoin="round" stroke-width="1"/>
          <path id="Trazado_874075" data-name="Trazado 874075" d="M95.874,209.217s10.239,11.282,11.38,11.794a13.419,13.419,0,0,1,4,4.1,10.84,10.84,0,0,0,2.355,3.334c.881.641.991,1.41-.557,1.795s-2.961.513-3.814-1.282a19.58,19.58,0,0,0-2.224-3.461l-8.748,6.538s-1.883-6.923-2.105-8.332-.679-3.718-.679-3.718L89.6,214.345Z" transform="translate(-34.944 -81.598)" fill="#fff"/>
          <path id="Trazado_874076" data-name="Trazado 874076" d="M95.874,209.217s10.239,11.282,11.38,11.794a13.419,13.419,0,0,1,4,4.1,10.84,10.84,0,0,0,2.355,3.334c.881.641.991,1.41-.557,1.795s-2.961.513-3.814-1.282a19.58,19.58,0,0,0-2.224-3.461l-8.748,6.538s-1.883-6.923-2.105-8.332-.679-3.718-.679-3.718L89.6,214.345Z" transform="translate(-34.944 -81.598)" fill="none" stroke="#263238" stroke-linecap="round" stroke-linejoin="round" stroke-width="1"/>
          <path id="Trazado_874077" data-name="Trazado 874077" d="M76.042,88.51s-.848,5.687-.363,7.644c.514,2.071,4.681,1.7,3.826,4.449-.276.886-1.352,1.832-1.016,2.838.346,1.03,1.7,1.089,2.455,1.674,1.383,1.075.889,2.228,1.359,3.75.34,1.1,1.511,1.48,1.828,2.353.376,1.033-.345,1.679.8,2.8,2,1.955,3.5,2.311,3.77,2.133s-.252-.622,1.007-1.244,3.688-1.777,3.266-2.755c-.414-.963-.828-1.924-.838-1.948.586,1.35,2.407-.013,2.9-.724,1.136-1.621-.6-3.368-.4-5.121.226-1.942,2.412-2.943,2.656-4.9.24-1.917-1.75-3.237-1.318-4.995a16.843,16.843,0,0,0,.308-1.689,5.833,5.833,0,0,0-1.452-2.4c-.873-.622-1.169-3.111-1.236-4" transform="translate(-29.457 -33.688)" fill="#d2e1f1"/>
          <path id="Trazado_874078" data-name="Trazado 874078" d="M76.042,88.51s-.848,5.687-.363,7.644c.514,2.071,4.681,1.7,3.826,4.449-.276.886-1.352,1.832-1.016,2.838.346,1.03,1.7,1.089,2.455,1.674,1.383,1.075.889,2.228,1.359,3.75.34,1.1,1.511,1.48,1.828,2.353.376,1.033-.345,1.679.8,2.8,2,1.955,3.5,2.311,3.77,2.133s-.252-.622,1.007-1.244,3.688-1.777,3.266-2.755c-.414-.963-.828-1.924-.838-1.948.586,1.35,2.407-.013,2.9-.724,1.136-1.621-.6-3.368-.4-5.121.226-1.942,2.412-2.943,2.656-4.9.24-1.917-1.75-3.237-1.318-4.995a16.843,16.843,0,0,0,.308-1.689,5.833,5.833,0,0,0-1.452-2.4c-.873-.622-1.169-3.111-1.236-4" transform="translate(-29.457 -33.688)" fill="none" stroke="#263238" stroke-linecap="round" stroke-linejoin="round" stroke-width="1"/>
          <path id="Trazado_874079" data-name="Trazado 874079" d="M98.32,43.674s-7.186,10.448-6.636,12.658,6.032,16.375,7.907,17.782,9.429,4.722,11.939,4.823a5.682,5.682,0,0,0,5.388-2.613c1.046-1.707,5.032-8.64,5.068-10.146s-3.18-15.969-3.778-16.17S98.32,43.674,98.32,43.674" transform="translate(-35.746 -17.033)" fill="#fff"/>
          <path id="Trazado_874080" data-name="Trazado 874080" d="M98.32,43.674s-7.186,10.448-6.636,12.658,6.032,16.375,7.907,17.782,9.429,4.722,11.939,4.823a5.682,5.682,0,0,0,5.388-2.613c1.046-1.707,5.032-8.64,5.068-10.146s-3.18-15.969-3.778-16.17S98.32,43.674,98.32,43.674Z" transform="translate(-35.746 -17.033)" fill="none" stroke="#000" stroke-linecap="round" stroke-linejoin="round" stroke-width="1"/>
          <path id="Trazado_874081" data-name="Trazado 874081" d="M120.534,61.871a18.027,18.027,0,0,0,.05,3.695c.257.906,2.617,4.183,2.673,4.74s-.863,1.116-2.13,1.6" transform="translate(-46.979 -24.131)" fill="none" stroke="#263238" stroke-linecap="round" stroke-linejoin="round" stroke-width="1"/>
          <path id="Trazado_874082" data-name="Trazado 874082" d="M92.232,71.159s-1.573-1.407-2.419.3-.2,4.019,2.469,5.927S95.551,79.3,95.551,79.3Z" transform="translate(-34.893 -27.541)" fill="#fff"/>
          <path id="Trazado_874083" data-name="Trazado 874083" d="M92.232,71.159s-1.573-1.407-2.419.3-.2,4.019,2.469,5.927S95.551,79.3,95.551,79.3Z" transform="translate(-34.893 -27.541)" fill="none" stroke="#263238" stroke-linecap="round" stroke-linejoin="round" stroke-width="1"/>
          <path id="Trazado_874084" data-name="Trazado 874084" d="M137.1,59.893s1.424-.7,2.083,1.105-.357,6.429-.357,6.429Z" transform="translate(-53.472 -23.307)" fill="#fff"/>
          <path id="Trazado_874085" data-name="Trazado 874085" d="M137.1,59.893s1.424-.7,2.083,1.105-.357,6.429-.357,6.429Z" transform="translate(-53.472 -23.307)" fill="none" stroke="#263238" stroke-linecap="round" stroke-linejoin="round" stroke-width="1"/>
          <path id="Trazado_874086" data-name="Trazado 874086" d="M114.766,81.91s4.641-.351,5.777-.913a16.19,16.19,0,0,0,3.12-2.85s0,5.028-2.455,5.89c-1.721.606-6.442-2.128-6.442-2.128" transform="translate(-44.76 -30.479)" fill="#fff"/>
          <path id="Trazado_874087" data-name="Trazado 874087" d="M114.766,81.91s4.641-.351,5.777-.913a16.19,16.19,0,0,0,3.12-2.85s0,5.028-2.455,5.89C119.487,84.644,114.766,81.91,114.766,81.91Z" transform="translate(-44.76 -30.479)" fill="none" stroke="#263238" stroke-linecap="round" stroke-linejoin="round" stroke-width="1"/>
          <path id="Trazado_874088" data-name="Trazado 874088" d="M102.3,64.322s.343-2.649,4.956-3.137" transform="translate(-39.9 -23.863)" fill="#fff"/>
          <path id="Trazado_874089" data-name="Trazado 874089" d="M102.3,64.322s.343-2.649,4.956-3.137" transform="translate(-39.9 -23.863)" fill="none" stroke="#263238" stroke-linecap="round" stroke-linejoin="round" stroke-width="1"/>
          <path id="Trazado_874090" data-name="Trazado 874090" d="M120.472,57.526a4.246,4.246,0,0,1,5.9.537" transform="translate(-46.986 -22.065)" fill="#fff"/>
          <path id="Trazado_874091" data-name="Trazado 874091" d="M120.472,57.526a4.246,4.246,0,0,1,5.9.537" transform="translate(-46.986 -22.065)" fill="none" stroke="#263238" stroke-linecap="round" stroke-linejoin="round" stroke-width="1"/>
          <path id="Trazado_874092" data-name="Trazado 874092" d="M110.32,67.775c.243.818-.018,1.627-.584,1.807s-1.22-.337-1.463-1.155.018-1.627.583-1.807,1.221.337,1.463,1.155" transform="translate(-42.193 -25.969)" fill="#263238"/>
          <path id="Trazado_874093" data-name="Trazado 874093" d="M125.867,63.468c.243.818-.018,1.627-.584,1.807s-1.22-.337-1.463-1.155.018-1.627.583-1.807,1.221.337,1.463,1.155" transform="translate(-48.256 -24.289)" fill="#263238"/>
        </g>
      </g>
      <g id="Grupo_1099898" data-name="Grupo 1099898">
        <g id="Grupo_1099897" data-name="Grupo 1099897" clip-path="url(#clip-path)">
          <line id="Línea_581" data-name="Línea 581" x1="273.131" transform="translate(0.305 193.256)" fill="none" stroke="#263238" stroke-linecap="round" stroke-linejoin="round" stroke-width="1"/>
          <line id="Línea_582" data-name="Línea 582" x1="10.152" transform="translate(277.786 193.256)" fill="none" stroke="#263238" stroke-linecap="round" stroke-linejoin="round" stroke-width="1"/>
        </g>
      </g>
    </g>
    <rect id="Rectángulo_401460" data-name="Rectángulo 401460" width="294" height="194" transform="translate(957.051 1760)" fill="none"/>
  </g>
</svg>
