<svg xmlns="http://www.w3.org/2000/svg" xmlns:xlink="http://www.w3.org/1999/xlink" width="400" height="186.93" viewBox="0 0 400 186.93">
  <defs>
    <clipPath id="clip-path">
      <rect id="Rectángulo_401423" data-name="Rectángulo 401423" width="42.802" height="20.044" fill="none"/>
    </clipPath>
    <clipPath id="clip-path-2">
      <rect id="Rectángulo_401424" data-name="Rectángulo 401424" width="33.235" height="15.564" fill="none"/>
    </clipPath>
    <clipPath id="clip-path-3">
      <rect id="Rectángulo_401426" data-name="Rectángulo 401426" width="40.584" height="18.842" fill="none"/>
    </clipPath>
    <clipPath id="clip-path-4">
      <rect id="Rectángulo_401427" data-name="Rectángulo 401427" width="6.778" height="36.607" fill="none"/>
    </clipPath>
    <clipPath id="clip-path-5">
      <rect id="Rectángulo_401428" data-name="Rectángulo 401428" width="32.978" height="17.58" fill="none"/>
    </clipPath>
  </defs>
  <g id="Grupo_1099963" data-name="Grupo 1099963" transform="translate(-705.051 -2013.785)">
    <g id="Grupo_1099866" data-name="Grupo 1099866">
      <rect id="Rectángulo_401429" data-name="Rectángulo 401429" width="400" height="157.5" rx="8" transform="translate(705.051 2025)" fill="#f6ede6"/>
      <g id="Grupo_1099864" data-name="Grupo 1099864" transform="translate(-39.144 -15.691)">
        <path id="Trazado_873848" data-name="Trazado 873848" d="M261.1,355.888c-.138-.019-2.8,4.637-2.8,4.637.218.348,1.755,1.561,1.559,2.169s-8.85,8.406-9.948,8.672a5.871,5.871,0,0,1-2.23.039s2.275-5.622,3.181-7.836l3.652-8.917Z" transform="translate(793.477 1841.076)" fill="#ffc09d"/>
        <path id="Trazado_873843" data-name="Trazado 873843" d="M248.579,283.745c-.077,0-.14-4.164-.14-9.3s.063-9.3.14-9.3.14,4.163.14,9.3-.063,9.3-.14,9.3" transform="translate(793.073 1888.625)" fill="#263238"/>
        <path id="Trazado_873887" data-name="Trazado 873887" d="M227.594,113.1s-3.711-2.41-4.794-2.891-3.291-.183-4.869-.277-3.791-.6-4.323-.246c-.631.422.149,1.166,2.618,1.881l-.7,0-1.681.293s-.711-.864-1.245-.808c-.763.081-.682.707-.682.707s-1.283-1.256-1.53.254c0,0-1.41-.388-1.407.65,0,0-.225.854,2.709.809a25.8,25.8,0,0,0,3.322,2.276,9.4,9.4,0,0,0,2.705-.34s.7.827,1.347.8c1.237-.044,4.372-.55,4.372-.55l1.382,1.367Z" transform="translate(814.036 1971.273)" fill="#ffc09d"/>
        <path id="Trazado_873888" data-name="Trazado 873888" d="M226.347,116.018a3.565,3.565,0,0,0-.344-.462,3.573,3.573,0,0,1-.712-1.351,2.806,2.806,0,0,1,.549-2.126c.118-.18.249-.36.387-.541a3.765,3.765,0,0,1,.436-.519.4.4,0,0,1,.531-.052.727.727,0,0,1,.259.574,2.175,2.175,0,0,1-.7,1.676l-.1.089.109.075a4.559,4.559,0,0,1,.891.819l.063.075.075-.061a7.515,7.515,0,0,1,2.576-1.374c.687-.207,1.106-.249,1.1-.278a1.059,1.059,0,0,0-.3.01,6.011,6.011,0,0,0-.832.154,7.144,7.144,0,0,0-2.669,1.334l.138.014a4.643,4.643,0,0,0-.922-.867l.01.165a2.37,2.37,0,0,0,.776-1.846.939.939,0,0,0-.351-.738.6.6,0,0,0-.421-.115.724.724,0,0,0-.376.181,3.8,3.8,0,0,0-.464.556c-.137.185-.269.37-.389.558a2.927,2.927,0,0,0-.531,2.271,3.4,3.4,0,0,0,.8,1.37,2.444,2.444,0,0,0,.41.408" transform="translate(805.485 1970.686)" fill="#ff9b6c"/>
        <path id="Trazado_873889" data-name="Trazado 873889" d="M218.858,114.069a8.626,8.626,0,0,0,1.3,1.438c.194.186.364.368.559.522a1.088,1.088,0,0,0,.616.231.992.992,0,0,0,.427-.092c.091-.04.138-.071.134-.085s-.061-.011-.157,0a1.328,1.328,0,0,1-.39.02,1.023,1.023,0,0,1-.5-.234c-.164-.141-.339-.335-.531-.519a8.628,8.628,0,0,0-1.455-1.283" transform="translate(808.789 1968.881)" fill="#ff9b6c"/>
        <path id="Trazado_873890" data-name="Trazado 873890" d="M218.34,117.751c.042-.05-.8-.8-1.7-1.85s-1.531-1.985-1.586-1.951a10.808,10.808,0,0,0,3.288,3.8" transform="translate(810.811 1968.943)" fill="#ff9b6c"/>
        <path id="Trazado_873891" data-name="Trazado 873891" d="M214.028,116.8a11.95,11.95,0,0,0-1.1-1.136,7.706,7.706,0,0,0-1.167-1.076,4.709,4.709,0,0,0,1.013,1.231,3.887,3.887,0,0,0,1.258.981" transform="translate(812.562 1968.605)" fill="#ff9b6c"/>
        <path id="Trazado_873892" data-name="Trazado 873892" d="M224.127,113.829c0-.06-.358-.1-.8-.089s-.8.07-.8.131.364.1.8.089.8-.07.8-.131" transform="translate(806.841 1969.055)" fill="#ff9b6c"/>
        <path id="Trazado_873898" data-name="Trazado 873898" d="M370.863,101.663l12.888,2.967,1.343,2.966-13.5-.5Z" transform="translate(728.039 1975.471)" fill="#455a64"/>
        <path id="Trazado_873904" data-name="Trazado 873904" d="M384.127,105.426c-.007-.015-12.856-2.92-12.843-2.895s1.53,2.888,1.53,2.888L385.2,107.8l-1.075-2.376" transform="translate(727.815 1975.009)" fill="#fff"/>
        <path id="Trazado_873906" data-name="Trazado 873906" d="M362.712,107.179a18.528,18.528,0,0,0,2.076,3.385l.929-.752s-1.906-2.878-2.122-3.311Z" transform="translate(732.369 1972.9)" fill="#fff"/>
        <g id="Grupo_1099861" data-name="Grupo 1099861" transform="translate(925.051 2029.476)">
          <path id="Trazado_873850" data-name="Trazado 873850" d="M330.416,369.632l-.148-1.941.1-1.14-5.72.052c-.046.956-.107,2.2-.173,3.545-.072,1.461.7,8.63.7,8.63h6.308l.769-1.747Z" transform="translate(-172.367 -194.721)" fill="#ffc09d"/>
          <path id="Trazado_873851" data-name="Trazado 873851" d="M329.64,371.349s1.384,4.648,1.832,7.4a7.112,7.112,0,0,1,.129,1.559c-.164,1.822-.981,3.265-4.413,3.037s-4.086-1.063-4.168-3.189a69.751,69.751,0,0,1,.49-7.744c.165-1.389.286-2.205.286-2.205l0-.423a19.6,19.6,0,0,1,.177,2.67,32.846,32.846,0,0,0,.544,6.571c.408.759,5.577,1.318,6.18.069s-1.062-7.744-1.062-7.744" transform="translate(-171.592 -196.438)" fill="#263238"/>
          <g id="Grupo_1099860" data-name="Grupo 1099860" transform="translate(0 72.951)">
            <path id="Trazado_873814" data-name="Trazado 873814" d="M58.99,334.685c0,.052-5.709.093-12.749.093s-12.75-.042-12.75-.093,5.707-.093,12.75-.093,12.749.042,12.749.093" transform="translate(-17.791 -288.685)" fill="#263238"/>
            <path id="Trazado_873815" data-name="Trazado 873815" d="M48.73,356.555H10.909C4.884,356.555,0,352.068,0,346.533s4.884-10.022,10.909-10.022H48.73a1.4,1.4,0,0,1,1.452,1.334v17.376a1.4,1.4,0,0,1-1.452,1.334" transform="translate(0 -289.704)" fill="#dfbba0"/>
            <path id="Trazado_873816" data-name="Trazado 873816" d="M171.173,339.838H83.863v-3.327h87.31a1.67,1.67,0,1,1,0,3.327" transform="translate(-44.55 -289.704)" fill="#efddcf"/>
            <path id="Trazado_873817" data-name="Trazado 873817" d="M171.173,375.5H83.863v-3.327h87.31a1.67,1.67,0,1,1,0,3.327" transform="translate(-44.55 -308.647)" fill="#dfbba0"/>
            <path id="Trazado_873818" data-name="Trazado 873818" d="M173.339,357H96.821c-4.024,0-7.287-3-7.287-6.695s3.262-6.694,7.287-6.694h76.518a15.33,15.33,0,0,0,0,13.389" transform="translate(-47.563 -293.475)" fill="#f5f5f5"/>
            <g id="Grupo_1099845" data-name="Grupo 1099845" transform="translate(0 46.807)" opacity="0.3">
              <g id="Grupo_1099844" data-name="Grupo 1099844">
                <g id="Grupo_1099843" data-name="Grupo 1099843" clip-path="url(#clip-path)">
                  <path id="Trazado_873819" data-name="Trazado 873819" d="M41.971,356.555H10.792C4.832,356.555,0,352.116,0,346.64c0-5.594,4.937-10.129,11.026-10.129H42.8c-7.9,4.4-7.309,14.924-.83,20.044" transform="translate(0 -336.511)"/>
                </g>
              </g>
            </g>
            <path id="Trazado_873820" data-name="Trazado 873820" d="M168.976,359.111c0,.052-15.705.093-35.075.093s-35.078-.042-35.078-.093,15.7-.093,35.078-.093,35.075.042,35.075.093" transform="translate(-52.497 -301.66)" fill="#263238"/>
            <path id="Trazado_873821" data-name="Trazado 873821" d="M184.376,365.459c0,.052-15.706.093-35.075.093s-35.079-.041-35.079-.093,15.7-.093,35.079-.093,35.075.041,35.075.093" transform="translate(-60.678 -305.032)" fill="#263238"/>
            <path id="Trazado_873822" data-name="Trazado 873822" d="M179.835,353.22c0,.052-15.706.093-35.075.093s-35.079-.041-35.079-.093,15.7-.093,35.079-.093,35.075.041,35.075.093" transform="translate(-58.265 -298.531)" fill="#263238"/>
            <path id="Trazado_873823" data-name="Trazado 873823" d="M44.126,376.167c0,.052-7.352.093-16.418.093s-16.42-.042-16.42-.093,7.35-.093,16.42-.093,16.418.042,16.418.093" transform="translate(-5.996 -310.721)" fill="#263238"/>
            <path id="Trazado_873824" data-name="Trazado 873824" d="M44.126,339.954c0,.051-7.352.093-16.418.093s-16.42-.042-16.42-.093,7.35-.093,16.42-.093,16.418.042,16.418.093" transform="translate(-5.996 -291.483)" fill="#263238"/>
            <path id="Trazado_873825" data-name="Trazado 873825" d="M63.692,319.481H33.2c-4.678,0-8.471-3.484-8.471-7.782s3.793-7.782,8.471-7.782h30.5Z" transform="translate(-13.135 -272.389)" fill="#455a64"/>
            <path id="Trazado_873826" data-name="Trazado 873826" d="M157.641,306.5h-67.8v-2.584h67.8a1.3,1.3,0,1,1,0,2.584" transform="translate(-47.728 -272.389)" fill="#455a64"/>
            <path id="Trazado_873827" data-name="Trazado 873827" d="M157.641,334.189h-67.8v-2.584h67.8a1.3,1.3,0,1,1,0,2.584" transform="translate(-47.728 -287.098)" fill="#455a64"/>
            <path id="Trazado_873828" data-name="Trazado 873828" d="M159.323,319.824H99.907a5.217,5.217,0,1,1,0-10.4h59.416a11.9,11.9,0,0,0,0,10.4" transform="translate(-50.068 -275.317)" fill="#f5f5f5"/>
            <g id="Grupo_1099848" data-name="Grupo 1099848" transform="translate(11.591 31.528)" opacity="0.3">
              <g id="Grupo_1099847" data-name="Grupo 1099847">
                <g id="Grupo_1099846" data-name="Grupo 1099846" clip-path="url(#clip-path-2)">
                  <path id="Trazado_873829" data-name="Trazado 873829" d="M57.317,319.481H33.224c-4.692,0-8.5-3.5-8.5-7.807,0-4.284,3.781-7.757,8.444-7.757H57.962c-6.134,3.414-5.676,11.588-.645,15.564" transform="translate(-24.727 -303.917)"/>
                </g>
              </g>
            </g>
            <path id="Trazado_873830" data-name="Trazado 873830" d="M155.936,321.441c0,.052-12.2.093-27.236.093s-27.238-.042-27.238-.093,12.193-.093,27.238-.093,27.236.042,27.236.093" transform="translate(-53.899 -281.649)" fill="#263238"/>
            <path id="Trazado_873831" data-name="Trazado 873831" d="M167.894,326.37c0,.052-12.2.093-27.235.093s-27.239-.041-27.239-.093,12.193-.093,27.239-.093,27.235.042,27.235.093" transform="translate(-60.252 -284.267)" fill="#263238"/>
            <path id="Trazado_873832" data-name="Trazado 873832" d="M164.367,314.45c0,.051-12.2.093-27.235.093s-27.238-.042-27.238-.093,12.192-.093,27.238-.093,27.235.042,27.235.093" transform="translate(-58.378 -277.936)" fill="#263238"/>
            <path id="Trazado_873833" data-name="Trazado 873833" d="M58.99,306.566c0,.052-5.709.093-12.749.093s-12.75-.042-12.75-.093,5.707-.093,12.75-.093,12.749.042,12.749.093" transform="translate(-17.791 -273.747)" fill="#263238"/>
            <path id="Trazado_873834" data-name="Trazado 873834" d="M147.98,314.7v6.233l2.352-1.386,2.623,1.386V314.7Z" transform="translate(-78.611 -280.617)" fill="#b15815"/>
            <path id="Trazado_873849" data-name="Trazado 873849" d="M253.581,367.842A8.025,8.025,0,0,1,256,371.453c.464,1.949-.339,10.26-.339,10.26l-.855.019a65.326,65.326,0,0,0-.162-6.691c-.239-.471-1.178-1.137-3.644,1.008s-2.144,4.438-4.4,5.07-8.285-.16-8.242-.682,4.576-2.527,4.576-2.527a3.293,3.293,0,0,0,2.983-.676c1.474-1.194,7.671-9.392,7.671-9.392" transform="translate(-126.618 -268.358)" fill="#263238"/>
            <path id="Trazado_873852" data-name="Trazado 873852" d="M294.23,155.621c.593,0,5.174,12.85,6.163,22.144s-8.717,79.578-8.717,79.578H280.807s.236-30.9-.023-39.631c-.285-9.591-.79-29.246-.79-29.246L257.822,255.59l-13.216-3s7.7-34.284,10.867-48.917,8.316-31.662,9.233-37.765c.8-5.283,1.643-10.287,1.643-10.287Z" transform="translate(-129.941 -155.621)" fill="#263238"/>
          </g>
          <g id="Grupo_1099853" data-name="Grupo 1099853" transform="translate(129.687 86.494)" opacity="0.3">
            <g id="Grupo_1099852" data-name="Grupo 1099852">
              <g id="Grupo_1099851" data-name="Grupo 1099851" clip-path="url(#clip-path-3)">
                <path id="Trazado_873853" data-name="Trazado 873853" d="M277.23,198.7l-.578,2.166s13.895,3.257,16.462,2.315,3.519-9.392,3.519-9.392,3.784,9.563,8.071,9.392,12.474-3.865,12.474-3.865l.059-2.912-13.549-11.895-13.093.856Z" transform="translate(-276.652 -184.511)"/>
              </g>
            </g>
          </g>
          <path id="Trazado_873854" data-name="Trazado 873854" d="M335.335,293.849a.873.873,0,0,1,0-.18c.006-.131.014-.305.024-.527.027-.477.067-1.156.117-2.024.11-1.771.267-4.309.462-7.44.381-6.283.9-14.963,1.167-24.562s.16-18.3.021-24.591c-.086-3.136-.155-5.678-.2-7.451-.023-.869-.042-1.549-.054-2.026,0-.222-.006-.4-.008-.527a.993.993,0,0,1,.006-.18,1.157,1.157,0,0,1,.019.179c.008.13.019.3.032.526.023.477.057,1.156.1,2.025.087,1.758.181,4.3.281,7.45.184,6.293.313,14.995.051,24.6s-.813,18.286-1.239,24.567c-.227,3.129-.411,5.666-.54,7.436-.069.867-.124,1.545-.162,2.02-.021.221-.037.4-.049.525a.964.964,0,0,1-.025.178" transform="translate(-178.137 -119.175)" fill="#455a64"/>
          <path id="Trazado_873855" data-name="Trazado 873855" d="M274.782,229.377c.065.018-3.911,14.18-8.88,31.627s-9.051,31.582-9.116,31.564,3.91-14.178,8.881-31.631,9.05-31.579,9.115-31.561" transform="translate(-136.411 -121.851)" fill="#455a64"/>
          <path id="Trazado_873856" data-name="Trazado 873856" d="M309.97,48.235c.447-1.91-3.446-4.033-3.57-5.99a10.643,10.643,0,0,1,.836-5.75c.692-1.3,1.893-2.506,1.736-3.95-.179-1.649-2.065-2.766-2.472-4.383-.293-1.166.234-2.344.546-3.5,1.1-4.07-1.1-11.775-4.315-16.383l-4.649,6.559L285.076,5.134c-8.258,6.082-2.829,16.7-4.708,22.434-.882,2.69-5.4,6.054-5.089,8.867.273,2.49,1.674,3.691,1.563,6.194-.089,2.02-1.644,3.641-2.4,5.518-.9,2.24-.618,4.754-.925,7.147s-1.586,5.029-3.956,5.491a25.177,25.177,0,0,0,5.52,2.308,8.079,8.079,0,0,0,4.943.17,3.934,3.934,0,0,0,2.347-2.385q-.054,1.8-.109,3.594c5.508.355,12.49-2.12,17.161-5.061-.018-2.708-.16-5.343-.376-7.943l12.768,7.277c2.031-.573-2.3-8.6-1.849-10.509" transform="translate(-143.2 -2.727)" fill="#263238"/>
          <path id="Trazado_873857" data-name="Trazado 873857" d="M315.615,5.552A12.673,12.673,0,0,0,306.137.044a13.641,13.641,0,0,0-4.8.549,7.04,7.04,0,0,0-4.177,2.387A11.8,11.8,0,0,0,294.5,8.2a33.054,33.054,0,0,0-.684,6.035,11.07,11.07,0,0,0,1.518,5.81l5.079,1.225a32.394,32.394,0,0,0,8.509.094,10.918,10.918,0,0,0,7.228-4.1c2.276-3.23,1.763-8.5-.536-11.71" transform="translate(-156.083 0)" fill="#263238"/>
          <path id="Trazado_873858" data-name="Trazado 873858" d="M296.533,11.745c.239-3.257,3.305-7.513,7.333-7.266l1.8-.091,6.672,3.165a1.91,1.91,0,0,1,1.69,1.955L312.08,32.047l-8.67,14.161-1.353-12.316-.209-5.211a6.968,6.968,0,0,1-5.36-6.184,57.946,57.946,0,0,1,.046-10.751" transform="translate(-157.377 -2.331)" fill="#ffc09d"/>
          <path id="Trazado_873859" data-name="Trazado 873859" d="M311.326,40.249a1.144,1.144,0,0,0-.349-.73,1.171,1.171,0,0,0-1.412-.173,1.567,1.567,0,0,0-.69,1.429,1.425,1.425,0,0,0,.979.656,1.741,1.741,0,0,0,.191.018,1.279,1.279,0,0,0,.883-.285,1.14,1.14,0,0,0,.4-.916" transform="translate(-164.08 -20.815)" fill="#ff9b6c"/>
          <path id="Trazado_873860" data-name="Trazado 873860" d="M301.354,29.255a.7.7,0,0,0,.666.71.668.668,0,0,0,.725-.621.7.7,0,0,0-.664-.71.668.668,0,0,0-.727.621" transform="translate(-160.087 -15.21)" fill="#263238"/>
          <path id="Trazado_873861" data-name="Trazado 873861" d="M299.2,23.3c.085.092.618-.293,1.368-.284s1.3.39,1.379.3c.04-.04-.046-.2-.284-.382a1.916,1.916,0,0,0-1.1-.352,1.841,1.841,0,0,0-1.09.339c-.233.175-.313.338-.27.379" transform="translate(-158.939 -11.995)" fill="#263238"/>
          <path id="Trazado_873862" data-name="Trazado 873862" d="M306.488,30.2a4.974,4.974,0,0,0-1.216-.232c-.191-.022-.372-.061-.4-.192a.975.975,0,0,1,.134-.566l.581-1.452a25.109,25.109,0,0,0,1.312-3.8,25.027,25.027,0,0,0-1.615,3.685c-.195.51-.381,1-.558,1.461a1.1,1.1,0,0,0-.107.751.482.482,0,0,0,.312.283,1.31,1.31,0,0,0,.325.048,4.895,4.895,0,0,0,1.235.014" transform="translate(-161.802 -12.728)" fill="#263238"/>
          <path id="Trazado_873863" data-name="Trazado 873863" d="M308.171,54.081a13.841,13.841,0,0,0,7.3-1.867s-1.8,3.791-7.238,3.228Z" transform="translate(-163.708 -27.737)" fill="#ff9b6c"/>
          <path id="Trazado_873864" data-name="Trazado 873864" d="M310.613,38.429c-.122-.008-.132.805-.835,1.376s-1.569.473-1.576.586c-.012.051.192.16.558.173a2.031,2.031,0,0,0,1.315-.443,1.764,1.764,0,0,0,.648-1.154c.034-.34-.054-.542-.11-.538" transform="translate(-163.725 -20.414)" fill="#263238"/>
          <path id="Trazado_873865" data-name="Trazado 873865" d="M299.514,17.043c.125.184.7.068,1.371.13.672.041,1.225.245,1.374.081.067-.08,0-.259-.236-.445a2.134,2.134,0,0,0-2.211-.171c-.255.149-.352.315-.3.4" transform="translate(-159.102 -8.716)" fill="#263238"/>
          <path id="Trazado_873866" data-name="Trazado 873866" d="M317.35,29.3a.7.7,0,0,1-.705.67.667.667,0,0,1-.688-.661.7.7,0,0,1,.7-.671.667.667,0,0,1,.689.662" transform="translate(-167.844 -15.211)" fill="#263238"/>
          <path id="Trazado_873867" data-name="Trazado 873867" d="M317.72,23.995c-.09.087-.6-.329-1.349-.362s-1.317.315-1.394.219c-.038-.043.058-.2.306-.365A1.911,1.911,0,0,1,316.4,23.2a1.839,1.839,0,0,1,1.069.4c.222.188.292.355.248.394" transform="translate(-167.32 -12.322)" fill="#263238"/>
          <path id="Trazado_873868" data-name="Trazado 873868" d="M318.067,18.821c-.156.163-.726-.041-1.42-.083-.693-.063-1.289.053-1.416-.131-.055-.089.045-.255.31-.4a2.15,2.15,0,0,1,1.169-.224,2.121,2.121,0,0,1,1.117.4c.238.187.309.365.24.445" transform="translate(-167.451 -9.548)" fill="#263238"/>
          <path id="Trazado_873869" data-name="Trazado 873869" d="M330.653,32.933c.005-.4.483-1.353.883-1.412,1.069-.155,2.993-.05,2.983,2.659-.014,3.7-4.106,2.978-4.106,2.978,0-.083.223-2.829.241-4.225" transform="translate(-175.524 -16.721)" fill="#ffc09d"/>
          <path id="Trazado_873870" data-name="Trazado 873870" d="M333.386,37.064c.016-.012.064.045.173.1a.645.645,0,0,0,.483.012,1.6,1.6,0,0,0,.744-1.43,2.134,2.134,0,0,0-.177-.924.746.746,0,0,0-.484-.5.329.329,0,0,0-.382.175c-.05.1-.027.178-.046.184s-.079-.062-.049-.215a.409.409,0,0,1,.147-.232.487.487,0,0,1,.357-.093.906.906,0,0,1,.672.577,2.189,2.189,0,0,1,.22,1.033,1.676,1.676,0,0,1-.948,1.6.692.692,0,0,1-.59-.1c-.115-.092-.134-.175-.121-.181" transform="translate(-177.102 -18.134)" fill="#ff9b6c"/>
          <path id="Trazado_873871" data-name="Trazado 873871" d="M319.878,16.493l-1,.911C315.078,13.267,307.8,3.053,308.2,3.659a11.827,11.827,0,0,1,5.828-.252c2.979.708,8.593,2.585,8.274,6.129a18.554,18.554,0,0,1-2.424,6.956" transform="translate(-163.715 -1.672)" fill="#263238"/>
          <path id="Trazado_873872" data-name="Trazado 873872" d="M306.028,60.791c.19.128,6.246,5.586,6.246,5.586L316.5,60.6l3.341,9.182-3.768,18.507s-3.633,6.312-3.76,5.944-7.4-10-6.769-9.75-.841-16.723-.841-16.723V62Z" transform="translate(-161.867 -32.191)" fill="#e0e0e0"/>
          <path id="Trazado_873873" data-name="Trazado 873873" d="M321.486,98.556a1,1,0,0,1-.024-.254c-.005-.194-.012-.435-.019-.728,0-.667-.007-1.573-.012-2.676-.005-2.259.045-5.382-.043-8.823-.17-3.428-.323-6.529-.436-8.817-.045-1.1-.081-2.007-.108-2.673-.007-.293-.013-.533-.017-.727a1.034,1.034,0,0,1,.01-.255,1.008,1.008,0,0,1,.039.252c.016.193.037.433.062.726.046.666.109,1.569.186,2.67.141,2.256.342,5.369.508,8.817.088,3.452.01,6.573-.029,8.833-.027,1.1-.049,2.008-.066,2.675-.011.293-.02.534-.027.728a1,1,0,0,1-.025.254" transform="translate(-170.432 -39.1)" fill="#263238"/>
          <path id="Trazado_873874" data-name="Trazado 873874" d="M318.853,73.013a5.272,5.272,0,0,1-.456.785c-.342.531-.785,1.219-1.309,2.035l-.074.115-.087-.108-2.461-3.07.194,0-.361.5c-.633.883-1.245,1.722-1.761,2.5l-.156.253,0,0s0,0,0,0a.135.135,0,0,1-.009.045.113.113,0,0,1-.057.059.125.125,0,0,1-.068.011l-.018,0a.149.149,0,0,1-.028-.01.325.325,0,0,1-.052-.03l-.075-.056-.134-.111c-.171-.149-.33-.3-.484-.44l-.841-.81c-.509-.5-.914-.911-1.19-1.2a3.015,3.015,0,0,1-.41-.466,3.076,3.076,0,0,1,.476.4l1.243,1.142.859.785.486.426.128.1.063.045.021.013a.293.293,0,0,0-.029.1c0,.007,0,0,0,0h0c-.19,0-.052,0-.095,0l0-.018a.757.757,0,0,1,.091-.2l.094-.153c.515-.8,1.118-1.638,1.753-2.524l.362-.5.094-.131.1.127,2.426,3.1-.161.007,1.38-1.988a5.386,5.386,0,0,1,.55-.722" transform="translate(-164.155 -38.51)" fill="#263238"/>
          <path id="Trazado_873875" data-name="Trazado 873875" d="M324.664,58.908l2.37,2.978,9.443,1.881s-2.831,32.654-3.022,33.946,6.045,14.778,8.141,32.715c0,0-12.541,4.477-14.394,3.369s-7.18-12.77-7.18-12.77l.731-29.045s3.728-12.749,4.123-19.161a125.05,125.05,0,0,0-.213-13.913" transform="translate(-170.004 -31.293)" fill="#a6eae8"/>
          <g id="Grupo_1099856" data-name="Grupo 1099856" transform="translate(149.89 57.521)" opacity="0.3">
            <g id="Grupo_1099855" data-name="Grupo 1099855">
              <g id="Grupo_1099854" data-name="Grupo 1099854" clip-path="url(#clip-path-4)">
                <path id="Trazado_873876" data-name="Trazado 873876" d="M321.655,122.7s5.527,13.06,4.808,15.954c-.7,2.816-3.537,16.117-4.485,20.653l-2.229-4.615.859-28.824Z" transform="translate(-319.749 -122.703)"/>
              </g>
            </g>
          </g>
          <path id="Trazado_873877" data-name="Trazado 873877" d="M324.616,97.957a2.366,2.366,0,0,1,.2-.335l.623-.931c.271-.4.619-.886.963-1.486l.572-.946c.206-.333.42-.687.618-1.074.4-.768.885-1.591,1.309-2.521.218-.462.456-.934.68-1.429l.661-1.542a61.047,61.047,0,0,0,2.416-7.064,53.173,53.173,0,0,0,1.505-7.31c.014-.141.037-.286.044-.42.015-.168.017-.194-.088-.25a1.781,1.781,0,0,0-.76-.072,5.249,5.249,0,0,0-.78.113,1.878,1.878,0,0,0-.351.107c-.018.007-.013.009-.017.009s0,0-.005,0a.043.043,0,0,0,.008-.022c.058-.029-.118-.173-.1-.123H332.1c-.017.007.034-.022.051-.036l.152-.112,1.174-.9.287-.21.074-.05.038-.025c0-.007-.015,0-.011.01a.406.406,0,0,0-.016-.111,3.762,3.762,0,0,0-.266-.591c-.845-1.51-1.663-2.665-2.194-3.478l-.624-.931a2.375,2.375,0,0,1-.206-.332,2.274,2.274,0,0,1,.247.3l.661.905c.557.8,1.394,1.933,2.268,3.45a3.886,3.886,0,0,1,.288.623.415.415,0,0,1,.013.226.244.244,0,0,1-.062.08l-.034.022-.069.048-.28.209-1.166.914-.158.117a.493.493,0,0,1-.113.066l-.028.006c.013.052-.165-.1-.108-.131a.177.177,0,0,1,.021-.044.3.3,0,0,1,.033-.031.263.263,0,0,1,.065-.044,2.01,2.01,0,0,1,.4-.128,5.477,5.477,0,0,1,.812-.123,1.917,1.917,0,0,1,.874.09.362.362,0,0,1,.2.205.585.585,0,0,1,.013.253c-.007.15-.028.288-.043.433a51.342,51.342,0,0,1-1.493,7.349,58.84,58.84,0,0,1-2.443,7.086l-.673,1.544c-.228.5-.47.968-.693,1.43-.433.93-.924,1.751-1.34,2.517-.2.385-.424.737-.636,1.068l-.59.939c-.356.594-.717,1.071-1,1.467l-.661.906a2.339,2.339,0,0,1-.244.306" transform="translate(-172.444 -35.004)" fill="#263238"/>
          <path id="Trazado_873878" data-name="Trazado 873878" d="M347.157,160.9l-6.863,2.177s.549,5.844,1.372,5.91a35.369,35.369,0,0,0,7.678-2.324c.48-.465-2.186-5.762-2.186-5.762" transform="translate(-180.773 -85.475)" fill="#22cac5"/>
          <path id="Trazado_873879" data-name="Trazado 873879" d="M347.027,160.9a1.191,1.191,0,0,1,.147.241c.089.162.215.4.373.715.313.626.762,1.535,1.245,2.694.119.291.24.6.351.923.056.163.109.331.153.508a1.621,1.621,0,0,1,.068.575.847.847,0,0,1-.021.088.481.481,0,0,1-.062.094l-.132.09a2.859,2.859,0,0,1-.263.135c-.176.081-.356.154-.54.225q-.552.213-1.142.411a45.231,45.231,0,0,1-5.2,1.46,2.59,2.59,0,0,1-.478.048c-.253-.053-.325-.234-.409-.362a4.355,4.355,0,0,1-.312-.854c-.154-.57-.26-1.135-.352-1.686-.182-1.1-.305-2.15-.4-3.12L340.05,163l.083-.025,5.016-1.536,1.4-.413a3.476,3.476,0,0,1,.484-.126,4.68,4.68,0,0,1-.506.188l-1.4.473-4.925,1.617.074-.112c.1.962.232,2.007.417,3.1.094.546.2,1.105.353,1.661a4.142,4.142,0,0,0,.293.8c.06.118.159.233.213.236a2.566,2.566,0,0,0,.419-.045,48.226,48.226,0,0,0,5.164-1.433c.392-.129.772-.262,1.136-.4.182-.069.361-.14.53-.215a2.649,2.649,0,0,0,.241-.12l.1-.063c.007-.01.006-.016.014-.022l.01-.046a3.028,3.028,0,0,0-.2-.99c-.1-.322-.219-.628-.332-.918-.459-1.16-.884-2.079-1.17-2.717l-.331-.735a1.267,1.267,0,0,1-.1-.262" transform="translate(-180.643 -85.473)" fill="#263238"/>
          <path id="Trazado_873880" data-name="Trazado 873880" d="M288.254,61.009c-.792.511-3.839,3.106-3.839,3.106l-8.208,2.8s4.6,33.59,4.252,35.459c-.741,3.963-8.542,19.605-9.212,30.347,0,0,16.912,3.749,18.1,2.343s9.445-25.934,9.445-29.9-6.6-21.094-7.786-25.441-2.751-18.719-2.751-18.719" transform="translate(-144.094 -32.409)" fill="#a6eae8"/>
          <path id="Trazado_873881" data-name="Trazado 873881" d="M306.111,126.052a.345.345,0,0,1,.021-.087l.077-.252.315-.976,1.2-3.687c.512-1.585,1.133-3.506,1.806-5.712.337-1.1.686-2.277,1.014-3.522.082-.311.164-.626.23-.947a5.828,5.828,0,0,0,.151-.969,7.912,7.912,0,0,0-.263-2.019l.013.03-3.862-6.147c-.687-1.079-1.359-2.2-2.1-3.312-.368-.557-.751-1.113-1.115-1.686l-1.045-1.771a60.509,60.509,0,0,1-3.032-6.208c-.455-1.02-.823-2.053-1.219-3.051-.353-1.013-.728-2-1.031-2.976-.648-1.946-1.166-3.825-1.617-5.592s-.809-3.427-1.055-4.962c-.017-.094-.027-.2-.038-.295a.346.346,0,0,1,.1-.329.978.978,0,0,1,.586-.155,4.488,4.488,0,0,1,1.086.13,2.427,2.427,0,0,1,.257.075.912.912,0,0,1,.129.054.3.3,0,0,1,.076.058.1.1,0,0,1,.021.036c.03-.045-.02.129-.077.1a.146.146,0,0,1-.031-.007.267.267,0,0,1-.042-.024c-.147-.1-.27-.21-.4-.315l-.735-.608-.352-.283L295,70.516a.182.182,0,0,1-.055-.053.144.144,0,0,1-.028-.077.452.452,0,0,1,0-.127,3.709,3.709,0,0,1,.294-.786c.228-.478.46-.9.671-1.279.426-.756.776-1.329,1.016-1.718l.278-.438a.911.911,0,0,1,.1-.144,1.023,1.023,0,0,1-.082.158l-.257.45c-.226.4-.563.977-.975,1.738-.2.381-.43.806-.649,1.282a3.67,3.67,0,0,0-.275.757.327.327,0,0,0,0,.087c0,.009,0,.028.006.023s0,0,0,.007a.08.08,0,0,1,.024.014l.181.132.358.281.741.6c.127.1.259.211.389.3.006.006.02.009.012.01a.1.1,0,0,0-.018.06c0,.007,0,.009-.031.015s-.048.023-.037.021.036-.024,0,0c-.019,0-.007-.005-.03-.013a.8.8,0,0,0-.108-.044,2.23,2.23,0,0,0-.242-.068,4.349,4.349,0,0,0-1.045-.117.864.864,0,0,0-.479.117c-.089.065-.018.293,0,.472.255,1.521.629,3.177,1.081,4.938s.982,3.633,1.634,5.571c.305.976.681,1.955,1.036,2.965.4.994.766,2.024,1.221,3.039a60.981,60.981,0,0,0,3.025,6.181l8.093,12.921.009.015,0,.015a8.114,8.114,0,0,1,.263,2.08,5.981,5.981,0,0,1-.16,1.008c-.068.326-.152.643-.236.955-.335,1.249-.691,2.423-1.036,3.524-.689,2.2-1.325,4.12-1.856,5.7l-1.26,3.669-.346.966-.093.246a.357.357,0,0,1-.037.082" transform="translate(-156.475 -35.004)" fill="#263238"/>
          <path id="Trazado_873882" data-name="Trazado 873882" d="M283.07,162.447l6.515,2.113s-.548,5.844-1.371,5.911a35.438,35.438,0,0,1-7.678-2.325c-.48-.465,2.534-5.7,2.534-5.7" transform="translate(-149.001 -86.296)" fill="#22cac5"/>
          <path id="Trazado_873883" data-name="Trazado 873883" d="M282.957,162.445a1.212,1.212,0,0,1-.116.255l-.368.707c-.319.615-.79,1.5-1.312,2.621a8.364,8.364,0,0,0-.684,1.865c-.007.074,0,.174.019.179a1.559,1.559,0,0,0,.216.124c.163.081.34.15.518.221.36.139.735.27,1.122.4a51.95,51.95,0,0,0,5.11,1.445c.152.034.3.052.45.075a1.1,1.1,0,0,0,.19,0c.028,0,.075-.047.113-.094a2.772,2.772,0,0,0,.339-.8,16.359,16.359,0,0,0,.379-1.713c.195-1.128.329-2.2.433-3.19l.072.11-4.678-1.572-1.325-.459a4.328,4.328,0,0,1-.479-.183,3.216,3.216,0,0,1,.458.121l1.322.4,4.767,1.492.081.025-.008.086c-.094.993-.221,2.072-.411,3.21a16.21,16.21,0,0,1-.379,1.741,2.938,2.938,0,0,1-.379.878.469.469,0,0,1-.247.181,1.108,1.108,0,0,1-.272,0c-.159-.023-.319-.043-.473-.078a48.561,48.561,0,0,1-5.135-1.472c-.388-.134-.765-.269-1.128-.414-.181-.075-.36-.146-.533-.235a1.5,1.5,0,0,1-.264-.162.427.427,0,0,1-.077-.347,4.5,4.5,0,0,1,.325-1.029c.131-.314.269-.61.4-.89.545-1.117,1.039-1.99,1.384-2.592.173-.3.312-.531.409-.686a1.14,1.14,0,0,1,.159-.23" transform="translate(-148.888 -86.294)" fill="#263238"/>
          <path id="Trazado_873884" data-name="Trazado 873884" d="M324.34,157.148a1.249,1.249,0,1,1-1.249-1.21,1.23,1.23,0,0,1,1.249,1.21" transform="translate(-170.971 -82.838)" fill="#263238"/>
          <path id="Trazado_873885" data-name="Trazado 873885" d="M311.441,156.45a1.249,1.249,0,1,1-1.249-1.21,1.23,1.23,0,0,1,1.249,1.21" transform="translate(-164.119 -82.467)" fill="#263238"/>
          <path id="Trazado_873886" data-name="Trazado 873886" d="M309.692,137.216a1.249,1.249,0,1,1-1.249-1.21,1.23,1.23,0,0,1,1.249,1.21" transform="translate(-163.189 -72.249)" fill="#263238"/>
          <path id="Trazado_873893" data-name="Trazado 873893" d="M258.945,73.5s-3.257.314-3.968,8.82c-.564,6.748-.651,16.7-.651,16.7l-11.215-5.478-4.648,5.935s13.782,12.59,19.851,10.348,5.008-13.274,5.008-13.274l-2.444-17.9Z" transform="translate(-126.678 -39.045)" fill="#a6eae8"/>
          <path id="Trazado_873894" data-name="Trazado 873894" d="M280.378,85.646a1.079,1.079,0,0,1,.074.254l.164.736.571,2.711c.475,2.291,1.127,5.457,1.8,8.963s1.236,6.693,1.569,9.011c.17,1.158.284,2.1.35,2.751.025.3.046.552.063.751a1.1,1.1,0,0,1,.006.263,1.064,1.064,0,0,1-.055-.258c-.029-.2-.065-.444-.108-.745-.1-.647-.235-1.583-.426-2.736-.376-2.308-.966-5.486-1.638-8.992l-1.733-8.976c-.217-1.15-.385-2.082-.495-2.727l-.119-.744a1.048,1.048,0,0,1-.025-.263" transform="translate(-148.942 -45.497)" fill="#263238"/>
          <path id="Trazado_873895" data-name="Trazado 873895" d="M275.484,132.308c-.067.031-.59-1.052-1.454-2.246s-1.718-2.04-1.667-2.094a9.712,9.712,0,0,1,3.121,4.34" transform="translate(-144.685 -67.978)" fill="#263238"/>
          <path id="Trazado_873896" data-name="Trazado 873896" d="M351.314,69.056a7.912,7.912,0,0,1,5.852,5.2c.693,2.3,6.009,22.43,6.25,23.051s4.406,9.624-2,11.021-12.623-7.435-12.623-7.435,1.886-23.3,1.967-23.61.558-8.223.558-8.223" transform="translate(-185.286 -36.684)" fill="#a6eae8"/>
          <path id="Trazado_873897" data-name="Trazado 873897" d="M351.5,85.646a2.858,2.858,0,0,1,.028.6c0,.387-.009.947-.032,1.64-.047,1.384-.153,3.294-.323,5.4s-.375,4.009-.572,5.382c-.1.685-.2,1.239-.295,1.617a2.485,2.485,0,0,1-.129.43c-.038.1-.061.144-.069.141-.024-.011.052-.208.105-.591s.135-.934.217-1.619c.153-1.373.33-3.275.5-5.379s.3-4.008.394-5.389l.109-1.634a2.873,2.873,0,0,1,.067-.6" transform="translate(-185.981 -45.497)" fill="#263238"/>
          <path id="Trazado_873899" data-name="Trazado 873899" d="M326.827,117.48c-.377.488,1.428,4.151,1.868,3.91l20.475-16.153-1.727-3.573Z" transform="translate(-173.591 -54.006)" fill="#455a64"/>
          <path id="Trazado_873900" data-name="Trazado 873900" d="M363.848,111.646l-12.5-2.36L330.87,125.439l13.274,1.427Z" transform="translate(-175.767 -58.055)" fill="#455a64"/>
          <g id="Grupo_1099859" data-name="Grupo 1099859" transform="translate(155.103 51.231)" opacity="0.3">
            <g id="Grupo_1099858" data-name="Grupo 1099858">
              <g id="Grupo_1099857" data-name="Grupo 1099857" clip-path="url(#clip-path-5)">
                <path id="Trazado_873901" data-name="Trazado 873901" d="M363.848,111.646l-12.5-2.36L330.87,125.439l13.274,1.427Z" transform="translate(-330.87 -109.286)"/>
              </g>
            </g>
          </g>
          <path id="Trazado_873902" data-name="Trazado 873902" d="M353.212,134.9a4.135,4.135,0,0,1,1.229-4.878c2.537-2.342,4.241-2.112,4.916-1.843s3.568,2.151,3.568,2.151l2.726-.927-.225,3.567-2.5,5.628a10.921,10.921,0,0,1-9.714-3.7" transform="translate(-187.456 -68.007)" fill="#ff725e"/>
          <path id="Trazado_873903" data-name="Trazado 873903" d="M347.751,114.719s-2.335-2.572-2.878-2.572-.971.315-1.087,1.286c0,0-1.01.143-.971,1.46a1.669,1.669,0,0,0-.528,1.467s-1.025,1.053-.753,1.655.971,2.972,1.554,3.2,5.4,2.106,5.4,2.106l3.961,3.009s2.34-3.752,1.725-5.266-1.648-1.881-1.687-2.408.389-3.085.078-3.686a15.608,15.608,0,0,0-2.757-2.6c-.311-.179-.466-1.081-1.243-.743s-.7,1.2-.272,1.843,1.4,2.144,1.4,2.144Z" transform="translate(-181.407 -59.255)" fill="#ffc09d"/>
          <path id="Trazado_873905" data-name="Trazado 873905" d="M329.312,132.773s1.5,3.257,2.261,3.574l.863-.681s-2.024-3.139-2.24-3.572Z" transform="translate(-174.939 -70.172)" fill="#fff"/>
        </g>
      </g>
      <g id="Grupo_1099865" data-name="Grupo 1099865" transform="translate(895.051 2065.204)">
        <rect id="Rectángulo_401318" data-name="Rectángulo 401318" width="0.723" height="0.723" transform="translate(17.595 21.664)" fill="#fbc749"/>
        <rect id="Rectángulo_401319" data-name="Rectángulo 401319" width="3.778" height="0.723" transform="translate(23.204 17.595)" fill="#75b4e2"/>
        <path id="Trazado_873291" data-name="Trazado 873291" d="M168.363,90.72h1.318v15.333h6.11v1.014h2.25V105.33h-.874v-1.318h.874v-.723h-1.527V99.943h9.456v3.346h-1.527v.723h.875v1.318h-.875v4.792h.875v1.318h-.875v.723h1.527v3.346h-9.456v-3.346h1.527v-.723h-.874v-1.318h.874v-1.737h-2.25V109.4h-6.11v8.862H192.8V87H169.016a3.414,3.414,0,0,0-3.416,3.416v15.636h2.763Zm6.1-.956h13.526V95.15H174.462Z" transform="translate(-156.144 -85.694)" fill="#fdb641"/>
        <path id="Trazado_873292" data-name="Trazado 873292" d="M194.639,135.038H169.546A3.415,3.415,0,0,0,166.2,137.8h5.387v1.318H166.2a3.415,3.415,0,0,0,3.346,2.763h23.775v-5.014h1.318v5.014h.723V104.5h-.723Z" transform="translate(-156.674 -101.154)" fill="#fff"/>
        <rect id="Rectángulo_401320" data-name="Rectángulo 401320" width="3.778" height="4.792" transform="translate(23.204 19.636)" fill="#75b4e2"/>
        <rect id="Rectángulo_401321" data-name="Rectángulo 401321" width="10.902" height="2.763" transform="translate(19.636 5.375)" fill="#d2f5f4"/>
        <rect id="Rectángulo_401322" data-name="Rectángulo 401322" width="14.972" height="0.723" transform="translate(1.318 21.664)" fill="#75b4e2"/>
        <path id="Trazado_873293" data-name="Trazado 873293" d="M168.363,279.1H165.6v10.331a4.753,4.753,0,0,1,2.763-1.411Z" transform="translate(-156.144 -255.395)" fill="#dfbba0"/>
        <rect id="Rectángulo_401323" data-name="Rectángulo 401323" width="6.833" height="0.723" transform="translate(21.676 15.555)" fill="#fbc749"/>
        <rect id="Rectángulo_401324" data-name="Rectángulo 401324" width="3.778" height="0.723" transform="translate(23.204 25.745)" fill="#75b4e2"/>
        <path id="Trazado_873294" data-name="Trazado 873294" d="M270.4,314v.723h6.821V314H270.4Z" transform="translate(-248.724 -286.226)" fill="#fbc749"/>
        <path id="Trazado_873295" data-name="Trazado 873295" d="M255.226,110.7H241.7v5.387h13.526Zm-1.318,4.069h-10.9v-2.763h10.9Z" transform="translate(-223.37 -106.631)" fill="#17171d"/>
        <path id="Trazado_873296" data-name="Trazado 873296" d="M122.465,75.8H97.373a4.737,4.737,0,0,0-4.734,4.734V96.17H84.5v3.346h8.139v13.6h0a4.737,4.737,0,0,0,4.734,4.734h27.121V77.852h-2.041V75.8ZM93.956,80.522a3.414,3.414,0,0,1,3.416-3.416h23.775v31.261H98.026V99.5h6.11V98.491h2.25v1.737h-.874v1.318h.874v.723h-1.527v3.346h9.456v-3.346h-1.527v-.723h.875v-1.318h-.875V95.436h.875V94.118h-.875V93.4h1.527V90.049h-9.456V93.4h1.527v.723h-.874v1.318h.874v1.737h-2.25V96.159h-6.11V80.826H96.708V96.159H93.945V80.522ZM102.1,98.187v-.723h.723v.723Zm5.609-4.069V93.4h3.778v.723Zm3.766,1.318v4.792h-3.778V95.436Zm-5.294-3.358v-.723h6.833v.723Zm1.527,9.468h3.778v.723H107.7Zm5.084,2.029H113v.723h-6.833v-.723h6.623Zm-26.97-5.387v-.723h14.972v.723ZM93.956,99.5H96.72v8.908a4.788,4.788,0,0,0-2.763,1.411Zm29.22-20.359v37.371h-.723V111.5h-1.318v5.014H97.373a3.415,3.415,0,0,1-3.346-2.763h5.387v-1.318H94.026a3.415,3.415,0,0,1,3.346-2.763h25.093V79.146Z" transform="translate(-84.5 -75.8)" fill="#17171d"/>
      </g>
    </g>
    <path id="Trazado_872998" data-name="Trazado 872998" d="M38.119,0A43.984,43.984,0,0,0,82.053,43.934V82.053A82.146,82.146,0,0,1,0,0Z" transform="translate(863.526 2118.665) rotate(180)" fill="#fdb641"/>
    <path id="Trazado_872999" data-name="Trazado 872999" d="M98.992,64.471a34.52,34.52,0,0,0-69.041,0H0a64.472,64.472,0,0,1,128.943,0Z" transform="translate(874.522 2089.471) rotate(180)" fill="#201144"/>
  </g>
</svg>
