<svg xmlns="http://www.w3.org/2000/svg" xmlns:xlink="http://www.w3.org/1999/xlink" width="135" height="119" viewBox="0 0 135 119">
  <defs>
    <clipPath id="clip-path">
      <rect id="Rect치ngulo_401472" data-name="Rect치ngulo 401472" width="94.05" height="92.731" fill="#116562"/>
    </clipPath>
  </defs>
  <g id="Grupo_1099929" data-name="Grupo 1099929" transform="translate(-852.051 -3687)">
    <g id="Grupo_1099926" data-name="Grupo 1099926" transform="translate(860.769 3702.098)">
      <g id="Grupo_1099925" data-name="Grupo 1099925" transform="translate(0 0)" clip-path="url(#clip-path)">
        <path id="Trazado_874162" data-name="Trazado 874162" d="M32.811,42.808a3.132,3.132,0,0,0,3.134-3.134,3.035,3.035,0,0,0-3.134-3.135,3.135,3.135,0,0,0-3.137,3.135,3.246,3.246,0,0,0,3.137,3.134" transform="translate(18.834 23.192)" fill="#116562"/>
        <path id="Trazado_874163" data-name="Trazado 874163" d="M23.417,20.8a3.134,3.134,0,0,0,3.135,3.135A3.135,3.135,0,1,0,23.417,20.8" transform="translate(14.863 11.212)" fill="#116562"/>
        <path id="Trazado_874164" data-name="Trazado 874164" d="M22.313,50.811a3.138,3.138,0,0,0,2.145-.826L50.694,23.75a3.3,3.3,0,0,0,0-4.453,2.728,2.728,0,0,0-2.146-.826A3.141,3.141,0,0,0,46.4,19.3L20,45.531a2.731,2.731,0,0,0-.826,2.145A3.139,3.139,0,0,0,20,49.822a3.261,3.261,0,0,0,2.31.989" transform="translate(12.172 11.725)" fill="#116562"/>
        <path id="Trazado_874165" data-name="Trazado 874165" d="M92.446,45.376a1.064,1.064,0,0,0-.989.989,44.522,44.522,0,0,1-43.4,44.384V78.87a32.527,32.527,0,0,0,0-65.011V.991A1.065,1.065,0,0,0,47.071,0,46.2,46.2,0,0,0,.706,46.365a1.065,1.065,0,0,0,.991.991,1.065,1.065,0,0,0,.991-.991,44.52,44.52,0,0,1,43.4-44.384V13.859a32.341,32.341,0,0,0-31.35,32.506,32.672,32.672,0,0,0,31.35,32.5V91.74a1.062,1.062,0,0,0,.989.989A46.194,46.194,0,0,0,93.437,46.365a.95.95,0,0,0-.991-.989M46.082,32.011A5.116,5.116,0,1,1,40.967,26.9a5.037,5.037,0,0,1,5.115,5.115M30.242,55.77,56.476,29.534a5.183,5.183,0,0,1,7.261,0,5.182,5.182,0,0,1,0,7.261l-26.07,26.4a5.181,5.181,0,0,1-7.26,0,5.232,5.232,0,0,1-.165-7.425M51.2,57.749a5.116,5.116,0,1,1-5.115,5.117A5.141,5.141,0,0,1,51.2,57.749" transform="translate(0.448 0.001)" fill="#116562"/>
        <path id="Trazado_874166" data-name="Trazado 874166" d="M4.669,37.145A2.145,2.145,0,1,1,2.524,39.29a2.144,2.144,0,0,1,2.145-2.145" transform="translate(1.602 23.577)" fill="#116562"/>
        <path id="Trazado_874167" data-name="Trazado 874167" d="M19.809,52.284a2.146,2.146,0,1,1-2.145,2.145,2.145,2.145,0,0,1,2.145-2.145" transform="translate(11.212 33.186)" fill="#116562"/>
        <path id="Trazado_874168" data-name="Trazado 874168" d="M53.925,19.481a2.146,2.146,0,1,1-2.145,2.145,2.144,2.144,0,0,1,2.145-2.145" transform="translate(32.865 12.365)" fill="#116562"/>
        <path id="Trazado_874169" data-name="Trazado 874169" d="M48.878.607A2.145,2.145,0,1,1,46.733,2.75,2.144,2.144,0,0,1,48.878.607" transform="translate(29.662 0.386)" fill="#116562"/>
        <path id="Trazado_874170" data-name="Trazado 874170" d="M38.785,3.13A2.145,2.145,0,1,1,36.64,5.275,2.144,2.144,0,0,1,38.785,3.13" transform="translate(23.256 1.987)" fill="#116562"/>
        <path id="Trazado_874171" data-name="Trazado 874171" d="M9.715.607A2.145,2.145,0,1,1,7.57,2.75,2.144,2.144,0,0,1,9.715.607" transform="translate(4.805 0.386)" fill="#116562"/>
        <path id="Trazado_874172" data-name="Trazado 874172" d="M2.146,8.176A2.146,2.146,0,1,1,0,10.321,2.146,2.146,0,0,1,2.146,8.176" transform="translate(0 5.19)" fill="#116562"/>
        <path id="Trazado_874173" data-name="Trazado 874173" d="M56.448,49.762A2.145,2.145,0,1,1,54.3,51.907a2.144,2.144,0,0,1,2.145-2.145" transform="translate(34.467 31.585)" fill="#116562"/>
        <path id="Trazado_874174" data-name="Trazado 874174" d="M10.868,46.632a5.116,5.116,0,1,0,5.115,5.117,5.141,5.141,0,0,0-5.115-5.117" transform="translate(3.651 29.598)" fill="#116562"/>
        <path id="Trazado_874175" data-name="Trazado 874175" d="M56.133,20.01a6.27,6.27,0,1,0-6.271-6.271,6.267,6.267,0,0,0,6.271,6.271" transform="translate(31.648 4.742)" fill="#116562"/>
      </g>
    </g>
    <rect id="Rect치ngulo_401475" data-name="Rect치ngulo 401475" width="135" height="119" transform="translate(852.051 3687)" fill="none"/>
  </g>
</svg>
