<svg id="Grupo_1099995" data-name="Grupo 1099995" xmlns="http://www.w3.org/2000/svg" xmlns:xlink="http://www.w3.org/1999/xlink" width="255.748" height="156.46" viewBox="0 0 255.748 156.46">
  <defs>
    <clipPath id="clip-path">
      <rect id="Rectángulo_401521" data-name="Rectángulo 401521" width="255.748" height="156.46" fill="none"/>
    </clipPath>
    <clipPath id="clip-path-4">
      <rect id="Rectángulo_401512" data-name="Rectángulo 401512" width="40.876" height="43.984" fill="none"/>
    </clipPath>
    <clipPath id="clip-path-5">
      <rect id="Rectángulo_401513" data-name="Rectángulo 401513" width="27.654" height="51.872" fill="none"/>
    </clipPath>
    <clipPath id="clip-path-6">
      <rect id="Rectángulo_401514" data-name="Rectángulo 401514" width="41.271" height="67.35" fill="none"/>
    </clipPath>
    <clipPath id="clip-path-7">
      <rect id="Rectángulo_401515" data-name="Rectángulo 401515" width="28.864" height="64.172" fill="none"/>
    </clipPath>
    <clipPath id="clip-path-8">
      <rect id="Rectángulo_401516" data-name="Rectángulo 401516" width="29.362" height="30.277" fill="none"/>
    </clipPath>
    <clipPath id="clip-path-9">
      <rect id="Rectángulo_401517" data-name="Rectángulo 401517" width="18.584" height="30.563" fill="none"/>
    </clipPath>
    <clipPath id="clip-path-10">
      <rect id="Rectángulo_401518" data-name="Rectángulo 401518" width="31.054" height="39.157" fill="none"/>
    </clipPath>
    <clipPath id="clip-path-11">
      <rect id="Rectángulo_401519" data-name="Rectángulo 401519" width="30.159" height="36.305" fill="none"/>
    </clipPath>
  </defs>
  <g id="Grupo_1099994" data-name="Grupo 1099994" clip-path="url(#clip-path)">
    <g id="Grupo_1099967" data-name="Grupo 1099967">
      <g id="Grupo_1099966" data-name="Grupo 1099966" clip-path="url(#clip-path)">
        <path id="Trazado_874306" data-name="Trazado 874306" d="M212.643,33.17V142.782a8.3,8.3,0,0,1-8.3,8.3H8.8a8.3,8.3,0,0,1-8.3-8.3V33.17a8.3,8.3,0,0,1,8.3-8.3H204.341a8.3,8.3,0,0,1,8.3,8.3" transform="translate(-0.036 -1.804)" fill="#fff"/>
        <path id="Trazado_874307" data-name="Trazado 874307" d="M212.643,33.17v3.287H.5V33.17a8.3,8.3,0,0,1,8.3-8.3H204.341a8.3,8.3,0,0,1,8.3,8.3" transform="translate(-0.036 -1.804)" fill="#22cac5"/>
        <rect id="Rectángulo_401499" data-name="Rectángulo 401499" width="212.143" height="126.216" rx="8.951" transform="translate(0.463 23.065)" fill="none" stroke="#263238" stroke-linecap="round" stroke-linejoin="round" stroke-width="1"/>
        <path id="Trazado_874308" data-name="Trazado 874308" d="M212.643,33.17v3.287H.5V33.17a8.3,8.3,0,0,1,8.3-8.3H204.341A8.3,8.3,0,0,1,212.643,33.17Z" transform="translate(-0.036 -1.804)" fill="none" stroke="#263238" stroke-linecap="round" stroke-linejoin="round" stroke-width="1"/>
        <path id="Trazado_874309" data-name="Trazado 874309" d="M25.856,30.95a2.119,2.119,0,1,1-2.119-2.119,2.119,2.119,0,0,1,2.119,2.119" transform="translate(-1.568 -2.091)" fill="#263238"/>
        <path id="Trazado_874310" data-name="Trazado 874310" d="M37.807,30.95a2.119,2.119,0,1,1-2.119-2.119,2.119,2.119,0,0,1,2.119,2.119" transform="translate(-2.435 -2.091)" fill="#263238"/>
        <path id="Trazado_874311" data-name="Trazado 874311" d="M49.758,30.95a2.119,2.119,0,1,1-2.119-2.119,2.119,2.119,0,0,1,2.119,2.119" transform="translate(-3.301 -2.091)" fill="#263238"/>
        <path id="Rectángulo_401500" data-name="Rectángulo 401500" d="M3.69,0H63.132a3.69,3.69,0,0,1,3.69,3.69V32.007A3.691,3.691,0,0,1,63.131,35.7H3.69A3.69,3.69,0,0,1,0,32.008V3.69A3.69,3.69,0,0,1,3.69,0Z" transform="translate(13.044 43.84)" fill="none" stroke="#263238" stroke-linecap="round" stroke-linejoin="round" stroke-width="0.5"/>
        <line id="Línea_584" data-name="Línea 584" x2="57.942" transform="translate(16.974 75.05)" fill="none" stroke="#263238" stroke-linecap="round" stroke-linejoin="round" stroke-width="1"/>
        <rect id="Rectángulo_401501" data-name="Rectángulo 401501" width="6.722" height="6.722" transform="translate(21.275 68.234)" fill="#92e3a9"/>
        <rect id="Rectángulo_401502" data-name="Rectángulo 401502" width="6.722" height="6.722" transform="translate(21.275 68.234)" fill="none" stroke="#263238" stroke-miterlimit="10" stroke-width="1"/>
        <rect id="Rectángulo_401503" data-name="Rectángulo 401503" width="6.722" height="15.655" transform="translate(31.118 59.395)" fill="#b15815"/>
        <rect id="Rectángulo_401504" data-name="Rectángulo 401504" width="6.722" height="15.655" transform="translate(31.118 59.395)" fill="none" stroke="#263238" stroke-miterlimit="10" stroke-width="1"/>
        <rect id="Rectángulo_401505" data-name="Rectángulo 401505" width="6.722" height="13.12" transform="translate(42.201 62.088)" fill="#92e3a9"/>
        <rect id="Rectángulo_401506" data-name="Rectángulo 401506" width="6.722" height="13.12" transform="translate(42.201 62.088)" fill="#dfbba0" stroke="#263238" stroke-miterlimit="10" stroke-width="1"/>
        <rect id="Rectángulo_401507" data-name="Rectángulo 401507" width="6.722" height="25.738" transform="translate(53.845 49.021)" fill="#fdb641"/>
        <rect id="Rectángulo_401508" data-name="Rectángulo 401508" width="6.722" height="25.738" transform="translate(53.845 49.021)" fill="none" stroke="#263238" stroke-miterlimit="10" stroke-width="1"/>
        <rect id="Rectángulo_401509" data-name="Rectángulo 401509" width="6.722" height="25.738" transform="translate(65.489 49.218)" fill="#a6eae8"/>
        <rect id="Rectángulo_401510" data-name="Rectángulo 401510" width="6.722" height="25.738" transform="translate(65.489 49.218)" fill="none" stroke="#263238" stroke-miterlimit="10" stroke-width="1"/>
        <path id="Trazado_874312" data-name="Trazado 874312" d="M192.765,66.011a18.8,18.8,0,1,1-18.8-18.8,18.8,18.8,0,0,1,18.8,18.8" transform="translate(-11.254 -3.424)" fill="#a6eae8"/>
        <circle id="Elipse_11495" data-name="Elipse 11495" cx="18.8" cy="18.8" r="18.8" transform="translate(143.911 43.787)" fill="none" stroke="#263238" stroke-miterlimit="10" stroke-width="1"/>
        <path id="Trazado_874313" data-name="Trazado 874313" d="M176.507,78.141v1.925h-3.151V78.141a5.742,5.742,0,0,1-4.377-5.847V71.42l3.572-.385v.91c0,1.785.91,2.871,2.38,2.871a2.2,2.2,0,0,0,2.381-2.346c0-1.715-1.61-3.186-3.5-4.761-2.24-1.856-4.481-4.061-4.481-7.177,0-3.046,1.47-5.217,4.026-5.847V52.76h3.151v1.925c2.59.6,4.1,2.766,4.1,5.881V61.2l-3.571.385v-.7c0-1.89-.735-2.871-2.03-2.871s-2.03.805-2.03,2.346c0,1.715,1.645,3.151,3.5,4.761,2.206,1.891,4.482,4.061,4.482,7.177a5.71,5.71,0,0,1-4.446,5.847" transform="translate(-12.256 -3.827)" fill="#263238"/>
        <line id="Línea_585" data-name="Línea 585" x2="5.494" transform="translate(11.48 97.779)" fill="none" stroke="#263238" stroke-linecap="round" stroke-linejoin="round" stroke-width="1"/>
        <line id="Línea_586" data-name="Línea 586" x2="5.494" transform="translate(11.48 108.39)" fill="none" stroke="#263238" stroke-linecap="round" stroke-linejoin="round" stroke-width="1"/>
        <line id="Línea_587" data-name="Línea 587" x2="5.494" transform="translate(11.48 119.001)" fill="none" stroke="#263238" stroke-linecap="round" stroke-linejoin="round" stroke-width="1"/>
        <line id="Línea_588" data-name="Línea 588" x2="5.494" transform="translate(11.48 129.613)" fill="none" stroke="#263238" stroke-linecap="round" stroke-linejoin="round" stroke-width="1"/>
        <line id="Línea_589" data-name="Línea 589" y1="4.265" transform="translate(29.074 133.367)" fill="none" stroke="#263238" stroke-linecap="round" stroke-linejoin="round" stroke-width="1"/>
        <line id="Línea_590" data-name="Línea 590" y1="4.265" transform="translate(37.776 133.367)" fill="none" stroke="#263238" stroke-linecap="round" stroke-linejoin="round" stroke-width="1"/>
        <line id="Línea_591" data-name="Línea 591" y1="4.265" transform="translate(46.478 133.367)" fill="none" stroke="#263238" stroke-linecap="round" stroke-linejoin="round" stroke-width="1"/>
        <line id="Línea_592" data-name="Línea 592" y1="4.265" transform="translate(55.18 133.367)" fill="none" stroke="#263238" stroke-linecap="round" stroke-linejoin="round" stroke-width="1"/>
        <line id="Línea_593" data-name="Línea 593" y1="4.265" transform="translate(63.882 133.367)" fill="none" stroke="#263238" stroke-linecap="round" stroke-linejoin="round" stroke-width="1"/>
        <line id="Línea_594" data-name="Línea 594" y1="4.265" transform="translate(72.584 133.367)" fill="none" stroke="#263238" stroke-linecap="round" stroke-linejoin="round" stroke-width="1"/>
        <line id="Línea_595" data-name="Línea 595" y1="4.265" transform="translate(81.286 133.367)" fill="none" stroke="#263238" stroke-linecap="round" stroke-linejoin="round" stroke-width="1"/>
        <line id="Línea_596" data-name="Línea 596" y1="4.265" transform="translate(89.988 133.367)" fill="none" stroke="#263238" stroke-linecap="round" stroke-linejoin="round" stroke-width="1"/>
        <line id="Línea_597" data-name="Línea 597" y1="4.265" transform="translate(98.69 133.367)" fill="none" stroke="#263238" stroke-linecap="round" stroke-linejoin="round" stroke-width="1"/>
        <line id="Línea_598" data-name="Línea 598" y1="4.265" transform="translate(107.392 133.367)" fill="none" stroke="#263238" stroke-linecap="round" stroke-linejoin="round" stroke-width="1"/>
        <line id="Línea_599" data-name="Línea 599" y1="4.265" transform="translate(116.094 133.367)" fill="none" stroke="#263238" stroke-linecap="round" stroke-linejoin="round" stroke-width="1"/>
        <line id="Línea_600" data-name="Línea 600" y1="4.265" transform="translate(124.796 133.367)" fill="none" stroke="#263238" stroke-linecap="round" stroke-linejoin="round" stroke-width="1"/>
        <line id="Línea_601" data-name="Línea 601" y1="4.265" transform="translate(133.498 133.367)" fill="none" stroke="#263238" stroke-linecap="round" stroke-linejoin="round" stroke-width="1"/>
        <line id="Línea_602" data-name="Línea 602" y1="4.265" transform="translate(142.2 133.367)" fill="none" stroke="#263238" stroke-linecap="round" stroke-linejoin="round" stroke-width="1"/>
        <line id="Línea_603" data-name="Línea 603" y1="4.265" transform="translate(150.902 133.367)" fill="none" stroke="#263238" stroke-linecap="round" stroke-linejoin="round" stroke-width="1"/>
        <line id="Línea_604" data-name="Línea 604" y1="4.265" transform="translate(159.275 133.367)" fill="none" stroke="#263238" stroke-linecap="round" stroke-linejoin="round" stroke-width="1"/>
        <line id="Línea_605" data-name="Línea 605" y1="4.265" transform="translate(167.647 133.367)" fill="none" stroke="#263238" stroke-linecap="round" stroke-linejoin="round" stroke-width="1"/>
        <line id="Línea_606" data-name="Línea 606" y1="4.265" transform="translate(176.019 133.367)" fill="none" stroke="#263238" stroke-linecap="round" stroke-linejoin="round" stroke-width="1"/>
        <path id="Trazado_874314" data-name="Trazado 874314" d="M199.065,98.02v41.239c0,2.824-2.875,5.112-6.424,5.112H18.8a6.854,6.854,0,0,1-5.537-2.521,4.336,4.336,0,0,1-.887-2.591V98.02c0-2.824,2.874-5.111,6.424-5.111H192.641C196.19,92.909,199.065,95.2,199.065,98.02Z" transform="translate(-0.898 -6.739)" fill="none" stroke="#92e3a9" stroke-linecap="round" stroke-linejoin="round" stroke-width="1"/>
        <path id="Trazado_874315" data-name="Trazado 874315" d="M146.213,12.064,90.721,86.814,69.5,115.4,46.318,100.638,17.955,138.276h-.411a5.1,5.1,0,0,1-4.405-2.52l31.874-42.3L68.175,108.2,84.046,86.814l57.86-77.94Z" transform="translate(-0.953 -0.644)" fill="#263238"/>
        <path id="Trazado_874316" data-name="Trazado 874316" d="M141.437,12.369,161.839,0,156.2,21.387,152.6,11.494Z" transform="translate(-10.258 0)" fill="#263238"/>
      </g>
    </g>
    <g id="Grupo_1099993" data-name="Grupo 1099993">
      <g id="Grupo_1099992" data-name="Grupo 1099992" clip-path="url(#clip-path)">
        <path id="Trazado_874317" data-name="Trazado 874317" d="M245.349,129.252a33.678,33.678,0,0,1-26.091,32.8c-.037.012-.061.012-.1.025-.884.2-1.768.368-2.676.5a34.56,34.56,0,0,1-4.81.344,33.674,33.674,0,0,1-1.24-67.326c.307-.025.626-.025.945-.025a2.406,2.406,0,0,1,.295-.012,3.273,3.273,0,0,1,.343.012,33.149,33.149,0,0,1,13.192,2.835,33.676,33.676,0,0,1,20.139,30.84" transform="translate(-12.909 -6.931)" fill="#22cac5"/>
        <g id="Grupo_1099970" data-name="Grupo 1099970" transform="translate(171.425 88.646)" opacity="0.4">
          <g id="Grupo_1099969" data-name="Grupo 1099969">
            <g id="Grupo_1099968" data-name="Grupo 1099968" clip-path="url(#clip-path-4)">
              <path id="Trazado_874318" data-name="Trazado 874318" d="M225.707,98.412c-38.891-2.025-39.075,41.149-39.075,41.149s-5.939-14.088,3.755-29.7c5.413-8.726,14.85-12.579,22.128-14.286a33.156,33.156,0,0,1,13.192,2.835" transform="translate(-184.831 -95.578)" fill="#fff"/>
            </g>
          </g>
        </g>
        <path id="Trazado_874319" data-name="Trazado 874319" d="M245.349,129.253A33.681,33.681,0,1,1,210.435,95.6c.405-.025.823-.037,1.24-.037A33.685,33.685,0,0,1,245.349,129.253Z" transform="translate(-12.909 -6.931)" fill="none" stroke="#263238" stroke-linecap="round" stroke-linejoin="round" stroke-width="1"/>
        <path id="Trazado_874320" data-name="Trazado 874320" d="M245.839,129.253a33.679,33.679,0,0,1-26.189,32.829c-.405.024-.823.036-1.24.036A33.679,33.679,0,0,1,210.924,95.6c.405-.025.823-.037,1.24-.037A33.685,33.685,0,0,1,245.839,129.253Z" transform="translate(-13.399 -6.931)" fill="none" stroke="#263238" stroke-linecap="round" stroke-linejoin="round" stroke-width="1"/>
        <path id="Trazado_874321" data-name="Trazado 874321" d="M225.123,150.945,226,154.5l-5.821,1.427-.873-3.557c-5.217-.022-9.4-3.385-10.734-8.817l-.4-1.617,6.421-2.33.413,1.681c.809,3.3,2.982,4.891,5.7,4.225a4.181,4.181,0,0,0,3.335-5.413c-.777-3.167-4.418-5.155-8.625-7.208-4.98-2.412-10.117-5.472-11.529-11.227-1.379-5.627.352-10.3,4.789-12.625l-.873-3.557,5.82-1.427.873,3.557c5.055-.075,8.819,3.254,10.231,9.009l.286,1.164-6.422,2.329-.317-1.293c-.857-3.493-2.66-4.97-5.052-4.383s-3.386,2.407-2.688,5.253c.776,3.168,4.467,5.074,8.624,7.208,4.932,2.495,10.119,5.474,11.531,11.229C232.035,143.627,229.817,148.559,225.123,150.945Z" transform="translate(-14.754 -7.547)" fill="none" stroke="#263238" stroke-miterlimit="10" stroke-width="1"/>
        <g id="Grupo_1099973" data-name="Grupo 1099973" transform="translate(188.669 96.51)" opacity="0.3">
          <g id="Grupo_1099972" data-name="Grupo 1099972">
            <g id="Grupo_1099971" data-name="Grupo 1099971" clip-path="url(#clip-path-5)">
              <path id="Trazado_874322" data-name="Trazado 874322" d="M225.123,150.945,226,154.5l-5.821,1.427-.873-3.557c-5.217-.022-9.4-3.385-10.734-8.817l-.4-1.617,6.421-2.33.413,1.681c.809,3.3,2.982,4.891,5.7,4.225a4.181,4.181,0,0,0,3.335-5.413c-.777-3.167-4.418-5.155-8.625-7.208-4.98-2.412-10.117-5.472-11.529-11.227-1.379-5.627.352-10.3,4.789-12.625l-.873-3.557,5.82-1.427.873,3.557c5.055-.075,8.819,3.254,10.231,9.009l.286,1.164-6.422,2.329-.317-1.293c-.857-3.493-2.66-4.97-5.052-4.383s-3.386,2.407-2.688,5.253c.776,3.168,4.467,5.074,8.624,7.208,4.932,2.495,10.119,5.474,11.531,11.229,1.348,5.5-.871,10.428-5.565,12.815" transform="translate(-203.423 -104.057)"/>
            </g>
          </g>
        </g>
        <line id="Línea_607" data-name="Línea 607" y1="0.326" x2="7.115" transform="translate(181.554 150.944)" fill="none" stroke="#263238" stroke-linecap="round" stroke-linejoin="round" stroke-width="1"/>
        <line id="Línea_608" data-name="Línea 608" y1="0.527" x2="6.209" transform="translate(178.13 148.382)" fill="none" stroke="#263238" stroke-linecap="round" stroke-linejoin="round" stroke-width="1"/>
        <line id="Línea_609" data-name="Línea 609" y1="0.527" x2="6.209" transform="translate(175.344 145.884)" fill="none" stroke="#263238" stroke-linecap="round" stroke-linejoin="round" stroke-width="1"/>
        <line id="Línea_610" data-name="Línea 610" x2="5.316" transform="translate(174.496 98.962)" fill="none" stroke="#263238" stroke-linecap="round" stroke-linejoin="round" stroke-width="1"/>
        <line id="Línea_611" data-name="Línea 611" y1="0.24" x2="5.293" transform="translate(177.121 96.27)" fill="none" stroke="#263238" stroke-linecap="round" stroke-linejoin="round" stroke-width="1"/>
        <line id="Línea_612" data-name="Línea 612" y1="0.527" x2="5.586" transform="translate(180.435 93.531)" fill="none" stroke="#263238" stroke-linecap="round" stroke-linejoin="round" stroke-width="1"/>
        <g id="Grupo_1099976" data-name="Grupo 1099976" transform="translate(165.078 88.646)" opacity="0.3">
          <g id="Grupo_1099975" data-name="Grupo 1099975">
            <g id="Grupo_1099974" data-name="Grupo 1099974" clip-path="url(#clip-path-6)">
              <path id="Trazado_874323" data-name="Trazado 874323" d="M219.258,162.057c-.037.012-.061.012-.1.025A33.674,33.674,0,1,1,210.435,95.6c.307-.025.626-.025.945-.025-8.21,2.589-21.98,9.2-25.661,23-5.228,19.586,6.528,41.836,33.54,43.481" transform="translate(-177.987 -95.578)"/>
            </g>
          </g>
        </g>
        <g id="Grupo_1099979" data-name="Grupo 1099979" transform="translate(203.576 91.48)" opacity="0.1">
          <g id="Grupo_1099978" data-name="Grupo 1099978">
            <g id="Grupo_1099977" data-name="Grupo 1099977" clip-path="url(#clip-path-7)">
              <path id="Trazado_874324" data-name="Trazado 874324" d="M248.36,129.474a33.678,33.678,0,0,1-26.091,32.8c-.037.012-.061.012-.1.025-.884.2-1.768.368-2.676.5l8.726-64.172a33.676,33.676,0,0,1,20.139,30.84" transform="translate(-219.496 -98.634)"/>
            </g>
          </g>
        </g>
        <path id="Trazado_874325" data-name="Trazado 874325" d="M268.326,72.212a20.368,20.368,0,0,1-24.4,7.081c-.037-.012-.086-.037-.123-.049a20.913,20.913,0,0,1-1.9-.92A19.38,19.38,0,0,1,239.94,77.1a20.364,20.364,0,0,1,22.434-33.97c.16.086.307.185.454.283.209.122.417.27.626.416q.479.332.92.7a20.359,20.359,0,0,1,3.952,27.686" transform="translate(-16.778 -2.908)" fill="#22cac5"/>
        <g id="Grupo_1099982" data-name="Grupo 1099982" transform="translate(218.235 39.305)" opacity="0.4">
          <g id="Grupo_1099981" data-name="Grupo 1099981">
            <g id="Grupo_1099980" data-name="Grupo 1099980" clip-path="url(#clip-path-8)">
              <path id="Trazado_874326" data-name="Trazado 874326" d="M237.88,72.655s-3.335-9.8,1.094-17.017c5.558-9.051,14.086-13.172,25.688-10.946,0,0-6.292-4.246-16.817-1.234s-16.172,17.5-9.966,29.2" transform="translate(-235.301 -42.379)" fill="#fff"/>
            </g>
          </g>
        </g>
        <path id="Trazado_874327" data-name="Trazado 874327" d="M268.323,72.217a20.372,20.372,0,1,1-5.5-28.81c.209.129.418.269.625.415A20.375,20.375,0,0,1,268.323,72.217Z" transform="translate(-16.777 -2.907)" fill="none" stroke="#263238" stroke-linecap="round" stroke-linejoin="round" stroke-width="1"/>
        <path id="Trazado_874328" data-name="Trazado 874328" d="M268.587,72.357a20.371,20.371,0,0,1-24.4,7.073c-.209-.13-.419-.269-.625-.415a20.371,20.371,0,0,1,19.523-35.468c.209.129.418.269.625.415A20.375,20.375,0,0,1,268.587,72.357Z" transform="translate(-17.041 -3.047)" fill="none" stroke="#263238" stroke-linecap="round" stroke-linejoin="round" stroke-width="1"/>
        <path id="Trazado_874329" data-name="Trazado 874329" d="M251.048,75.418l-.811,2.062-3.374-1.327.812-2.062a6.605,6.605,0,0,1-2.224-8.1l.369-.937,3.985,1.091-.383.975c-.752,1.912-.235,3.457,1.34,4.076a2.528,2.528,0,0,0,3.536-1.509c.722-1.836-.383-4.089-1.744-6.571-1.618-2.931-3.088-6.235-1.776-9.571,1.284-3.261,3.771-4.967,6.773-4.564l.811-2.062,3.373,1.326-.811,2.062c2.523,1.728,3.22,4.686,1.909,8.022l-.265.674-3.985-1.092.295-.749c.8-2.024.421-3.383-.965-3.928s-2.513.006-3.162,1.656c-.723,1.835.435,4.065,1.744,6.571,1.565,2.953,3.088,6.235,1.775,9.571A6.57,6.57,0,0,1,251.048,75.418Z" transform="translate(-17.763 -3.403)" fill="none" stroke="#263238" stroke-miterlimit="10" stroke-width="1"/>
        <g id="Grupo_1099985" data-name="Grupo 1099985" transform="translate(227.137 43.514)" opacity="0.3">
          <g id="Grupo_1099984" data-name="Grupo 1099984">
            <g id="Grupo_1099983" data-name="Grupo 1099983" clip-path="url(#clip-path-9)">
              <path id="Trazado_874330" data-name="Trazado 874330" d="M251.048,75.418l-.811,2.062-3.374-1.327.812-2.062a6.605,6.605,0,0,1-2.224-8.1l.369-.937,3.985,1.091-.383.975c-.752,1.912-.235,3.457,1.34,4.076a2.528,2.528,0,0,0,3.536-1.509c.722-1.836-.383-4.089-1.744-6.571-1.618-2.931-3.088-6.235-1.776-9.571,1.284-3.261,3.771-4.967,6.773-4.564l.811-2.062,3.373,1.326-.811,2.062c2.523,1.728,3.22,4.686,1.909,8.022l-.265.674-3.985-1.092.295-.749c.8-2.024.421-3.383-.965-3.928s-2.513.006-3.162,1.656c-.723,1.835.435,4.065,1.744,6.571,1.565,2.953,3.088,6.235,1.775,9.571a6.57,6.57,0,0,1-7.222,4.387" transform="translate(-244.9 -46.917)"/>
            </g>
          </g>
        </g>
        <g id="Grupo_1099988" data-name="Grupo 1099988" transform="translate(214.542 37.179)" opacity="0.3">
          <g id="Grupo_1099987" data-name="Grupo 1099987">
            <g id="Grupo_1099986" data-name="Grupo 1099986" clip-path="url(#clip-path-10)">
              <path id="Trazado_874331" data-name="Trazado 874331" d="M262.374,43.126c-5.6-.994-12.615-1.546-16.42.9-6.983,4.48-11.327,10.124-11.266,19.279S243.3,78.876,243.3,78.876l.5.368a20.367,20.367,0,1,1,18.568-36.118" transform="translate(-231.32 -40.087)"/>
            </g>
          </g>
        </g>
        <g id="Grupo_1099991" data-name="Grupo 1099991" transform="translate(225.126 41.618)" opacity="0.1">
          <g id="Grupo_1099990" data-name="Grupo 1099990">
            <g id="Grupo_1099989" data-name="Grupo 1099989" clip-path="url(#clip-path-11)">
              <path id="Trazado_874332" data-name="Trazado 874332" d="M269.154,72.559a20.368,20.368,0,0,1-24.4,7.081c-.037-.012-.086-.037-.123-.049a20.914,20.914,0,0,1-1.9-.92l22.471-33.8a20.359,20.359,0,0,1,3.952,27.686" transform="translate(-242.731 -44.873)"/>
            </g>
          </g>
        </g>
      </g>
    </g>
  </g>
</svg>
